<svg preserveAspectRatio="none" width="100%" height="100%" overflow="visible" style="display: block;" viewBox="0 0 14 11" fill="none" xmlns="http://www.w3.org/2000/svg">
<g id="Layer_57">
<circle id="Oval" cx="6.66932" cy="5.16667" r="3.33333" fill="var(--fill-0, #4BB4E6)"/>
<path id="Shape" fill-rule="evenodd" clip-rule="evenodd" d="M6.66932 0C9.18265 0 11.5226 1.72 13.256 4.84C13.3751 5.04627 13.3751 5.3004 13.256 5.50667C11.5226 8.62667 9.18265 10.3467 6.66932 10.3467C4.15598 10.3467 1.82265 8.62667 0.0893164 5.50667C-0.0297721 5.3004 -0.0297721 5.04627 0.0893164 4.84C1.82265 1.72 4.15598 0 6.66932 0ZM2.00265 5.16667C2.00265 7.744 4.09199 9.83333 6.66932 9.83333C9.24664 9.83333 11.336 7.744 11.336 5.16667C11.336 2.58934 9.24664 0.5 6.66932 0.5C4.09199 0.5 2.00265 2.58934 2.00265 5.16667Z" fill="var(--fill-0, #4BB4E6)"/>
</g>
</svg>
