<svg preserveAspectRatio="none" width="100%" height="100%" overflow="visible" style="display: block;" viewBox="0 0 19 27" fill="none" xmlns="http://www.w3.org/2000/svg">
<g id="Layer_125">
<path id="Shape" fill-rule="evenodd" clip-rule="evenodd" d="M14.6667 0H4C1.79086 0 0 1.79086 0 4V22.6667C0 24.8758 1.79086 26.6667 4 26.6667H14.6667C16.8758 26.6667 18.6667 24.8758 18.6667 22.6667V4C18.6667 1.79086 16.8758 0 14.6667 0ZM10.28 22.28C10.1504 22.3978 10.0016 22.4925 9.84 22.56C9.34472 22.7582 8.77894 22.6422 8.40171 22.265C8.02448 21.8877 7.90842 21.3219 8.10667 20.8267C8.17013 20.663 8.26528 20.5135 8.38667 20.3867C8.69945 20.0605 9.15616 19.9149 9.6 20L9.84 20.08C9.92497 20.1092 10.0057 20.1495 10.08 20.2C10.1498 20.2492 10.2166 20.3027 10.28 20.36C10.3978 20.4896 10.4925 20.6384 10.56 20.8C10.7688 21.2965 10.6583 21.8699 10.28 22.2533V22.28ZM8 6.66667H10.8267H10.8533C11.5897 6.66667 12.1867 6.06971 12.1867 5.33333C12.1867 4.59695 11.5897 4 10.8533 4H8C7.26362 4 6.66667 4.59695 6.66667 5.33333C6.66667 6.06971 7.26362 6.66667 8 6.66667Z" fill="var(--fill-0, #4BB4E6)"/>
</g>
</svg>
