<svg preserveAspectRatio="none" width="100%" height="100%" overflow="visible" style="display: block;" viewBox="0 0 14 14" fill="none" xmlns="http://www.w3.org/2000/svg">
<g id="Layer_61">
<path id="Path" d="M8.66667 1.33333H0.666667C0.298477 1.33333 0 1.03486 0 0.666667C0 0.298477 0.298477 0 0.666667 0H8.66667C9.03486 0 9.33333 0.298477 9.33333 0.666667C9.33333 1.03486 9.03486 1.33333 8.66667 1.33333Z" fill="var(--fill-0, #4BB4E6)"/>
<path id="Path_2" d="M7.33333 5.33333H0.666667C0.298477 5.33333 0 5.03486 0 4.66667C0 4.29848 0.298477 4 0.666667 4H7.33333C7.70152 4 8 4.29848 8 4.66667C8 5.03486 7.70152 5.33333 7.33333 5.33333Z" fill="var(--fill-0, #4BB4E6)"/>
<path id="Path_3" d="M6 9.33333H0.666667C0.298477 9.33333 0 9.03486 0 8.66667C0 8.29848 0.298477 8 0.666667 8H6C6.36819 8 6.66667 8.29848 6.66667 8.66667C6.66667 9.03486 6.36819 9.33333 6 9.33333Z" fill="var(--fill-0, #4BB4E6)"/>
<path id="Path_4" d="M4.66667 13.3333H0.666667C0.298477 13.3333 0 13.0349 0 12.6667C0 12.2985 0.298477 12 0.666667 12H4.66667C5.03486 12 5.33333 12.2985 5.33333 12.6667C5.33333 13.0349 5.03486 13.3333 4.66667 13.3333Z" fill="var(--fill-0, #4BB4E6)"/>
<path id="Path_5" d="M10.6667 12C10.2985 12 10 11.7015 10 11.3333V0.666667C10 0.298477 10.2985 0 10.6667 0C11.0349 0 11.3333 0.298477 11.3333 0.666667V11.3333C11.3333 11.7015 11.0349 12 10.6667 12Z" fill="var(--fill-0, #4BB4E6)"/>
<path id="Path_6" d="M10.6667 13.3333C10.4895 13.3344 10.3191 13.2648 10.1933 13.14L8.19333 11.14C7.93192 10.8786 7.93192 10.4547 8.19333 10.1933C8.45475 9.93192 8.87859 9.93192 9.14 10.1933L10.6667 11.7267L12.1933 10.1933C12.4547 9.93192 12.8786 9.93192 13.14 10.1933C13.4014 10.4547 13.4014 10.8786 13.14 11.14L11.14 13.14C11.0142 13.2648 10.8439 13.3344 10.6667 13.3333Z" fill="var(--fill-0, #4BB4E6)"/>
</g>
</svg>
