<svg preserveAspectRatio="none" width="100%" height="100%" overflow="visible" style="display: block;" viewBox="0 0 16 16" fill="none" xmlns="http://www.w3.org/2000/svg">
<path id="Vector" fill-rule="evenodd" clip-rule="evenodd" d="M15.707 7.293C15.8945 7.48053 15.9998 7.73484 15.9998 8C15.9998 8.26516 15.8945 8.51947 15.707 8.707L8.707 15.707C8.51947 15.8945 8.26517 15.9998 8 15.9998C7.73484 15.9998 7.48053 15.8945 7.293 15.707L0.293001 8.707C0.200002 8.61426 0.126244 8.50406 0.0759616 8.38273C0.0256795 8.2614 -0.000135141 8.13134 5.32017e-07 8V3C5.32017e-07 2.20435 0.316071 1.44129 0.87868 0.87868C1.44129 0.316071 2.20435 0 3 0H8C8.256 0 8.512 0.098 8.707 0.293L15.707 7.293ZM3 4C3.26522 4 3.51957 3.89464 3.70711 3.70711C3.89464 3.51957 4 3.26522 4 3C4 2.73478 3.89464 2.48043 3.70711 2.29289C3.51957 2.10536 3.26522 2 3 2C2.73478 2 2.48043 2.10536 2.29289 2.29289C2.10536 2.48043 2 2.73478 2 3C2 3.26522 2.10536 3.51957 2.29289 3.70711C2.48043 3.89464 2.73478 4 3 4Z" fill="var(--fill-0, #111928)"/>
</svg>
