<svg preserveAspectRatio="none" width="100%" height="100%" overflow="visible" style="display: block;" viewBox="0 0 20 20" fill="none" xmlns="http://www.w3.org/2000/svg">
<g id="Layer_73">
<circle id="Oval" cx="10" cy="10" r="1" fill="var(--fill-0, #4BB4E6)"/>
<path id="Shape" fill-rule="evenodd" clip-rule="evenodd" d="M17.93 9H19C19.5523 9 20 9.44771 20 10C20 10.5523 19.5523 11 19 11H17.93C17.4709 14.6202 14.6202 17.4709 11 17.93V19C11 19.5523 10.5523 20 10 20C9.44771 20 9 19.5523 9 19V17.93C5.37981 17.4709 2.52909 14.6202 2.07 11H1C0.447715 11 0 10.5523 0 10C0 9.44771 0.447715 9 1 9H2.07C2.52909 5.37981 5.37981 2.52909 9 2.07V1C9 0.447715 9.44771 0 10 0C10.5523 0 11 0.447715 11 1V2.07C14.6202 2.52909 17.4709 5.37981 17.93 9ZM7 10C7 11.6569 8.34315 13 10 13C10.7956 13 11.5587 12.6839 12.1213 12.1213C12.6839 11.5587 13 10.7956 13 10C13 8.34315 11.6569 7 10 7C8.34315 7 7 8.34315 7 10Z" fill="var(--fill-0, #4BB4E6)"/>
</g>
</svg>
