<svg preserveAspectRatio="none" width="100%" height="100%" overflow="visible" style="display: block;" viewBox="0 0 20 20" fill="none" xmlns="http://www.w3.org/2000/svg">
<g id="Layer_93">
<path id="Path" d="M17 3H16V1C16 0.447715 15.5523 0 15 0C14.4477 0 14 0.447715 14 1V3H6V1C6 0.447715 5.55228 0 5 0C4.44772 0 4 0.447715 4 1V3H3C1.34315 3 0 4.34315 0 6V7H20V6C20 4.34315 18.6569 3 17 3Z" fill="var(--fill-0, #4BB4E6)"/>
<path id="Path_2" d="M0 17C0 18.6569 1.34315 20 3 20H17C18.6569 20 20 18.6569 20 17V9H0V17Z" fill="var(--fill-0, #4BB4E6)"/>
</g>
</svg>
