<svg preserveAspectRatio="none" width="100%" height="100%" overflow="visible" style="display: block;" viewBox="0 0 14 14" fill="none" xmlns="http://www.w3.org/2000/svg">
<g id="Layer_48">
<path id="Shape" fill-rule="evenodd" clip-rule="evenodd" d="M6.66667 8V5.33333C6.66667 4.96514 6.96514 4.66667 7.33333 4.66667H13.3333V8.66667H7.33333C6.96514 8.66667 6.66667 8.36819 6.66667 8ZM10.6667 6.66667C10.6667 5.93029 10.0697 5.33333 9.33333 5.33333C8.59695 5.33333 8 5.93029 8 6.66667C8 7.40305 8.59695 8 9.33333 8C10.0697 8 10.6667 7.40305 10.6667 6.66667Z" fill="var(--fill-0, #4BB4E6)"/>
<path id="Path" d="M7.33333 10C6.22876 10 5.33333 9.10457 5.33333 8V5.33333C5.33333 4.22876 6.22876 3.33333 7.33333 3.33333H13.3333V2C13.3333 0.89543 12.4379 0 11.3333 0H2C0.89543 0 0 0.89543 0 2V11.3333C0 12.4379 0.89543 13.3333 2 13.3333H11.3333C12.4379 13.3333 13.3333 12.4379 13.3333 11.3333V10H7.33333Z" fill="var(--fill-0, #4BB4E6)"/>
</g>
</svg>
