<svg preserveAspectRatio="none" width="100%" height="100%" overflow="visible" style="display: block;" viewBox="0 0 20 20" fill="none" xmlns="http://www.w3.org/2000/svg">
<g id="Layer_123">
<path id="Path" d="M19.6401 5.23164L13.6401 0.231638C13.3418 -0.0168541 12.9266 -0.0701954 12.5751 0.0948185C12.2236 0.259832 11.9995 0.61337 12.0001 1.00164V3.05164C5.23279 3.57375 0.00610188 9.21422 0.000107133 16.0016V19.0016C-0.00704879 19.4938 0.345031 19.918 0.830107 20.0016C0.886303 20.012 0.943912 20.012 1.00011 20.0016C1.42114 20.0015 1.79696 19.7376 1.94011 19.3416L3.21011 15.8616C4.58696 12.0903 8.00442 9.44268 12.0001 9.05164V11.0016C11.9991 11.3922 12.2257 11.7476 12.5801 11.9116C12.7119 11.9717 12.8552 12.0024 13.0001 12.0016C13.2338 12.0021 13.4602 11.9207 13.6401 11.7716L19.6401 6.77164C19.8694 6.58166 20.0021 6.29939 20.0021 6.00164C20.0021 5.70388 19.8694 5.42162 19.6401 5.23164Z" fill="var(--fill-0, #4BB4E6)"/>
</g>
</svg>
