<svg preserveAspectRatio="none" width="100%" height="100%" overflow="visible" style="display: block;" viewBox="0 0 17 16" fill="none" xmlns="http://www.w3.org/2000/svg">
<path id="Vector" fill-rule="evenodd" clip-rule="evenodd" d="M5.17767 0C4.97992 4.22243e-05 4.78662 0.0587141 4.62221 0.168598C4.4578 0.278483 4.32966 0.434646 4.25399 0.617345C4.17832 0.800045 4.15852 1.00108 4.19708 1.19503C4.23565 1.38898 4.33086 1.56715 4.47067 1.707L5.17767 2.414V6.172C5.17761 6.43719 5.07222 6.69151 4.88467 6.879L0.884668 10.879C-1.00533 12.769 0.333668 16 3.00567 16H13.3487C16.0217 16 17.3607 12.769 15.4707 10.879L11.4707 6.879C11.2831 6.69151 11.1777 6.43719 11.1777 6.172V2.414L11.8847 1.707C12.0245 1.56715 12.1197 1.38898 12.1583 1.19503C12.1968 1.00108 12.177 0.800045 12.1013 0.617345C12.0257 0.434646 11.8975 0.278483 11.7331 0.168598C11.5687 0.0587141 11.3754 4.22243e-05 11.1777 0H5.17767ZM7.17767 6.172V2H9.17767V6.172C9.1781 6.96724 9.49426 7.72977 10.0567 8.292L11.0837 9.32C10.3645 9.15298 9.61305 9.18828 8.91267 9.422L8.44267 9.578C7.62155 9.85173 6.73379 9.85173 5.91267 9.578L5.34967 9.391C5.31203 9.3782 5.27401 9.36653 5.23567 9.356L6.29867 8.293C6.86132 7.73052 7.1775 6.96758 7.17767 6.172V6.172Z" fill="var(--fill-0, #111928)"/>
</svg>
