<svg preserveAspectRatio="none" width="100%" height="100%" overflow="visible" style="display: block;" viewBox="0 0 12 15" fill="none" xmlns="http://www.w3.org/2000/svg">
<path id="Vector" d="M2 0C1.46957 0 0.960859 0.210714 0.585786 0.585786C0.210714 0.960859 0 1.46957 0 2V13C0 13.5304 0.210714 14.0391 0.585786 14.4142C0.960859 14.7893 1.46957 15 2 15H10C10.5304 15 11.0391 14.7893 11.4142 14.4142C11.7893 14.0391 12 13.5304 12 13V2C12 1.46957 11.7893 0.960859 11.4142 0.585786C11.0391 0.210714 10.5304 0 10 0C10 0.795649 9.68393 1.55871 9.12132 2.12132C8.55871 2.68393 7.79565 3 7 3H5C4.20435 3 3.44129 2.68393 2.87868 2.12132C2.31607 1.55871 2 0.795649 2 0V0Z" fill="var(--fill-0, #111928)"/>
</svg>
