<svg preserveAspectRatio="none" width="100%" height="100%" overflow="visible" style="display: block;" viewBox="0 0 18 21" fill="none" xmlns="http://www.w3.org/2000/svg">
<g id="Layer_124">
<path id="Shape" fill-rule="evenodd" clip-rule="evenodd" d="M0 11.0512C0 6.08067 4.02944 2.05124 9 2.05124C13.9706 2.05124 18 6.08067 18 11.0512C18 16.0218 13.9706 20.0512 9 20.0512C4.02944 20.0512 0 16.0218 0 11.0512ZM11 14.057C11.2666 14.057 11.5222 13.9505 11.71 13.7612C11.8993 13.5735 12.0058 13.3179 12.0058 13.0512C12.0058 12.7846 11.8993 12.529 11.71 12.3412L10 10.6412V7.05124C10 6.49895 9.55229 6.05124 9 6.05124C8.44771 6.05124 8 6.49895 8 7.05124V11.0512C7.99846 11.317 8.10281 11.5725 8.29 11.7612L10.29 13.7612C10.4778 13.9505 10.7334 14.057 11 14.057Z" fill="var(--fill-0, #4BB4E6)"/>
<path id="Path" d="M16 4.05124C15.8034 4.05348 15.611 3.99403 15.45 3.88124L12.45 1.88124C12.1156 1.70186 11.9115 1.34865 11.9232 0.969353C11.9348 0.590053 12.1601 0.250019 12.5049 0.091472C12.8497 -0.0670748 13.2545 -0.0168126 13.55 0.221236L16.55 2.22124C16.914 2.46583 17.0762 2.91908 16.95 3.33909C16.8237 3.7591 16.4386 4.04785 16 4.05124Z" fill="var(--fill-0, #4BB4E6)"/>
<path id="Path_2" d="M2 4.05124C1.56144 4.04785 1.17627 3.7591 1.05004 3.33909C0.923804 2.91908 1.08597 2.46583 1.45 2.22124L4.45 0.221236C4.74553 -0.0168126 5.15033 -0.0670748 5.49511 0.091472C5.83988 0.250019 6.0652 0.590053 6.07683 0.969353C6.08847 1.34865 5.88441 1.70186 5.55 1.88124L2.55 3.88124C2.38896 3.99403 2.1966 4.05348 2 4.05124V4.05124Z" fill="var(--fill-0, #4BB4E6)"/>
</g>
</svg>
