<svg preserveAspectRatio="none" width="100%" height="100%" overflow="visible" style="display: block;" viewBox="0 0 16 17" fill="none" xmlns="http://www.w3.org/2000/svg">
<path id="Vector" fill-rule="evenodd" clip-rule="evenodd" d="M8 0C5.84496 1.93382 3.06127 3.01973 0.166 3.056C0.0559999 3.705 0 4.375 0 5.056C0 10.281 3.34 14.726 8 16.373C12.66 14.726 16 10.281 16 5.056C16 4.374 15.943 3.706 15.834 3.055C12.9389 3.019 10.1552 1.93346 8 0V0ZM9 12.056C9 12.3212 8.89464 12.5756 8.70711 12.7631C8.51957 12.9506 8.26522 13.056 8 13.056C7.73478 13.056 7.48043 12.9506 7.29289 12.7631C7.10536 12.5756 7 12.3212 7 12.056C7 11.7908 7.10536 11.5364 7.29289 11.3489C7.48043 11.1614 7.73478 11.056 8 11.056C8.26522 11.056 8.51957 11.1614 8.70711 11.3489C8.89464 11.5364 9 11.7908 9 12.056V12.056ZM9 5.056C9 4.79078 8.89464 4.53643 8.70711 4.34889C8.51957 4.16136 8.26522 4.056 8 4.056C7.73478 4.056 7.48043 4.16136 7.29289 4.34889C7.10536 4.53643 7 4.79078 7 5.056V8.056C7 8.32122 7.10536 8.57557 7.29289 8.76311C7.48043 8.95064 7.73478 9.056 8 9.056C8.26522 9.056 8.51957 8.95064 8.70711 8.76311C8.89464 8.57557 9 8.32122 9 8.056V5.056Z" fill="var(--fill-0, #111928)"/>
</svg>
