<svg preserveAspectRatio="none" width="100%" height="100%" overflow="visible" style="display: block;" viewBox="0 0 14 14" fill="none" xmlns="http://www.w3.org/2000/svg">
<g id="Layer_10">
<path id="Shape" fill-rule="evenodd" clip-rule="evenodd" d="M2 0H11.3333C12.4379 0 13.3333 0.89543 13.3333 2V11.3333C13.3333 12.4379 12.4379 13.3333 11.3333 13.3333H2C0.89543 13.3333 0 12.4379 0 11.3333V2C0 0.89543 0.89543 0 2 0ZM7.80667 9.80667L10.4733 7.14C10.534 7.0766 10.5816 7.00183 10.6133 6.92C10.68 6.75769 10.68 6.57564 10.6133 6.41333C10.5816 6.3315 10.534 6.25674 10.4733 6.19333L7.80667 3.52667C7.63756 3.35756 7.39108 3.29152 7.16008 3.35341C6.92908 3.41531 6.74865 3.59575 6.68675 3.82675C6.62485 4.05775 6.69089 4.30423 6.86 4.47333L8.39333 6H3.33333C2.96514 6 2.66667 6.29848 2.66667 6.66667C2.66667 7.03486 2.96514 7.33333 3.33333 7.33333H8.39333L6.86 8.86C6.73379 8.98518 6.6628 9.15557 6.6628 9.33333C6.6628 9.51109 6.73379 9.68149 6.86 9.80667C6.98518 9.93288 7.15557 10.0039 7.33333 10.0039C7.51109 10.0039 7.68149 9.93288 7.80667 9.80667Z" fill="var(--fill-0, #4BB4E6)"/>
</g>
</svg>
