<svg preserveAspectRatio="none" width="100%" height="100%" overflow="visible" style="display: block;" viewBox="0 0 13 13" fill="none" xmlns="http://www.w3.org/2000/svg">
<g id="Layer_50">
<circle id="Oval" cx="8.77824" cy="4" r="0.666667" fill="var(--fill-0, #4BB4E6)"/>
<path id="Shape" fill-rule="evenodd" clip-rule="evenodd" d="M6.66491 0H10.7782C11.8828 0 12.7782 0.89543 12.7782 2V6.11333C12.7778 6.64359 12.5668 7.15195 12.1916 7.52667L7.52491 12.1933C6.74406 12.9732 5.47909 12.9732 4.69824 12.1933L0.584907 8.08C-0.194969 7.29915 -0.194969 6.03418 0.584907 5.25333L5.25157 0.586667C5.62629 0.211487 6.13465 0.000466805 6.66491 0ZM6.77824 4C6.77824 5.10457 7.67367 6 8.77824 6C9.88281 6 10.7782 5.10457 10.7782 4C10.7782 2.89543 9.88281 2 8.77824 2C7.67367 2 6.77824 2.89543 6.77824 4Z" fill="var(--fill-0, #4BB4E6)"/>
</g>
</svg>
