<svg preserveAspectRatio="none" width="100%" height="100%" overflow="visible" style="display: block;" viewBox="0 0 21 16" fill="none" xmlns="http://www.w3.org/2000/svg">
<g id="Layer_57">
<circle id="Oval" cx="10.004" cy="7.75" r="5" fill="var(--fill-0, #4BB4E6)"/>
<path id="Shape" fill-rule="evenodd" clip-rule="evenodd" d="M10.004 0C13.774 0 17.284 2.58 19.884 7.26C20.0626 7.5694 20.0626 7.9506 19.884 8.26C17.284 12.94 13.774 15.52 10.004 15.52C6.23397 15.52 2.73397 12.94 0.133975 8.26C-0.0446582 7.9506 -0.0446582 7.5694 0.133975 7.26C2.73397 2.58 6.23397 0 10.004 0ZM3.00397 7.75C3.00397 11.616 6.13798 14.75 10.004 14.75C13.87 14.75 17.004 11.616 17.004 7.75C17.004 3.88401 13.87 0.75 10.004 0.75C6.13798 0.75 3.00397 3.88401 3.00397 7.75Z" fill="var(--fill-0, #4BB4E6)"/>
</g>
</svg>
