<svg preserveAspectRatio="none" width="100%" height="100%" overflow="visible" style="display: block;" viewBox="0 0 27 27" fill="none" xmlns="http://www.w3.org/2000/svg">
<g id="Layer_128">
<path id="Shape" fill-rule="evenodd" clip-rule="evenodd" d="M13.3333 0C5.96954 0 0 5.96954 0 13.3333C0 20.6971 5.96954 26.6667 13.3333 26.6667C20.6971 26.6667 26.6667 20.6971 26.6667 13.3333C26.6667 9.79711 25.2619 6.40573 22.7614 3.90524C20.2609 1.40476 16.8696 0 13.3333 0ZM14.28 20.9467C14.1504 21.0644 14.0016 21.1591 13.84 21.2267C13.5173 21.3693 13.1494 21.3693 12.8267 21.2267C12.6651 21.1591 12.5163 21.0644 12.3867 20.9467C12.1371 20.695 11.998 20.3544 12 20C11.998 19.6456 12.1371 19.305 12.3867 19.0533C12.7019 18.7412 13.1517 18.6062 13.5867 18.6933C13.675 18.7057 13.7606 18.7327 13.84 18.7733C13.925 18.8025 14.0057 18.8429 14.08 18.8933C14.1499 18.9426 14.2166 18.996 14.28 19.0533C14.5236 19.3088 14.6618 19.647 14.6667 20C14.6687 20.3544 14.5296 20.695 14.28 20.9467ZM13.3333 16C14.0697 16 14.6667 15.403 14.6667 14.6667V6.66667C14.6667 5.93029 14.0697 5.33333 13.3333 5.33333C12.597 5.33333 12 5.93029 12 6.66667V14.6667C12 15.403 12.597 16 13.3333 16Z" fill="var(--fill-0, #4BB4E6)"/>
</g>
</svg>
