<svg preserveAspectRatio="none" width="100%" height="100%" overflow="visible" style="display: block;" viewBox="0 0 14 14" fill="none" xmlns="http://www.w3.org/2000/svg">
<g id="Layer_110">
<path id="Shape" fill-rule="evenodd" clip-rule="evenodd" d="M1.92667 0.000309669H10.74C11.7806 -0.0183263 12.6412 0.806494 12.6667 1.84698V5.84698C12.3638 5.5473 12.0205 5.29149 11.6467 5.08698C9.90254 4.15803 7.76859 4.38436 6.25813 5.65849C4.74766 6.93263 4.16494 8.99791 4.78667 10.8736C4.91565 11.2728 5.09964 11.652 5.33333 12.0003H1.92667C0.883497 12.0189 0.0218765 11.1901 0 10.147V1.85364C0.0218765 0.810537 0.883497 -0.0182883 1.92667 0.000309669ZM3.33333 4.00031H9.33333C9.70152 4.00031 10 3.70183 10 3.33364C10 2.96545 9.70152 2.66698 9.33333 2.66698H3.33333C2.96514 2.66698 2.66667 2.96545 2.66667 3.33364C2.66667 3.70183 2.96514 4.00031 3.33333 4.00031Z" fill="var(--fill-0, #4BB4E6)"/>
<path id="Shape_2" fill-rule="evenodd" clip-rule="evenodd" d="M11.3333 5.67364C11.8541 5.95699 12.3086 6.34786 12.6667 6.82031C13.2148 7.54286 13.5078 8.42676 13.5 9.33364C13.506 11.0941 12.405 12.6683 10.7493 13.2666C9.09367 13.8648 7.24067 13.358 6.12 12.0003C5.79384 11.606 5.54504 11.1536 5.38667 10.667C4.95719 9.39544 5.1665 7.99487 5.94896 6.90445C6.73142 5.81403 7.99122 5.16727 9.33333 5.16698C10.0317 5.16778 10.7189 5.34188 11.3333 5.67364ZM9.61333 10.0003H10.6667V9.97364C11.0349 9.97364 11.3333 9.67517 11.3333 9.30698C11.3333 8.93879 11.0349 8.64031 10.6667 8.64031H9.64L9.83333 8.44698C10.0947 8.18556 10.0947 7.76172 9.83333 7.50031C9.57192 7.23889 9.14808 7.23889 8.88667 7.50031L7.55333 8.83364C7.3787 9.00791 7.31459 9.26437 7.38667 9.50031C7.38073 9.53114 7.38073 9.56282 7.38667 9.59364C7.41916 9.6731 7.4667 9.74554 7.52667 9.80698L8.86 11.1403C8.98518 11.2665 9.15558 11.3375 9.33333 11.3375C9.51109 11.3375 9.68149 11.2665 9.80667 11.1403C9.93288 11.0151 10.0039 10.8447 10.0039 10.667C10.0039 10.4892 9.93288 10.3188 9.80667 10.1936L9.61333 10.0003Z" fill="var(--fill-0, #4BB4E6)"/>
</g>
</svg>
