<svg preserveAspectRatio="none" width="100%" height="100%" overflow="visible" style="display: block;" viewBox="0 0 14 21" fill="none" xmlns="http://www.w3.org/2000/svg">
<g id="Layer_103">
<path id="Path" d="M13.8235 11.0568C13.9353 11.5642 13.6398 12.0727 13.1435 12.2268L10.9235 12.9268L10.0135 13.2168L8.92355 14.2168L7.60355 15.4368C7.41514 15.6018 7.17397 15.694 6.92355 15.6968C6.67226 15.6986 6.4295 15.6058 6.24355 15.4368L4.92355 14.2168L3.83355 13.2168L2.92355 12.9268L0.703547 12.2268C0.207344 12.0727 -0.088165 11.5642 0.0235472 11.0568L0.733547 7.85679L0.0235472 4.65679C-0.088165 4.14935 0.207344 3.6409 0.703547 3.48679L3.83355 2.48679L6.24355 0.266788C6.6271 -0.0889293 7.21999 -0.0889293 7.60355 0.266788L10.0135 2.48679L13.1435 3.48679C13.6398 3.6409 13.9353 4.14935 13.8235 4.65679L13.1135 7.85679L13.8235 11.0568Z" fill="var(--fill-0, #4BB4E6)"/>
<path id="Path_2" d="M10.9235 13.9768V19.8568C10.9226 20.2254 10.7189 20.5635 10.3935 20.7368C10.0753 20.9002 9.69393 20.8811 9.39355 20.6868L6.92355 19.0568L4.47355 20.6868C4.16716 20.8886 3.77488 20.9064 3.45147 20.7332C3.12806 20.56 2.92544 20.2236 2.92355 19.8568V13.9768L3.32355 14.1068L5.57355 16.1868C6.33922 16.8921 7.51787 16.8921 8.28355 16.1868L10.5235 14.1268L10.9235 13.9768Z" fill="var(--fill-0, #4BB4E6)"/>
</g>
</svg>
