<svg preserveAspectRatio="none" width="100%" height="100%" overflow="visible" style="display: block;" viewBox="0 0 20 20" fill="none" xmlns="http://www.w3.org/2000/svg">
<g id="Layer_126">
<path id="Shape" fill-rule="evenodd" clip-rule="evenodd" d="M0 10C0 4.47715 4.47715 0 10 0C12.6522 0 15.1957 1.05357 17.0711 2.92893C18.9464 4.8043 20 7.34784 20 10C20 15.5228 15.5228 20 10 20C4.47715 20 0 15.5228 0 10ZM13.55 11.72L15.68 9.54C15.946 9.27249 16.0388 8.87805 15.92 8.52C15.8002 8.16421 15.4913 7.90547 15.12 7.85L12.21 7.4L10.91 4.57C10.743 4.21945 10.3883 3.99722 10 4C9.59995 4.00601 9.24199 4.2499 9.09 4.62L7.78 7.4L4.87 7.85C4.49727 7.90415 4.18658 8.16313 4.06621 8.52002C3.94583 8.87691 4.0362 9.27117 4.3 9.54L6.44 11.7L5.93 14.8C5.85925 15.1848 6.01946 15.5756 6.34 15.8C6.51 15.9187 6.71268 15.9816 6.92 15.98C7.08877 15.9805 7.25457 15.9356 7.4 15.85L10 14.42L12.58 15.87C12.9138 16.0576 13.3254 16.0382 13.64 15.82C13.9605 15.5956 14.1207 15.2048 14.05 14.82L13.55 11.72Z" fill="var(--fill-0, #4BB4E6)"/>
</g>
</svg>
