<svg preserveAspectRatio="none" width="100%" height="100%" overflow="visible" style="display: block;" viewBox="0 0 22 27" fill="none" xmlns="http://www.w3.org/2000/svg">
<g id="Layer_100">
<path id="Path" d="M10.6667 18.6667C14.3486 18.6667 17.3333 15.6819 17.3333 12V6.66667C17.3333 2.98477 14.3486 0 10.6667 0C6.98477 0 4 2.98477 4 6.66667V12C4 15.6819 6.98477 18.6667 10.6667 18.6667V18.6667Z" fill="var(--fill-0, #4BB4E6)"/>
<path id="Path_2" d="M20 10.6667C19.2636 10.6667 18.6667 11.2636 18.6667 12C18.6667 16.4183 15.0849 20 10.6667 20C6.24839 20 2.66667 16.4183 2.66667 12C2.66667 11.2636 2.06971 10.6667 1.33333 10.6667C0.596954 10.6667 0 11.2636 0 12C0 17.891 4.77563 22.6667 10.6667 22.6667C16.5577 22.6667 21.3333 17.891 21.3333 12C21.3333 11.2636 20.7364 10.6667 20 10.6667Z" fill="var(--fill-0, #4BB4E6)"/>
<path id="Path_3" d="M14.6667 24H6.66667C5.93029 24 5.33333 24.597 5.33333 25.3333C5.33333 26.0697 5.93029 26.6667 6.66667 26.6667H14.6667C15.403 26.6667 16 26.0697 16 25.3333C16 24.597 15.403 24 14.6667 24Z" fill="var(--fill-0, #4BB4E6)"/>
</g>
</svg>
