<svg preserveAspectRatio="none" width="100%" height="100%" overflow="visible" style="display: block;" viewBox="0 0 21 21" fill="none" xmlns="http://www.w3.org/2000/svg">
<g id="Layer_110">
<path id="Shape" fill-rule="evenodd" clip-rule="evenodd" d="M2.89 0.000464504H16.11C17.6709 -0.0274894 18.9618 1.20974 19 2.77046V8.77046C18.5457 8.32095 18.0307 7.93723 17.47 7.63046C14.8538 6.23704 11.6529 6.57654 9.38719 8.48774C7.12149 10.3989 6.24741 13.4969 7.18 16.3105C7.37347 16.9092 7.64946 17.478 8 18.0005H2.89C1.32524 18.0284 0.0328148 16.7851 0 15.2205V2.78046C0.0328148 1.2158 1.32524 -0.0274325 2.89 0.000464504ZM5 6.00046H14C14.5523 6.00046 15 5.55275 15 5.00046C15 4.44818 14.5523 4.00046 14 4.00046H5C4.44772 4.00046 4 4.44818 4 5.00046C4 5.55275 4.44772 6.00046 5 6.00046Z" fill="var(--fill-0, #4BB4E6)"/>
<path id="Shape_2" fill-rule="evenodd" clip-rule="evenodd" d="M17 8.51046C17.7811 8.93549 18.4628 9.52179 19 10.2305C19.8222 11.3143 20.2618 12.6401 20.25 14.0005C20.259 16.6411 18.6075 19.0025 16.124 19.8998C13.6405 20.7972 10.861 20.0369 9.18 18.0005C8.69076 17.4089 8.31756 16.7304 8.08 16.0005C7.43579 14.0932 7.74975 11.9923 8.92344 10.3567C10.0971 8.72104 11.9868 7.7509 14 7.75046C15.0475 7.75168 16.0783 8.01282 17 8.51046ZM14.42 15.0005H16V14.9605C16.5523 14.9605 17 14.5127 17 13.9605C17 13.4082 16.5523 12.9605 16 12.9605H14.46L14.75 12.6705C15.1421 12.2783 15.1421 11.6426 14.75 11.2505C14.3579 10.8583 13.7221 10.8583 13.33 11.2505L11.33 13.2505C11.0681 13.5119 10.9719 13.8966 11.08 14.2505C11.0711 14.2967 11.0711 14.3442 11.08 14.3905C11.1287 14.5097 11.2 14.6183 11.29 14.7105L13.29 16.7105C13.4778 16.8998 13.7334 17.0063 14 17.0063C14.2666 17.0063 14.5222 16.8998 14.71 16.7105C14.8993 16.5227 15.0058 16.2671 15.0058 16.0005C15.0058 15.7338 14.8993 15.4782 14.71 15.2905L14.42 15.0005Z" fill="var(--fill-0, #4BB4E6)"/>
</g>
</svg>
