<svg preserveAspectRatio="none" width="100%" height="100%" overflow="visible" style="display: block;" viewBox="0 0 14 11" fill="none" xmlns="http://www.w3.org/2000/svg">
<g id="Layer_58">
<path id="Path" d="M3.33598 5.33117C3.33624 5.62374 3.37434 5.91504 3.44932 6.19784L7.75598 2.19784C7.4069 2.07305 7.03995 2.00552 6.66932 1.99784C4.82837 1.99784 3.33598 3.49022 3.33598 5.33117V5.33117Z" fill="var(--fill-0, #4BB4E6)"/>
<path id="Path_2" d="M9.38265 3.39784L10.3626 2.48451L10.916 1.99784L11.7893 1.18451C11.9828 1.02761 12.0727 0.775931 12.0223 0.531965C11.972 0.287999 11.7898 0.0924505 11.5501 0.0249565C11.3103 -0.0425375 11.0529 0.0292841 10.8826 0.211172L9.84932 1.13784L9.40265 1.55784L8.40932 2.49117L3.74265 6.87117L2.74932 7.80451L2.12932 8.37784L0.915983 9.51117C0.657501 9.7712 0.657501 10.1911 0.915983 10.4512C1.16674 10.7191 1.58688 10.734 1.85598 10.4845L3.18932 9.25784L3.66265 8.81784L4.63598 7.90451L9.38265 3.39784Z" fill="var(--fill-0, #4BB4E6)"/>
<path id="Path_3" d="M6.66932 8.66451C7.7934 8.66393 8.84149 8.09683 9.45694 7.1562C10.0724 6.21556 10.1723 5.02808 9.72265 3.99784L5.12932 8.28451C5.60344 8.53629 6.13249 8.66683 6.66932 8.66451Z" fill="var(--fill-0, #4BB4E6)"/>
<path id="Path_4" d="M2.38932 7.19117C1.76242 5.74864 1.90435 4.08736 2.76688 2.77208C3.6294 1.4568 5.09645 0.664496 6.66932 0.664505C7.4172 0.66163 8.15435 0.842483 8.81598 1.19117L9.24265 0.791172C8.44571 0.383836 7.56431 0.169194 6.66932 0.164505C5.37262 0.182256 4.11657 0.619651 3.08932 1.41117C1.84639 2.38325 0.823876 3.608 0.0893164 5.00451C-0.0297721 5.21077 -0.0297721 5.4649 0.0893164 5.67117C0.524788 6.468 1.04322 7.2166 1.63598 7.90451L2.38932 7.19117Z" fill="var(--fill-0, #4BB4E6)"/>
<path id="Path_5" d="M13.256 5.00451C12.7504 4.06957 12.1251 3.20451 11.396 2.43117L10.7293 3.05117C11.1281 3.74479 11.3373 4.53111 11.336 5.33117C11.336 7.9085 9.24665 9.99784 6.66932 9.99784C5.75903 10.0004 4.86832 9.7337 4.10932 9.23117L3.67598 9.63784C4.57656 10.1924 5.61174 10.4898 6.66932 10.4978C7.96747 10.4768 9.22463 10.0398 10.256 9.25117C11.4989 8.27909 12.5214 7.05434 13.256 5.65784C13.37 5.45499 13.37 5.20736 13.256 5.00451Z" fill="var(--fill-0, #4BB4E6)"/>
</g>
</svg>
