<svg preserveAspectRatio="none" width="100%" height="100%" overflow="visible" style="display: block;" viewBox="0 0 27 27" fill="none" xmlns="http://www.w3.org/2000/svg">
<g id="Layer_8">
<path id="Shape" fill-rule="evenodd" clip-rule="evenodd" d="M0 13.3333C0 5.96954 5.96954 0 13.3333 0C16.8696 0 20.2609 1.40476 22.7614 3.90524C25.2619 6.40573 26.6667 9.79711 26.6667 13.3333C26.6667 20.6971 20.6971 26.6667 13.3333 26.6667C5.96954 26.6667 0 20.6971 0 13.3333ZM9.88 14.6667H20C20.7364 14.6667 21.3333 14.0697 21.3333 13.3333C21.3333 12.597 20.7364 12 20 12H9.88L12.9467 8.94667C13.2849 8.60845 13.417 8.1155 13.2932 7.6535C13.1694 7.19149 12.8085 6.83062 12.3465 6.70683C11.8845 6.58303 11.3915 6.71512 11.0533 7.05333L5.72 12.3867C5.59861 12.5135 5.50346 12.663 5.44 12.8267C5.30664 13.1513 5.30664 13.5154 5.44 13.84C5.50346 14.0037 5.59861 14.1532 5.72 14.28L11.0533 19.6133C11.3037 19.8658 11.6445 20.0077 12 20.0077C12.3555 20.0077 12.6963 19.8658 12.9467 19.6133C13.1991 19.363 13.3411 19.0222 13.3411 18.6667C13.3411 18.3111 13.1991 17.9704 12.9467 17.72L9.88 14.6667Z" fill="var(--fill-0, #4BB4E6)"/>
</g>
</svg>
