<svg preserveAspectRatio="none" width="100%" height="100%" overflow="visible" style="display: block;" viewBox="0 0 27 27" fill="none" xmlns="http://www.w3.org/2000/svg">
<g id="Layer_99">
<path id="Path" d="M26.6673 4.15024V14.4036C26.6751 15.645 26.1333 16.8263 25.1873 17.6302C24.4782 18.2178 23.5881 18.5428 22.6673 18.5502C22.4455 18.57 22.2224 18.57 22.0006 18.5502L9.33396 16.2702V2.2969L22.0006 0.0569024C23.1387 -0.139445 24.3054 0.177848 25.1873 0.923569C26.1288 1.7309 26.6696 2.90999 26.6673 4.15024V4.15024Z" fill="var(--fill-0, #4BB4E6)"/>
<path id="Path_2" d="M6.66729 2.76357V15.8036L5.33396 15.5636L4.00062 15.3369L3.33396 15.2169C2.59154 15.0957 1.89835 14.7676 1.33396 14.2702C0.469144 13.4539 -0.0143909 12.3127 0.000624868 11.1236V7.44357C-0.0340002 5.44922 1.37393 3.72028 3.33396 3.35024L6.66729 2.76357Z" fill="var(--fill-0, #4BB4E6)"/>
<path id="Path_3" d="M8.00063 16.0436V23.2969C8.00063 25.1379 6.50824 26.6302 4.66729 26.6302C2.82634 26.6302 1.33396 25.1379 1.33396 23.2969V14.6302C1.31356 14.5111 1.31356 14.3894 1.33396 14.2702C1.88351 14.7587 2.55706 15.0863 3.28062 15.2169L3.94729 15.3369L5.28062 15.5636L8.00063 16.0436Z" fill="var(--fill-0, #4BB4E6)"/>
</g>
</svg>
