<svg preserveAspectRatio="none" width="100%" height="100%" overflow="visible" style="display: block;" viewBox="0 0 21 16" fill="none" xmlns="http://www.w3.org/2000/svg">
<g id="Layer_58">
<path id="Path" d="M5.00397 7.99676C5.00436 8.43561 5.0615 8.87257 5.17397 9.29676L11.634 3.29676C11.1104 3.10958 10.5599 3.00828 10.004 2.99676C7.24255 2.99676 5.00397 5.23533 5.00397 7.99676V7.99676Z" fill="var(--fill-0, #4BB4E6)"/>
<path id="Path_2" d="M14.074 5.09676L15.544 3.72676L16.374 2.99676L17.684 1.77676C17.9742 1.54141 18.109 1.1639 18.0335 0.797948C17.958 0.431999 17.6848 0.138676 17.3251 0.0374348C16.9654 -0.0638063 16.5793 0.0439261 16.324 0.316758L14.774 1.70676L14.104 2.33676L12.614 3.73676L5.61397 10.3068L4.12397 11.7068L3.19397 12.5668L1.37397 14.2668C0.986251 14.6568 0.986251 15.2867 1.37397 15.6768C1.75011 16.0787 2.38032 16.101 2.78397 15.7268L4.78397 13.8868L5.49397 13.2268L6.95397 11.8568L14.074 5.09676Z" fill="var(--fill-0, #4BB4E6)"/>
<path id="Path_3" d="M10.004 12.9968C11.6901 12.9959 13.2622 12.1453 14.1854 10.7343C15.1086 9.32334 15.2584 7.54212 14.584 5.99676L7.69397 12.4268C8.40515 12.8044 9.19874 13.0003 10.004 12.9968Z" fill="var(--fill-0, #4BB4E6)"/>
<path id="Path_4" d="M3.58397 10.7868C2.64363 8.62296 2.85653 6.13104 4.15031 4.15812C5.4441 2.1852 7.64468 0.996745 10.004 0.996758C11.1258 0.992445 12.2315 1.26372 13.224 1.78676L13.864 1.18676C12.6686 0.575754 11.3465 0.25379 10.004 0.246758C8.05892 0.273383 6.17485 0.929476 4.63397 2.11676C2.76959 3.57488 1.23581 5.412 0.133975 7.50676C-0.0446582 7.81616 -0.0446582 8.19736 0.133975 8.50676C0.787182 9.70201 1.56483 10.8249 2.45397 11.8568L3.58397 10.7868Z" fill="var(--fill-0, #4BB4E6)"/>
<path id="Path_5" d="M19.884 7.50676C19.1256 6.10435 18.1877 4.80676 17.094 3.64676L16.094 4.57676C16.6921 5.61719 17.0059 6.79667 17.004 7.99676C17.004 11.8628 13.87 14.9968 10.004 14.9968C8.63855 15.0007 7.30249 14.6005 6.16397 13.8468L5.51397 14.4568C6.86484 15.2885 8.41762 15.7347 10.004 15.7468C11.9512 15.7152 13.8369 15.0597 15.384 13.8768C17.2484 12.4186 18.7821 10.5815 19.884 8.48676C20.055 8.18248 20.055 7.81104 19.884 7.50676Z" fill="var(--fill-0, #4BB4E6)"/>
</g>
</svg>
