<svg preserveAspectRatio="none" width="100%" height="100%" overflow="visible" style="display: block;" viewBox="0 0 14 14" fill="none" xmlns="http://www.w3.org/2000/svg">
<g id="Layer_18">
<path id="Shape" fill-rule="evenodd" clip-rule="evenodd" d="M0 6.66667C0 2.98477 2.98477 0 6.66667 0C8.43478 0 10.1305 0.702379 11.3807 1.95262C12.631 3.20286 13.3333 4.89856 13.3333 6.66667C13.3333 10.3486 10.3486 13.3333 6.66667 13.3333C2.98477 13.3333 0 10.3486 0 6.66667ZM5.8 9.80667L8.46667 7.14C8.59556 7.01751 8.67017 6.8486 8.67393 6.67083C8.67768 6.49306 8.61027 6.32116 8.48667 6.19333L5.82 3.52667C5.65089 3.35756 5.40442 3.29152 5.17341 3.35341C4.94241 3.41531 4.76198 3.59575 4.70008 3.82675C4.63818 4.05775 4.70423 4.30423 4.87333 4.47333L7.05333 6.66667L4.86 8.86C4.73379 8.98518 4.6628 9.15557 4.6628 9.33333C4.6628 9.51109 4.73379 9.68149 4.86 9.80667C4.98581 9.93146 5.15613 10.001 5.33333 10C5.50823 9.99926 5.67583 9.92983 5.8 9.80667Z" fill="var(--fill-0, #4BB4E6)"/>
</g>
</svg>
