<svg preserveAspectRatio="none" width="100%" height="100%" overflow="visible" style="display: block;" viewBox="0 0 14 14" fill="none" xmlns="http://www.w3.org/2000/svg">
<g id="Vector">
<path fill-rule="evenodd" clip-rule="evenodd" d="M3.41421 2L5.70711 4.29289C6.09763 4.68342 6.09763 5.31658 5.70711 5.70711C5.31658 6.09763 4.68342 6.09763 4.29289 5.70711L2 3.41421V5C2 5.55228 1.55228 6 1 6C0.447715 6 0 5.55228 0 5V1.00017C0 0.744251 0.0976311 0.488155 0.292893 0.292893C0.38877 0.197017 0.499271 0.124678 0.617216 0.0758787C0.735123 0.0269855 0.86441 0 1 0H5C5.55228 0 6 0.447715 6 1C6 1.55228 5.55228 2 5 2H3.41421ZM9 2C8.44772 2 8 1.55228 8 1C8 0.447715 8.44772 0 9 0H12.9998C13.1354 0 13.2649 0.0269856 13.3828 0.0758788C13.4999 0.124319 13.6096 0.195951 13.705 0.290776L13.7092 0.295017C13.804 0.3904 13.8757 0.500141 13.9241 0.617216C13.9743 0.73854 13.9996 0.86774 14 0.997001L14 1V5C14 5.55228 13.5523 6 13 6C12.4477 6 12 5.55228 12 5V3.41421L9.70711 5.70711C9.31658 6.09763 8.68342 6.09763 8.29289 5.70711C7.90237 5.31658 7.90237 4.68342 8.29289 4.29289L10.5858 2H9ZM0 9C0 8.44772 0.447715 8 1 8C1.55228 8 2 8.44772 2 9V10.5858L4.29289 8.29289C4.68342 7.90237 5.31658 7.90237 5.70711 8.29289C6.09763 8.68342 6.09763 9.31658 5.70711 9.70711L3.41421 12H5C5.55228 12 6 12.4477 6 13C6 13.5523 5.55228 14 5 14H1.00069L0.997001 14C0.862504 13.9996 0.734253 13.9727 0.617216 13.9241C0.495933 13.8738 0.38669 13.8004 0.295017 13.7092L0.290776 13.705C0.195951 13.6096 0.124319 13.4999 0.0758787 13.3828C0.0269855 13.2649 0 13.1356 0 13V9Z" fill="var(--fill-0, #111928)"/>
<path d="M9 14C8.44772 14 8 13.5523 8 13C8 12.4477 8.44772 12 9 12H10.5858L8.29289 9.70711C7.90237 9.31658 7.90237 8.68342 8.29289 8.29289C8.68342 7.90237 9.31658 7.90237 9.70711 8.29289L12 10.5858V9C12 8.44772 12.4477 8 13 8C13.5523 8 14 8.44772 14 9V12.9993L14 13.003C13.9996 13.1375 13.9727 13.2657 13.9241 13.3828C13.8738 13.5041 13.8004 13.6133 13.7092 13.705L13.705 13.7092C13.6096 13.804 13.4999 13.8757 13.3828 13.9241C13.2649 13.973 13.1356 14 13 14H9Z" fill="var(--fill-0, #111928)"/>
</g>
</svg>
