<svg preserveAspectRatio="none" width="100%" height="100%" overflow="visible" style="display: block;" viewBox="0 0 21 21" fill="none" xmlns="http://www.w3.org/2000/svg">
<g id="Layer_97">
<path id="Shape" fill-rule="evenodd" clip-rule="evenodd" d="M20 10.1402C20.0046 11.7112 18.7964 13.0197 17.23 13.1402L6 14.0002C6.15 15.0002 6.47 15.0002 7 15.0002H17.5C17.9443 15.0079 18.3787 15.132 18.76 15.3602H18.82C19.864 15.9759 20.3159 17.2517 19.8923 18.3873C19.4687 19.5228 18.2916 20.191 17.0995 19.9726C15.9073 19.7542 15.0435 18.7121 15.05 17.5002C15.0513 17.3323 15.068 17.1649 15.1 17.0002H11C11.0153 17.1665 11.0153 17.3339 11 17.5002C11 18.8809 9.88071 20.0002 8.5 20.0002C7.11929 20.0002 6 18.8809 6 17.5002C6.00069 17.2976 6.02758 17.0959 6.08 16.9002C4 16.4102 4 14.2502 4 13.0802L2.15 2.00017H1C0.447715 2.00017 0 1.55245 0 1.00017C0 0.447881 0.447715 0.000165802 1 0.000165802H3C3.49539 -0.00621022 3.92077 0.351108 4 0.840166L4.18 2.00017L19.07 3.00017C19.5948 3.03699 20.0013 3.4741 20 4.00017V10.1402ZM9.89 7.58017C9.64042 7.08985 9.04165 6.89324 8.55 7.14017V7.11017C8.29129 7.22182 8.09169 7.43744 8.0003 7.70398C7.90892 7.97053 7.93422 8.26326 8.07 8.51017L9.07 10.5102C9.20297 10.772 9.44432 10.9622 9.73 11.0302C9.80636 11.0399 9.88364 11.0399 9.96 11.0302C10.1764 11.0302 10.3869 10.96 10.56 10.8302L14.56 7.83017C15.0018 7.4988 15.0914 6.87199 14.76 6.43017C14.4286 5.98834 13.8018 5.8988 13.36 6.23017L10.36 8.51017L9.89 7.58017ZM17.55 17.0302C17.8261 17.0302 18.05 17.254 18.05 17.5302C18.05 17.8063 17.8261 18.0302 17.55 18.0302C17.2739 18.0302 17.05 17.8063 17.05 17.5302C17.0325 17.2611 17.2316 17.0266 17.5 17.0002L17.55 17.0302ZM9.05 17.5302C9.05 17.254 8.82614 17.0302 8.55 17.0302L8.5 17.0002C8.23161 17.0266 8.03252 17.2611 8.05 17.5302C8.05 17.8063 8.27386 18.0302 8.55 18.0302C8.82614 18.0302 9.05 17.8063 9.05 17.5302Z" fill="var(--fill-0, #4BB4E6)"/>
</g>
</svg>
