<svg preserveAspectRatio="none" width="100%" height="100%" overflow="visible" style="display: block;" viewBox="0 0 20 16" fill="none" xmlns="http://www.w3.org/2000/svg">
<g id="Layer_118">
<path id="Path" d="M13.6232 6L3.4232 0.38C2.71484 -0.0671672 1.82044 -0.0977451 1.0832 0.3C0.3721 0.750437 -0.040758 1.54939 0.00319622 2.39V13.62C-0.040316 14.4583 0.362887 15.2571 1.0632 15.72C1.36606 15.8998 1.71102 15.9963 2.0632 16C2.52718 15.9888 2.98098 15.8616 3.3832 15.63L13.6232 10C14.4189 9.64134 14.9503 8.87121 15.0032 8C14.9503 7.12879 14.4189 6.35866 13.6232 6Z" fill="var(--fill-0, #4BB4E6)"/>
<path id="Path_2" d="M17.5032 0C16.1225 0 15.0032 1.11929 15.0032 2.5V13.5C15.0032 14.8807 16.1225 16 17.5032 16C18.8839 16 20.0032 14.8807 20.0032 13.5V2.5C20.0032 1.11929 18.8839 0 17.5032 0Z" fill="var(--fill-0, #4BB4E6)"/>
</g>
</svg>
