<svg preserveAspectRatio="none" width="100%" height="100%" overflow="visible" style="display: block;" viewBox="0 0 12 16" fill="none" xmlns="http://www.w3.org/2000/svg">
<path id="Vector" fill-rule="evenodd" clip-rule="evenodd" d="M0 1.9C0 1.39609 0.200178 0.912816 0.556497 0.556497C0.912816 0.200178 1.39609 0 1.9 0H6.2567C6.76057 0.000107611 7.24376 0.200356 7.6 0.5567L10.8433 3.8C11.1996 4.15624 11.3999 4.63943 11.4 5.1433V13.3C11.4 13.8039 11.1998 14.2872 10.8435 14.6435C10.4872 14.9998 10.0039 15.2 9.5 15.2H1.9C1.39609 15.2 0.912816 14.9998 0.556497 14.6435C0.200178 14.2872 0 13.8039 0 13.3V1.9ZM1.9 7.6C1.9 7.34804 2.00009 7.10641 2.17825 6.92825C2.35641 6.75009 2.59804 6.65 2.85 6.65H8.55C8.80196 6.65 9.04359 6.75009 9.22175 6.92825C9.39991 7.10641 9.5 7.34804 9.5 7.6C9.5 7.85196 9.39991 8.09359 9.22175 8.27175C9.04359 8.44991 8.80196 8.55 8.55 8.55H2.85C2.59804 8.55 2.35641 8.44991 2.17825 8.27175C2.00009 8.09359 1.9 7.85196 1.9 7.6ZM2.85 10.45C2.59804 10.45 2.35641 10.5501 2.17825 10.7282C2.00009 10.9064 1.9 11.148 1.9 11.4C1.9 11.652 2.00009 11.8936 2.17825 12.0718C2.35641 12.2499 2.59804 12.35 2.85 12.35H8.55C8.80196 12.35 9.04359 12.2499 9.22175 12.0718C9.39991 11.8936 9.5 11.652 9.5 11.4C9.5 11.148 9.39991 10.9064 9.22175 10.7282C9.04359 10.5501 8.80196 10.45 8.55 10.45H2.85Z" fill="var(--fill-0, #E9E9E9)"/>
</svg>
