<svg preserveAspectRatio="none" width="100%" height="100%" overflow="visible" style="display: block;" viewBox="0 0 20 20" fill="none" xmlns="http://www.w3.org/2000/svg">
<g id="Layer_51">
<path id="Path" d="M17 0H7C5.34315 0 4 1.34315 4 3V8H6C6.00339 7.19369 6.49063 6.46827 7.23576 6.16017C7.98089 5.85206 8.83816 6.02154 9.41 6.59L11.41 8.59C12.1854 9.37008 12.1854 10.6299 11.41 11.41L9.41 13.41C8.62992 14.1854 7.37007 14.1854 6.59 13.41C6.21441 13.0366 6.00223 12.5296 6 12H4V17C4 18.6569 5.34315 20 7 20H17C18.6569 20 20 18.6569 20 17V3C20 1.34315 18.6569 0 17 0Z" fill="var(--fill-0, #4BB4E6)"/>
<path id="Path_2" d="M7.59 11L7.29 11.29C7.10069 11.4778 6.9942 11.7334 6.9942 12C6.9942 12.2666 7.10069 12.5222 7.29 12.71C7.47777 12.8993 7.73336 13.0058 8 13.0058C8.26664 13.0058 8.52223 12.8993 8.71 12.71L10.71 10.71C10.8993 10.5222 11.0058 10.2666 11.0058 10C11.0058 9.73336 10.8993 9.47777 10.71 9.29L8.71 7.29C8.31788 6.89788 7.68212 6.89788 7.29 7.29C6.89788 7.68212 6.89788 8.31788 7.29 8.71L7.59 9H1C0.447715 9 0 9.44772 0 10C0 10.5523 0.447715 11 1 11H7.59V11Z" fill="var(--fill-0, #4BB4E6)"/>
</g>
</svg>
