<svg preserveAspectRatio="none" width="100%" height="100%" overflow="visible" style="display: block;" viewBox="0 0 27 27" fill="none" xmlns="http://www.w3.org/2000/svg">
<g id="Layer_70">
<circle id="Oval" cx="13.3333" cy="13.3333" r="6.66667" fill="var(--fill-0, #4BB4E6)"/>
<path id="Shape" fill-rule="evenodd" clip-rule="evenodd" d="M0 13.3333C0 5.96954 5.96954 0 13.3333 0C16.8696 0 20.2609 1.40476 22.7614 3.90524C25.2619 6.40573 26.6667 9.79711 26.6667 13.3333C26.6667 20.6971 20.6971 26.6667 13.3333 26.6667C5.96954 26.6667 0 20.6971 0 13.3333ZM4 13.3333C4 18.488 8.17867 22.6667 13.3333 22.6667C18.488 22.6667 22.6667 18.488 22.6667 13.3333C22.6667 8.17867 18.488 4 13.3333 4C8.17867 4 4 8.17867 4 13.3333Z" fill="var(--fill-0, #4BB4E6)"/>
</g>
</svg>
