<svg preserveAspectRatio="none" width="100%" height="100%" overflow="visible" style="display: block;" viewBox="0 0 14 18" fill="none" xmlns="http://www.w3.org/2000/svg">
<path id="Vector" fill-rule="evenodd" clip-rule="evenodd" d="M3.8 2.85C3.8 2.09413 4.10027 1.36922 4.63475 0.834746C5.16922 0.300267 5.89413 0 6.65 0C7.40587 0 8.13078 0.300267 8.66525 0.834746C9.19973 1.36922 9.5 2.09413 9.5 2.85V6.65C9.5 7.40587 9.19973 8.13078 8.66525 8.66525C8.13078 9.19973 7.40587 9.5 6.65 9.5C5.89413 9.5 5.16922 9.19973 4.63475 8.66525C4.10027 8.13078 3.8 7.40587 3.8 6.65V2.85ZM7.6 13.2335C9.1829 13.0048 10.6304 12.2134 11.6773 11.0043C12.7241 9.79519 13.3002 8.24933 13.3 6.65C13.3 6.39804 13.1999 6.15641 13.0218 5.97825C12.8436 5.80009 12.602 5.7 12.35 5.7C12.098 5.7 11.8564 5.80009 11.6782 5.97825C11.5001 6.15641 11.4 6.39804 11.4 6.65C11.4 7.90978 10.8996 9.11796 10.0088 10.0088C9.11796 10.8996 7.90978 11.4 6.65 11.4C5.39022 11.4 4.18204 10.8996 3.29124 10.0088C2.40044 9.11796 1.9 7.90978 1.9 6.65C1.9 6.39804 1.79991 6.15641 1.62175 5.97825C1.44359 5.80009 1.20196 5.7 0.95 5.7C0.698044 5.7 0.456408 5.80009 0.278249 5.97825C0.100089 6.15641 5.88393e-08 6.39804 5.88393e-08 6.65C-0.000212574 8.24933 0.575891 9.79519 1.62275 11.0043C2.6696 12.2134 4.1171 13.0048 5.7 13.2335V15.2H2.85C2.59804 15.2 2.35641 15.3001 2.17825 15.4782C2.00009 15.6564 1.9 15.898 1.9 16.15C1.9 16.402 2.00009 16.6436 2.17825 16.8218C2.35641 16.9999 2.59804 17.1 2.85 17.1H10.45C10.702 17.1 10.9436 16.9999 11.1218 16.8218C11.2999 16.6436 11.4 16.402 11.4 16.15C11.4 15.898 11.2999 15.6564 11.1218 15.4782C10.9436 15.3001 10.702 15.2 10.45 15.2H7.6V13.2335Z" fill="var(--fill-0, #E9E9E9)"/>
</svg>
