<svg preserveAspectRatio="none" width="100%" height="100%" overflow="visible" style="display: block;" viewBox="0 0 20 20" fill="none" xmlns="http://www.w3.org/2000/svg">
<g id="Layer_55">
<path id="Shape" fill-rule="evenodd" clip-rule="evenodd" d="M17 0H3C1.34315 0 0 1.34315 0 3V17C0 18.6569 1.34315 20 3 20H17C18.6569 20 20 18.6569 20 17V3C20 1.34315 18.6569 0 17 0ZM5.92 15.38C5.87241 15.5028 5.80104 15.6149 5.71 15.71C5.6128 15.7983 5.50118 15.8694 5.38 15.92C5.25978 15.9712 5.13068 15.9984 5 16C4.73523 15.9963 4.48163 15.8927 4.29 15.71C4.19896 15.6149 4.12759 15.5028 4.08 15.38C3.97302 15.138 3.97302 14.862 4.08 14.62C4.12759 14.4972 4.19896 14.3851 4.29 14.29C4.57756 14.0063 5.0076 13.9234 5.38 14.08C5.50118 14.1306 5.6128 14.2017 5.71 14.29C5.80104 14.3851 5.87241 14.4972 5.92 14.62C6.02698 14.862 6.02698 15.138 5.92 15.38ZM5.94 10.38C5.96883 10.3233 5.98905 10.2626 6 10.2C6.00491 10.1334 6.00491 10.0666 6 10C5.99632 9.73523 5.89273 9.48163 5.71 9.29C5.6128 9.20167 5.50118 9.13064 5.38 9.08C5.0076 8.9234 4.57756 9.00626 4.29 9.29C4.1974 9.38387 4.12581 9.49636 4.08 9.62C4.02876 9.74022 4.00158 9.86932 4 10C3.99846 10.2658 4.10281 10.5213 4.29 10.71C4.48163 10.8927 4.73523 10.9963 5 11C5.13741 11.0011 5.27358 10.9739 5.4 10.92C5.52118 10.8694 5.6328 10.7983 5.73 10.71L5.85 10.56C5.88785 10.5043 5.91811 10.4437 5.94 10.38ZM5.71 5.71C5.6128 5.79833 5.50118 5.86936 5.38 5.92C5.26132 5.97598 5.13118 6.00338 5 6C4.73523 5.99632 4.48163 5.89273 4.29 5.71C4.10281 5.52128 3.99846 5.2658 4 5C4.00158 4.86932 4.02876 4.74022 4.08 4.62C4.13064 4.49882 4.20167 4.3872 4.29 4.29C4.57756 4.00626 5.0076 3.9234 5.38 4.08C5.50118 4.13064 5.6128 4.20167 5.71 4.29C5.79833 4.3872 5.86936 4.49882 5.92 4.62C5.97124 4.74022 5.99842 4.86932 6 5C5.99632 5.26477 5.89273 5.51837 5.71 5.71ZM9 16H15C15.5523 16 16 15.5523 16 15C16 14.4477 15.5523 14 15 14H9C8.44771 14 8 14.4477 8 15C8 15.5523 8.44771 16 9 16ZM15 11H9C8.44771 11 8 10.5523 8 10C8 9.44771 8.44771 9 9 9H15C15.5523 9 16 9.44771 16 10C16 10.5523 15.5523 11 15 11ZM9 6H15C15.5523 6 16 5.55228 16 5C16 4.44772 15.5523 4 15 4H9C8.44771 4 8 4.44772 8 5C8 5.55228 8.44771 6 9 6Z" fill="var(--fill-0, #4BB4E6)"/>
</g>
</svg>
