<svg preserveAspectRatio="none" width="100%" height="100%" overflow="visible" style="display: block;" viewBox="0 0 15 15" fill="none" xmlns="http://www.w3.org/2000/svg">
<path id="Vector" d="M0 2C0 1.46957 0.210714 0.960859 0.585786 0.585786C0.960859 0.210714 1.46957 0 2 0C2 0.795649 2.31607 1.55871 2.87868 2.12132C3.44129 2.68393 4.20435 3 5 3H7C7.79565 3 8.55871 2.68393 9.12132 2.12132C9.68393 1.55871 10 0.795649 10 0C10.5304 0 11.0391 0.210714 11.4142 0.585786C11.7893 0.960859 12 1.46957 12 2V8H7.414L8.707 6.707C8.88916 6.5184 8.98995 6.2658 8.98767 6.0036C8.9854 5.7414 8.88023 5.49059 8.69482 5.30518C8.50941 5.11977 8.2586 5.0146 7.9964 5.01233C7.7342 5.01005 7.4816 5.11084 7.293 5.293L4.293 8.293C4.10553 8.48053 4.00021 8.73484 4.00021 9C4.00021 9.26516 4.10553 9.51947 4.293 9.707L7.293 12.707C7.4816 12.8892 7.7342 12.99 7.9964 12.9877C8.2586 12.9854 8.50941 12.8802 8.69482 12.6948C8.88023 12.5094 8.9854 12.2586 8.98767 11.9964C8.98995 11.7342 8.88916 11.4816 8.707 11.293L7.414 10H12V13C12 13.5304 11.7893 14.0391 11.4142 14.4142C11.0391 14.7893 10.5304 15 10 15H2C1.46957 15 0.960859 14.7893 0.585786 14.4142C0.210714 14.0391 0 13.5304 0 13V2ZM12 8H14C14.2652 8 14.5196 8.10536 14.7071 8.29289C14.8946 8.48043 15 8.73478 15 9C15 9.26522 14.8946 9.51957 14.7071 9.70711C14.5196 9.89464 14.2652 10 14 10H12V8Z" fill="var(--fill-0, #111928)"/>
</svg>
