<svg preserveAspectRatio="none" width="100%" height="100%" overflow="visible" style="display: block;" viewBox="0 0 14 14" fill="none" xmlns="http://www.w3.org/2000/svg">
<g id="Layer_12">
<path id="Shape" fill-rule="evenodd" clip-rule="evenodd" d="M2 0H11.3333C12.4379 0 13.3333 0.89543 13.3333 2V11.3333C13.3333 12.4379 12.4379 13.3333 11.3333 13.3333H2C0.89543 13.3333 0 12.4379 0 11.3333V2C0 0.89543 0.89543 0 2 0ZM4.94 7.33333H10C10.3682 7.33333 10.6667 7.03486 10.6667 6.66667C10.6667 6.29848 10.3682 6 10 6H4.94L6.47333 4.47333C6.64244 4.30423 6.70848 4.05775 6.64659 3.82675C6.58469 3.59575 6.40425 3.41531 6.17325 3.35341C5.94225 3.29152 5.69577 3.35756 5.52667 3.52667L2.86 6.19333C2.79931 6.25674 2.75173 6.3315 2.72 6.41333C2.65332 6.57564 2.65332 6.75769 2.72 6.92C2.75173 7.00183 2.79931 7.0766 2.86 7.14L5.52667 9.80667C5.65184 9.93288 5.82224 10.0039 6 10.0039C6.17776 10.0039 6.34816 9.93288 6.47333 9.80667C6.59954 9.68149 6.67053 9.51109 6.67053 9.33333C6.67053 9.15557 6.59954 8.98518 6.47333 8.86L4.94 7.33333Z" fill="var(--fill-0, #4BB4E6)"/>
</g>
</svg>
