<svg preserveAspectRatio="none" width="100%" height="100%" overflow="visible" style="display: block;" viewBox="0 0 27 27" fill="none" xmlns="http://www.w3.org/2000/svg">
<g id="Layer_43">
<path id="Shape" fill-rule="evenodd" clip-rule="evenodd" d="M0 13.3333C0 5.96954 5.96954 0 13.3333 0C16.8696 0 20.2609 1.40476 22.7614 3.90524C25.2619 6.40573 26.6667 9.79711 26.6667 13.3333C26.6667 20.6971 20.6971 26.6667 13.3333 26.6667C5.96954 26.6667 0 20.6971 0 13.3333ZM11.6133 18.28L19.6133 10.28C20.1362 9.75717 20.1362 8.9095 19.6133 8.38667C19.0905 7.86384 18.2428 7.86384 17.72 8.38667L10.6667 15.4533L8.94667 13.72C8.60845 13.3818 8.1155 13.2497 7.6535 13.3735C7.19149 13.4973 6.83062 13.8582 6.70683 14.3202C6.58303 14.7822 6.71512 15.2751 7.05333 15.6133L9.72 18.28C9.97036 18.5324 10.3111 18.6744 10.6667 18.6744C11.0222 18.6744 11.363 18.5324 11.6133 18.28Z" fill="var(--fill-0, #4BB4E6)"/>
</g>
</svg>
