<svg preserveAspectRatio="none" width="100%" height="100%" overflow="visible" style="display: block;" viewBox="0 0 21 21" fill="none" xmlns="http://www.w3.org/2000/svg">
<path id="Vector" d="M1.5 0C0.670312 0 0 0.670312 0 1.5V6C0 6.82969 0.670312 7.5 1.5 7.5C2.32969 7.5 3 6.82969 3 6V3H6C6.82969 3 7.5 2.32969 7.5 1.5C7.5 0.670312 6.82969 0 6 0H1.5ZM3 15C3 14.1703 2.32969 13.5 1.5 13.5C0.670312 13.5 0 14.1703 0 15V19.5C0 20.3297 0.670312 21 1.5 21H6C6.82969 21 7.5 20.3297 7.5 19.5C7.5 18.6703 6.82969 18 6 18H3V15ZM15 0C14.1703 0 13.5 0.670312 13.5 1.5C13.5 2.32969 14.1703 3 15 3H18V6C18 6.82969 18.6703 7.5 19.5 7.5C20.3297 7.5 21 6.82969 21 6V1.5C21 0.670312 20.3297 0 19.5 0H15ZM21 15C21 14.1703 20.3297 13.5 19.5 13.5C18.6703 13.5 18 14.1703 18 15V18H15C14.1703 18 13.5 18.6703 13.5 19.5C13.5 20.3297 14.1703 21 15 21H19.5C20.3297 21 21 20.3297 21 19.5V15Z" fill="var(--fill-0, black)"/>
</svg>
