<svg preserveAspectRatio="none" width="100%" height="100%" overflow="visible" style="display: block;" viewBox="0 0 14 11" fill="none" xmlns="http://www.w3.org/2000/svg">
<g id="Layer_118">
<path id="Path" d="M9.08213 4L2.28213 0.253333C1.80989 -0.0447781 1.21363 -0.0651634 0.722131 0.2C0.248067 0.500291 -0.027172 1.03293 0.00213082 1.59333V9.08C-0.0268773 9.63889 0.241925 10.1714 0.708798 10.48C0.910708 10.5998 1.14068 10.6642 1.37546 10.6667C1.68479 10.6592 1.98732 10.5744 2.25546 10.42L9.08213 6.66667C9.61261 6.42756 9.96687 5.91414 10.0021 5.33333C9.96687 4.75253 9.61261 4.23911 9.08213 4Z" fill="var(--fill-0, #4BB4E6)"/>
<path id="Path_2" d="M11.6688 0C10.7483 0 10.0021 0.746192 10.0021 1.66667V9C10.0021 9.92047 10.7483 10.6667 11.6688 10.6667C12.5893 10.6667 13.3355 9.92047 13.3355 9V1.66667C13.3355 0.746192 12.5893 0 11.6688 0Z" fill="var(--fill-0, #4BB4E6)"/>
</g>
</svg>
