<svg preserveAspectRatio="none" width="100%" height="100%" overflow="visible" style="display: block;" viewBox="0 0 20 20" fill="none" xmlns="http://www.w3.org/2000/svg">
<g id="Layer_66">
<path id="Shape" fill-rule="evenodd" clip-rule="evenodd" d="M3 0H17C18.6569 0 20 1.34315 20 3V17C20 18.6569 18.6569 20 17 20H3C1.34315 20 0 18.6569 0 17V3C0 1.34315 1.34315 0 3 0ZM16.0058 15C16.0058 14.7334 15.8993 14.4778 15.71 14.29L11.41 10L15.71 5.71C16.1021 5.31788 16.1021 4.68212 15.71 4.29C15.3179 3.89788 14.6821 3.89788 14.29 4.29L10 8.59L5.71 4.29C5.31788 3.89788 4.68212 3.89788 4.29 4.29C3.89788 4.68212 3.89788 5.31788 4.29 5.71L8.59 10L4.29 14.29C4.10069 14.4778 3.9942 14.7334 3.9942 15C3.9942 15.2666 4.10069 15.5222 4.29 15.71C4.47777 15.8993 4.73336 16.0058 5 16.0058C5.26664 16.0058 5.52223 15.8993 5.71 15.71L10 11.41L14.29 15.71C14.4778 15.8993 14.7334 16.0058 15 16.0058C15.2666 16.0058 15.5222 15.8993 15.71 15.71C15.8993 15.5222 16.0058 15.2666 16.0058 15Z" fill="var(--fill-0, #4BB4E6)"/>
</g>
</svg>
