<svg preserveAspectRatio="none" width="100%" height="100%" overflow="visible" style="display: block;" viewBox="0 0 14 14" fill="none" xmlns="http://www.w3.org/2000/svg">
<g id="Layer_78">
<path id="Path" d="M11.3333 6.01794H3.33333V4.68461C3.33594 3.06369 4.5042 1.67962 6.10167 1.40487C7.69913 1.13013 9.26267 2.04437 9.80667 3.57128C9.86542 3.74026 9.98963 3.87853 10.1514 3.95501C10.3131 4.03149 10.4988 4.03975 10.6667 3.97794C11.0118 3.85534 11.1934 3.47729 11.0733 3.13128C10.3229 0.978202 8.12657 -0.317387 5.87917 0.0673622C3.63177 0.452111 1.99145 2.40453 2 4.68461V6.01794C0.89543 6.01794 0 6.91338 0 8.01795V11.3513C0 12.4558 0.89543 13.3513 2 13.3513H11.3333C12.4379 13.3513 13.3333 12.4558 13.3333 11.3513V8.01795C13.3333 6.91338 12.4379 6.01794 11.3333 6.01794Z" fill="var(--fill-0, #4BB4E6)"/>
</g>
</svg>
