<svg preserveAspectRatio="none" width="100%" height="100%" overflow="visible" style="display: block;" viewBox="0 0 27 27" fill="none" xmlns="http://www.w3.org/2000/svg">
<g id="Layer_78">
<path id="Path" d="M22.6667 12.0359H6.66667V9.36922C6.67188 6.12739 9.0084 3.35924 12.2033 2.80975C15.3983 2.26026 18.5253 4.08874 19.6133 7.14256C19.7308 7.48051 19.9793 7.75706 20.3027 7.91002C20.6262 8.06297 20.9976 8.0795 21.3333 7.95589C22.0235 7.71067 22.3867 6.95459 22.1467 6.26256C20.6459 1.9564 16.2531 -0.634774 11.7583 0.134724C7.26354 0.904223 3.9829 4.80907 4 9.36922V12.0359C1.79086 12.0359 0 13.8268 0 16.0359V22.7026C0 24.9117 1.79086 26.7026 4 26.7026H22.6667C24.8758 26.7026 26.6667 24.9117 26.6667 22.7026V16.0359C26.6667 13.8268 24.8758 12.0359 22.6667 12.0359Z" fill="var(--fill-0, #4BB4E6)"/>
</g>
</svg>
