<svg preserveAspectRatio="none" width="100%" height="100%" overflow="visible" style="display: block;" viewBox="0 0 9 5" fill="none" xmlns="http://www.w3.org/2000/svg">
<g id="Layer_23">
<path id="Shape" d="M8.09215 1.42965L4.75882 4.76299C4.6002 4.91593 4.38747 4.99982 4.16715 4.99632C3.94565 4.9976 3.73275 4.91064 3.57549 4.75465L0.242154 1.42132C0.0322606 1.20994 -0.048918 0.902637 0.0291975 0.615173C0.107313 0.327708 0.332855 0.103755 0.620864 0.0276727C0.908873 -0.0484093 1.21559 0.0349389 1.42549 0.246321L4.16715 2.97965L6.91715 0.246321C7.12854 0.0364275 7.43584 -0.044751 7.7233 0.0333645C8.01077 0.11148 8.23472 0.337022 8.3108 0.625031C8.38688 0.91304 8.30354 1.21976 8.09215 1.42965V1.42965Z" fill="var(--fill-0, #FF7900)"/>
</g>
</svg>
