<svg preserveAspectRatio="none" width="100%" height="100%" overflow="visible" style="display: block;" viewBox="0 0 20 20" fill="none" xmlns="http://www.w3.org/2000/svg">
<g id="Layer_20">
<path id="Shape" fill-rule="evenodd" clip-rule="evenodd" d="M0 10C0 4.47715 4.47715 0 10 0C12.6522 0 15.1957 1.05357 17.0711 2.92893C18.9464 4.8043 20 7.34784 20 10C20 15.5228 15.5228 20 10 20C4.47715 20 0 15.5228 0 10ZM12.9858 14C12.9858 13.7334 12.8793 13.4778 12.69 13.29L9.42 10L12.71 6.71C12.9637 6.45634 13.0627 6.08663 12.9699 5.74012C12.877 5.39362 12.6064 5.12297 12.2599 5.03012C11.9134 4.93728 11.5437 5.03634 11.29 5.29L7.29 9.29C7.10069 9.47777 6.9942 9.73336 6.9942 10C6.9942 10.2666 7.10069 10.5222 7.29 10.71L11.29 14.71C11.4787 14.8972 11.7342 15.0015 12 15C12.2589 14.9963 12.5062 14.8923 12.69 14.71C12.8793 14.5222 12.9858 14.2666 12.9858 14Z" fill="var(--fill-0, #4BB4E6)"/>
</g>
</svg>
