<svg preserveAspectRatio="none" width="100%" height="100%" overflow="visible" style="display: block;" viewBox="0 0 20 20" fill="none" xmlns="http://www.w3.org/2000/svg">
<g id="Layer_24">
<path id="Shape" fill-rule="evenodd" clip-rule="evenodd" d="M3 0H17C18.6569 0 20 1.34315 20 3V17C20 18.6569 18.6569 20 17 20H3C1.34315 20 0 18.6569 0 17V3C0 1.34315 1.34315 0 3 0ZM12.9106 14.3808C13.063 14.0109 12.9801 13.5857 12.7 13.3L9.42 10L12.7 6.71C13.0921 6.32064 13.0944 5.68712 12.705 5.295C12.3156 4.90288 11.6821 4.90064 11.29 5.29L7.29 9.29C6.90228 9.68004 6.90228 10.31 7.29 10.7L11.29 14.7C11.4771 14.8909 11.7328 14.9989 12 15C12.4001 14.9944 12.7583 14.7508 12.9106 14.3808Z" fill="var(--fill-0, #4BB4E6)"/>
</g>
</svg>
