<svg preserveAspectRatio="none" width="100%" height="100%" overflow="visible" style="display: block;" viewBox="0 0 14 14" fill="none" xmlns="http://www.w3.org/2000/svg">
<g id="Layer_101">
<path id="Path" d="M13.1439 0.197199C13.0187 0.0709904 12.8483 0 12.6705 0C12.4928 0 12.3224 0.0709904 12.1972 0.197199L9.8972 2.4972V2.4972L4.1772 8.2172L3.71053 8.68387L2.76387 9.63053L0.197199 12.1972C0.0709904 12.3224 0 12.4928 0 12.6705C0 12.8483 0.0709904 13.0187 0.197199 13.1439C0.322377 13.2701 0.492774 13.3411 0.670532 13.3411C0.848291 13.3411 1.01869 13.2701 1.14387 13.1439L3.81053 10.4772L4.7772 9.51053V9.51053L5.2772 9.01053V9.01053L7.6372 6.67053L13.1439 1.16387C13.2764 1.038 13.3514 0.863273 13.3514 0.680532C13.3514 0.497791 13.2764 0.323062 13.1439 0.197199Z" fill="var(--fill-0, #4BB4E6)"/>
<path id="Path_2" d="M9.6372 1.82387C8.93566 0.454502 7.38802 -0.256783 5.89197 0.102586C4.39592 0.461955 3.34021 1.79859 3.3372 3.3372V6.00387C3.33792 6.59101 3.49189 7.1678 3.78387 7.6772L9.6372 1.82387Z" fill="var(--fill-0, #4BB4E6)"/>
<path id="Path_3" d="M10.0039 6.00387V5.2172L5.9572 9.26387C6.19194 9.31203 6.4309 9.3366 6.67053 9.3372C8.51148 9.3372 10.0039 7.84481 10.0039 6.00387Z" fill="var(--fill-0, #4BB4E6)"/>
<path id="Path_4" d="M3.3372 8.1572C2.90822 7.52052 2.67635 6.77156 2.67053 6.00387C2.67053 5.63568 2.37206 5.3372 2.00387 5.3372C1.63568 5.3372 1.3372 5.63568 1.3372 6.00387C1.33554 7.12191 1.68793 8.21178 2.34387 9.1172L3.3372 8.1572Z" fill="var(--fill-0, #4BB4E6)"/>
<path id="Path_5" d="M11.3372 5.3372C10.969 5.3372 10.6705 5.63568 10.6705 6.00387C10.6705 8.213 8.87967 10.0039 6.67053 10.0039C6.24462 10.0063 5.8212 9.93876 5.4172 9.80387L4.3972 10.8239C6.04856 11.602 7.98318 11.4814 9.52518 10.5044C11.0672 9.52726 12.0023 7.82937 12.0039 6.00387C12.0039 5.63568 11.7054 5.3372 11.3372 5.3372Z" fill="var(--fill-0, #4BB4E6)"/>
<path id="Path_6" d="M8.67053 12.0039H4.67053C4.30234 12.0039 4.00387 12.3023 4.00387 12.6705C4.00387 13.0387 4.30234 13.3372 4.67053 13.3372H8.67053C9.03872 13.3372 9.3372 13.0387 9.3372 12.6705C9.3372 12.3023 9.03872 12.0039 8.67053 12.0039Z" fill="var(--fill-0, #4BB4E6)"/>
</g>
</svg>
