<svg preserveAspectRatio="none" width="100%" height="100%" overflow="visible" style="display: block;" viewBox="0 0 20 20" fill="none" xmlns="http://www.w3.org/2000/svg">
<g id="Layer_41">
<path id="Shape" fill-rule="evenodd" clip-rule="evenodd" d="M0 10C0 4.47715 4.47715 0 10 0C12.6522 0 15.1957 1.05357 17.0711 2.92893C18.9464 4.8043 20 7.34784 20 10C20 15.5228 15.5228 20 10 20C4.47715 20 0 15.5228 0 10ZM11 11H15C15.5523 11 16 10.5523 16 10C16 9.44771 15.5523 9 15 9H11V5C11 4.44772 10.5523 4 10 4C9.44771 4 9 4.44772 9 5V9H5C4.44772 9 4 9.44771 4 10C4 10.5523 4.44772 11 5 11H9V15C9 15.5523 9.44771 16 10 16C10.5523 16 11 15.5523 11 15V11Z" fill="var(--fill-0, #4BB4E6)"/>
</g>
</svg>
