<svg preserveAspectRatio="none" width="100%" height="100%" overflow="visible" style="display: block;" viewBox="0 0 20 20" fill="none" xmlns="http://www.w3.org/2000/svg">
<g id="Layer_47">
<path id="Path" d="M19.3778 9.60002C19.938 9.02737 20.1276 8.18783 19.8678 7.43002C19.6239 6.66964 18.968 6.11469 18.1778 6.00002L13.8878 5.34002C13.8473 5.32827 13.8142 5.29888 13.7978 5.26002L11.9178 1.26002V1.26002C11.5809 0.494703 10.8239 0.0005005 9.98778 1.80663e-05V1.80663e-05C9.16154 -0.00339843 8.41008 0.478005 8.06778 1.23002L6.18778 5.23002C6.16704 5.26944 6.1308 5.29844 6.08778 5.31002L1.80778 6.00002C1.01675 6.11787 0.359353 6.67085 0.107782 7.43002C-0.142313 8.19004 0.0503213 9.02607 0.607782 9.60002L3.76778 12.85C3.78618 12.8914 3.78618 12.9386 3.76778 12.98L3.02778 17.52C2.88737 18.327 3.22445 19.1428 3.89362 19.6152C4.56278 20.0877 5.44427 20.1324 6.15778 19.73L9.88778 17.66C9.92539 17.6405 9.97017 17.6405 10.0078 17.66L13.7378 19.73C14.452 20.1236 15.3282 20.0749 15.9944 19.6045C16.6605 19.1342 16.9997 18.3248 16.8678 17.52L16.1778 13C16.1563 12.9629 16.1563 12.9171 16.1778 12.88L19.3778 9.60002Z" fill="var(--fill-0, #4BB4E6)"/>
</g>
</svg>
