<svg preserveAspectRatio="none" width="100%" height="100%" overflow="visible" style="display: block;" viewBox="0 0 27 27" fill="none" xmlns="http://www.w3.org/2000/svg">
<g id="Layer_7">
<path id="Shape" fill-rule="evenodd" clip-rule="evenodd" d="M0 13.3333C0 5.96954 5.96954 0 13.3333 0C16.8696 0 20.2609 1.40476 22.7614 3.90524C25.2619 6.40573 26.6667 9.79711 26.6667 13.3333C26.6667 20.6971 20.6971 26.6667 13.3333 26.6667C5.96954 26.6667 0 20.6971 0 13.3333ZM14.28 20.9467L19.6133 15.6133C20.1362 15.0905 20.1362 14.2428 19.6133 13.72C19.0905 13.1972 18.2428 13.1972 17.72 13.72L14.6667 16.7867V6.66667C14.6667 5.93029 14.0697 5.33333 13.3333 5.33333C12.597 5.33333 12 5.93029 12 6.66667V16.7867L8.94667 13.72C8.60845 13.3818 8.1155 13.2497 7.6535 13.3735C7.19149 13.4973 6.83062 13.8582 6.70683 14.3202C6.58303 14.7822 6.71512 15.2751 7.05333 15.6133L12.3867 20.9467C12.5135 21.0681 12.663 21.1632 12.8267 21.2267C13.1494 21.3693 13.5173 21.3693 13.84 21.2267C14.0037 21.1632 14.1532 21.0681 14.28 20.9467Z" fill="var(--fill-0, #4BB4E6)"/>
</g>
</svg>
