<svg preserveAspectRatio="none" width="100%" height="100%" overflow="visible" style="display: block;" viewBox="0 0 14 14" fill="none" xmlns="http://www.w3.org/2000/svg">
<g id="Layer_80">
<path id="Path" d="M10.6667 2V6.66667C10.6667 7.77124 9.77124 8.66667 8.66667 8.66667H5.55333L4.13333 9.73333L3.06667 10.5333C2.95127 10.6199 2.81091 10.6667 2.66667 10.6667C2.56202 10.6685 2.45867 10.6432 2.36667 10.5933C2.14248 10.4804 2.00076 10.251 2 10V8.66667C0.89543 8.66667 0 7.77124 0 6.66667V2C0 0.89543 0.89543 0 2 0H8.66667C9.77124 0 10.6667 0.89543 10.6667 2Z" fill="var(--fill-0, #4BB4E6)"/>
<path id="Path_2" d="M13.3333 4.66667V9.33333C13.3333 10.4379 12.4379 11.3333 11.3333 11.3333V12.6667C11.3326 12.9177 11.1909 13.147 10.9667 13.26C10.8747 13.3099 10.7713 13.3352 10.6667 13.3333C10.5224 13.3333 10.3821 13.2865 10.2667 13.2L7.78 11.3333H4.66667C4.27233 11.3316 3.8873 11.2133 3.56 10.9933L5.77333 9.33333H8.66667C10.1394 9.33333 11.3333 8.13943 11.3333 6.66667V2.66667C12.4379 2.66667 13.3333 3.5621 13.3333 4.66667Z" fill="var(--fill-0, #4BB4E6)"/>
</g>
</svg>
