<svg preserveAspectRatio="none" width="100%" height="100%" overflow="visible" style="display: block;" viewBox="0 0 14 11" fill="none" xmlns="http://www.w3.org/2000/svg">
<g id="Layer_87">
<path id="Shape" fill-rule="evenodd" clip-rule="evenodd" d="M13.3333 3.33333C13.3333 3.70152 13.0349 4 12.6667 4C11.9303 4 11.3333 4.59695 11.3333 5.33333C11.3333 6.06971 11.9303 6.66667 12.6667 6.66667C13.0349 6.66667 13.3333 6.96514 13.3333 7.33333V8.66667C13.3333 9.77124 12.4379 10.6667 11.3333 10.6667H8.66667V8.66667C8.66667 8.29848 8.36819 8 8 8C7.63181 8 7.33333 8.29848 7.33333 8.66667V10.6667H2C0.89543 10.6667 0 9.77124 0 8.66667V7.33333C0 6.96514 0.298477 6.66667 0.666667 6.66667C1.40305 6.66667 2 6.06971 2 5.33333C2 4.59695 1.40305 4 0.666667 4C0.298477 4 0 3.70152 0 3.33333V2C0 0.89543 0.89543 0 2 0H7.33333V2C7.33333 2.36819 7.63181 2.66667 8 2.66667C8.36819 2.66667 8.66667 2.36819 8.66667 2V0H11.3333C12.4379 0 13.3333 0.89543 13.3333 2V3.33333ZM8 6.66667C8.36819 6.66667 8.66667 6.36819 8.66667 6V4.66667C8.66667 4.29848 8.36819 4 8 4C7.63181 4 7.33333 4.29848 7.33333 4.66667V6C7.33333 6.36819 7.63181 6.66667 8 6.66667Z" fill="var(--fill-0, #4BB4E6)"/>
</g>
</svg>
