<svg preserveAspectRatio="none" width="100%" height="100%" overflow="visible" style="display: block;" viewBox="0 0 20 20" fill="none" xmlns="http://www.w3.org/2000/svg">
<g id="Layer_98">
<path id="Shape" fill-rule="evenodd" clip-rule="evenodd" d="M17.04 8.95C16.4877 8.95 16.04 9.39771 16.04 9.95C16.04 10.5023 16.4877 10.95 17.04 10.95H19.95C19.7942 12.2786 19.3689 13.5615 18.7 14.72C16.841 12.7148 14.3476 11.4116 11.64 11.03L13.81 7.42C14.0345 7.11129 14.0637 6.70171 13.8852 6.36429C13.7068 6.02687 13.3518 5.82048 12.9702 5.83232C12.5887 5.84416 12.2472 6.07216 12.09 6.42L9.37 10.95C6.25161 11.0962 3.31636 12.4651 1.2 14.76C0.543458 13.5855 0.135027 12.2887 0 10.95H2.95C3.50228 10.95 3.95 10.5023 3.95 9.95C3.95 9.39771 3.50228 8.95 2.95 8.95H0C0.193551 6.98428 0.970106 5.12124 2.23 3.6L4.14 5.43C4.52495 5.79194 5.12505 5.79194 5.51 5.43C5.87825 5.0437 5.87825 4.4363 5.51 4.05L3.65 2.19C5.16223 0.953622 7.00611 0.191716 8.95 0V2.95C8.95 3.50228 9.39771 3.95 9.95 3.95C10.5023 3.95 10.95 3.50228 10.95 2.95V0C12.9153 0.195338 14.7778 0.971684 16.3 2.23L14.44 4.09C14.0479 4.47936 14.0456 5.11288 14.435 5.505C14.8244 5.89712 15.4579 5.89936 15.85 5.51L17.76 3.65C18.9918 5.16498 19.7531 7.00742 19.95 8.95H17.04ZM2.36 16.44C4.25963 14.225 7.03198 12.9502 9.95 12.95C12.868 12.9502 15.6404 14.225 17.54 16.44C15.6402 18.6547 12.8679 19.9291 9.95 19.9291C7.03213 19.9291 4.2598 18.6547 2.36 16.44Z" fill="var(--fill-0, #4BB4E6)"/>
</g>
</svg>
