<svg preserveAspectRatio="none" width="100%" height="100%" overflow="visible" style="display: block;" viewBox="0 0 27 27" fill="none" xmlns="http://www.w3.org/2000/svg">
<g id="Layer_112">
<path id="Path" d="M25.24 4.76003C24.5759 4.2233 23.7473 3.93141 22.8934 3.93336H3.77335C1.69243 3.94068 0.00733138 5.62578 1.70116e-05 7.7067V8.60003C-0.00493638 10.4326 1.07221 12.0954 2.74668 12.84C3.34689 13.1236 4.00288 13.2693 4.66668 13.2667H6.00002C7.25793 13.2726 8.46306 12.7616 9.33335 11.8534C10.2036 12.7616 11.4088 13.2726 12.6667 13.2667H14C15.2579 13.2726 16.4631 12.7616 17.3334 11.8534C18.2036 12.7616 19.4088 13.2726 20.6667 13.2667H22C22.6638 13.2693 23.3198 13.1236 23.92 12.84C25.5945 12.0954 26.6716 10.4326 26.6667 8.60003V7.7067C26.6661 6.55813 26.1407 5.47279 25.24 4.76003Z" fill="var(--fill-0, #4BB4E6)"/>
<path id="Path_2" d="M20.6667 14.6C19.4785 14.6084 18.3159 14.255 17.3334 13.5867C16.3509 14.255 15.1882 14.6084 14 14.6H12.6667C11.4785 14.6084 10.3159 14.255 9.33335 13.5867C8.35085 14.255 7.18823 14.6084 6.00002 14.6H4.66668C3.98374 14.6018 3.30613 14.4798 2.66668 14.24V22.6C2.66668 24.8092 4.45754 26.6 6.66668 26.6H9.33335V19.9334C9.33335 17.7242 11.1242 15.9334 13.3334 15.9334C15.5425 15.9334 17.3334 17.7242 17.3334 19.9334V26.6H20C22.2092 26.6 24 24.8092 24 22.6V14.24C23.3615 14.4834 22.6833 14.6055 22 14.6H20.6667Z" fill="var(--fill-0, #4BB4E6)"/>
<path id="Path_3" d="M22.8934 2.60003C23.4802 2.60107 24.0623 2.70486 24.6133 2.9067L24.5333 2.6667C23.9664 1.06316 22.4475 -0.00652662 20.7467 2.99731e-05H5.92002C4.21923 -0.00652662 2.70027 1.06316 2.13335 2.6667L2.05335 2.9067C2.60439 2.70486 3.18651 2.60107 3.77335 2.60003H22.8934Z" fill="var(--fill-0, #4BB4E6)"/>
</g>
</svg>
