<svg preserveAspectRatio="none" width="100%" height="100%" overflow="visible" style="display: block;" viewBox="0 0 20 20" fill="none" xmlns="http://www.w3.org/2000/svg">
<g id="Layer_48">
<path id="Shape" fill-rule="evenodd" clip-rule="evenodd" d="M10 12V8C10 7.44772 10.4477 7 11 7H20V13H11C10.4477 13 10 12.5523 10 12ZM16 10C16 8.89543 15.1046 8 14 8C12.8954 8 12 8.89543 12 10C12 11.1046 12.8954 12 14 12C15.1046 12 16 11.1046 16 10Z" fill="var(--fill-0, #4BB4E6)"/>
<path id="Path" d="M11 15C9.34315 15 8 13.6569 8 12V8C8 6.34315 9.34315 5 11 5H20V3C20 1.34315 18.6569 0 17 0H3C1.34315 0 0 1.34315 0 3V17C0 18.6569 1.34315 20 3 20H17C18.6569 20 20 18.6569 20 17V15H11Z" fill="var(--fill-0, #4BB4E6)"/>
</g>
</svg>
