<svg preserveAspectRatio="none" width="100%" height="100%" overflow="visible" style="display: block;" viewBox="0 0 27 27" fill="none" xmlns="http://www.w3.org/2000/svg">
<g id="Layer_98">
<path id="Shape" fill-rule="evenodd" clip-rule="evenodd" d="M22.72 11.9333C21.9836 11.9333 21.3867 12.5303 21.3867 13.2667C21.3867 14.003 21.9836 14.6 22.72 14.6H26.6C26.3923 16.3715 25.8251 18.082 24.9333 19.6267C22.4546 16.953 19.1302 15.2155 15.52 14.7067L18.4133 9.89333C18.7127 9.48173 18.7516 8.93561 18.5136 8.48572C18.2757 8.03582 17.8024 7.76064 17.2937 7.77642C16.7849 7.79221 16.3296 8.09622 16.12 8.56L12.4933 14.6C8.33548 14.795 4.42181 16.6201 1.6 19.68C0.724611 18.114 0.180036 16.385 0 14.6H3.93333C4.66971 14.6 5.26667 14.003 5.26667 13.2667C5.26667 12.5303 4.66971 11.9333 3.93333 11.9333H0C0.258068 9.31237 1.29347 6.82833 2.97333 4.8L5.52 7.24C6.03327 7.72259 6.8334 7.72259 7.34667 7.24C7.83767 6.72494 7.83767 5.91506 7.34667 5.4L4.86667 2.92C6.88297 1.2715 9.34148 0.255621 11.9333 0V3.93333C11.9333 4.66971 12.5303 5.26667 13.2667 5.26667C14.003 5.26667 14.6 4.66971 14.6 3.93333V0C17.2204 0.260451 19.7037 1.29558 21.7333 2.97333L19.2533 5.45333C18.7305 5.97248 18.7275 6.81717 19.2467 7.34C19.7658 7.86283 20.6105 7.86581 21.1333 7.34667L23.68 4.86667C25.3224 6.88664 26.3374 9.34322 26.6 11.9333H22.72ZM3.14667 21.92C5.67951 18.9667 9.37598 17.267 13.2667 17.2667C17.1574 17.267 20.8538 18.9667 23.3867 21.92C20.8536 24.8729 17.1572 26.5721 13.2667 26.5721C9.37617 26.5721 5.67973 24.8729 3.14667 21.92Z" fill="var(--fill-0, #4BB4E6)"/>
</g>
</svg>
