<svg preserveAspectRatio="none" width="100%" height="100%" overflow="visible" style="display: block;" viewBox="0 0 16 12" fill="none" xmlns="http://www.w3.org/2000/svg">
<path id="Vector" d="M3.4954 11.9691C2.59993 11.9679 1.73896 11.6235 1.08967 11.0068C0.440383 10.3902 0.0521582 9.54806 0.00488456 8.65383C-0.042389 7.75961 0.254885 6.88127 0.835535 6.19957C1.41619 5.51786 2.23604 5.08465 3.1264 4.98906C2.86423 3.96095 3.02122 2.8708 3.56283 1.95844C4.10443 1.04607 4.98629 0.386226 6.0144 0.12406C7.04251 -0.138107 8.13266 0.0188798 9.04503 0.560485C9.95739 1.10209 10.6172 1.98395 10.8794 3.01206C11.4908 2.92692 12.1133 2.96851 12.708 3.13422C13.3026 3.29994 13.8569 3.58625 14.3362 3.97534C14.8155 4.36443 15.2096 4.84798 15.494 5.39591C15.7784 5.94383 15.947 6.54442 15.9894 7.16031C16.0317 7.7762 15.9469 8.39422 15.7402 8.97593C15.5335 9.55763 15.2093 10.0906 14.7878 10.5416C14.3662 10.9927 13.8564 11.3521 13.29 11.5977C12.7236 11.8433 12.1127 11.9697 11.4954 11.9691H3.4954Z" fill="var(--fill-0, #111928)"/>
</svg>
