<svg preserveAspectRatio="none" width="100%" height="100%" overflow="visible" style="display: block;" viewBox="0 0 16 15" fill="none" xmlns="http://www.w3.org/2000/svg">
<path id="Vector" fill-rule="evenodd" clip-rule="evenodd" d="M7.243 0.0369274C7.50026 0.101381 7.72137 0.265386 7.85771 0.492866C7.99405 0.720346 8.03444 0.992668 7.97 1.24993L7.53 3.00693H10.47L11.03 0.763927C11.0611 0.635733 11.1173 0.514968 11.1954 0.40859C11.2734 0.302211 11.3717 0.212321 11.4846 0.144099C11.5975 0.0758762 11.7228 0.0306696 11.8533 0.0110831C11.9837 -0.00850349 12.1168 -0.00208272 12.2447 0.0299753C12.3727 0.0620334 12.4931 0.119095 12.5989 0.197873C12.7047 0.276651 12.7939 0.375589 12.8613 0.488986C12.9287 0.602384 12.973 0.727999 12.9917 0.858596C13.0103 0.989193 13.003 1.12219 12.97 1.24993L12.53 3.00693H15C15.2652 3.00693 15.5196 3.11228 15.7071 3.29982C15.8946 3.48736 16 3.74171 16 4.00693C16 4.27214 15.8946 4.5265 15.7071 4.71403C15.5196 4.90157 15.2652 5.00693 15 5.00693H12.03L11.03 9.00693H13C13.2652 9.00693 13.5196 9.11228 13.7071 9.29982C13.8946 9.48736 14 9.74171 14 10.0069C14 10.2721 13.8946 10.5265 13.7071 10.714C13.5196 10.9016 13.2652 11.0069 13 11.0069H10.53L9.97 13.2489C9.94001 13.3783 9.88457 13.5003 9.80691 13.608C9.72925 13.7157 9.63092 13.8068 9.51767 13.8761C9.40441 13.9454 9.2785 13.9914 9.14726 14.0115C9.01603 14.0316 8.88211 14.0254 8.75331 13.9932C8.62451 13.961 8.50341 13.9035 8.39707 13.824C8.29074 13.7445 8.2013 13.6446 8.13397 13.5302C8.06664 13.4158 8.02277 13.2891 8.00492 13.1575C7.98707 13.026 7.9956 12.8922 8.03 12.7639L8.47 11.0069H5.53L4.97 13.2489C4.94001 13.3783 4.88457 13.5003 4.80691 13.608C4.72925 13.7157 4.63092 13.8068 4.51767 13.8761C4.40441 13.9454 4.2785 13.9914 4.14726 14.0115C4.01603 14.0316 3.88211 14.0254 3.75331 13.9932C3.62451 13.961 3.50341 13.9035 3.39707 13.824C3.29074 13.7445 3.2013 13.6446 3.13397 13.5302C3.06664 13.4158 3.02277 13.2891 3.00492 13.1575C2.98707 13.026 2.9956 12.8922 3.03 12.7639L3.47 11.0069H1C0.734784 11.0069 0.48043 10.9016 0.292893 10.714C0.105357 10.5265 0 10.2721 0 10.0069C0 9.74171 0.105357 9.48736 0.292893 9.29982C0.48043 9.11228 0.734784 9.00693 1 9.00693H3.97L4.97 5.00693H3C2.73478 5.00693 2.48043 4.90157 2.29289 4.71403C2.10536 4.5265 2 4.27214 2 4.00693C2 3.74171 2.10536 3.48736 2.29289 3.29982C2.48043 3.11228 2.73478 3.00693 3 3.00693H5.47L6.03 0.763927C6.09445 0.506671 6.25846 0.285554 6.48594 0.149216C6.71342 0.012878 6.98574 -0.0275132 7.243 0.0369274V0.0369274ZM7.03 5.00693L6.03 9.00693H8.968L9.968 5.00693H7.031H7.03Z" fill="var(--fill-0, #111928)"/>
</svg>
