<svg preserveAspectRatio="none" width="100%" height="100%" overflow="visible" style="display: block;" viewBox="0 0 11 15" fill="none" xmlns="http://www.w3.org/2000/svg">
<path id="Vector (Stroke)" fill-rule="evenodd" clip-rule="evenodd" d="M5.81145e-07 0.75C5.81145e-07 0.335786 0.335787 0 0.75 0H2.25C2.66421 0 3 0.335786 3 0.75V14.25C3 14.6642 2.66421 15 2.25 15H0.75C0.551088 15 0.360322 14.921 0.21967 14.7803C0.0790176 14.6397 0 14.4489 0 14.25L5.81145e-07 0.75ZM7.5 0.75C7.5 0.335786 7.83579 0 8.25 0H9.75C9.94891 0 10.1397 0.0790177 10.2803 0.21967C10.421 0.360322 10.5 0.551088 10.5 0.75L10.5 14.25C10.5 14.6642 10.1642 15 9.75 15H8.25C7.83579 15 7.5 14.6642 7.5 14.25V0.75Z" fill="var(--fill-0, #111928)"/>
</svg>
