<svg preserveAspectRatio="none" width="100%" height="100%" overflow="visible" style="display: block;" viewBox="0 0 27 27" fill="none" xmlns="http://www.w3.org/2000/svg">
<g id="Layer_51">
<path id="Path" d="M22.6667 0H9.33333C7.12419 0 5.33333 1.79086 5.33333 4V10.6667H8C8.00451 9.59159 8.65417 8.62436 9.64768 8.21355C10.6412 7.80275 11.7842 8.02872 12.5467 8.78667L15.2133 11.4533C16.2473 12.4934 16.2473 14.1732 15.2133 15.2133L12.5467 17.88C11.5066 18.9139 9.82677 18.9139 8.78667 17.88C8.28588 17.3822 8.00298 16.7061 8 16H5.33333V22.6667C5.33333 24.8758 7.12419 26.6667 9.33333 26.6667H22.6667C24.8758 26.6667 26.6667 24.8758 26.6667 22.6667V4C26.6667 1.79086 24.8758 0 22.6667 0Z" fill="var(--fill-0, #4BB4E6)"/>
<path id="Path_2" d="M10.12 14.6667L9.72 15.0533C9.46758 15.3037 9.3256 15.6445 9.3256 16C9.3256 16.3555 9.46758 16.6963 9.72 16.9467C9.97036 17.1991 10.3112 17.3411 10.6667 17.3411C11.0222 17.3411 11.363 17.1991 11.6133 16.9467L14.28 14.28C14.5324 14.0296 14.6744 13.6889 14.6744 13.3333C14.6744 12.9778 14.5324 12.637 14.28 12.3867L11.6133 9.72C11.0905 9.19717 10.2428 9.19717 9.72 9.72C9.19717 10.2428 9.19717 11.0905 9.72 11.6133L10.12 12H1.33333C0.596954 12 0 12.597 0 13.3333C0 14.0697 0.596954 14.6667 1.33333 14.6667H10.12V14.6667Z" fill="var(--fill-0, #4BB4E6)"/>
</g>
</svg>
