<svg preserveAspectRatio="none" width="100%" height="100%" overflow="visible" style="display: block;" viewBox="0 0 14 14" fill="none" xmlns="http://www.w3.org/2000/svg">
<g id="Layer_37">
<path id="Shape" fill-rule="evenodd" clip-rule="evenodd" d="M11.3333 0H2C0.89543 0 0 0.89543 0 2V3.33333C0 3.70152 0.298477 4 0.666667 4H1.33333V11.3333C1.33333 12.4379 2.22876 13.3333 3.33333 13.3333H10C11.1046 13.3333 12 12.4379 12 11.3333V4H12.6667C13.0349 4 13.3333 3.70152 13.3333 3.33333V2C13.3333 0.89543 12.4379 0 11.3333 0ZM5.33333 10C5.33333 10.3682 5.03486 10.6667 4.66667 10.6667C4.29848 10.6667 4 10.3682 4 10V6C4 5.63181 4.29848 5.33333 4.66667 5.33333C5.03486 5.33333 5.33333 5.63181 5.33333 6V10ZM8.66667 10.6667C9.03486 10.6667 9.33333 10.3682 9.33333 10V6C9.33333 5.63181 9.03486 5.33333 8.66667 5.33333C8.29848 5.33333 8 5.63181 8 6V10C8 10.3682 8.29848 10.6667 8.66667 10.6667Z" fill="var(--fill-0, #4BB4E6)"/>
</g>
</svg>
