<svg preserveAspectRatio="none" width="100%" height="100%" overflow="visible" style="display: block;" viewBox="0 0 18 15" fill="none" xmlns="http://www.w3.org/2000/svg">
<path id="Vector" fill-rule="evenodd" clip-rule="evenodd" d="M8.383 0.439786C8.56569 0.515531 8.72181 0.643743 8.83163 0.808212C8.94146 0.97268 9.00005 1.16602 9 1.36379V13.3638C8.99996 13.5615 8.94129 13.7548 8.8314 13.9192C8.72152 14.0837 8.56535 14.2118 8.38265 14.2875C8.19995 14.3631 7.99892 14.3829 7.80497 14.3444C7.61102 14.3058 7.43285 14.2106 7.293 14.0708L3.586 10.3638H1C0.734784 10.3638 0.48043 10.2584 0.292893 10.0709C0.105357 9.88336 0 9.629 0 9.36379V5.36379C0 5.09857 0.105357 4.84422 0.292893 4.65668C0.48043 4.46914 0.734784 4.36379 1 4.36379H3.586L7.293 0.656786C7.43285 0.516854 7.61105 0.421545 7.80508 0.382918C7.9991 0.344291 8.20023 0.364082 8.383 0.439786V0.439786ZM13.657 0.292786C13.8445 0.105315 14.0988 0 14.364 0C14.6292 0 14.8835 0.105315 15.071 0.292786C16.0008 1.22044 16.7382 2.32264 17.2409 3.5361C17.7435 4.74955 18.0015 6.05035 18 7.36379C18.0015 8.67723 17.7435 9.97802 17.2409 11.1915C16.7382 12.4049 16.0008 13.5071 15.071 14.4348C14.8824 14.6169 14.6298 14.7177 14.3676 14.7155C14.1054 14.7132 13.8546 14.608 13.6692 14.4226C13.4838 14.2372 13.3786 13.9864 13.3763 13.7242C13.374 13.462 13.4748 13.2094 13.657 13.0208C14.4011 12.2788 14.9912 11.3971 15.3933 10.4262C15.7955 9.45539 16.0016 8.41461 16 7.36379C16 5.15379 15.106 3.15579 13.657 1.70679C13.4695 1.51926 13.3642 1.26495 13.3642 0.999786C13.3642 0.734622 13.4695 0.480314 13.657 0.292786V0.292786ZM10.828 3.12079C10.9209 3.02781 11.0312 2.95405 11.1526 2.90373C11.274 2.8534 11.4041 2.8275 11.5355 2.8275C11.6669 2.8275 11.797 2.8534 11.9184 2.90373C12.0398 2.95405 12.1501 3.02781 12.243 3.12079C12.8009 3.67745 13.2433 4.33885 13.5448 5.067C13.8463 5.79514 14.001 6.57568 14 7.36379C14.001 8.15188 13.8463 8.93241 13.5447 9.66055C13.2432 10.3887 12.8008 11.0501 12.243 11.6068C12.0554 11.7944 11.8009 11.8998 11.5355 11.8998C11.2701 11.8998 11.0156 11.7944 10.828 11.6068C10.6404 11.4191 10.5349 11.1647 10.5349 10.8993C10.5349 10.6339 10.6404 10.3794 10.828 10.1918C11.2002 9.82096 11.4953 9.38019 11.6965 8.89485C11.8976 8.4095 12.0008 7.88916 12 7.36379C12.0008 6.8384 11.8977 6.31805 11.6965 5.8327C11.4954 5.34734 11.2002 4.90658 10.828 4.53579C10.735 4.44291 10.6613 4.33262 10.6109 4.21123C10.5606 4.08983 10.5347 3.9597 10.5347 3.82829C10.5347 3.69687 10.5606 3.56674 10.6109 3.44535C10.6613 3.32395 10.735 3.21366 10.828 3.12079V3.12079Z" fill="var(--fill-0, #111928)"/>
</svg>
