<svg preserveAspectRatio="none" width="100%" height="100%" overflow="visible" style="display: block;" viewBox="0 0 16 16" fill="none" xmlns="http://www.w3.org/2000/svg">
<path id="Vector" d="M8.39608 0.0808895C8.27158 0.0275197 8.13754 0 8.00208 0C7.86663 0 7.73258 0.0275197 7.60808 0.0808895L0.608082 3.08089C0.427692 3.15774 0.273874 3.28592 0.165758 3.44949C0.0576426 3.61307 0 3.80481 0 4.00089C0 4.19697 0.0576426 4.38871 0.165758 4.55229C0.273874 4.71586 0.427692 4.84404 0.608082 4.92089L3.25208 6.05189C3.35022 5.94088 3.47182 5.8531 3.60808 5.79489L7.60808 4.08089C7.72912 4.02694 7.85968 3.99759 7.99217 3.99454C8.12465 3.99149 8.25643 4.01481 8.37982 4.06313C8.50322 4.11145 8.61578 4.18382 8.71096 4.27602C8.80614 4.36823 8.88205 4.47844 8.93427 4.60023C8.98649 4.72203 9.01398 4.853 9.01514 4.98551C9.0163 5.11803 8.99111 5.24945 8.94103 5.37215C8.89096 5.49484 8.81699 5.60636 8.72344 5.70022C8.62989 5.79408 8.51861 5.86841 8.39608 5.91889L5.66908 7.08889L7.60908 7.91989C7.73344 7.97312 7.86731 8.00057 8.00258 8.00057C8.13785 8.00057 8.27172 7.97312 8.39608 7.91989L15.3961 4.91989C15.5759 4.84276 15.7291 4.71458 15.8368 4.55123C15.9444 4.38788 16.0018 4.19653 16.0018 4.00089C16.0018 3.80525 15.9444 3.6139 15.8368 3.45055C15.7291 3.2872 15.5759 3.15902 15.3961 3.08189L8.39608 0.0818896V0.0808895ZM1.31208 7.39789L3.00208 8.12089V12.2229C2.65583 12.1442 2.30522 12.0861 1.95208 12.0489C1.72423 12.0249 1.5115 11.9235 1.3495 11.7615C1.18749 11.5995 1.08603 11.3867 1.06208 11.1589C0.930572 9.8998 1.01512 8.6275 1.31208 7.39689V7.39789ZM7.30208 14.5739C6.6261 13.9106 5.84993 13.3578 5.00208 12.9359V8.97889L6.82008 9.75889C7.19358 9.919 7.59571 10.0016 8.00208 10.0016C8.40845 10.0016 8.81058 9.919 9.18408 9.75889L14.6921 7.39789C14.9908 8.62824 15.0754 9.90084 14.9421 11.1599C14.9181 11.3877 14.8167 11.6005 14.6547 11.7625C14.4927 11.9245 14.2799 12.0259 14.0521 12.0499C12.0346 12.2619 10.1486 13.1517 8.70208 14.5739C8.51515 14.7571 8.26383 14.8597 8.00208 14.8597C7.74033 14.8597 7.48901 14.7571 7.30208 14.5739V14.5739ZM4.00208 16.0009C4.2673 16.0009 4.52165 15.8955 4.70919 15.708C4.89672 15.5205 5.00208 15.2661 5.00208 15.0009V12.9359C4.36608 12.6199 3.69467 12.3809 3.00208 12.2239V15.0009C3.00208 15.2661 3.10744 15.5205 3.29498 15.708C3.48251 15.8955 3.73687 16.0009 4.00208 16.0009Z" fill="var(--fill-0, #111928)"/>
</svg>
