<svg preserveAspectRatio="none" width="100%" height="100%" overflow="visible" style="display: block;" viewBox="0 0 27 23" fill="none" xmlns="http://www.w3.org/2000/svg">
<g id="Layer_34">
<circle id="Oval" cx="13.3333" cy="13.3333" r="2.66667" fill="var(--fill-0, #4BB4E6)"/>
<path id="Shape" fill-rule="evenodd" clip-rule="evenodd" d="M19.3867 4H22.6667C24.8758 4 26.6667 5.79086 26.6667 8V18.6667C26.6667 20.8758 24.8758 22.6667 22.6667 22.6667H4C1.79086 22.6667 0 20.8758 0 18.6667V8C0 5.79086 1.79086 4 4 4H7.28L8.76 1.78667C9.50162 0.670277 10.7531 -0.000499579 12.0933 2.79172e-07H14.5733C15.9136 -0.000499579 17.1651 0.670277 17.9067 1.78667L19.3867 4ZM8 13.3333C8 16.2789 10.3878 18.6667 13.3333 18.6667C14.7478 18.6667 16.1044 18.1048 17.1046 17.1046C18.1048 16.1044 18.6667 14.7478 18.6667 13.3333C18.6667 10.3878 16.2789 8 13.3333 8C10.3878 8 8 10.3878 8 13.3333Z" fill="var(--fill-0, #4BB4E6)"/>
</g>
</svg>
