<svg preserveAspectRatio="none" width="100%" height="100%" overflow="visible" style="display: block;" viewBox="0 0 14 14" fill="none" xmlns="http://www.w3.org/2000/svg">
<g id="Layer_77">
<path id="Shape" fill-rule="evenodd" clip-rule="evenodd" d="M11.3333 4.66667V6C12.4379 6 13.3333 6.89543 13.3333 8V11.3333C13.3333 12.4379 12.4379 13.3333 11.3333 13.3333H2C0.89543 13.3333 0 12.4379 0 11.3333V8C0 6.89543 0.89543 6 2 6V4.66667C2 2.08934 4.08934 6.95387e-08 6.66667 6.95387e-08C9.244 6.95387e-08 11.3333 2.08934 11.3333 4.66667ZM3.33333 6H10V4.66667C10 2.82572 8.50762 1.33333 6.66667 1.33333C4.82572 1.33333 3.33333 2.82572 3.33333 4.66667V6Z" fill="var(--fill-0, #4BB4E6)"/>
</g>
</svg>
