<svg preserveAspectRatio="none" width="100%" height="100%" overflow="visible" style="display: block;" viewBox="0 0 20 20" fill="none" xmlns="http://www.w3.org/2000/svg">
<g id="Layer_67">
<path id="Shape" fill-rule="evenodd" clip-rule="evenodd" d="M2.92893 2.92893C6.78627 -0.928403 13.0233 -0.982602 16.9471 2.80712C20.7368 6.73091 20.6826 12.968 16.8253 16.8253C12.968 20.6826 6.73091 20.7368 2.80712 16.9471C-0.982602 13.0233 -0.928403 6.78627 2.92893 2.92893ZM14.4329 13.4271C14.4329 13.1605 14.3264 12.9049 14.1371 12.7171L11.2871 9.87712L14.1371 7.03712C14.3908 6.78346 14.4898 6.41375 14.397 6.06724C14.3042 5.72074 14.0335 5.45009 13.687 5.35724C13.3405 5.2644 12.9708 5.36346 12.7171 5.61712L9.87712 8.46712L7.03712 5.61712C6.78346 5.36346 6.41375 5.2644 6.06724 5.35724C5.72074 5.45009 5.45009 5.72074 5.35724 6.06724C5.2644 6.41375 5.36346 6.78346 5.61712 7.03712L8.46712 9.87712L5.61712 12.7171C5.42781 12.9049 5.32132 13.1605 5.32132 13.4271C5.32132 13.6938 5.42781 13.9494 5.61712 14.1371C5.80584 14.3243 6.06132 14.4287 6.32712 14.4271C6.59292 14.4287 6.8484 14.3243 7.03712 14.1371L9.87712 11.2871L12.7171 14.1371C12.9058 14.3243 13.1613 14.4287 13.4271 14.4271C13.6929 14.4287 13.9484 14.3243 14.1371 14.1371C14.3264 13.9494 14.4329 13.6938 14.4329 13.4271Z" fill="var(--fill-0, #4BB4E6)"/>
</g>
</svg>
