<svg preserveAspectRatio="none" width="100%" height="100%" overflow="visible" style="display: block;" viewBox="0 0 27 26" fill="none" xmlns="http://www.w3.org/2000/svg">
<g id="Layer_129">
<path id="Shape" fill-rule="evenodd" clip-rule="evenodd" d="M24.4133 10.0882C25.4133 10.6882 26.6667 11.4882 26.6667 12.8216C26.6667 14.1549 25.4133 14.9549 24.4133 15.4482C24.1028 15.6237 23.8044 15.8197 23.52 16.0349C23.6198 16.396 23.7491 16.7483 23.9067 17.0882C23.9181 17.1158 23.9295 17.1436 23.9411 17.1715C24.3754 18.2224 24.8993 19.4899 24.12 20.5549C23.32 21.6482 21.8933 21.5282 20.7333 21.4216C20.3649 21.3956 19.9951 21.3956 19.6267 21.4216C19.5409 21.6422 19.4325 22.0771 19.3534 22.3944C19.3465 22.4222 19.3398 22.4491 19.3333 22.4749C19.3289 22.4947 19.3245 22.5147 19.32 22.5346C19.0694 23.6574 18.7633 25.0288 17.4533 25.4349C17.2509 25.5016 17.0397 25.5375 16.8267 25.5416C15.8406 25.4078 14.9313 24.9366 14.2533 24.2082C13.9646 23.9461 13.6571 23.7055 13.3333 23.4882C13.0095 23.7055 12.702 23.9461 12.4133 24.2082C11.5467 25.0216 10.5067 25.9549 9.21333 25.5416C7.92 25.1282 7.58667 23.7149 7.33333 22.5816C7.32689 22.5558 7.32019 22.5289 7.31326 22.5011C7.23418 22.1838 7.12582 21.7489 7.04 21.5282C6.67157 21.5023 6.30177 21.5023 5.93333 21.5282C4.77333 21.6349 3.33333 21.7416 2.54667 20.6616C1.76963 19.5948 2.3065 18.2938 2.7438 17.2342L2.76 17.1949C2.91752 16.855 3.04684 16.5027 3.14667 16.1416C2.8623 15.9263 2.56386 15.7303 2.25333 15.5549C1.25333 14.9549 0 14.1549 0 12.8216C0 11.4882 1.25333 10.6882 2.25333 10.1282C2.56386 9.95282 2.8623 9.75683 3.14667 9.54158C3.04684 9.18047 2.91752 8.82817 2.76 8.48824C2.74862 8.46065 2.73714 8.43289 2.72561 8.40498C2.29125 7.35411 1.76737 6.08662 2.54667 5.02158C3.34667 3.92824 4.77333 4.04824 5.93333 4.15491C6.30177 4.18085 6.67157 4.18085 7.04 4.15491C7.12582 3.93424 7.23418 3.49939 7.31326 3.18204C7.32019 3.15424 7.32689 3.12735 7.33333 3.10158C7.58667 1.96824 7.96 0.581577 9.21333 0.168244C10.4643 -0.244298 11.5425 0.684674 12.4084 1.43062L12.4133 1.43491C12.702 1.69701 13.0095 1.93765 13.3333 2.15491C13.6594 1.9163 13.967 1.65332 14.2533 1.36824C14.2734 1.35093 14.2936 1.33351 14.3139 1.31601C15.1684 0.57901 16.19 -0.30217 17.4533 0.101577C18.7467 0.514911 19.08 1.92824 19.3333 3.06158C19.3398 3.08736 19.3465 3.11426 19.3534 3.14206C19.4325 3.45942 19.5409 3.89424 19.6267 4.11491C19.9951 4.14085 20.3649 4.14085 20.7333 4.11491C21.8933 4.00824 23.3333 3.90158 24.12 4.98158C24.897 6.04836 24.3602 7.34931 23.9229 8.40897L23.9067 8.44824C23.7491 8.78817 23.6198 9.14047 23.52 9.50158C23.8044 9.71683 24.1028 9.91282 24.4133 10.0882ZM13.04 16.9816L18.3733 10.3149C18.7567 9.73818 18.6347 8.96396 18.0926 8.53305C17.5505 8.10213 16.7687 8.15797 16.2933 8.66158L11.8933 14.1549L10.28 12.5416C9.75717 12.0187 8.9095 12.0187 8.38667 12.5416C7.86384 13.0644 7.86384 13.9121 8.38667 14.4349L11.0533 17.1016C11.305 17.3512 11.6456 17.4903 12 17.4882H12.08C12.4574 17.4632 12.8063 17.279 13.04 16.9816Z" fill="var(--fill-0, #4BB4E6)"/>
</g>
</svg>
