<svg preserveAspectRatio="none" width="100%" height="100%" overflow="visible" style="display: block;" viewBox="0 0 13 13" fill="none" xmlns="http://www.w3.org/2000/svg">
<path id="Vector" fill-rule="evenodd" clip-rule="evenodd" d="M6.4 0C6.61217 0 6.81566 0.0842854 6.96568 0.234315C7.11571 0.384344 7.2 0.587827 7.2 0.8V1.6C7.2 1.81217 7.11571 2.01566 6.96568 2.16569C6.81566 2.31571 6.61217 2.4 6.4 2.4C6.18783 2.4 5.98434 2.31571 5.83431 2.16569C5.68429 2.01566 5.6 1.81217 5.6 1.6V0.8C5.6 0.587827 5.68429 0.384344 5.83431 0.234315C5.98434 0.0842854 6.18783 0 6.4 0V0ZM9.6 6.4C9.6 7.24869 9.26286 8.06262 8.66274 8.66274C8.06262 9.26286 7.24869 9.6 6.4 9.6C5.55131 9.6 4.73737 9.26286 4.13726 8.66274C3.53714 8.06262 3.2 7.24869 3.2 6.4C3.2 5.55131 3.53714 4.73737 4.13726 4.13726C4.73737 3.53714 5.55131 3.2 6.4 3.2C7.24869 3.2 8.06262 3.53714 8.66274 4.13726C9.26286 4.73737 9.6 5.55131 9.6 6.4V6.4ZM9.2288 10.36L9.7944 10.9256C9.94528 11.0713 10.1474 11.152 10.3571 11.1501C10.5669 11.1483 10.7675 11.0642 10.9159 10.9159C11.0642 10.7675 11.1483 10.5669 11.1501 10.3571C11.152 10.1474 11.0713 9.94528 10.9256 9.7944L10.36 9.2288C10.2091 9.08307 10.007 9.00244 9.79728 9.00426C9.58752 9.00608 9.38687 9.09022 9.23854 9.23854C9.09022 9.38687 9.00608 9.58752 9.00426 9.79728C9.00244 10.007 9.08307 10.2091 9.2288 10.36V10.36ZM10.9248 1.8744C11.0748 2.02442 11.159 2.22787 11.159 2.44C11.159 2.65213 11.0748 2.85558 10.9248 3.0056L10.36 3.5712C10.2862 3.64761 10.1979 3.70855 10.1003 3.75048C10.0027 3.79241 9.89774 3.81448 9.79152 3.8154C9.6853 3.81632 9.57995 3.79608 9.48164 3.75586C9.38332 3.71563 9.294 3.65623 9.21888 3.58112C9.14377 3.506 9.08437 3.41668 9.04414 3.31836C9.00392 3.22005 8.98368 3.1147 8.9846 3.00848C8.98552 2.90226 9.00759 2.79728 9.04952 2.69968C9.09145 2.60207 9.15239 2.5138 9.2288 2.44L9.7944 1.8744C9.94442 1.72442 10.1479 1.64017 10.36 1.64017C10.5721 1.64017 10.7756 1.72442 10.9256 1.8744H10.9248ZM12 7.2C12.2122 7.2 12.4157 7.11571 12.5657 6.96568C12.7157 6.81566 12.8 6.61217 12.8 6.4C12.8 6.18783 12.7157 5.98434 12.5657 5.83431C12.4157 5.68429 12.2122 5.6 12 5.6H11.2C10.9878 5.6 10.7843 5.68429 10.6343 5.83431C10.4843 5.98434 10.4 6.18783 10.4 6.4C10.4 6.61217 10.4843 6.81566 10.6343 6.96568C10.7843 7.11571 10.9878 7.2 11.2 7.2H12ZM6.4 10.4C6.61217 10.4 6.81566 10.4843 6.96568 10.6343C7.11571 10.7843 7.2 10.9878 7.2 11.2V12C7.2 12.2122 7.11571 12.4157 6.96568 12.5657C6.81566 12.7157 6.61217 12.8 6.4 12.8C6.18783 12.8 5.98434 12.7157 5.83431 12.5657C5.68429 12.4157 5.6 12.2122 5.6 12V11.2C5.6 10.9878 5.68429 10.7843 5.83431 10.6343C5.98434 10.4843 6.18783 10.4 6.4 10.4V10.4ZM2.44 3.5712C2.51428 3.64553 2.60246 3.7045 2.69953 3.74475C2.7966 3.78499 2.90064 3.80572 3.00572 3.80576C3.1108 3.8058 3.21485 3.78514 3.31195 3.74496C3.40904 3.70478 3.49727 3.64588 3.5716 3.5716C3.64593 3.49732 3.7049 3.40914 3.74514 3.31207C3.78539 3.215 3.80612 3.11096 3.80616 3.00588C3.8062 2.9008 3.78554 2.79675 3.74536 2.69965C3.70518 2.60256 3.64628 2.51433 3.572 2.44L3.0056 1.8744C2.85472 1.72867 2.65264 1.64804 2.44288 1.64986C2.23312 1.65168 2.03247 1.73582 1.88414 1.88414C1.73582 2.03247 1.65168 2.23312 1.64986 2.44288C1.64804 2.65264 1.72867 2.85472 1.8744 3.0056L2.44 3.5712V3.5712ZM3.5712 10.36L3.0056 10.9256C2.85472 11.0713 2.65264 11.152 2.44288 11.1501C2.23312 11.1483 2.03247 11.0642 1.88414 10.9159C1.73582 10.7675 1.65168 10.5669 1.64986 10.3571C1.64804 10.1474 1.72867 9.94528 1.8744 9.7944L2.44 9.2288C2.59088 9.08307 2.79296 9.00244 3.00272 9.00426C3.21248 9.00608 3.41313 9.09022 3.56145 9.23854C3.70978 9.38687 3.79392 9.58752 3.79574 9.79728C3.79756 10.007 3.71693 10.2091 3.5712 10.36V10.36ZM1.6 7.2C1.81217 7.2 2.01566 7.11571 2.16569 6.96568C2.31571 6.81566 2.4 6.61217 2.4 6.4C2.4 6.18783 2.31571 5.98434 2.16569 5.83431C2.01566 5.68429 1.81217 5.6 1.6 5.6H0.8C0.587827 5.6 0.384344 5.68429 0.234315 5.83431C0.0842854 5.98434 0 6.18783 0 6.4C0 6.61217 0.0842854 6.81566 0.234315 6.96568C0.384344 7.11571 0.587827 7.2 0.8 7.2H1.6Z" fill="var(--fill-0, #FACA16)"/>
</svg>
