<svg preserveAspectRatio="none" width="100%" height="100%" overflow="visible" style="display: block;" viewBox="0 0 27 27" fill="none" xmlns="http://www.w3.org/2000/svg">
<g id="Layer_94">
<path id="Shape" fill-rule="evenodd" clip-rule="evenodd" d="M22.9733 17.5201C25.0619 17.3595 26.6728 15.6148 26.6667 13.5201V5.33345C26.6684 4.63203 26.1264 4.04921 25.4267 4.00011L5.57333 2.66678L5.33333 1.12011C5.2277 0.468035 4.66052 -0.00838937 4 0.000111989H1.33333C0.596954 0.000111989 0 0.597066 0 1.33345C0 2.06982 0.596954 2.66678 1.33333 2.66678H2.86667L5.33333 17.4401C5.33333 19.0001 5.33333 21.8801 8.10667 22.5334C8.03677 22.7944 8.00092 23.0633 8 23.3334C8 25.1744 9.49238 26.6668 11.3333 26.6668C13.1743 26.6668 14.6667 25.1744 14.6667 23.3334C14.6871 23.1117 14.6871 22.8885 14.6667 22.6668H20.1333C20.0907 22.8865 20.0683 23.1096 20.0667 23.3334C20.058 24.9494 21.2097 26.3388 22.7993 26.63C24.3888 26.9212 25.9583 26.0304 26.5231 24.5163C27.0879 23.0022 26.4853 21.3011 25.0933 20.4801H25.0133C24.505 20.1759 23.9257 20.0104 23.3333 20.0001H9.33333C8.62667 20.0001 8.2 20.0001 8 18.6668L22.9733 17.5201ZM23.3333 22.6668C23.7015 22.6668 24 22.9653 24 23.3334C24 23.7016 23.7015 24.0001 23.3333 24.0001C22.9651 24.0001 22.6667 23.7016 22.6667 23.3334C22.6667 22.9653 22.9651 22.6668 23.3333 22.6668ZM12 23.3334C12 22.9653 11.7015 22.6668 11.3333 22.6668C10.9651 22.6668 10.6667 22.9653 10.6667 23.3334C10.6667 23.7016 10.9651 24.0001 11.3333 24.0001C11.7015 24.0001 12 23.7016 12 23.3334Z" fill="var(--fill-0, #4BB4E6)"/>
</g>
</svg>
