<svg preserveAspectRatio="none" width="100%" height="100%" overflow="visible" style="display: block;" viewBox="0 0 14 14" fill="none" xmlns="http://www.w3.org/2000/svg">
<g id="Layer_9">
<path id="Shape" fill-rule="evenodd" clip-rule="evenodd" d="M2 0H11.3333C12.4379 0 13.3333 0.89543 13.3333 2V11.3333C13.3333 12.4379 12.4379 13.3333 11.3333 13.3333H2C0.89543 13.3333 0 12.4379 0 11.3333V2C0 0.89543 0.89543 0 2 0ZM9.33333 6.67053C9.51109 6.67053 9.68149 6.59954 9.80667 6.47333C9.93288 6.34816 10.0039 6.17776 10.0039 6C10.0039 5.82224 9.93288 5.65184 9.80667 5.52667L7.14 2.86C7.0766 2.79931 7.00183 2.75173 6.92 2.72C6.75769 2.65332 6.57564 2.65332 6.41333 2.72C6.3315 2.75173 6.25674 2.79931 6.19333 2.86L3.52667 5.52667C3.35756 5.69577 3.29152 5.94225 3.35341 6.17325C3.41531 6.40425 3.59575 6.58469 3.82675 6.64659C4.05775 6.70848 4.30423 6.64244 4.47333 6.47333L6 4.94V10C6 10.3682 6.29848 10.6667 6.66667 10.6667C7.03486 10.6667 7.33333 10.3682 7.33333 10V4.94L8.86 6.47333C8.98518 6.59954 9.15557 6.67053 9.33333 6.67053Z" fill="var(--fill-0, #4BB4E6)"/>
</g>
</svg>
