<svg preserveAspectRatio="none" width="100%" height="100%" overflow="visible" style="display: block;" viewBox="0 0 28 27" fill="none" xmlns="http://www.w3.org/2000/svg">
<g id="Layer_71">
<path id="Path" d="M24 18.6817C22.9766 18.6856 21.9936 19.0816 21.2533 19.7883L9.45333 13.3483L21.2533 6.90832C22.6338 8.21225 24.7408 8.36585 26.2959 7.27591C27.8509 6.18597 28.4252 4.15294 27.6704 2.41045C26.9156 0.667957 25.0397 -0.303668 23.181 0.0851493C21.3222 0.473966 19.9931 2.11605 20 4.01499C19.9869 4.18807 19.9869 4.3619 20 4.53499L7.46667 11.3883C6.76192 10.1345 5.43828 9.3556 4 9.34832C1.79086 9.34832 0 11.1392 0 13.3483C0 15.5575 1.79086 17.3483 4 17.3483C5.43828 17.341 6.76192 16.5621 7.46667 15.3083L20 22.1617C19.9869 22.3347 19.9869 22.5086 20 22.6817C20 24.8908 21.7909 26.6817 24 26.6817C26.2091 26.6817 28 24.8908 28 22.6817C28 20.4725 26.2091 18.6817 24 18.6817Z" fill="var(--fill-0, #4BB4E6)"/>
</g>
</svg>
