<svg preserveAspectRatio="none" width="100%" height="100%" overflow="visible" style="display: block;" viewBox="0 0 21 21" fill="none" xmlns="http://www.w3.org/2000/svg">
<g id="Layer_71">
<path id="Path" d="M18 14.0112C17.2324 14.0142 16.4952 14.3112 15.94 14.8412L7.09 10.0112L15.94 5.18124C16.9754 6.15919 18.5556 6.27439 19.7219 5.45693C20.8881 4.63948 21.3189 3.1147 20.7528 1.80784C20.1867 0.500968 18.7798 -0.227751 17.3857 0.063862C15.9917 0.355475 14.9948 1.58703 15 3.01124C14.9902 3.14105 14.9902 3.27142 15 3.40124L5.6 8.54124C5.07144 7.60088 4.07871 7.0167 3 7.01124C1.34315 7.01124 0 8.35438 0 10.0112C0 11.6681 1.34315 13.0112 3 13.0112C4.07871 13.0058 5.07144 12.4216 5.6 11.4812L15 16.6212C14.9902 16.7511 14.9902 16.8814 15 17.0112C15 18.6681 16.3431 20.0112 18 20.0112C19.6569 20.0112 21 18.6681 21 17.0112C21 15.3544 19.6569 14.0112 18 14.0112Z" fill="var(--fill-0, #4BB4E6)"/>
</g>
</svg>
