<svg preserveAspectRatio="none" width="100%" height="100%" overflow="visible" style="display: block;" viewBox="0 0 14 14" fill="none" xmlns="http://www.w3.org/2000/svg">
<g id="Layer_94">
<path id="Shape" fill-rule="evenodd" clip-rule="evenodd" d="M11.4867 8.76011C12.5309 8.67982 13.3364 7.80747 13.3333 6.76011V2.66678C13.3342 2.31607 13.0632 2.02466 12.7133 2.00011L2.78667 1.33344L2.66667 0.560111C2.61385 0.234072 2.33026 -0.00414014 2 0.000110535H0.666667C0.298477 0.000110535 0 0.298587 0 0.666777C0 1.03497 0.298477 1.33344 0.666667 1.33344H1.43333L2.66667 8.72011C2.66667 9.50011 2.66667 10.9401 4.05333 11.2668C4.01839 11.3973 4.00046 11.5317 4 11.6668C4 12.5873 4.74619 13.3334 5.66667 13.3334C6.58714 13.3334 7.33333 12.5873 7.33333 11.6668C7.34353 11.5559 7.34353 11.4443 7.33333 11.3334H10.0667C10.0453 11.4433 10.0342 11.5549 10.0333 11.6668C10.029 12.4748 10.6049 13.1695 11.3996 13.3151C12.1944 13.4607 12.9791 13.0152 13.2615 12.2582C13.5439 11.5011 13.2426 10.6506 12.5467 10.2401H12.5067C12.2525 10.088 11.9628 10.0053 11.6667 10.0001H4.66667C4.31333 10.0001 4.1 10.0001 4 9.33344L11.4867 8.76011ZM11.6667 11.3334C11.8508 11.3334 12 11.4827 12 11.6668C12 11.8509 11.8508 12.0001 11.6667 12.0001C11.4826 12.0001 11.3333 11.8509 11.3333 11.6668C11.3333 11.4827 11.4826 11.3334 11.6667 11.3334ZM6 11.6668C6 11.4827 5.85076 11.3334 5.66667 11.3334C5.48257 11.3334 5.33333 11.4827 5.33333 11.6668C5.33333 11.8509 5.48257 12.0001 5.66667 12.0001C5.85076 12.0001 6 11.8509 6 11.6668Z" fill="var(--fill-0, #4BB4E6)"/>
</g>
</svg>
