<svg preserveAspectRatio="none" width="100%" height="100%" overflow="visible" style="display: block;" viewBox="0 0 12 14" fill="none" xmlns="http://www.w3.org/2000/svg">
<g id="Layer_124">
<path id="Shape" fill-rule="evenodd" clip-rule="evenodd" d="M0 7.36749C0 4.05378 2.68629 1.36749 6 1.36749C9.31371 1.36749 12 4.05378 12 7.36749C12 10.6812 9.31371 13.3675 6 13.3675C2.68629 13.3675 0 10.6812 0 7.36749ZM7.33333 9.37136C7.51109 9.37136 7.68149 9.30037 7.80667 9.17416C7.93288 9.04898 8.00387 8.87858 8.00387 8.70082C8.00387 8.52307 7.93288 8.35267 7.80667 8.22749L6.66667 7.09416V4.70082C6.66667 4.33263 6.36819 4.03416 6 4.03416C5.63181 4.03416 5.33333 4.33263 5.33333 4.70082V7.36749C5.33231 7.54469 5.40188 7.71501 5.52667 7.84082L6.86 9.17416C6.98518 9.30037 7.15557 9.37136 7.33333 9.37136Z" fill="var(--fill-0, #4BB4E6)"/>
<path id="Path" d="M10.6667 2.70082C10.5356 2.70232 10.4074 2.66269 10.3 2.58749L8.3 1.25416C8.07706 1.13457 7.94102 0.899103 7.94878 0.646236C7.95653 0.393369 8.10675 0.166679 8.3366 0.0609813C8.56644 -0.0447165 8.83631 -0.0112084 9.03333 0.147491L11.0333 1.48082C11.276 1.64389 11.3841 1.94606 11.3 2.22606C11.2158 2.50607 10.959 2.69857 10.6667 2.70082Z" fill="var(--fill-0, #4BB4E6)"/>
<path id="Path_2" d="M1.33333 2.70082C1.04096 2.69857 0.78418 2.50607 0.700025 2.22606C0.61587 1.94606 0.723983 1.64389 0.966667 1.48082L2.96667 0.147491C3.16369 -0.0112084 3.43356 -0.0447165 3.6634 0.0609813C3.89325 0.166679 4.04347 0.393369 4.05122 0.646236C4.05898 0.899103 3.92294 1.13457 3.7 1.25416L1.7 2.58749C1.59264 2.66269 1.4644 2.70232 1.33333 2.70082V2.70082Z" fill="var(--fill-0, #4BB4E6)"/>
</g>
</svg>
