<svg preserveAspectRatio="none" width="100%" height="100%" overflow="visible" style="display: block;" viewBox="0 0 27 27" fill="none" xmlns="http://www.w3.org/2000/svg">
<g id="Layer_10">
<path id="Shape" fill-rule="evenodd" clip-rule="evenodd" d="M4 0H22.6667C24.8758 0 26.6667 1.79086 26.6667 4V22.6667C26.6667 24.8758 24.8758 26.6667 22.6667 26.6667H4C1.79086 26.6667 0 24.8758 0 22.6667V4C0 1.79086 1.79086 0 4 0ZM15.6133 19.6133L20.9467 14.28C21.0681 14.1532 21.1632 14.0037 21.2267 13.84C21.36 13.5154 21.36 13.1513 21.2267 12.8267C21.1632 12.663 21.0681 12.5135 20.9467 12.3867L15.6133 7.05333C15.2751 6.71512 14.7822 6.58303 14.3202 6.70683C13.8582 6.83062 13.4973 7.19149 13.3735 7.6535C13.2497 8.1155 13.3818 8.60845 13.72 8.94667L16.7867 12H6.66667C5.93029 12 5.33333 12.597 5.33333 13.3333C5.33333 14.0697 5.93029 14.6667 6.66667 14.6667H16.7867L13.72 17.72C13.4676 17.9704 13.3256 18.3111 13.3256 18.6667C13.3256 19.0222 13.4676 19.363 13.72 19.6133C13.9704 19.8658 14.3111 20.0077 14.6667 20.0077C15.0222 20.0077 15.363 19.8658 15.6133 19.6133Z" fill="var(--fill-0, #4BB4E6)"/>
</g>
</svg>
