<svg preserveAspectRatio="none" width="100%" height="100%" overflow="visible" style="display: block;" viewBox="0 0 14 14" fill="none" xmlns="http://www.w3.org/2000/svg">
<g id="Layer_98">
<path id="Shape" fill-rule="evenodd" clip-rule="evenodd" d="M11.36 5.96667C10.9918 5.96667 10.6933 6.26514 10.6933 6.63333C10.6933 7.00152 10.9918 7.3 11.36 7.3H13.3C13.1961 8.18575 12.9126 9.04099 12.4667 9.81333C11.2273 8.47652 9.56508 7.60774 7.76 7.35333L9.20667 4.94667C9.35634 4.74086 9.3758 4.4678 9.25682 4.24286C9.13784 4.01791 8.90118 3.88032 8.64683 3.88821C8.39247 3.89611 8.1648 4.04811 8.06 4.28L6.24667 7.3C4.16774 7.39749 2.21091 8.31004 0.8 9.84C0.362305 9.05701 0.0900179 8.1925 0 7.3H1.96667C2.33486 7.3 2.63333 7.00152 2.63333 6.63333C2.63333 6.26514 2.33486 5.96667 1.96667 5.96667H0C0.129034 4.65619 0.646737 3.41416 1.48667 2.4L2.76 3.62C3.01663 3.8613 3.4167 3.8613 3.67333 3.62C3.91884 3.36247 3.91884 2.95753 3.67333 2.7L2.43333 1.46C3.44149 0.635748 4.67074 0.127811 5.96667 0V1.96667C5.96667 2.33486 6.26514 2.63333 6.63333 2.63333C7.00152 2.63333 7.3 2.33486 7.3 1.96667V0C8.61018 0.130225 9.85187 0.647789 10.8667 1.48667L9.62667 2.72667C9.36525 2.98624 9.36376 3.40859 9.62333 3.67C9.88291 3.93141 10.3053 3.93291 10.5667 3.67333L11.84 2.43333C12.6612 3.44332 13.1687 4.67161 13.3 5.96667H11.36ZM1.57333 10.96C2.83975 9.48333 4.68799 8.63348 6.63333 8.63333C8.57868 8.63348 10.4269 9.48333 11.6933 10.96C10.4268 12.4364 8.57858 13.2861 6.63333 13.2861C4.68809 13.2861 2.83987 12.4364 1.57333 10.96Z" fill="var(--fill-0, #4BB4E6)"/>
</g>
</svg>
