<svg preserveAspectRatio="none" width="100%" height="100%" overflow="visible" style="display: block;" viewBox="0 0 21 21" fill="none" xmlns="http://www.w3.org/2000/svg">
<g id="Layer_105">
<path id="Shape" fill-rule="evenodd" clip-rule="evenodd" d="M2.89 0.000464504H16.11C17.6709 -0.0274894 18.9618 1.20974 19 2.77046V8.77046C18.5457 8.32095 18.0307 7.93723 17.47 7.63046C14.8538 6.23704 11.6529 6.57654 9.38719 8.48774C7.12149 10.3989 6.24741 13.4969 7.18 16.3105C7.37347 16.9092 7.64946 17.478 8 18.0005H2.89C1.32524 18.0284 0.0328148 16.7851 0 15.2205V2.78046C0.0328148 1.2158 1.32524 -0.0274325 2.89 0.000464504ZM5 6.00046H14C14.5523 6.00046 15 5.55275 15 5.00046C15 4.44818 14.5523 4.00046 14 4.00046H5C4.44772 4.00046 4 4.44818 4 5.00046C4 5.55275 4.44772 6.00046 5 6.00046Z" fill="var(--fill-0, #4BB4E6)"/>
<path id="Shape_2" fill-rule="evenodd" clip-rule="evenodd" d="M17 8.51046C17.7811 8.93549 18.4628 9.52179 19 10.2305C19.8222 11.3143 20.2618 12.6401 20.25 14.0005C20.259 16.6411 18.6075 19.0025 16.124 19.8998C13.6405 20.7972 10.861 20.0369 9.18 18.0005C8.69076 17.4089 8.31756 16.7304 8.08 16.0005C7.43579 14.0932 7.74975 11.9923 8.92344 10.3567C10.0971 8.72104 11.9868 7.7509 14 7.75046C15.0475 7.75168 16.0783 8.01282 17 8.51046ZM15.03 16.0063C15.2966 16.0063 15.5522 15.8998 15.74 15.7105H15.71C15.8993 15.5227 16.0058 15.2671 16.0058 15.0005C16.0058 14.7338 15.8993 14.4782 15.71 14.2905L15 13.5905V12.0005C15 11.4482 14.5523 11.0005 14 11.0005C13.4477 11.0005 13 11.4482 13 12.0005V14.0005C13.0063 14.2706 13.1218 14.5268 13.32 14.7105L14.32 15.7105C14.5078 15.8998 14.7634 16.0063 15.03 16.0063Z" fill="var(--fill-0, #4BB4E6)"/>
</g>
</svg>
