<svg preserveAspectRatio="none" width="100%" height="100%" overflow="visible" style="display: block;" viewBox="0 0 7 7" fill="none" xmlns="http://www.w3.org/2000/svg">
<path id="Vector" d="M5.71929 0.292786C5.90676 0.480314 6.01207 0.734622 6.01207 0.999786C6.01207 1.26495 5.90676 1.51926 5.71929 1.70679L4.42629 2.99979L5.71929 4.29279C5.90145 4.48139 6.00224 4.73399 5.99996 4.99619C5.99768 5.25838 5.89252 5.5092 5.70711 5.6946C5.5217 5.88001 5.27089 5.98518 5.00869 5.98746C4.74649 5.98974 4.49389 5.88894 4.30529 5.70679L3.01229 4.41379L1.71929 5.70679C1.62704 5.8023 1.5167 5.87848 1.39469 5.93089C1.27269 5.9833 1.14147 6.01088 1.00869 6.01204C0.87591 6.01319 0.744231 5.98789 0.621335 5.93761C0.498438 5.88733 0.386787 5.81307 0.292894 5.71918C0.199001 5.62529 0.124748 5.51364 0.0744673 5.39074C0.0241864 5.26784 -0.00111606 5.13616 3.77557e-05 5.00339C0.00119157 4.87061 0.0287779 4.73939 0.0811869 4.61738C0.133596 4.49538 0.209779 4.38503 0.305289 4.29279L1.59829 2.99979L0.305289 1.70679C0.123131 1.51818 0.0223365 1.26558 0.0246149 1.00339C0.0268933 0.741188 0.132062 0.490376 0.31747 0.304968C0.502878 0.11956 0.753691 0.0143908 1.01589 0.0121124C1.27808 0.00983396 1.53069 0.110628 1.71929 0.292786L3.01229 1.58579L4.30529 0.292786C4.49282 0.105315 4.74712 0 5.01229 0C5.27745 0 5.53176 0.105315 5.71929 0.292786Z" fill="var(--fill-0, #111928)"/>
</svg>
