<svg preserveAspectRatio="none" width="100%" height="100%" overflow="visible" style="display: block;" viewBox="0 0 20 20" fill="none" xmlns="http://www.w3.org/2000/svg">
<g id="Layer_35">
<path id="Path" d="M14.07 8.34L11.95 10.46L20 16.5V12.94L14.07 8.34V8.34Z" fill="var(--fill-0, #4BB4E6)"/>
<path id="Path_2" d="M7.15 9.36L0.15 17.81C0.509171 19.0913 1.66944 19.9829 3 20H17C18.0145 19.9971 18.9588 19.4817 19.51 18.63L7.15 9.36Z" fill="var(--fill-0, #4BB4E6)"/>
<path id="Path_3" d="M6.24 7.35C6.58283 6.94915 7.17805 6.88351 7.6 7.2L10.33 9.25L13.33 6.25C13.691 5.89189 14.2634 5.86177 14.66 6.18L20 10.4V3C20 1.34315 18.6569 0 17 0H3C1.34315 0 0 1.34315 0 3V14.84L6.24 7.35Z" fill="var(--fill-0, #4BB4E6)"/>
</g>
</svg>
