<svg preserveAspectRatio="none" width="100%" height="100%" overflow="visible" style="display: block;" viewBox="0 0 12 12" fill="none" xmlns="http://www.w3.org/2000/svg">
<g id="Layer_48">
<path id="Shape" fill-rule="evenodd" clip-rule="evenodd" d="M5.83335 7V4.66667C5.83335 4.3445 6.09452 4.08333 6.41669 4.08333H11.6667V7.58333H6.41669C6.09452 7.58333 5.83335 7.32217 5.83335 7ZM9.33335 5.83333C9.33335 5.189 8.81102 4.66667 8.16669 4.66667C7.52236 4.66667 7.00002 5.189 7.00002 5.83333C7.00002 6.47767 7.52236 7 8.16669 7C8.81102 7 9.33335 6.47767 9.33335 5.83333Z" fill="var(--fill-0, #4BB4E6)"/>
<path id="Path" d="M6.41669 8.75C5.45019 8.75 4.66669 7.9665 4.66669 7V4.66667C4.66669 3.70017 5.45019 2.91667 6.41669 2.91667H11.6667V1.75C11.6667 0.783502 10.8832 0 9.91669 0H1.75002C0.783522 0 2.03848e-05 0.783502 2.03848e-05 1.75V9.91667C2.03848e-05 10.8832 0.783522 11.6667 1.75002 11.6667H9.91669C10.8832 11.6667 11.6667 10.8832 11.6667 9.91667V8.75H6.41669Z" fill="var(--fill-0, #4BB4E6)"/>
</g>
</svg>
