<svg preserveAspectRatio="none" width="100%" height="100%" overflow="visible" style="display: block;" viewBox="0 0 21 21" fill="none" xmlns="http://www.w3.org/2000/svg">
<g id="Layer_107">
<path id="Shape" fill-rule="evenodd" clip-rule="evenodd" d="M2.89 0.000464504H16.11C17.6709 -0.0274894 18.9618 1.20974 19 2.77046V8.77046C18.5457 8.32095 18.0307 7.93723 17.47 7.63046C14.8538 6.23704 11.6529 6.57654 9.38719 8.48774C7.12149 10.3989 6.24741 13.4969 7.18 16.3105C7.37347 16.9092 7.64946 17.478 8 18.0005H2.89C1.32524 18.0284 0.0328148 16.7851 0 15.2205V2.78046C0.0328148 1.2158 1.32524 -0.0274325 2.89 0.000464504ZM5 6.00046H14C14.5523 6.00046 15 5.55275 15 5.00046C15 4.44818 14.5523 4.00046 14 4.00046H5C4.44772 4.00046 4 4.44818 4 5.00046C4 5.55275 4.44772 6.00046 5 6.00046Z" fill="var(--fill-0, #4BB4E6)"/>
<path id="Path" d="M9.18 18.0005C8.69076 17.4089 8.31756 16.7304 8.08 16.0005L9.18 18.0005Z" fill="var(--fill-0, #4BB4E6)"/>
<path id="Path_2" d="M19 10.2305L17 8.51046C17.7811 8.93549 18.4628 9.52179 19 10.2305V10.2305Z" fill="var(--fill-0, #4BB4E6)"/>
<path id="Path_3" d="M8.08 16.0005L9.18 18.0005C8.69076 17.4089 8.31756 16.7304 8.08 16.0005H8.08Z" fill="var(--fill-0, #4BB4E6)"/>
<path id="Path_4" d="M19 10.2305L17 8.51046C17.7811 8.93549 18.4628 9.52179 19 10.2305V10.2305Z" fill="var(--fill-0, #4BB4E6)"/>
<path id="Shape_2" fill-rule="evenodd" clip-rule="evenodd" d="M17 8.51046L19 10.2305C18.4628 9.52179 17.7811 8.93549 17 8.51046ZM8.08 16.0005C8.31756 16.7304 8.69076 17.4089 9.18 18.0005L8.08 16.0005Z" fill="var(--fill-0, #4BB4E6)"/>
<path id="Shape_3" fill-rule="evenodd" clip-rule="evenodd" d="M17 8.51046L19 10.2305C19.8222 11.3143 20.2618 12.6401 20.25 14.0005C20.259 16.6411 18.6075 19.0025 16.124 19.8998C13.6405 20.7972 10.861 20.0369 9.18 18.0005L8.08 16.0005C7.43579 14.0932 7.74975 11.9923 8.92344 10.3567C10.0971 8.72104 11.9868 7.7509 14 7.75046C15.0475 7.75168 16.0783 8.01282 17 8.51046ZM13.74 16.7105L16.74 13.7105L16.69 13.7405C17.0821 13.3483 17.0821 12.7126 16.69 12.3205C16.2979 11.9283 15.6621 11.9283 15.27 12.3205L13.27 14.3205L12.89 13.5605C12.7459 13.2144 12.4204 12.978 12.0467 12.9481C11.6731 12.9181 11.3141 13.0997 11.1167 13.4183C10.9193 13.737 10.9167 14.1393 11.11 14.4605L12.11 16.4605C12.2529 16.7469 12.5243 16.9477 12.84 17.0005H13C13.2761 17.0102 13.544 16.9052 13.74 16.7105Z" fill="var(--fill-0, #4BB4E6)"/>
</g>
</svg>
