<svg preserveAspectRatio="none" width="100%" height="100%" overflow="visible" style="display: block;" viewBox="0 0 20 20" fill="none" xmlns="http://www.w3.org/2000/svg">
<g id="Layer_112">
<path id="Path" d="M18.93 3.57002C18.4319 3.16748 17.8105 2.94856 17.17 2.95002H2.83001C1.26932 2.95551 0.00549853 4.21933 1.27587e-05 5.78002V6.45002C-0.00370228 7.82445 0.80416 9.07154 2.06001 9.63002C2.51016 9.84268 3.00216 9.95201 3.50001 9.95002H4.50001C5.44344 9.95446 6.34729 9.57123 7.00001 8.89002C7.65273 9.57123 8.55658 9.95446 9.50001 9.95002H10.5C11.4434 9.95446 12.3473 9.57123 13 8.89002C13.6527 9.57123 14.5566 9.95446 15.5 9.95002H16.5C16.9979 9.95201 17.4899 9.84268 17.94 9.63002C19.1959 9.07154 20.0037 7.82445 20 6.45002V5.78002C19.9996 4.9186 19.6055 4.1046 18.93 3.57002Z" fill="var(--fill-0, #4BB4E6)"/>
<path id="Path_2" d="M15.5 10.95C14.6089 10.9563 13.7369 10.6912 13 10.19C12.2631 10.6912 11.3912 10.9563 10.5 10.95H9.50001C8.60886 10.9563 7.73689 10.6912 7.00001 10.19C6.26314 10.6912 5.39117 10.9563 4.50001 10.95H3.50001C2.98781 10.9514 2.4796 10.8599 2.00001 10.68V16.95C2.00001 18.6069 3.34316 19.95 5.00001 19.95H7.00001V14.95C7.00001 13.2932 8.34316 11.95 10 11.95C11.6569 11.95 13 13.2932 13 14.95V19.95H15C16.6569 19.95 18 18.6069 18 16.95V10.68C17.5212 10.8625 17.0125 10.9541 16.5 10.95H15.5Z" fill="var(--fill-0, #4BB4E6)"/>
<path id="Path_3" d="M17.17 1.95002C17.6101 1.9508 18.0467 2.02864 18.46 2.18002L18.4 2.00002C17.9748 0.797369 16.8356 -0.00489497 15.56 2.24798e-05H4.44001C3.16442 -0.00489497 2.0252 0.797369 1.60001 2.00002L1.54001 2.18002C1.95329 2.02864 2.38988 1.9508 2.83001 1.95002H17.17Z" fill="var(--fill-0, #4BB4E6)"/>
</g>
</svg>
