<svg preserveAspectRatio="none" width="100%" height="100%" overflow="visible" style="display: block;" viewBox="0 0 14 13" fill="none" xmlns="http://www.w3.org/2000/svg">
<path id="Vector" fill-rule="evenodd" clip-rule="evenodd" d="M12.7068 11.7193C12.5193 11.9068 12.265 12.0121 11.9998 12.0121C11.7346 12.0121 11.4803 11.9068 11.2928 11.7193L6.29279 6.71929C6.10532 6.53176 6 6.27745 6 6.01229C6 5.74712 6.10532 5.49282 6.29279 5.30529L11.2928 0.305288C11.385 0.209778 11.4954 0.133596 11.6174 0.0811869C11.7394 0.0287779 11.8706 0.00119157 12.0034 3.7757e-05C12.1362 -0.00111606 12.2678 0.0241854 12.3907 0.0744663C12.5136 0.124747 12.6253 0.199 12.7192 0.292893C12.8131 0.386786 12.8873 0.498438 12.9376 0.621334C12.9879 0.74423 13.0132 0.87591 13.012 1.00869C13.0109 1.14147 12.9833 1.27269 12.9309 1.39469C12.8785 1.5167 12.8023 1.62704 12.7068 1.71929L8.41379 6.01229L12.7068 10.3053C12.8943 10.4928 12.9996 10.7471 12.9996 11.0123C12.9996 11.2775 12.8943 11.5318 12.7068 11.7193V11.7193ZM6.70679 11.7193C6.51926 11.9068 6.26495 12.0121 5.99979 12.0121C5.73462 12.0121 5.48031 11.9068 5.29279 11.7193L0.292786 6.71929C0.105315 6.53176 0 6.27745 0 6.01229C0 5.74712 0.105315 5.49282 0.292786 5.30529L5.29279 0.305288C5.48139 0.12313 5.73399 0.0223355 5.99619 0.0246139C6.25838 0.0268924 6.5092 0.132062 6.6946 0.31747C6.88001 0.502878 6.98518 0.75369 6.98746 1.01589C6.98974 1.27808 6.88894 1.53069 6.70679 1.71929L2.41379 6.01229L6.70679 10.3053C6.89426 10.4928 6.99957 10.7471 6.99957 11.0123C6.99957 11.2775 6.89426 11.5318 6.70679 11.7193V11.7193Z" fill="var(--fill-0, #111928)"/>
</svg>
