<svg preserveAspectRatio="none" width="100%" height="100%" overflow="visible" style="display: block;" viewBox="0 0 21 21" fill="none" xmlns="http://www.w3.org/2000/svg">
<g id="Layer_96">
<path id="Shape" fill-rule="evenodd" clip-rule="evenodd" d="M20 10.1402C20.0046 11.7112 18.7964 13.0197 17.23 13.1402L6 14.0002C6.15 15.0002 6.47 15.0002 7 15.0002H17.5C17.9443 15.0079 18.3787 15.132 18.76 15.3602H18.82C19.864 15.9759 20.3159 17.2517 19.8923 18.3873C19.4687 19.5228 18.2916 20.191 17.0995 19.9726C15.9073 19.7542 15.0435 18.7121 15.05 17.5002C15.0513 17.3323 15.068 17.1649 15.1 17.0002H11C11.0153 17.1665 11.0153 17.3339 11 17.5002C11 18.8809 9.88071 20.0002 8.5 20.0002C7.11929 20.0002 6 18.8809 6 17.5002C6.00069 17.2976 6.02758 17.0959 6.08 16.9002C4 16.4102 4 14.2502 4 13.0802L2.15 2.00017H1C0.447715 2.00017 0 1.55245 0 1.00017C0 0.447881 0.447715 0.000165802 1 0.000165802H3C3.49539 -0.00621022 3.92077 0.351108 4 0.840166L4.18 2.00017L19.07 3.00017C19.5948 3.03699 20.0013 3.4741 20 4.00017V10.1402ZM14 7.00017H10C9.44771 7.00017 9 7.44788 9 8.00017C9 8.55245 9.44771 9.00017 10 9.00017H14C14.5523 9.00017 15 8.55245 15 8.00017C15 7.44788 14.5523 7.00017 14 7.00017ZM17.5 17.0002C17.7761 17.0002 18 17.224 18 17.5002C18 17.7763 17.7761 18.0002 17.5 18.0002C17.2239 18.0002 17 17.7763 17 17.5002C17 17.224 17.2239 17.0002 17.5 17.0002ZM9 17.5002C9 17.224 8.77614 17.0002 8.5 17.0002C8.22386 17.0002 8 17.224 8 17.5002C8 17.7763 8.22386 18.0002 8.5 18.0002C8.77614 18.0002 9 17.7763 9 17.5002Z" fill="var(--fill-0, #4BB4E6)"/>
</g>
</svg>
