<svg preserveAspectRatio="none" width="100%" height="100%" overflow="visible" style="display: block;" viewBox="0 0 14 14" fill="none" xmlns="http://www.w3.org/2000/svg">
<g id="Layer_97">
<path id="Shape" fill-rule="evenodd" clip-rule="evenodd" d="M13.3333 6.76011C13.3364 7.80747 12.5309 8.67982 11.4867 8.76011L4 9.33344C4.1 10.0001 4.31333 10.0001 4.66667 10.0001H11.6667C11.9628 10.0053 12.2525 10.088 12.5067 10.2401H12.5467C13.2426 10.6506 13.5439 11.5011 13.2615 12.2582C12.9791 13.0152 12.1944 13.4607 11.3996 13.3151C10.6049 13.1695 10.029 12.4748 10.0333 11.6668C10.0342 11.5549 10.0453 11.4433 10.0667 11.3334H7.33333C7.34353 11.4443 7.34353 11.5559 7.33333 11.6668C7.33333 12.5873 6.58714 13.3334 5.66667 13.3334C4.74619 13.3334 4 12.5873 4 11.6668C4.00046 11.5317 4.01839 11.3973 4.05333 11.2668C2.66667 10.9401 2.66667 9.50011 2.66667 8.72011L1.43333 1.33344H0.666667C0.298477 1.33344 0 1.03497 0 0.666777C0 0.298587 0.298477 0.000110535 0.666667 0.000110535H2C2.33026 -0.00414014 2.61385 0.234072 2.66667 0.560111L2.78667 1.33344L12.7133 2.00011C13.0632 2.02466 13.3342 2.31607 13.3333 2.66678V6.76011ZM6.59333 5.05344C6.42695 4.72657 6.02777 4.59549 5.7 4.76011V4.74011C5.52753 4.81455 5.39446 4.95829 5.33354 5.13599C5.27261 5.31369 5.28948 5.50884 5.38 5.67344L6.04667 7.00678C6.13532 7.18133 6.29621 7.3081 6.48667 7.35344C6.53757 7.35993 6.58909 7.35993 6.64 7.35344C6.78425 7.35344 6.9246 7.30666 7.04 7.22011L9.70667 5.22011C10.0012 4.9992 10.0609 4.58133 9.84 4.28678C9.61909 3.99223 9.20122 3.93253 8.90667 4.15344L6.90667 5.67344L6.59333 5.05344ZM11.7 11.3534C11.8841 11.3534 12.0333 11.5027 12.0333 11.6868C12.0333 11.8709 11.8841 12.0201 11.7 12.0201C11.5159 12.0201 11.3667 11.8709 11.3667 11.6868C11.355 11.5074 11.4877 11.351 11.6667 11.3334L11.7 11.3534ZM6.03333 11.6868C6.03333 11.5027 5.88409 11.3534 5.7 11.3534L5.66667 11.3334C5.48774 11.351 5.35502 11.5074 5.36667 11.6868C5.36667 11.8709 5.5159 12.0201 5.7 12.0201C5.88409 12.0201 6.03333 11.8709 6.03333 11.6868Z" fill="var(--fill-0, #4BB4E6)"/>
</g>
</svg>
