<svg preserveAspectRatio="none" width="100%" height="100%" overflow="visible" style="display: block;" viewBox="0 0 14 12" fill="none" xmlns="http://www.w3.org/2000/svg">
<g id="Layer_34">
<circle id="Oval" cx="6.66667" cy="6.66667" r="1.33333" fill="var(--fill-0, #4BB4E6)"/>
<path id="Shape" fill-rule="evenodd" clip-rule="evenodd" d="M9.69333 2H11.3333C12.4379 2 13.3333 2.89543 13.3333 4V9.33333C13.3333 10.4379 12.4379 11.3333 11.3333 11.3333H2C0.89543 11.3333 0 10.4379 0 9.33333V4C0 2.89543 0.89543 2 2 2H3.64L4.38 0.893334C4.75081 0.335138 5.37653 -0.000249789 6.04667 1.39586e-07H7.28667C7.9568 -0.000249789 8.58253 0.335138 8.95333 0.893334L9.69333 2ZM4 6.66667C4 8.13943 5.19391 9.33333 6.66667 9.33333C7.37391 9.33333 8.05219 9.05238 8.55228 8.55229C9.05238 8.05219 9.33333 7.37391 9.33333 6.66667C9.33333 5.19391 8.13943 4 6.66667 4C5.19391 4 4 5.19391 4 6.66667Z" fill="var(--fill-0, #4BB4E6)"/>
</g>
</svg>
