<svg preserveAspectRatio="none" width="100%" height="100%" overflow="visible" style="display: block;" viewBox="0 0 14 14" fill="none" xmlns="http://www.w3.org/2000/svg">
<g id="Layer_107">
<path id="Shape" fill-rule="evenodd" clip-rule="evenodd" d="M1.92667 0.000309669H10.74C11.7806 -0.0183263 12.6412 0.806494 12.6667 1.84698V5.84698C12.3638 5.5473 12.0205 5.29149 11.6467 5.08698C9.90254 4.15803 7.76859 4.38436 6.25813 5.65849C4.74766 6.93263 4.16494 8.99791 4.78667 10.8736C4.91565 11.2728 5.09964 11.652 5.33333 12.0003H1.92667C0.883497 12.0189 0.0218765 11.1901 0 10.147V1.85364C0.0218765 0.810537 0.883497 -0.0182883 1.92667 0.000309669ZM3.33333 4.00031H9.33333C9.70152 4.00031 10 3.70183 10 3.33364C10 2.96545 9.70152 2.66698 9.33333 2.66698H3.33333C2.96514 2.66698 2.66667 2.96545 2.66667 3.33364C2.66667 3.70183 2.96514 4.00031 3.33333 4.00031Z" fill="var(--fill-0, #4BB4E6)"/>
<path id="Path" d="M6.12 12.0003C5.79384 11.606 5.54504 11.1536 5.38667 10.667L6.12 12.0003Z" fill="var(--fill-0, #4BB4E6)"/>
<path id="Path_2" d="M12.6667 6.82031L11.3333 5.67364C11.8541 5.95699 12.3086 6.34786 12.6667 6.82031V6.82031Z" fill="var(--fill-0, #4BB4E6)"/>
<path id="Path_3" d="M5.38667 10.667L6.12 12.0003C5.79384 11.606 5.54504 11.1536 5.38667 10.667H5.38667Z" fill="var(--fill-0, #4BB4E6)"/>
<path id="Path_4" d="M12.6667 6.82031L11.3333 5.67364C11.8541 5.95699 12.3086 6.34786 12.6667 6.82031V6.82031Z" fill="var(--fill-0, #4BB4E6)"/>
<path id="Shape_2" fill-rule="evenodd" clip-rule="evenodd" d="M11.3333 5.67364L12.6667 6.82031C12.3086 6.34786 11.8541 5.95699 11.3333 5.67364ZM5.38667 10.667C5.54504 11.1536 5.79384 11.606 6.12 12.0003L5.38667 10.667Z" fill="var(--fill-0, #4BB4E6)"/>
<path id="Shape_3" fill-rule="evenodd" clip-rule="evenodd" d="M11.3333 5.67364L12.6667 6.82031C13.2148 7.54286 13.5078 8.42676 13.5 9.33364C13.506 11.0941 12.405 12.6683 10.7493 13.2666C9.09367 13.8648 7.24067 13.358 6.12 12.0003L5.38667 10.667C4.95719 9.39544 5.1665 7.99487 5.94896 6.90445C6.73142 5.81403 7.99122 5.16727 9.33333 5.16698C10.0317 5.16778 10.7189 5.34188 11.3333 5.67364ZM9.16 11.1403L11.16 9.14031L11.1267 9.16031C11.3881 8.89889 11.3881 8.47506 11.1267 8.21364C10.8653 7.95223 10.4414 7.95223 10.18 8.21364L8.84667 9.54698L8.59333 9.04031C8.49727 8.80962 8.28026 8.65202 8.03116 8.63205C7.78206 8.61209 7.54272 8.73311 7.41114 8.94555C7.27955 9.158 7.27783 9.42619 7.40667 9.64031L8.07333 10.9736C8.16858 11.1646 8.34951 11.2985 8.56 11.3336H8.66667C8.85076 11.3401 9.02933 11.2701 9.16 11.1403Z" fill="var(--fill-0, #4BB4E6)"/>
</g>
</svg>
