<svg preserveAspectRatio="none" width="100%" height="100%" overflow="visible" style="display: block;" viewBox="0 0 4 8" fill="none" xmlns="http://www.w3.org/2000/svg">
<path id="Vector" fill-rule="evenodd" clip-rule="evenodd" d="M2.2091 0C2.47431 0 2.72867 0.105357 2.9162 0.292893C3.10374 0.48043 3.2091 0.734784 3.2091 1C3.2091 3.236 2.7491 5.368 1.9191 7.304C1.86729 7.42469 1.79222 7.53398 1.69817 7.62566C1.60413 7.71733 1.49294 7.78958 1.37097 7.83829C1.249 7.88699 1.11863 7.91119 0.987311 7.90951C0.855987 7.90783 0.72628 7.88031 0.605595 7.8285C0.48491 7.77669 0.375612 7.70162 0.283939 7.60758C0.192266 7.51353 0.120015 7.40235 0.0713107 7.28038C0.0226064 7.15841 -0.00159715 7.02804 8.17227e-05 6.89672C0.00176059 6.76539 0.0292894 6.63568 0.0810959 6.515C0.827896 4.7724 1.21171 2.89588 1.2091 1C1.2091 0.734784 1.31445 0.48043 1.50199 0.292893C1.68953 0.105357 1.94388 0 2.2091 0V0Z" fill="var(--fill-0, #111928)"/>
</svg>
