<svg preserveAspectRatio="none" width="100%" height="100%" overflow="visible" style="display: block;" viewBox="0 0 20 20" fill="none" xmlns="http://www.w3.org/2000/svg">
<g id="Layer_91">
<path id="Path" d="M12 1.33L8.00002 0V18.11L12 19.44V1.33V1.33Z" fill="var(--fill-0, #4BB4E6)"/>
<path id="Path_2" d="M19.17 0.48C18.6481 0.106376 17.9786 0.0059475 17.37 0.21L14 1.33V19.44L18.63 17.9C19.4486 17.6283 20.0008 16.8625 20 16V2.11C20.0026 1.46457 19.6935 0.857575 19.17 0.48Z" fill="var(--fill-0, #4BB4E6)"/>
<path id="Path_3" d="M6.00002 0L1.37002 1.54C0.551441 1.81168 -0.000767563 2.57752 1.5737e-05 3.44V17.33C-0.00254087 17.9754 0.306542 18.5824 0.830016 18.96C1.17393 19.1982 1.58168 19.3271 2.00002 19.33C2.21411 19.3318 2.42702 19.298 2.63002 19.23L6.00002 18.11V0Z" fill="var(--fill-0, #4BB4E6)"/>
</g>
</svg>
