<svg preserveAspectRatio="none" width="100%" height="100%" overflow="visible" style="display: block;" viewBox="0 0 27 27" fill="none" xmlns="http://www.w3.org/2000/svg">
<g id="Layer_47">
<path id="Path" d="M25.837 12.8C26.584 12.0365 26.8368 10.9171 26.4904 9.90669C26.1652 8.89285 25.2907 8.15292 24.237 8.00002L18.517 7.12002C18.463 7.10437 18.4189 7.06518 18.397 7.01336L15.8904 1.68002V1.68002C15.4413 0.659604 14.4319 0.000667333 13.317 2.40883e-05V2.40883e-05C12.2154 -0.00453124 11.2134 0.637341 10.757 1.64002L8.25038 6.97336C8.22272 7.02592 8.1744 7.06458 8.11704 7.08002L2.41038 8.00002C1.35566 8.15715 0.479137 8.89447 0.143709 9.90669C-0.18975 10.9201 0.0670951 12.0348 0.810376 12.8L5.02371 17.1334C5.04824 17.1885 5.04824 17.2515 5.02371 17.3067L4.03704 23.36C3.84982 24.4361 4.29927 25.5237 5.19149 26.1536C6.08371 26.7836 7.25902 26.8432 8.21038 26.3067L13.1837 23.5467C13.2339 23.5206 13.2936 23.5206 13.3437 23.5467L18.317 26.3067C19.2693 26.8315 20.4376 26.7665 21.3258 26.1394C22.2141 25.5122 22.6662 24.433 22.4904 23.36L21.5704 17.3334C21.5418 17.2839 21.5418 17.2229 21.5704 17.1734L25.837 12.8Z" fill="var(--fill-0, #4BB4E6)"/>
</g>
</svg>
