<svg preserveAspectRatio="none" width="100%" height="100%" overflow="visible" style="display: block;" viewBox="0 0 20 17" fill="none" xmlns="http://www.w3.org/2000/svg">
<g id="Layer_120">
<path id="Path" d="M19.02 6.09058L12.02 0.47058V0.47058C11.5029 -0.0141699 10.7434 -0.136794 10.1 0.16058C9.32424 0.61902 8.8987 1.49768 9.02001 2.39058V5.39058L2.95001 0.62058C2.44162 0.157967 1.70759 0.0402072 1.08001 0.32058C0.670006 0.51058 0.0200063 1.06058 0.0200063 2.54058V13.7906C-0.0998068 14.6805 0.325865 15.5555 1.10001 16.0106C1.31291 16.1099 1.54508 16.1611 1.78001 16.1606C2.21854 16.1463 2.6402 15.9881 2.98001 15.7106L9.02001 10.9106V13.6406C8.90019 14.5305 9.32586 15.4055 10.1 15.8606C10.3133 15.9587 10.5452 16.0098 10.78 16.0106C11.2208 15.9988 11.6443 15.8365 11.98 15.5506L19.02 9.93058C19.6281 9.47979 19.9867 8.76756 19.9867 8.01058C19.9867 7.2536 19.6281 6.54137 19.02 6.09058V6.09058Z" fill="var(--fill-0, #4BB4E6)"/>
</g>
</svg>
