<svg preserveAspectRatio="none" width="100%" height="100%" overflow="visible" style="display: block;" viewBox="0 0 14 20" fill="none" xmlns="http://www.w3.org/2000/svg">
<g id="Layer_125">
<path id="Shape" fill-rule="evenodd" clip-rule="evenodd" d="M11 0H3C1.34315 0 0 1.34315 0 3V17C0 18.6569 1.34315 20 3 20H11C12.6569 20 14 18.6569 14 17V3C14 1.34315 12.6569 0 11 0ZM7.71 16.71C7.6128 16.7983 7.50118 16.8694 7.38 16.92C7.00854 17.0687 6.58421 16.9816 6.30128 16.6987C6.01836 16.4158 5.93131 15.9915 6.08 15.62C6.12759 15.4972 6.19896 15.3851 6.29 15.29C6.52459 15.0454 6.86712 14.9362 7.2 15L7.38 15.06C7.44372 15.0819 7.50425 15.1122 7.56 15.15C7.61239 15.1869 7.66248 15.227 7.71 15.27C7.79833 15.3672 7.86936 15.4788 7.92 15.6C8.0766 15.9724 7.99374 16.4024 7.71 16.69V16.71ZM6 5H8.12H8.14C8.69228 5 9.14 4.55228 9.14 4C9.14 3.44772 8.69228 3 8.14 3H6C5.44772 3 5 3.44772 5 4C5 4.55228 5.44772 5 6 5Z" fill="var(--fill-0, #4BB4E6)"/>
</g>
</svg>
