<svg preserveAspectRatio="none" width="100%" height="100%" overflow="visible" style="display: block;" viewBox="0 0 18 14" fill="none" xmlns="http://www.w3.org/2000/svg">
<path id="Vector" fill-rule="evenodd" clip-rule="evenodd" d="M4.05008 0.292786C4.23755 0.480314 4.34286 0.734622 4.34286 0.999786C4.34286 1.26495 4.23755 1.51926 4.05008 1.70679C3.39999 2.35681 2.88431 3.12851 2.53248 3.97784C2.18066 4.82716 1.99957 5.73747 1.99957 6.65679C1.99957 7.5761 2.18066 8.48641 2.53248 9.33574C2.88431 10.1851 3.39999 10.9568 4.05008 11.6068C4.14559 11.699 4.22177 11.8094 4.27418 11.9314C4.32659 12.0534 4.35417 12.1846 4.35533 12.3174C4.35648 12.4502 4.33118 12.5818 4.2809 12.7047C4.23062 12.8276 4.15637 12.9393 4.06247 13.0332C3.96858 13.1271 3.85693 13.2013 3.73403 13.2516C3.61114 13.3019 3.47946 13.3272 3.34668 13.326C3.2139 13.3249 3.08268 13.2973 2.96067 13.2449C2.83867 13.1925 2.72832 13.1163 2.63608 13.0208C1.80034 12.1851 1.13739 11.1929 0.685095 10.101C0.232796 9.00903 0 7.83869 0 6.65679C0 5.47488 0.232796 4.30455 0.685095 3.21261C1.13739 2.12067 1.80034 1.12852 2.63608 0.292786C2.82361 0.105315 3.07791 0 3.34308 0C3.60824 0 3.86255 0.105315 4.05008 0.292786V0.292786ZM13.9501 0.292786C14.1376 0.105315 14.3919 0 14.6571 0C14.9222 0 15.1766 0.105315 15.3641 0.292786C16.1998 1.12852 16.8628 2.12067 17.3151 3.21261C17.7674 4.30455 18.0002 5.47488 18.0002 6.65679C18.0002 7.83869 17.7674 9.00903 17.3151 10.101C16.8628 11.1929 16.1998 12.1851 15.3641 13.0208C15.2718 13.1163 15.1615 13.1925 15.0395 13.2449C14.9175 13.2973 14.7863 13.3249 14.6535 13.326C14.5207 13.3272 14.389 13.3019 14.2661 13.2516C14.1432 13.2013 14.0316 13.1271 13.9377 13.0332C13.8438 12.9393 13.7695 12.8276 13.7193 12.7047C13.669 12.5818 13.6437 12.4502 13.6448 12.3174C13.646 12.1846 13.6736 12.0534 13.726 11.9314C13.7784 11.8094 13.8546 11.699 13.9501 11.6068C14.6002 10.9568 15.1158 10.1851 15.4677 9.33574C15.8195 8.48641 16.0006 7.5761 16.0006 6.65679C16.0006 5.73747 15.8195 4.82716 15.4677 3.97784C15.1158 3.12851 14.6002 2.35681 13.9501 1.70679C13.7626 1.51926 13.6573 1.26495 13.6573 0.999786C13.6573 0.734622 13.7626 0.480314 13.9501 0.292786V0.292786ZM6.87908 3.12079C7.06655 3.30831 7.17186 3.56262 7.17186 3.82779C7.17186 4.09295 7.06655 4.34726 6.87908 4.53479C6.60045 4.81337 6.37943 5.14411 6.22863 5.50812C6.07783 5.87213 6.00022 6.26228 6.00022 6.65629C6.00022 7.0503 6.07783 7.44044 6.22863 7.80445C6.37943 8.16846 6.60045 8.4992 6.87908 8.77779C6.97192 8.8707 7.04556 8.98098 7.09578 9.10235C7.146 9.22372 7.17183 9.35379 7.17178 9.48514C7.17173 9.61649 7.14582 9.74654 7.09551 9.86787C7.0452 9.98921 6.97149 10.0994 6.87858 10.1923C6.78567 10.2851 6.67538 10.3588 6.55401 10.409C6.43264 10.4592 6.30257 10.485 6.17122 10.485C6.03988 10.4849 5.90982 10.459 5.78849 10.4087C5.66716 10.3584 5.55692 10.2847 5.46408 10.1918C4.52672 9.25415 4.00015 7.98261 4.00015 6.65679C4.00015 5.33097 4.52672 4.05943 5.46408 3.12179C5.55695 3.02881 5.66724 2.95505 5.78864 2.90473C5.91004 2.8544 6.04016 2.8285 6.17158 2.8285C6.30299 2.8285 6.43312 2.8544 6.55452 2.90473C6.67592 2.95505 6.7862 3.02881 6.87908 3.12179V3.12079ZM11.1211 3.12079C11.214 3.02781 11.3242 2.95405 11.4456 2.90373C11.567 2.8534 11.6972 2.8275 11.8286 2.8275C11.96 2.8275 12.0901 2.8534 12.2115 2.90373C12.3329 2.95405 12.4432 3.02781 12.5361 3.12079C13.0005 3.5851 13.3689 4.13635 13.6203 4.74306C13.8716 5.34978 14.001 6.00007 14.001 6.65679C14.001 7.31351 13.8716 7.9638 13.6203 8.57051C13.3689 9.17722 13.0005 9.72848 12.5361 10.1928C12.3484 10.3804 12.0939 10.4858 11.8286 10.4858C11.5632 10.4858 11.3087 10.3804 11.1211 10.1928C10.9334 10.0051 10.828 9.75065 10.828 9.48529C10.828 9.21992 10.9334 8.96543 11.1211 8.77779C11.6835 8.2152 11.9994 7.45228 11.9994 6.65679C11.9994 5.86129 11.6835 5.09837 11.1211 4.53579C11.0281 4.44291 10.9543 4.33263 10.904 4.21123C10.8537 4.08983 10.8278 3.9597 10.8278 3.82829C10.8278 3.69687 10.8537 3.56674 10.904 3.44535C10.9543 3.32395 11.0281 3.21366 11.1211 3.12079V3.12079ZM9.00008 5.65679C9.26529 5.65679 9.51965 5.76214 9.70718 5.94968C9.89472 6.13722 10.0001 6.39157 10.0001 6.65679V6.66679C10.0001 6.932 9.89472 7.18636 9.70718 7.37389C9.51965 7.56143 9.26529 7.66679 9.00008 7.66679C8.73486 7.66679 8.48051 7.56143 8.29297 7.37389C8.10544 7.18636 8.00008 6.932 8.00008 6.66679V6.65679C8.00008 6.39157 8.10544 6.13722 8.29297 5.94968C8.48051 5.76214 8.73486 5.65679 9.00008 5.65679V5.65679Z" fill="var(--fill-0, #111928)"/>
</svg>
