<svg preserveAspectRatio="none" width="100%" height="100%" overflow="visible" style="display: block;" viewBox="0 0 27 22" fill="none" xmlns="http://www.w3.org/2000/svg">
<g id="Layer_119">
<path id="Path" d="M25.3333 0.400107C24.3462 -0.1326 23.1486 -0.0918296 22.2 0.506773L8.54667 8.00011C7.46812 8.4644 6.74159 9.49493 6.66667 10.6668C6.73176 11.8264 7.43557 12.8538 8.49333 13.3334L22.1333 20.8401C22.6648 21.1489 23.2655 21.3185 23.88 21.3334C24.3496 21.3286 24.8095 21.1998 25.2133 20.9601C26.1687 20.3585 26.7245 19.2877 26.6667 18.1601V3.18677C26.7511 2.08656 26.243 1.0247 25.3333 0.400107Z" fill="var(--fill-0, #4BB4E6)"/>
<path id="Path_2" d="M3.36 0.000106817C2.47133 -0.00700274 1.61662 0.341046 0.98572 0.966939C0.354819 1.59283 -2.8437e-05 2.44475 1.70925e-09 3.33344V18.0001C1.70925e-09 19.8411 1.49238 21.3334 3.33333 21.3334C5.17428 21.3334 6.66667 19.8411 6.66667 18.0001V3.33344C6.66673 1.50285 5.19053 0.0147515 3.36 0.000106817Z" fill="var(--fill-0, #4BB4E6)"/>
</g>
</svg>
