<svg preserveAspectRatio="none" width="100%" height="100%" overflow="visible" style="display: block;" viewBox="0 0 13 13" fill="none" xmlns="http://www.w3.org/2000/svg">
<path id="Vector" d="M12.2336 8.4688C11.0484 9.00488 9.72803 9.16709 8.44832 8.93382C7.16862 8.70054 5.99037 8.08286 5.07057 7.16306C4.15077 6.24326 3.53309 5.06501 3.29981 3.78531C3.06654 2.5056 3.22875 1.18519 3.76483 0C2.82128 0.426409 1.99526 1.07536 1.35763 1.89117C0.720008 2.70698 0.289814 3.6653 0.103958 4.68391C-0.0818974 5.70252 -0.0178664 6.75102 0.290558 7.73944C0.598982 8.72787 1.14259 9.62672 1.87475 10.3589C2.60691 11.091 3.50576 11.6346 4.49419 11.9431C5.48261 12.2515 6.53111 12.3155 7.54972 12.1297C8.56833 11.9438 9.52665 11.5136 10.3425 10.876C11.1583 10.2384 11.8072 9.41235 12.2336 8.4688V8.4688Z" fill="var(--fill-0, white)"/>
</svg>
