<svg preserveAspectRatio="none" width="100%" height="100%" overflow="visible" style="display: block;" viewBox="0 0 27 27" fill="none" xmlns="http://www.w3.org/2000/svg">
<g id="Layer_17">
<path id="Shape" fill-rule="evenodd" clip-rule="evenodd" d="M0 13.3333C0 5.96954 5.96954 0 13.3333 0C16.8696 0 20.2609 1.40476 22.7614 3.90524C25.2619 6.40573 26.6667 9.79711 26.6667 13.3333C26.6667 20.6971 20.6971 26.6667 13.3333 26.6667C5.96954 26.6667 0 20.6971 0 13.3333ZM18.6667 17.3333C19.0249 17.3284 19.3661 17.1794 19.6133 16.92C19.8657 16.6696 20.0077 16.3288 20.0077 15.9733C20.0077 15.6178 19.8657 15.277 19.6133 15.0267L14.28 9.69333C14.0296 9.44092 13.6888 9.29894 13.3333 9.29894C12.9778 9.29894 12.637 9.44092 12.3867 9.69333L7.05333 15.0267C6.71512 15.3649 6.58303 15.8578 6.70683 16.3198C6.83062 16.7818 7.19149 17.1427 7.6535 17.2665C8.1155 17.3903 8.60845 17.2582 8.94667 16.92L13.3333 12.56L17.72 16.9467C17.9716 17.1962 18.3123 17.3354 18.6667 17.3333Z" fill="var(--fill-0, #4BB4E6)"/>
</g>
</svg>
