<svg preserveAspectRatio="none" width="100%" height="100%" overflow="visible" style="display: block;" viewBox="0 0 14 14" fill="none" xmlns="http://www.w3.org/2000/svg">
<g id="Layer_130">
<path id="Shape" fill-rule="evenodd" clip-rule="evenodd" d="M2 0H11.3333C12.4379 0 13.3333 0.89543 13.3333 2V6.53333C13.3275 8.89784 11.9335 11.0384 9.77333 12L6.94 13.2533C6.76616 13.3315 6.56718 13.3315 6.39333 13.2533L3.56 12C1.39983 11.0384 0.00583291 8.89784 0 6.53333V2C0 0.89543 0.89543 0 2 0ZM8.71333 6.96L9.81333 5.83333H9.8C9.97195 5.65378 10.0297 5.39346 9.94983 5.15803C9.86996 4.9226 9.66571 4.75118 9.42 4.71333L7.93333 4.48667L7.26667 3.05333C7.15836 2.81563 6.92122 2.66307 6.66 2.66307C6.39878 2.66307 6.16164 2.81563 6.05333 3.05333L5.38667 4.48667L3.9 4.71333C3.65429 4.75118 3.45004 4.9226 3.37017 5.15803C3.29029 5.39346 3.34805 5.65378 3.52 5.83333L4.6 6.98667L4.34 8.58667C4.30972 8.83443 4.42039 9.07836 4.62677 9.21875C4.83315 9.35915 5.10067 9.37249 5.32 9.25333L6.65333 8.52L7.98667 9.25333C8.08495 9.30638 8.19498 9.33389 8.30667 9.33333C8.50361 9.33587 8.6916 9.2512 8.8202 9.10201C8.94881 8.95283 9.00486 8.75442 8.97333 8.56L8.71333 6.96Z" fill="var(--fill-0, #4BB4E6)"/>
<path id="Path" d="M6.88667 5.37333L6.66667 4.9L6.44667 5.37333C6.35212 5.57291 6.16488 5.71272 5.94667 5.74667L5.38667 5.83333L5.81333 6.27333C5.96095 6.42503 6.02775 6.63782 5.99333 6.84667L5.9 7.42L6.34667 7.17333C6.55293 7.05424 6.80707 7.05424 7.01333 7.17333L7.46 7.42L7.33333 6.84667C7.29891 6.63782 7.36572 6.42503 7.51333 6.27333L7.94 5.83333L7.38 5.74667C7.16427 5.71068 6.97992 5.57117 6.88667 5.37333V5.37333Z" fill="var(--fill-0, #4BB4E6)"/>
</g>
</svg>
