<svg preserveAspectRatio="none" width="100%" height="100%" overflow="visible" style="display: block;" viewBox="0 0 14 14" fill="none" xmlns="http://www.w3.org/2000/svg">
<g id="Layer_96">
<path id="Shape" fill-rule="evenodd" clip-rule="evenodd" d="M13.3333 6.76011C13.3364 7.80747 12.5309 8.67982 11.4867 8.76011L4 9.33344C4.1 10.0001 4.31333 10.0001 4.66667 10.0001H11.6667C11.9628 10.0053 12.2525 10.088 12.5067 10.2401H12.5467C13.2426 10.6506 13.5439 11.5011 13.2615 12.2582C12.9791 13.0152 12.1944 13.4607 11.3996 13.3151C10.6049 13.1695 10.029 12.4748 10.0333 11.6668C10.0342 11.5549 10.0453 11.4433 10.0667 11.3334H7.33333C7.34353 11.4443 7.34353 11.5559 7.33333 11.6668C7.33333 12.5873 6.58714 13.3334 5.66667 13.3334C4.74619 13.3334 4 12.5873 4 11.6668C4.00046 11.5317 4.01839 11.3973 4.05333 11.2668C2.66667 10.9401 2.66667 9.50011 2.66667 8.72011L1.43333 1.33344H0.666667C0.298477 1.33344 0 1.03497 0 0.666777C0 0.298587 0.298477 0.000110535 0.666667 0.000110535H2C2.33026 -0.00414014 2.61385 0.234072 2.66667 0.560111L2.78667 1.33344L12.7133 2.00011C13.0632 2.02466 13.3342 2.31607 13.3333 2.66678V6.76011ZM9.33333 4.66678H6.66667C6.29848 4.66678 6 4.96525 6 5.33344C6 5.70163 6.29848 6.00011 6.66667 6.00011H9.33333C9.70152 6.00011 10 5.70163 10 5.33344C10 4.96525 9.70152 4.66678 9.33333 4.66678ZM11.6667 11.3334C11.8508 11.3334 12 11.4827 12 11.6668C12 11.8509 11.8508 12.0001 11.6667 12.0001C11.4826 12.0001 11.3333 11.8509 11.3333 11.6668C11.3333 11.4827 11.4826 11.3334 11.6667 11.3334ZM6 11.6668C6 11.4827 5.85076 11.3334 5.66667 11.3334C5.48257 11.3334 5.33333 11.4827 5.33333 11.6668C5.33333 11.8509 5.48257 12.0001 5.66667 12.0001C5.85076 12.0001 6 11.8509 6 11.6668Z" fill="var(--fill-0, #4BB4E6)"/>
</g>
</svg>
