<svg preserveAspectRatio="none" width="100%" height="100%" overflow="visible" style="display: block;" viewBox="0 0 12 13" fill="none" xmlns="http://www.w3.org/2000/svg">
<path id="Vector" fill-rule="evenodd" clip-rule="evenodd" d="M4.8 0C4.65147 7.93189e-05 4.5059 0.0415065 4.37958 0.119642C4.25326 0.197777 4.15119 0.309535 4.0848 0.4424L3.5056 1.6H0.8C0.587827 1.6 0.384344 1.68429 0.234315 1.83431C0.0842854 1.98434 0 2.18783 0 2.4C0 2.61217 0.0842854 2.81566 0.234315 2.96569C0.384344 3.11571 0.587827 3.2 0.8 3.2V11.2C0.8 11.6243 0.968571 12.0313 1.26863 12.3314C1.56869 12.6314 1.97565 12.8 2.4 12.8H8.8C9.22435 12.8 9.63131 12.6314 9.93137 12.3314C10.2314 12.0313 10.4 11.6243 10.4 11.2V3.2C10.6122 3.2 10.8157 3.11571 10.9657 2.96569C11.1157 2.81566 11.2 2.61217 11.2 2.4C11.2 2.18783 11.1157 1.98434 10.9657 1.83431C10.8157 1.68429 10.6122 1.6 10.4 1.6H7.6944L7.1152 0.4424C7.04881 0.309535 6.94674 0.197777 6.82042 0.119642C6.6941 0.0415065 6.54853 7.93189e-05 6.4 0H4.8ZM3.2 4.8C3.2 4.58783 3.28429 4.38434 3.43432 4.23431C3.58434 4.08429 3.78783 4 4 4C4.21217 4 4.41566 4.08429 4.56569 4.23431C4.71571 4.38434 4.8 4.58783 4.8 4.8V9.6C4.8 9.81217 4.71571 10.0157 4.56569 10.1657C4.41566 10.3157 4.21217 10.4 4 10.4C3.78783 10.4 3.58434 10.3157 3.43432 10.1657C3.28429 10.0157 3.2 9.81217 3.2 9.6V4.8ZM7.2 4C6.98783 4 6.78434 4.08429 6.63432 4.23431C6.48429 4.38434 6.4 4.58783 6.4 4.8V9.6C6.4 9.81217 6.48429 10.0157 6.63432 10.1657C6.78434 10.3157 6.98783 10.4 7.2 10.4C7.41217 10.4 7.61566 10.3157 7.76569 10.1657C7.91572 10.0157 8 9.81217 8 9.6V4.8C8 4.58783 7.91572 4.38434 7.76569 4.23431C7.61566 4.08429 7.41217 4 7.2 4Z" fill="var(--fill-0, #E9E9E9)"/>
</svg>
