<svg preserveAspectRatio="none" width="100%" height="100%" overflow="visible" style="display: block;" viewBox="0 0 14 14" fill="none" xmlns="http://www.w3.org/2000/svg">
<path id="Vector" d="M0 2C0 1.46957 0.210714 0.960859 0.585786 0.585786C0.960859 0.210714 1.46957 0 2 0H3C3.26522 0 3.51957 0.105357 3.70711 0.292893C3.89464 0.48043 4 0.734784 4 1C4 1.26522 3.89464 1.51957 3.70711 1.70711C3.51957 1.89464 3.26522 2 3 2H2V9H4L5 11H9L10 9H12V2H11C10.7348 2 10.4804 1.89464 10.2929 1.70711C10.1054 1.51957 10 1.26522 10 1C10 0.734784 10.1054 0.48043 10.2929 0.292893C10.4804 0.105357 10.7348 0 11 0H12C12.5304 0 13.0391 0.210714 13.4142 0.585786C13.7893 0.960859 14 1.46957 14 2V12C14 12.5304 13.7893 13.0391 13.4142 13.4142C13.0391 13.7893 12.5304 14 12 14H2C1.46957 14 0.960859 13.7893 0.585786 13.4142C0.210714 13.0391 0 12.5304 0 12V2Z" fill="var(--fill-0, #111928)"/>
</svg>
