<svg preserveAspectRatio="none" width="100%" height="100%" overflow="visible" style="display: block;" viewBox="0 0 14 11" fill="none" xmlns="http://www.w3.org/2000/svg">
<g id="Layer_121">
<path id="Path" d="M12.6267 0.20963C12.208 0.0244929 11.7197 0.102838 11.38 0.40963L7.34667 3.60296V1.60296C7.43452 0.999644 7.1434 0.404188 6.61333 0.102963C6.18799 -0.0892671 5.68885 -0.00782981 5.34667 0.30963L0.64 4.0563C0.237111 4.35846 0 4.83268 0 5.3363C0 5.83991 0.237111 6.31413 0.64 6.6163L5.34667 10.363C5.56933 10.5555 5.85237 10.664 6.14667 10.6696C6.30106 10.6692 6.4535 10.6351 6.59333 10.5696C7.12226 10.2756 7.42018 9.69031 7.34667 9.08963V7.26963L11.3467 10.4696C11.575 10.656 11.8587 10.7615 12.1533 10.7696C12.3078 10.7699 12.4604 10.7357 12.6 10.6696C13.1291 10.3764 13.4252 9.78947 13.3467 9.18963V1.68963C13.3467 0.702963 12.9 0.336296 12.6267 0.20963Z" fill="var(--fill-0, #4BB4E6)"/>
</g>
</svg>
