<svg preserveAspectRatio="none" width="100%" height="100%" overflow="visible" style="display: block;" viewBox="0 0 9 11" fill="none" xmlns="http://www.w3.org/2000/svg">
<path id="Vector" d="M4.83008 0.504883L4.83398 0.505859C4.85257 0.512547 4.86909 0.524104 4.88086 0.540039C4.89345 0.557196 4.90039 0.578328 4.90039 0.599609V4.09961H7.80078C7.81897 4.09965 7.83698 4.10483 7.85254 4.11426C7.86809 4.12373 7.88123 4.13717 7.88965 4.15332C7.89805 4.1695 7.90157 4.18786 7.90039 4.20605L7.88281 4.25684L3.68262 10.2568C3.67047 10.2742 3.65288 10.288 3.63281 10.2949C3.61266 10.3018 3.59061 10.3013 3.57031 10.2949C3.55004 10.2885 3.5321 10.2759 3.51953 10.2588C3.50712 10.2417 3.50004 10.2213 3.5 10.2002V6.69922H0.599609C0.581469 6.69915 0.56337 6.69495 0.547852 6.68555C0.532229 6.67607 0.520167 6.66171 0.511719 6.64551C0.503298 6.62931 0.498818 6.61099 0.5 6.59277C0.501221 6.57491 0.507441 6.55772 0.517578 6.54297L4.71777 0.542969C4.72997 0.525547 4.74744 0.511716 4.76758 0.504883C4.78769 0.498086 4.80983 0.498495 4.83008 0.504883Z" fill="var(--fill-0, #50BE87)" stroke="var(--stroke-0, #50BE87)"/>
</svg>
