<svg preserveAspectRatio="none" width="100%" height="100%" overflow="visible" style="display: block;" viewBox="0 0 14 14" fill="none" xmlns="http://www.w3.org/2000/svg">
<g id="Layer_8">
<path id="Shape" fill-rule="evenodd" clip-rule="evenodd" d="M0 6.66667C0 2.98477 2.98477 0 6.66667 0C8.43478 0 10.1305 0.702379 11.3807 1.95262C12.631 3.20286 13.3333 4.89856 13.3333 6.66667C13.3333 10.3486 10.3486 13.3333 6.66667 13.3333C2.98477 13.3333 0 10.3486 0 6.66667ZM4.94 7.33333H10C10.3682 7.33333 10.6667 7.03486 10.6667 6.66667C10.6667 6.29848 10.3682 6 10 6H4.94L6.47333 4.47333C6.64244 4.30423 6.70848 4.05775 6.64659 3.82675C6.58469 3.59575 6.40425 3.41531 6.17325 3.35341C5.94225 3.29152 5.69577 3.35756 5.52667 3.52667L2.86 6.19333C2.79931 6.25674 2.75173 6.3315 2.72 6.41333C2.65332 6.57564 2.65332 6.75769 2.72 6.92C2.75173 7.00183 2.79931 7.0766 2.86 7.14L5.52667 9.80667C5.65184 9.93288 5.82224 10.0039 6 10.0039C6.17776 10.0039 6.34816 9.93288 6.47333 9.80667C6.59954 9.68149 6.67053 9.51109 6.67053 9.33333C6.67053 9.15557 6.59954 8.98518 6.47333 8.86L4.94 7.33333Z" fill="var(--fill-0, #4BB4E6)"/>
</g>
</svg>
