<svg preserveAspectRatio="none" width="100%" height="100%" overflow="visible" style="display: block;" viewBox="0 0 14 15" fill="none" xmlns="http://www.w3.org/2000/svg">
<path id="Vector" fill-rule="evenodd" clip-rule="evenodd" d="M0 2C0 1.46957 0.210714 0.960859 0.585786 0.585786C0.960859 0.210714 1.46957 0 2 0H12C12.5304 0 13.0391 0.210714 13.4142 0.585786C13.7893 0.960859 14 1.46957 14 2V10C14 10.5304 13.7893 11.0391 13.4142 11.4142C13.0391 11.7893 12.5304 12 12 12H9.78L9.903 12.489L10.707 13.293C10.8468 13.4329 10.942 13.611 10.9806 13.805C11.0192 13.9989 10.9993 14.2 10.9237 14.3827C10.848 14.5654 10.7199 14.7215 10.5555 14.8314C10.391 14.9413 10.1978 15 10 15H4C3.80225 15 3.60895 14.9413 3.44454 14.8314C3.28013 14.7215 3.15199 14.5654 3.07632 14.3827C3.00065 14.2 2.98085 13.9989 3.01942 13.805C3.05798 13.611 3.15319 13.4329 3.293 13.293L4.097 12.489L4.22 12H2C1.46957 12 0.960859 11.7893 0.585786 11.4142C0.210714 11.0391 0 10.5304 0 10V2ZM5.771 9H2V2H12V9H5.771Z" fill="var(--fill-0, #111928)"/>
</svg>
