<svg preserveAspectRatio="none" width="100%" height="100%" overflow="visible" style="display: block;" viewBox="0 0 16 15" fill="none" xmlns="http://www.w3.org/2000/svg">
<path id="Vector" fill-rule="evenodd" clip-rule="evenodd" d="M2.64901 0.0837453C2.89151 0.190304 3.08182 0.388718 3.17818 0.635441C3.27455 0.882164 3.26909 1.15704 3.16301 1.39975C2.39273 3.16605 1.99674 5.07279 2.00001 6.99975C2.00001 8.99275 2.41601 10.8857 3.16401 12.5997C3.26065 12.841 3.25957 13.1104 3.16099 13.3509C3.06241 13.5914 2.87408 13.784 2.6359 13.888C2.39773 13.992 2.12841 13.9992 1.88502 13.9081C1.64163 13.8169 1.44329 13.6346 1.33201 13.3997C0.450909 11.3813 -0.00261497 9.20216 1.13415e-05 6.99975C1.13415e-05 4.72575 0.475011 2.55975 1.33201 0.599745C1.38459 0.479372 1.46036 0.370537 1.55501 0.279455C1.64965 0.188374 1.76131 0.116831 1.88362 0.0689138C2.00592 0.0209962 2.13646 -0.00235712 2.26779 0.000187705C2.39912 0.00273253 2.52866 0.0311257 2.64901 0.0837453V0.0837453ZM10.96 3.99975C10.5102 3.99985 10.0662 4.1011 9.66077 4.29601C9.25537 4.49091 8.899 4.77449 8.61801 5.12575L8.29001 5.53575L8.17901 5.25675C8.03059 4.88581 7.77447 4.56783 7.44366 4.34379C7.11286 4.11975 6.72254 3.99992 6.32301 3.99975H6.00001C5.73479 3.99975 5.48044 4.1051 5.2929 4.29264C5.10537 4.48018 5.00001 4.73453 5.00001 4.99975C5.00001 5.26496 5.10537 5.51932 5.2929 5.70685C5.48044 5.89439 5.73479 5.99975 6.00001 5.99975H6.32301L6.85501 7.32975L5.82001 8.62475C5.72628 8.74181 5.60742 8.8363 5.47223 8.90121C5.33704 8.96613 5.18898 8.9998 5.03901 8.99975H5.00001C4.73479 8.99975 4.48044 9.1051 4.2929 9.29264C4.10537 9.48018 4.00001 9.73453 4.00001 9.99975C4.00001 10.265 4.10537 10.5193 4.2929 10.7069C4.48044 10.8944 4.73479 10.9997 5.00001 10.9997H5.03901C5.48883 10.9996 5.93286 10.8984 6.33826 10.7035C6.74365 10.5086 7.10003 10.225 7.38101 9.87374L7.70901 9.46375L7.82001 9.74275C7.9685 10.1138 8.22477 10.4319 8.55577 10.656C8.88677 10.88 9.27731 10.9998 9.67701 10.9997H10C10.2652 10.9997 10.5196 10.8944 10.7071 10.7069C10.8947 10.5193 11 10.265 11 9.99975C11 9.73453 10.8947 9.48018 10.7071 9.29264C10.5196 9.1051 10.2652 8.99975 10 8.99975H9.67701L9.14501 7.66975L10.18 6.37475C10.2737 6.25768 10.3926 6.16319 10.5278 6.09828C10.663 6.03336 10.811 5.99969 10.961 5.99975H11C11.2652 5.99975 11.5196 5.89439 11.7071 5.70685C11.8947 5.51932 12 5.26496 12 4.99975C12 4.73453 11.8947 4.48018 11.7071 4.29264C11.5196 4.1051 11.2652 3.99975 11 3.99975H10.961H10.96ZM12.834 1.39975C12.7296 1.15695 12.7255 0.882687 12.8227 0.636897C12.9198 0.391107 13.1104 0.193783 13.3526 0.0880604C13.5949 -0.0176626 13.8691 -0.0231866 14.1154 0.0726956C14.3617 0.168578 14.56 0.358067 14.667 0.599745C15.5485 2.61816 16.0023 4.79726 16 6.99975C16 9.27375 15.525 11.4397 14.668 13.3997C14.6182 13.5241 14.544 13.6371 14.4497 13.7322C14.3554 13.8272 14.2429 13.9024 14.119 13.9532C13.9951 14.004 13.8623 14.0294 13.7284 14.0278C13.5945 14.0263 13.4622 13.9979 13.3395 13.9443C13.2168 13.8907 13.1061 13.8131 13.014 13.7159C12.9219 13.6187 12.8502 13.504 12.8032 13.3786C12.7563 13.2532 12.735 13.1196 12.7406 12.9858C12.7462 12.8521 12.7787 12.7208 12.836 12.5997C13.6067 10.8335 14.003 8.92678 14 6.99975C14 5.00675 13.584 3.11375 12.835 1.39975H12.834Z" fill="var(--fill-0, #111928)"/>
</svg>
