<svg preserveAspectRatio="none" width="100%" height="100%" overflow="visible" style="display: block;" viewBox="0 0 27 28" fill="none" xmlns="http://www.w3.org/2000/svg">
<g id="Layer_25">
<path id="Path" d="M26.1697 10.9983L23.9564 8.98498L22.8097 7.99831L14.1697 0.331646C13.6664 -0.110549 12.9131 -0.110549 12.4097 0.331646L3.76971 7.99831L2.62304 8.98498L0.409709 10.9983C-0.105069 11.4928 -0.139152 12.3049 0.332388 12.8408C0.803929 13.3766 1.61382 13.446 2.16971 12.9983L2.62304 12.5983V23.9983C2.62304 26.2075 4.4139 27.9983 6.62304 27.9983H9.28971V19.9983C9.28971 17.7892 11.0806 15.9983 13.2897 15.9983C15.4988 15.9983 17.2897 17.7892 17.2897 19.9983V27.9983H19.9564C22.1655 27.9983 23.9564 26.2075 23.9564 23.9983V12.5983L24.4097 12.9983C24.9622 13.4836 25.8034 13.4299 26.2897 12.8783C26.775 12.3258 26.7213 11.4847 26.1697 10.9983Z" fill="var(--fill-0, #4BB4E6)"/>
</g>
</svg>
