<svg preserveAspectRatio="none" width="100%" height="100%" overflow="visible" style="display: block;" viewBox="0 0 20 20" fill="none" xmlns="http://www.w3.org/2000/svg">
<g id="Layer_122">
<path id="Path" d="M8.00196 3.05164V1.00164C8.00259 0.61337 7.77842 0.259832 7.42696 0.0948185C7.0755 -0.0701954 6.66029 -0.0168541 6.36196 0.231638L0.361956 5.23164C0.132686 5.42162 0 5.70388 0 6.00164C0 6.29939 0.132686 6.58166 0.361956 6.77164L6.36196 11.7716C6.54187 11.9207 6.7683 12.0021 7.00196 12.0016C7.14682 12.0024 7.29013 11.9717 7.42196 11.9116C7.77641 11.7476 8.00292 11.3922 8.00196 11.0016V9.05164C11.9976 9.44268 15.4151 12.0903 16.792 15.8616L18.062 19.3416C18.2051 19.7376 18.5809 20.0015 19.002 20.0016C19.0582 20.012 19.1158 20.012 19.172 20.0016C19.657 19.918 20.0091 19.4938 20.002 19.0016V16.0016C19.996 9.21422 14.7693 3.57375 8.00196 3.05164Z" fill="var(--fill-0, #4BB4E6)"/>
</g>
</svg>
