<svg preserveAspectRatio="none" width="100%" height="100%" overflow="visible" style="display: block;" viewBox="0 0 29 29" fill="none" xmlns="http://www.w3.org/2000/svg">
<g id="Layer_88">
<path id="Path" d="M10.7333 10.4C10.7333 10.2159 10.5841 10.0667 10.4 10.0667C10.2188 10.0735 10.0735 10.2188 10.0667 10.4C10.0667 10.7733 10.7333 10.7733 10.7333 10.4Z" fill="var(--fill-0, #4BB4E6)"/>
<path id="Path_2" d="M18.1867 17.8533C18.0026 17.8533 17.8533 18.0026 17.8533 18.1867C17.8533 18.5467 18.52 18.5467 18.52 18.1867C18.52 18.0026 18.3708 17.8533 18.1867 17.8533Z" fill="var(--fill-0, #4BB4E6)"/>
<path id="Shape" fill-rule="evenodd" clip-rule="evenodd" d="M25.7333 9.49333C25.9947 9.98744 26.3322 10.4374 26.7333 10.8267C27.77 11.7041 28.4328 12.944 28.5867 14.2933C28.434 15.6092 27.7971 16.8212 26.8 17.6933C26.3989 18.0826 26.0614 18.5326 25.8 19.0267C25.6342 19.5797 25.562 20.1565 25.5867 20.7333C25.6981 22.054 25.2971 23.367 24.4667 24.4C23.4336 25.2304 22.1207 25.6314 20.8 25.52C20.2232 25.4954 19.6463 25.5675 19.0933 25.7333C18.6015 25.9983 18.1521 26.3354 17.76 26.7333C16.8887 27.7776 15.6456 28.4422 14.2933 28.5867C12.9747 28.4429 11.7597 27.8044 10.8933 26.8C10.5013 26.402 10.0518 26.065 9.56 25.8C9.007 25.6342 8.43014 25.562 7.85333 25.5867C6.53263 25.6981 5.21969 25.2971 4.18667 24.4667C3.35628 23.4336 2.95524 22.1207 3.06667 20.8C3.09128 20.2232 3.01918 19.6463 2.85333 19.0933C2.59193 18.5992 2.25448 18.1493 1.85333 17.76C0.8167 16.8826 0.153854 15.6427 0 14.2933C0.152635 12.9774 0.789526 11.7654 1.78667 10.8933C2.18781 10.504 2.52527 10.0541 2.78667 9.56C2.95251 9.007 3.02462 8.43014 3 7.85333C2.88857 6.53263 3.28961 5.21969 4.12 4.18667C5.15302 3.35628 6.46596 2.95524 7.78667 3.06667C8.36347 3.09128 8.94033 3.01918 9.49333 2.85333C9.98517 2.58837 10.4346 2.25131 10.8267 1.85333C11.6979 0.809098 12.9411 0.144506 14.2933 0C15.612 0.143759 16.827 0.782246 17.6933 1.78667C18.0854 2.18464 18.5348 2.52171 19.0267 2.78667C19.5797 2.95251 20.1565 3.02462 20.7333 3C22.054 2.88857 23.367 3.28961 24.4 4.12C25.2304 5.15302 25.6314 6.46596 25.52 7.78667C25.4954 8.36347 25.5675 8.94033 25.7333 9.49333ZM10.4 7.4C8.74315 7.4 7.4 8.74315 7.4 10.4C7.4 12.0569 8.74315 13.4 10.4 13.4C12.0569 13.4 13.4 12.0569 13.4 10.4C13.4 8.74315 12.0569 7.4 10.4 7.4ZM10.7867 19.7333C10.5383 19.9797 10.2031 20.1185 9.85333 20.12C9.50192 20.0805 9.18057 19.9031 8.96 19.6267C8.44304 19.1066 8.44304 18.2667 8.96 17.7467L17.8 8.96C18.0838 8.48081 18.6355 8.22848 19.1836 8.32722C19.7317 8.42595 20.1607 8.85495 20.2594 9.40305C20.3582 9.95115 20.1059 10.5029 19.6267 10.7867L10.7867 19.7333ZM15.1867 18.24C15.1867 19.8969 16.5298 21.24 18.1867 21.24V21.1867C19.8229 21.1869 21.1576 19.876 21.1867 18.24C21.1867 16.5831 19.8435 15.24 18.1867 15.24C16.5298 15.24 15.1867 16.5831 15.1867 18.24Z" fill="var(--fill-0, #4BB4E6)"/>
</g>
</svg>
