<svg preserveAspectRatio="none" width="100%" height="100%" overflow="visible" style="display: block;" viewBox="0 0 27 27" fill="none" xmlns="http://www.w3.org/2000/svg">
<g id="Layer_93">
<path id="Path" d="M22.6667 4H21.3333V1.33333C21.3333 0.596954 20.7364 0 20 0C19.2636 0 18.6667 0.596954 18.6667 1.33333V4H8V1.33333C8 0.596954 7.40305 0 6.66667 0C5.93029 0 5.33333 0.596954 5.33333 1.33333V4H4C1.79086 4 0 5.79086 0 8V9.33333H26.6667V8C26.6667 5.79086 24.8758 4 22.6667 4Z" fill="var(--fill-0, #4BB4E6)"/>
<path id="Path_2" d="M0 22.6667C0 24.8758 1.79086 26.6667 4 26.6667H22.6667C24.8758 26.6667 26.6667 24.8758 26.6667 22.6667V12H0V22.6667Z" fill="var(--fill-0, #4BB4E6)"/>
</g>
</svg>
