<svg preserveAspectRatio="none" width="100%" height="100%" overflow="visible" style="display: block;" viewBox="0 0 20 20" fill="none" xmlns="http://www.w3.org/2000/svg">
<g id="Layer_28">
<path id="Path" d="M18.83 15H17.89V8C17.89 3.58172 14.3083 0 9.89 0C5.47172 0 1.89 3.58172 1.89 8V15H1C0.447715 15 0 15.4477 0 16C0 16.5523 0.447715 17 1 17H18.83C19.3823 17 19.83 16.5523 19.83 16C19.83 15.4477 19.3823 15 18.83 15Z" fill="var(--fill-0, #4BB4E6)"/>
<path id="Path_2" d="M9.89 20C11.1583 19.9964 12.2873 19.1957 12.71 18H7.07C7.49275 19.1957 8.62174 19.9964 9.89 20Z" fill="var(--fill-0, #4BB4E6)"/>
</g>
</svg>
