<svg preserveAspectRatio="none" width="100%" height="100%" overflow="visible" style="display: block;" viewBox="0 0 14 14" fill="none" xmlns="http://www.w3.org/2000/svg">
<g id="Layer_92">
<path id="Path" d="M12.7249 0.594965C12.3491 0.214282 11.8365 0 11.3016 0C10.7667 0 10.254 0.214282 9.87825 0.594965L8.59825 1.89497L11.4249 4.72163L12.7049 3.44163C13.0883 3.06852 13.3061 2.5574 13.3099 2.02248C13.3137 1.48756 13.103 0.973423 12.7249 0.594965Z" fill="var(--fill-0, #4BB4E6)"/>
<path id="Path_2" d="M7.65158 2.84163L2.05825 8.43497C2.00811 8.48652 1.96547 8.54487 1.93158 8.6083L0.0782509 12.3483C-0.0310931 12.5536 -0.0255227 12.8011 0.0929491 13.0012C0.211421 13.2014 0.425662 13.3254 0.658251 13.3283C0.759831 13.3287 0.860162 13.3059 0.951584 13.2616L4.69158 11.4083C4.75502 11.3744 4.81337 11.3318 4.86492 11.2816L10.4583 5.6883L7.65158 2.84163Z" fill="var(--fill-0, #4BB4E6)"/>
<path id="Path_3" d="M12.6583 13.3283H6.65825C6.29006 13.3283 5.99158 13.0298 5.99158 12.6616C5.99158 12.2934 6.29006 11.995 6.65825 11.995H12.6583C13.0264 11.995 13.3249 12.2934 13.3249 12.6616C13.3249 13.0298 13.0264 13.3283 12.6583 13.3283Z" fill="var(--fill-0, #4BB4E6)"/>
</g>
</svg>
