<svg preserveAspectRatio="none" width="100%" height="100%" overflow="visible" style="display: block;" viewBox="0 0 27 27" fill="none" xmlns="http://www.w3.org/2000/svg">
<g id="Layer_130">
<path id="Shape" fill-rule="evenodd" clip-rule="evenodd" d="M4 0H22.6667C24.8758 0 26.6667 1.79086 26.6667 4V13.0667C26.655 17.7957 23.867 22.0769 19.5467 24L13.88 26.5067C13.5323 26.663 13.1344 26.663 12.7867 26.5067L7.12 24C2.79966 22.0769 0.0116658 17.7957 0 13.0667V4C0 1.79086 1.79086 0 4 0ZM17.4267 13.92L19.6267 11.6667H19.6C19.9439 11.3076 20.0594 10.7869 19.8997 10.3161C19.7399 9.84521 19.3314 9.50236 18.84 9.42667L15.8667 8.97333L14.5333 6.10667C14.3167 5.63125 13.8424 5.32614 13.32 5.32614C12.7976 5.32614 12.3233 5.63125 12.1067 6.10667L10.7733 8.97333L7.8 9.42667C7.30857 9.50236 6.90009 9.84521 6.74033 10.3161C6.58058 10.7869 6.69609 11.3076 7.04 11.6667L9.2 13.9733L8.68 17.1733C8.61944 17.6689 8.84077 18.1567 9.25354 18.4375C9.6663 18.7183 10.2013 18.745 10.64 18.5067L13.3067 17.04L15.9733 18.5067C16.1699 18.6128 16.39 18.6678 16.6133 18.6667C17.0072 18.6717 17.3832 18.5024 17.6404 18.204C17.8976 17.9057 18.0097 17.5088 17.9467 17.12L17.4267 13.92Z" fill="var(--fill-0, #4BB4E6)"/>
<path id="Path" d="M13.7733 10.7467L13.3333 9.8L12.8933 10.7467C12.7042 11.1458 12.3298 11.4254 11.8933 11.4933L10.7733 11.6667L11.6267 12.5467C11.9219 12.8501 12.0555 13.2756 11.9867 13.6933L11.8 14.84L12.6933 14.3467C13.1059 14.1085 13.6141 14.1085 14.0267 14.3467L14.92 14.84L14.6667 13.6933C14.5978 13.2756 14.7314 12.8501 15.0267 12.5467L15.88 11.6667L14.76 11.4933C14.3285 11.4214 13.9598 11.1423 13.7733 10.7467V10.7467Z" fill="var(--fill-0, #4BB4E6)"/>
</g>
</svg>
