<svg preserveAspectRatio="none" width="100%" height="100%" overflow="visible" style="display: block;" viewBox="0 0 11 11" fill="none" xmlns="http://www.w3.org/2000/svg">
<path id="Vector" d="M4.01229 0C3.74707 0 3.49272 0.105357 3.30518 0.292893C3.11765 0.48043 3.01229 0.734784 3.01229 1C3.01229 1.26522 3.11765 1.51957 3.30518 1.70711C3.49272 1.89464 3.74707 2 4.01229 2H6.59829L0.305288 8.293C0.209778 8.38525 0.133596 8.49559 0.0811869 8.6176C0.0287779 8.7396 0.00119157 8.87082 3.7757e-05 9.0036C-0.00111606 9.13638 0.0241854 9.26806 0.0744663 9.39095C0.124747 9.51385 0.199 9.6255 0.292893 9.71939C0.386786 9.81329 0.498438 9.88754 0.621334 9.93782C0.74423 9.9881 0.87591 10.0134 1.00869 10.0123C1.14147 10.0111 1.27269 9.98351 1.39469 9.9311C1.5167 9.87869 1.62704 9.80251 1.71929 9.707L8.01229 3.414V6C8.01229 6.26522 8.11765 6.51957 8.30518 6.70711C8.49272 6.89464 8.74707 7 9.01229 7C9.2775 7 9.53186 6.89464 9.7194 6.70711C9.90693 6.51957 10.0123 6.26522 10.0123 6V1C10.0123 0.734784 9.90693 0.48043 9.7194 0.292893C9.53186 0.105357 9.2775 0 9.01229 0H4.01229Z" fill="var(--fill-0, #111928)"/>
</svg>
