<svg preserveAspectRatio="none" width="100%" height="100%" overflow="visible" style="display: block;" viewBox="0 0 20 21" fill="none" xmlns="http://www.w3.org/2000/svg">
<g id="Layer_78">
<path id="Path" d="M17 9.02692H5V7.02692C5.00391 4.59554 6.7563 2.51943 9.1525 2.10731C11.5487 1.6952 13.894 3.06655 14.71 5.35692C14.7981 5.61039 14.9844 5.81779 15.227 5.93251C15.4696 6.04723 15.7482 6.05963 16 5.96692C16.5177 5.783 16.79 5.21594 16.61 4.69692C15.4844 1.4673 12.1898 -0.476081 8.81875 0.101043C5.44766 0.678167 2.98717 3.6068 3 7.02692V9.02692C1.34315 9.02692 0 10.3701 0 12.0269V17.0269C0 18.6838 1.34315 20.0269 3 20.0269H17C18.6569 20.0269 20 18.6838 20 17.0269V12.0269C20 10.3701 18.6569 9.02692 17 9.02692Z" fill="var(--fill-0, #4BB4E6)"/>
</g>
</svg>
