<svg preserveAspectRatio="none" width="100%" height="100%" overflow="visible" style="display: block;" viewBox="0 0 16 16" fill="none" xmlns="http://www.w3.org/2000/svg">
<path id="Vector" d="M15.5608 7.5C15.5608 7.89783 15.4028 8.27936 15.1215 8.56066C14.8401 8.84196 14.4586 9 14.0608 9C13.663 9 13.2814 8.84196 13.0001 8.56066C12.7188 8.27936 12.5608 7.89783 12.5608 7.5V1.5C12.5608 1.10218 12.7188 0.720645 13.0001 0.43934C13.2814 0.158036 13.663 3.73082e-07 14.0608 3.73082e-07C14.4586 3.73082e-07 14.8401 0.158036 15.1215 0.43934C15.4028 0.720645 15.5608 1.10218 15.5608 1.5V7.5ZM11.5608 7.667V2.237C11.5611 1.86544 11.4578 1.50116 11.2626 1.18499C11.0675 0.86882 10.7881 0.613273 10.4558 0.447L10.4058 0.422C9.85 0.144217 9.23714 -0.000267964 8.61579 3.73082e-07H3.20079C2.73826 -0.000182829 2.28997 0.159952 1.93224 0.45314C1.5745 0.746328 1.32945 1.15444 1.23879 1.608L0.0387922 7.608C-0.0192142 7.89821 -0.012091 8.19768 0.0596479 8.4848C0.131387 8.77193 0.265953 9.03955 0.453642 9.26838C0.641331 9.4972 0.877463 9.68152 1.14501 9.80803C1.41255 9.93455 1.70484 10.0001 2.00079 10H5.56079V14C5.56079 14.5304 5.77151 15.0391 6.14658 15.4142C6.52165 15.7893 7.03036 16 7.56079 16C7.82601 16 8.08036 15.8946 8.2679 15.7071C8.45543 15.5196 8.56079 15.2652 8.56079 15V14.333C8.56079 13.4675 8.8415 12.6254 9.36079 11.933L10.7608 10.067C11.2801 9.37462 11.5608 8.53248 11.5608 7.667V7.667Z" fill="var(--fill-0, #111928)"/>
</svg>
