<svg preserveAspectRatio="none" width="100%" height="100%" overflow="visible" style="display: block;" viewBox="0 0 10 14" fill="none" xmlns="http://www.w3.org/2000/svg">
<g id="Layer_103">
<path id="Path" d="M9.2157 7.37119C9.29017 7.70948 9.09317 8.04845 8.76237 8.15119L7.28236 8.61786L6.6757 8.81119L5.94903 9.47786L5.06903 10.2912C4.94343 10.4012 4.78264 10.4627 4.6157 10.4645C4.44818 10.4658 4.28633 10.4039 4.16236 10.2912L3.28236 9.47786L2.5557 8.81119L1.94903 8.61786L0.469031 8.15119C0.138229 8.04845 -0.0587767 7.70948 0.0156982 7.37119L0.489031 5.23786L0.0156982 3.10453C-0.0587767 2.76624 0.138229 2.42727 0.469031 2.32453L2.5557 1.65786L4.16236 0.177859C4.41807 -0.0592862 4.81333 -0.0592862 5.06903 0.177859L6.6757 1.65786L8.76237 2.32453C9.09317 2.42727 9.29017 2.76624 9.2157 3.10453L8.74236 5.23786L9.2157 7.37119Z" fill="var(--fill-0, #4BB4E6)"/>
<path id="Path_2" d="M7.28236 9.31786V13.2379C7.28171 13.4836 7.14593 13.709 6.92903 13.8245C6.71685 13.9335 6.46262 13.9208 6.26236 13.7912L4.6157 12.7045L2.98236 13.7912C2.77811 13.9257 2.51659 13.9376 2.30098 13.8221C2.08537 13.7067 1.95029 13.4824 1.94903 13.2379V9.31786L2.2157 9.40452L3.7157 10.7912C4.22615 11.2614 5.01192 11.2614 5.52236 10.7912L7.0157 9.41786L7.28236 9.31786Z" fill="var(--fill-0, #4BB4E6)"/>
</g>
</svg>
