<svg preserveAspectRatio="none" width="100%" height="100%" overflow="visible" style="display: block;" viewBox="0 0 14 14" fill="none" xmlns="http://www.w3.org/2000/svg">
<g id="Layer_36">
<path id="Shape" fill-rule="evenodd" clip-rule="evenodd" d="M0 6.66667C0 2.98477 2.98477 0 6.66667 0C8.43478 0 10.1305 0.702379 11.3807 1.95262C12.631 3.20286 13.3333 4.89856 13.3333 6.66667C13.3333 10.3486 10.3486 13.3333 6.66667 13.3333C2.98477 13.3333 0 10.3486 0 6.66667ZM8.66667 8C8.96544 8.01559 9.238 7.83025 9.33333 7.54667C9.38905 7.37428 9.37222 7.18665 9.28671 7.02693C9.20119 6.86722 9.05436 6.74919 8.88 6.7L7.33333 6.18667V3.33333C7.33333 2.96514 7.03486 2.66667 6.66667 2.66667C6.29848 2.66667 6 2.96514 6 3.33333V6.66667C5.99926 6.95328 6.18179 7.20829 6.45333 7.3L8.45333 7.96667C8.5227 7.98698 8.59441 7.99819 8.66667 8Z" fill="var(--fill-0, #4BB4E6)"/>
</g>
</svg>
