<svg preserveAspectRatio="none" width="100%" height="100%" overflow="visible" style="display: block;" viewBox="0 0 14 14" fill="none" xmlns="http://www.w3.org/2000/svg">
<g id="Layer_99">
<path id="Path" d="M13.3336 2.07512V7.20178C13.3375 7.8225 13.0666 8.41314 12.5936 8.81512C12.2391 9.10892 11.7941 9.2714 11.3336 9.27512C11.2228 9.28502 11.1112 9.28502 11.0003 9.27512L4.66698 8.13512V1.14845L11.0003 0.0284512C11.5694 -0.0697225 12.1527 0.0889238 12.5936 0.461785C13.0644 0.86545 13.3348 1.45499 13.3336 2.07512V2.07512Z" fill="var(--fill-0, #4BB4E6)"/>
<path id="Path_2" d="M3.33365 1.38178V7.90178L2.66698 7.78178L2.00031 7.66845L1.66698 7.60845C1.29577 7.54784 0.949173 7.38379 0.666979 7.13512C0.234572 6.72694 -0.00719543 6.15637 0.000312434 5.56178V3.72178C-0.0170001 2.72461 0.686965 1.86014 1.66698 1.67512L3.33365 1.38178Z" fill="var(--fill-0, #4BB4E6)"/>
<path id="Path_3" d="M4.00031 8.02178V11.6485C4.00031 12.5689 3.25412 13.3151 2.33365 13.3151C1.41317 13.3151 0.666979 12.5689 0.666979 11.6485V7.31512C0.656781 7.25555 0.656781 7.19468 0.666979 7.13512C0.941754 7.37935 1.27853 7.54313 1.64031 7.60845L1.97365 7.66845L2.64031 7.78178L4.00031 8.02178Z" fill="var(--fill-0, #4BB4E6)"/>
</g>
</svg>
