<svg preserveAspectRatio="none" width="100%" height="100%" overflow="visible" style="display: block;" viewBox="0 0 7 7" fill="none" xmlns="http://www.w3.org/2000/svg">
<path id="Vector" d="M3.414 4.98771L6.707 1.69471C6.88916 1.50611 6.98995 1.25351 6.98767 0.99131C6.9854 0.729114 6.88023 0.478301 6.69482 0.292893C6.50941 0.107485 6.2586 0.00231622 5.9964 3.78026e-05C5.7342 -0.00224062 5.4816 0.0985537 5.293 0.280712L2 3.57371V1.98771C2 1.7225 1.89464 1.46814 1.70711 1.2806C1.51957 1.09307 1.26522 0.987712 1 0.987712C0.734784 0.987712 0.48043 1.09307 0.292893 1.2806C0.105357 1.46814 0 1.7225 0 1.98771V5.99071C1.44157e-05 6.18809 0.0586706 6.38101 0.168524 6.54498C0.278377 6.70896 0.434473 6.83661 0.617 6.91171C0.738409 6.96204 0.868572 6.98787 1 6.98771H5C5.26522 6.98771 5.51957 6.88235 5.70711 6.69482C5.89464 6.50728 6 6.25293 6 5.98771C6 5.7225 5.89464 5.46814 5.70711 5.28061C5.51957 5.09307 5.26522 4.98771 5 4.98771H3.414Z" fill="var(--fill-0, #111928)"/>
</svg>
