<svg preserveAspectRatio="none" width="100%" height="100%" overflow="visible" style="display: block;" viewBox="0 0 27 27" fill="none" xmlns="http://www.w3.org/2000/svg">
<g id="Layer_52">
<path id="Path" d="M20 16H13.3333C11.8606 16 10.6667 14.8061 10.6667 13.3333C10.6667 11.8606 11.8606 10.6667 13.3333 10.6667H20C20.003 9.96056 20.2859 9.28447 20.7867 8.78667C20.9469 8.62198 21.1312 8.48261 21.3333 8.37333V4C21.3333 1.79086 19.5425 0 17.3333 0H4C1.79086 0 0 1.79086 0 4V22.6667C0 24.8758 1.79086 26.6667 4 26.6667H17.3333C19.5425 26.6667 21.3333 24.8758 21.3333 22.6667V18.2933C21.132 18.1829 20.9478 18.0436 20.7867 17.88C20.2859 17.3822 20.003 16.7061 20 16V16Z" fill="var(--fill-0, #4BB4E6)"/>
<path id="Path_2" d="M26.28 12.3867L23.6133 9.72C23.0905 9.19717 22.2428 9.19717 21.72 9.72C21.1972 10.2428 21.1972 11.0905 21.72 11.6133L22.12 12H13.3333C12.597 12 12 12.597 12 13.3333C12 14.0697 12.597 14.6667 13.3333 14.6667H22.12L21.72 15.0533C21.4676 15.3037 21.3256 15.6445 21.3256 16C21.3256 16.3555 21.4676 16.6963 21.72 16.9467C21.9704 17.1991 22.3112 17.3411 22.6667 17.3411C23.0222 17.3411 23.363 17.1991 23.6133 16.9467L26.28 14.28C26.5324 14.0296 26.6744 13.6889 26.6744 13.3333C26.6744 12.9778 26.5324 12.637 26.28 12.3867Z" fill="var(--fill-0, #4BB4E6)"/>
</g>
</svg>
