<svg preserveAspectRatio="none" width="100%" height="100%" overflow="visible" style="display: block;" viewBox="0 0 13 14" fill="none" xmlns="http://www.w3.org/2000/svg">
<g id="Layer_102">
<path id="Shape" fill-rule="evenodd" clip-rule="evenodd" d="M11.2313 4.24667L12.6579 10.9133C12.7847 11.5037 12.6381 12.1197 12.2588 12.5895C11.8796 13.0593 11.3084 13.3327 10.7046 13.3333H1.99795C1.39416 13.3327 0.822966 13.0593 0.443732 12.5895C0.0644988 12.1197 -0.0821813 11.5037 0.0446151 10.9133L1.47128 4.24667C1.66961 3.32329 2.48684 2.6645 3.43128 2.66667H3.68462C3.68462 1.19391 4.87852 0 6.35128 0C7.82404 0 9.01795 1.19391 9.01795 2.66667H9.27128C10.2157 2.6645 11.033 3.32329 11.2313 4.24667ZM6.35128 1.33333C5.6149 1.33333 5.01795 1.93029 5.01795 2.66667H7.68462C7.68462 1.93029 7.08766 1.33333 6.35128 1.33333Z" fill="var(--fill-0, #4BB4E6)"/>
</g>
</svg>
