<svg preserveAspectRatio="none" width="100%" height="100%" overflow="visible" style="display: block;" viewBox="0 0 14 14" fill="none" xmlns="http://www.w3.org/2000/svg">
<g id="Layer_109">
<path id="Shape" fill-rule="evenodd" clip-rule="evenodd" d="M1.92667 0.000309669H10.74C11.7806 -0.0183263 12.6412 0.806494 12.6667 1.84698V5.84698C12.3638 5.5473 12.0205 5.29149 11.6467 5.08698C9.90254 4.15803 7.76859 4.38436 6.25813 5.65849C4.74766 6.93263 4.16494 8.99791 4.78667 10.8736C4.91565 11.2728 5.09964 11.652 5.33333 12.0003H1.92667C0.883497 12.0189 0.0218765 11.1901 0 10.147V1.85364C0.0218765 0.810537 0.883497 -0.0182883 1.92667 0.000309669ZM3.33333 4.00031H9.33333C9.70152 4.00031 10 3.70183 10 3.33364C10 2.96545 9.70152 2.66698 9.33333 2.66698H3.33333C2.96514 2.66698 2.66667 2.96545 2.66667 3.33364C2.66667 3.70183 2.96514 4.00031 3.33333 4.00031Z" fill="var(--fill-0, #4BB4E6)"/>
<path id="Shape_2" fill-rule="evenodd" clip-rule="evenodd" d="M11.3333 5.67364C11.8541 5.95699 12.3086 6.34786 12.6667 6.82031C13.2148 7.54286 13.5078 8.42676 13.5 9.33364C13.506 11.0941 12.405 12.6683 10.7493 13.2666C9.09367 13.8648 7.24067 13.358 6.12 12.0003C5.79384 11.606 5.54504 11.1536 5.38667 10.667C4.95719 9.39544 5.1665 7.99487 5.94896 6.90445C6.73142 5.81403 7.99122 5.16727 9.33333 5.16698C10.0317 5.16778 10.7189 5.34188 11.3333 5.67364ZM10.7972 10.107C10.7972 9.92922 10.7262 9.75882 10.6 9.63364L10.28 9.33364L10.58 9.03364C10.7491 8.86454 10.8151 8.61806 10.7533 8.38706C10.6914 8.15605 10.5109 7.97562 10.2799 7.91372C10.0489 7.85183 9.80244 7.91787 9.63333 8.08698L9.33333 8.38698L9.03333 8.08698C8.77192 7.82556 8.34808 7.82556 8.08667 8.08698C7.82525 8.34839 7.82525 8.77223 8.08667 9.03364L8.38667 9.33364L8.08667 9.63364C7.96046 9.75882 7.88947 9.92922 7.88947 10.107C7.88947 10.2847 7.96046 10.4551 8.08667 10.5803C8.21248 10.7051 8.3828 10.7747 8.56 10.7736C8.7372 10.7747 8.90752 10.7051 9.03333 10.5803L9.33333 10.2803L9.65333 10.5803C9.77915 10.7051 9.94946 10.7747 10.1267 10.7736C10.3039 10.7747 10.4742 10.7051 10.6 10.5803C10.7262 10.4551 10.7972 10.2847 10.7972 10.107Z" fill="var(--fill-0, #4BB4E6)"/>
</g>
</svg>
