<svg preserveAspectRatio="none" width="100%" height="100%" overflow="visible" style="display: block;" viewBox="0 0 20 20" fill="none" xmlns="http://www.w3.org/2000/svg">
<g id="Layer_77">
<path id="Shape" fill-rule="evenodd" clip-rule="evenodd" d="M17 7V9C18.6569 9 20 10.3431 20 12V17C20 18.6569 18.6569 20 17 20H3C1.34315 20 0 18.6569 0 17V12C0 10.3431 1.34315 9 3 9V7C3 3.13401 6.13401 1.04308e-07 10 1.04308e-07C13.866 1.04308e-07 17 3.13401 17 7ZM5 9H15V7C15 4.23858 12.7614 2 10 2C7.23858 2 5 4.23858 5 7V9Z" fill="var(--fill-0, #4BB4E6)"/>
</g>
</svg>
