<svg preserveAspectRatio="none" width="100%" height="100%" overflow="visible" style="display: block;" viewBox="0 0 10 13" fill="none" xmlns="http://www.w3.org/2000/svg">
<path id="Vector" fill-rule="evenodd" clip-rule="evenodd" d="M0 1.6C0 1.17565 0.168571 0.768687 0.468629 0.468629C0.768687 0.168571 1.17565 0 1.6 0H5.2688C5.69311 9.06198e-05 6.10001 0.168721 6.4 0.4688L9.1312 3.2C9.43128 3.49999 9.59991 3.90689 9.6 4.3312V11.2C9.6 11.6243 9.43143 12.0313 9.13137 12.3314C8.83131 12.6314 8.42435 12.8 8 12.8H1.6C1.17565 12.8 0.768687 12.6314 0.468629 12.3314C0.168571 12.0313 0 11.6243 0 11.2V1.6ZM1.6 6.4C1.6 6.18783 1.68429 5.98434 1.83431 5.83431C1.98434 5.68429 2.18783 5.6 2.4 5.6H7.2C7.41217 5.6 7.61566 5.68429 7.76569 5.83431C7.91571 5.98434 8 6.18783 8 6.4C8 6.61217 7.91571 6.81566 7.76569 6.96568C7.61566 7.11571 7.41217 7.2 7.2 7.2H2.4C2.18783 7.2 1.98434 7.11571 1.83431 6.96568C1.68429 6.81566 1.6 6.61217 1.6 6.4ZM2.4 8.8C2.18783 8.8 1.98434 8.88429 1.83431 9.03431C1.68429 9.18434 1.6 9.38783 1.6 9.6C1.6 9.81217 1.68429 10.0157 1.83431 10.1657C1.98434 10.3157 2.18783 10.4 2.4 10.4H7.2C7.41217 10.4 7.61566 10.3157 7.76569 10.1657C7.91571 10.0157 8 9.81217 8 9.6C8 9.38783 7.91571 9.18434 7.76569 9.03431C7.61566 8.88429 7.41217 8.8 7.2 8.8H2.4Z" fill="var(--fill-0, #29292C)"/>
</svg>
