<svg preserveAspectRatio="none" width="100%" height="100%" overflow="visible" style="display: block;" viewBox="0 0 14 14" fill="none" xmlns="http://www.w3.org/2000/svg">
<g id="Layer_75">
<path id="Path" d="M13.0882 12.2016L8.97491 8.08824L11.3682 5.69491C11.6267 5.43489 11.6267 5.01494 11.3682 4.75491L10.1416 3.52824C9.75919 3.15782 9.1931 3.05036 8.70158 3.25491L6.08824 0.588244C5.71297 0.211668 5.20321 0 4.67158 0C4.13994 0 3.63018 0.211668 3.25491 0.588244L0.588244 3.25491C0.211668 3.63018 0 4.13994 0 4.67158C0 5.20321 0.211668 5.71297 0.588244 6.08824L3.20158 8.75491C3.00214 9.25034 3.11756 9.81698 3.49491 10.1949L4.72158 11.4216C4.9816 11.6801 5.40155 11.6801 5.66158 11.4216L8.05491 9.02824L12.1682 13.1416C12.293 13.2688 12.4634 13.3408 12.6416 13.3416C12.9112 13.3404 13.1536 13.177 13.2558 12.9275C13.3579 12.6779 13.2997 12.3914 13.1082 12.2016H13.0882Z" fill="var(--fill-0, #4BB4E6)"/>
</g>
</svg>
