<svg preserveAspectRatio="none" width="100%" height="100%" overflow="visible" style="display: block;" viewBox="0 0 10 14" fill="none" xmlns="http://www.w3.org/2000/svg">
<g id="Layer_74">
<circle id="Oval" cx="4.67038" cy="4.66667" r="0.666667" fill="var(--fill-0, #4BB4E6)"/>
<path id="Shape" fill-rule="evenodd" clip-rule="evenodd" d="M4.67038 0C7.24771 0 9.33705 2.08934 9.33705 4.66667C9.43038 6.75333 7.75705 9.53333 5.21038 13.0533C5.085 13.2265 4.88418 13.329 4.67038 13.329C4.45658 13.329 4.25576 13.2265 4.13038 13.0533C1.58371 9.52667 -0.0896186 6.74667 0.00371475 4.66667C0.00371478 2.08934 2.09305 0 4.67038 0ZM2.67038 4.66667C2.67038 5.77124 3.56581 6.66667 4.67038 6.66667C5.20081 6.66667 5.70952 6.45595 6.0846 6.08088C6.45967 5.70581 6.67038 5.1971 6.67038 4.66667C6.67038 3.5621 5.77495 2.66667 4.67038 2.66667C3.56581 2.66667 2.67038 3.5621 2.67038 4.66667Z" fill="var(--fill-0, #4BB4E6)"/>
</g>
</svg>
