<svg preserveAspectRatio="none" width="100%" height="100%" overflow="visible" style="display: block;" viewBox="0 0 27 22" fill="none" xmlns="http://www.w3.org/2000/svg">
<g id="Layer_58">
<path id="Path" d="M6.67197 10.6623C6.67248 11.2475 6.74867 11.8301 6.89863 12.3957L15.512 4.39568C14.8138 4.14611 14.0799 4.01103 13.3386 3.99568C9.65673 3.99568 6.67197 6.98045 6.67197 10.6623V10.6623Z" fill="var(--fill-0, #4BB4E6)"/>
<path id="Path_2" d="M18.7653 6.79568L20.7253 4.96901L21.832 3.99568L23.5786 2.36901C23.9656 2.05522 24.1454 1.55186 24.0447 1.06393C23.944 0.575998 23.5797 0.184901 23.1001 0.049913C22.6205 -0.085075 22.1057 0.0585681 21.7653 0.422344L19.6986 2.27568L18.8053 3.11568L16.8186 4.98234L7.4853 13.7423L5.49863 15.609L4.25863 16.7557L1.83197 19.0223C1.315 19.5424 1.315 20.3823 1.83197 20.9023C2.33348 21.4382 3.17376 21.468 3.71197 20.969L6.37863 18.5157L7.3253 17.6357L9.27197 15.809L18.7653 6.79568Z" fill="var(--fill-0, #4BB4E6)"/>
<path id="Path_3" d="M13.3386 17.329C15.5868 17.3279 17.683 16.1937 18.9139 14.3124C20.1448 12.4311 20.3446 10.0562 19.4453 7.99568L10.2586 16.569C11.2069 17.0726 12.265 17.3337 13.3386 17.329Z" fill="var(--fill-0, #4BB4E6)"/>
<path id="Path_4" d="M4.77863 14.3823C3.52484 11.4973 3.80871 8.17472 5.53375 5.54416C7.2588 2.91361 10.1929 1.32899 13.3386 1.32901C14.8344 1.32326 16.3087 1.68497 17.632 2.38234L18.4853 1.58234C16.8914 0.767672 15.1286 0.338387 13.3386 0.32901C10.7452 0.364511 8.23313 1.2393 6.17863 2.82234C3.69279 4.76651 1.64775 7.216 0.178633 10.009C-0.0595443 10.4215 -0.0595443 10.9298 0.178633 11.3423C1.04958 12.936 2.08644 14.4332 3.27197 15.809L4.77863 14.3823Z" fill="var(--fill-0, #4BB4E6)"/>
<path id="Path_5" d="M26.512 10.009C25.5008 8.13914 24.2503 6.40901 22.792 4.86234L21.4586 6.10234C22.2561 7.48958 22.6746 9.06222 22.672 10.6623C22.672 15.817 18.4933 19.9957 13.3386 19.9957C11.5181 20.0009 9.73665 19.4674 8.21863 18.4623L7.35197 19.2757C9.15312 20.3847 11.2235 20.9795 13.3386 20.9957C15.9349 20.9536 18.4493 20.0796 20.512 18.5023C22.9978 16.5582 25.0428 14.1087 26.512 11.3157C26.74 10.91 26.74 10.4147 26.512 10.009Z" fill="var(--fill-0, #4BB4E6)"/>
</g>
</svg>
