<svg preserveAspectRatio="none" width="100%" height="100%" overflow="visible" style="display: block;" viewBox="0 0 14 14" fill="none" xmlns="http://www.w3.org/2000/svg">
<g id="Layer_108">
<path id="Shape" fill-rule="evenodd" clip-rule="evenodd" d="M1.92667 0.000309669H10.74C11.7806 -0.0183263 12.6412 0.806494 12.6667 1.84698V5.84698C12.3638 5.5473 12.0205 5.29149 11.6467 5.08698C9.90254 4.15803 7.76859 4.38436 6.25813 5.65849C4.74766 6.93263 4.16494 8.99791 4.78667 10.8736C4.91565 11.2728 5.09964 11.652 5.33333 12.0003H1.92667C0.883497 12.0189 0.0218765 11.1901 0 10.147V1.85364C0.0218765 0.810537 0.883497 -0.0182883 1.92667 0.000309669ZM3.33333 4.00031H9.33333C9.70152 4.00031 10 3.70183 10 3.33364C10 2.96545 9.70152 2.66698 9.33333 2.66698H3.33333C2.96514 2.66698 2.66667 2.96545 2.66667 3.33364C2.66667 3.70183 2.96514 4.00031 3.33333 4.00031Z" fill="var(--fill-0, #4BB4E6)"/>
<path id="Shape_2" fill-rule="evenodd" clip-rule="evenodd" d="M12.6667 6.82031C12.3086 6.34786 11.8541 5.95699 11.3333 5.67364C10.7189 5.34188 10.0317 5.16778 9.33333 5.16698C7.99122 5.16727 6.73142 5.81403 5.94896 6.90445C5.1665 7.99487 4.95719 9.39544 5.38667 10.667C5.54504 11.1536 5.79384 11.606 6.12 12.0003C7.24067 13.358 9.09367 13.8648 10.7493 13.2666C12.405 12.6683 13.506 11.0941 13.5 9.33364C13.5078 8.42676 13.2148 7.54286 12.6667 6.82031ZM8.93333 9.66031C9.05954 9.78549 9.13053 9.95588 9.13053 10.1336C9.13053 10.3114 9.05954 10.4818 8.93333 10.607C8.80752 10.7318 8.6372 10.8013 8.46 10.8003C8.2828 10.8013 8.11248 10.7318 7.98667 10.607L7.32 9.94031C7.19379 9.81513 7.1228 9.64473 7.1228 9.46698C7.1228 9.28922 7.19379 9.11882 7.32 8.99364L7.98667 8.32698C8.15577 8.15787 8.40225 8.09183 8.63325 8.15372C8.86425 8.21562 9.04469 8.39605 9.10659 8.62706C9.16848 8.85806 9.10244 9.10454 8.93333 9.27364L8.74 9.46698L8.93333 9.66031ZM10.9333 10.607L11.6 9.94031H11.58C11.7089 9.81782 11.7835 9.64891 11.7873 9.47114C11.791 9.29337 11.7236 9.12147 11.6 8.99364L10.9333 8.32698C10.7642 8.15787 10.5178 8.09183 10.2867 8.15372C10.0557 8.21562 9.87531 8.39605 9.81341 8.62706C9.75152 8.85806 9.81756 9.10454 9.98667 9.27364L10.1867 9.46698L9.98667 9.66031C9.86046 9.78549 9.78947 9.95588 9.78947 10.1336C9.78947 10.3114 9.86046 10.4818 9.98667 10.607C10.1125 10.7318 10.2828 10.8013 10.46 10.8003C10.6372 10.8013 10.8075 10.7318 10.9333 10.607Z" fill="var(--fill-0, #4BB4E6)"/>
</g>
</svg>
