<svg preserveAspectRatio="none" width="100%" height="100%" overflow="visible" style="display: block;" viewBox="0 0 20 20" fill="none" xmlns="http://www.w3.org/2000/svg">
<g id="Layer_10">
<path id="Shape" fill-rule="evenodd" clip-rule="evenodd" d="M3 0H17C18.6569 0 20 1.34315 20 3V17C20 18.6569 18.6569 20 17 20H3C1.34315 20 0 18.6569 0 17V3C0 1.34315 1.34315 0 3 0ZM11.71 14.71L15.71 10.71C15.801 10.6149 15.8724 10.5028 15.92 10.38C16.02 10.1365 16.02 9.86346 15.92 9.62C15.8724 9.49725 15.801 9.3851 15.71 9.29L11.71 5.29C11.4563 5.03634 11.0866 4.93728 10.7401 5.03012C10.3936 5.12297 10.123 5.39362 10.0301 5.74012C9.93728 6.08663 10.0363 6.45634 10.29 6.71L12.59 9H5C4.44772 9 4 9.44771 4 10C4 10.5523 4.44772 11 5 11H12.59L10.29 13.29C10.1007 13.4778 9.9942 13.7334 9.9942 14C9.9942 14.2666 10.1007 14.5222 10.29 14.71C10.4778 14.8993 10.7334 15.0058 11 15.0058C11.2666 15.0058 11.5222 14.8993 11.71 14.71Z" fill="var(--fill-0, #4BB4E6)"/>
</g>
</svg>
