<svg preserveAspectRatio="none" width="100%" height="100%" overflow="visible" style="display: block;" viewBox="0 0 26 27" fill="none" xmlns="http://www.w3.org/2000/svg">
<g id="Layer_102">
<path id="Shape" fill-rule="evenodd" clip-rule="evenodd" d="M22.4626 8.49333L25.3159 21.8267C25.5695 23.0073 25.2761 24.2393 24.5177 25.179C23.7592 26.1187 22.6168 26.6654 21.4092 26.6667H3.9959C2.78832 26.6654 1.64593 26.1187 0.887465 25.179C0.128998 24.2393 -0.164363 23.0073 0.0892303 21.8267L2.94256 8.49333C3.33922 6.64657 4.97369 5.32899 6.86256 5.33333H7.36923C7.36923 2.38781 9.75704 0 12.7026 0C15.6481 0 18.0359 2.38781 18.0359 5.33333H18.5426C20.4314 5.32899 22.0659 6.64657 22.4626 8.49333ZM12.7026 2.66667C11.2298 2.66667 10.0359 3.86057 10.0359 5.33333H15.3692C15.3692 3.86057 14.1753 2.66667 12.7026 2.66667Z" fill="var(--fill-0, #4BB4E6)"/>
</g>
</svg>
