<svg preserveAspectRatio="none" width="100%" height="100%" overflow="visible" style="display: block;" viewBox="0 0 7 7" fill="none" xmlns="http://www.w3.org/2000/svg">
<path id="Vector" d="M6.91171 0.617001C6.86177 0.496649 6.78873 0.387253 6.69671 0.295001L6.69271 0.291C6.50557 0.104395 6.25199 -0.000272497 5.98771 5.32818e-07H1.98771C1.7225 5.32818e-07 1.46814 0.105357 1.2806 0.292894C1.09307 0.48043 0.987712 0.734784 0.987712 1C0.987712 1.26522 1.09307 1.51957 1.2806 1.70711C1.46814 1.89464 1.7225 2 1.98771 2H3.57371L0.280712 5.293C0.0985537 5.4816 -0.00224062 5.73421 3.78026e-05 5.9964C0.00231622 6.2586 0.107485 6.50941 0.292893 6.69482C0.478301 6.88023 0.729114 6.9854 0.991311 6.98767C1.25351 6.98995 1.50611 6.88916 1.69471 6.707L4.98771 3.414V5C4.98771 5.26522 5.09307 5.51957 5.2806 5.70711C5.46814 5.89464 5.72249 6 5.98771 6C6.25293 6 6.50728 5.89464 6.69482 5.70711C6.88236 5.51957 6.98771 5.26522 6.98771 5V1C6.98787 0.868572 6.96204 0.73841 6.91171 0.617001V0.617001Z" fill="var(--fill-0, #111928)"/>
</svg>
