<svg preserveAspectRatio="none" width="100%" height="100%" overflow="visible" style="display: block;" viewBox="0 0 27 27" fill="none" xmlns="http://www.w3.org/2000/svg">
<g id="Layer_126">
<path id="Shape" fill-rule="evenodd" clip-rule="evenodd" d="M0 13.3333C0 5.96954 5.96954 0 13.3333 0C16.8696 0 20.2609 1.40476 22.7614 3.90524C25.2619 6.40573 26.6667 9.79711 26.6667 13.3333C26.6667 20.6971 20.6971 26.6667 13.3333 26.6667C5.96954 26.6667 0 20.6971 0 13.3333ZM18.0667 15.6267L20.9067 12.72C21.2613 12.3633 21.3851 11.8374 21.2267 11.36C21.067 10.8856 20.6551 10.5406 20.16 10.4667L16.28 9.86667L14.5467 6.09333C14.3241 5.62593 13.851 5.32963 13.3333 5.33333C12.7999 5.34135 12.3227 5.66653 12.12 6.16L10.3733 9.86667L6.49333 10.4667C5.99636 10.5389 5.5821 10.8842 5.42161 11.36C5.26111 11.8359 5.3816 12.3616 5.73333 12.72L8.58667 15.6L7.90667 19.7333C7.81234 20.2465 8.02595 20.7675 8.45333 21.0667C8.68 21.2249 8.95024 21.3088 9.22667 21.3067C9.45169 21.3074 9.67276 21.2475 9.86667 21.1333L13.3333 19.2267L16.7733 21.16C17.2184 21.4102 17.7672 21.3843 18.1867 21.0933C18.6141 20.7941 18.8277 20.2731 18.7333 19.76L18.0667 15.6267Z" fill="var(--fill-0, #4BB4E6)"/>
</g>
</svg>
