<svg preserveAspectRatio="none" width="100%" height="100%" overflow="visible" style="display: block;" viewBox="0 0 14 14" fill="none" xmlns="http://www.w3.org/2000/svg">
<g id="Layer_24">
<path id="Shape" fill-rule="evenodd" clip-rule="evenodd" d="M2 0H11.3333C12.4379 0 13.3333 0.89543 13.3333 2V11.3333C13.3333 12.4379 12.4379 13.3333 11.3333 13.3333H2C0.89543 13.3333 0 12.4379 0 11.3333V2C0 0.89543 0.89543 0 2 0ZM8.60709 9.58723C8.70865 9.34058 8.65341 9.05713 8.46667 8.86667L6.28 6.66667L8.46667 4.47333C8.72808 4.21376 8.72957 3.79141 8.47 3.53C8.21043 3.26859 7.78808 3.26709 7.52667 3.52667L4.86 6.19333C4.60152 6.45336 4.60152 6.87331 4.86 7.13333L7.52667 9.8C7.65138 9.92724 7.82184 9.99926 8 10C8.26672 9.99625 8.50553 9.83388 8.60709 9.58723Z" fill="var(--fill-0, #4BB4E6)"/>
</g>
</svg>
