<svg preserveAspectRatio="none" width="100%" height="100%" overflow="visible" style="display: block;" viewBox="0 0 15 20" fill="none" xmlns="http://www.w3.org/2000/svg">
<g id="Layer_74">
<circle id="Oval" cx="7.00557" cy="7" r="1" fill="var(--fill-0, #4BB4E6)"/>
<path id="Shape" fill-rule="evenodd" clip-rule="evenodd" d="M7.00557 0C10.8716 0 14.0056 3.13401 14.0056 7C14.1456 10.13 11.6356 14.3 7.81557 19.58C7.62751 19.8398 7.32627 19.9936 7.00557 19.9936C6.68488 19.9936 6.38364 19.8398 6.19557 19.58C2.37557 14.29 -0.134428 10.12 0.00557212 7C0.00557218 3.13401 3.13958 0 7.00557 0ZM4.00557 7C4.00557 8.65685 5.34872 10 7.00557 10C7.80122 10 8.56428 9.68393 9.12689 9.12132C9.6895 8.55871 10.0056 7.79565 10.0056 7C10.0056 5.34315 8.66243 4 7.00557 4C5.34872 4 4.00557 5.34315 4.00557 7Z" fill="var(--fill-0, #4BB4E6)"/>
</g>
</svg>
