<svg preserveAspectRatio="none" width="100%" height="100%" overflow="visible" style="display: block;" viewBox="0 0 14 14" fill="none" xmlns="http://www.w3.org/2000/svg">
<g id="Layer_25">
<path id="Path" d="M13.0849 5.49916L11.9782 4.49249L11.4049 3.99916L7.08485 0.165823C6.83318 -0.0552743 6.45653 -0.0552743 6.20485 0.165823L1.88485 3.99916L1.31152 4.49249L0.204855 5.49916C-0.0525346 5.74638 -0.0695762 6.15246 0.166194 6.42038C0.401965 6.6883 0.806911 6.72302 1.08485 6.49916L1.31152 6.29916V11.9992C1.31152 13.1037 2.20695 13.9992 3.31152 13.9992H4.64485V9.99916C4.64485 8.89459 5.54028 7.99916 6.64485 7.99916C7.74942 7.99916 8.64485 8.89459 8.64485 9.99916V13.9992H9.97819C11.0828 13.9992 11.9782 13.1037 11.9782 11.9992V6.29916L12.2049 6.49916C12.4811 6.7418 12.9017 6.71496 13.1449 6.43916C13.3875 6.16289 13.3607 5.74233 13.0849 5.49916Z" fill="var(--fill-0, #4BB4E6)"/>
</g>
</svg>
