<svg preserveAspectRatio="none" width="100%" height="100%" overflow="visible" style="display: block;" viewBox="0 0 27 27" fill="none" xmlns="http://www.w3.org/2000/svg">
<g id="Layer_28">
<path id="Path" d="M25.1067 20H23.8533V10.6667C23.8533 4.77563 19.0777 0 13.1867 0C7.29563 0 2.52 4.77563 2.52 10.6667V20H1.33333C0.596954 20 0 20.597 0 21.3333C0 22.0697 0.596954 22.6667 1.33333 22.6667H25.1067C25.843 22.6667 26.44 22.0697 26.44 21.3333C26.44 20.597 25.843 20 25.1067 20Z" fill="var(--fill-0, #4BB4E6)"/>
<path id="Path_2" d="M13.1867 26.6667C14.8777 26.6619 16.383 25.5943 16.9467 24H9.42667C9.99033 25.5943 11.4957 26.6619 13.1867 26.6667Z" fill="var(--fill-0, #4BB4E6)"/>
</g>
</svg>
