<svg preserveAspectRatio="none" width="100%" height="100%" overflow="visible" style="display: block;" viewBox="0 0 27 28" fill="none" xmlns="http://www.w3.org/2000/svg">
<g id="Layer_109">
<path id="Shape" fill-rule="evenodd" clip-rule="evenodd" d="M3.85333 0.000619338H21.48C23.5613 -0.0366526 25.2824 1.61299 25.3333 3.69395V11.694C24.7276 11.0946 24.0409 10.583 23.2933 10.174C19.8051 8.31606 15.5372 8.76872 12.5163 11.317C9.49533 13.8653 8.32988 17.9958 9.57333 21.7473C9.8313 22.5456 10.1993 23.304 10.6667 24.0006H3.85333C1.76699 24.0378 0.0437531 22.3802 0 20.294V3.70729C0.0437531 1.62107 1.76699 -0.0365766 3.85333 0.000619338ZM6.66667 8.00062H18.6667C19.403 8.00062 20 7.40367 20 6.66729C20 5.93091 19.403 5.33395 18.6667 5.33395H6.66667C5.93029 5.33395 5.33333 5.93091 5.33333 6.66729C5.33333 7.40367 5.93029 8.00062 6.66667 8.00062Z" fill="var(--fill-0, #4BB4E6)"/>
<path id="Shape_2" fill-rule="evenodd" clip-rule="evenodd" d="M22.6667 11.3473C23.7081 11.914 24.6171 12.6957 25.3333 13.6406C26.4295 15.0857 27.0157 16.8535 27 18.6673C27.012 22.1881 24.81 25.3366 21.4987 26.5331C18.1873 27.7296 14.4813 26.7159 12.24 24.0006C11.5877 23.2119 11.0901 22.3072 10.7733 21.334C9.91438 18.7909 10.333 15.9897 11.8979 13.8089C13.4628 11.6281 15.9824 10.3345 18.6667 10.334C20.0633 10.3356 21.4377 10.6838 22.6667 11.3473ZM21.5944 20.214C21.5944 19.8584 21.4524 19.5176 21.2 19.2673L20.56 18.6673L21.16 18.0673C21.4982 17.7291 21.6303 17.2361 21.5065 16.7741C21.3827 16.3121 21.0218 15.9512 20.5598 15.8274C20.0978 15.7037 19.6049 15.8357 19.2667 16.174L18.6667 16.774L18.0667 16.174C17.5438 15.6511 16.6962 15.6511 16.1733 16.174C15.6505 16.6968 15.6505 17.5445 16.1733 18.0673L16.7733 18.6673L16.1733 19.2673C15.9209 19.5176 15.7789 19.8584 15.7789 20.214C15.7789 20.5695 15.9209 20.9103 16.1733 21.1606C16.425 21.4102 16.7656 21.5493 17.12 21.5473C17.4744 21.5493 17.815 21.4102 18.0667 21.1606L18.6667 20.5606L19.3067 21.1606C19.5583 21.4102 19.8989 21.5493 20.2533 21.5473C20.6077 21.5493 20.9484 21.4102 21.2 21.1606C21.4524 20.9103 21.5944 20.5695 21.5944 20.214Z" fill="var(--fill-0, #4BB4E6)"/>
</g>
</svg>
