<svg preserveAspectRatio="none" width="100%" height="100%" overflow="visible" style="display: block;" viewBox="0 0 27 27" fill="none" xmlns="http://www.w3.org/2000/svg">
<g id="Layer_75">
<path id="Path" d="M26.1765 24.4032L17.9498 16.1765L22.7365 11.3898C23.2535 10.8698 23.2535 10.0299 22.7365 9.50982L20.2832 7.05649C19.5184 6.31563 18.3862 6.10072 17.4032 6.50982L12.1765 1.17649C11.4259 0.423336 10.4064 0 9.34315 0C8.27988 0 7.26036 0.423336 6.50982 1.17649L1.17649 6.50982C0.423336 7.26036 0 8.27988 0 9.34315C0 10.4064 0.423336 11.4259 1.17649 12.1765L6.40315 17.5098C6.00427 18.5007 6.23512 19.634 6.98982 20.3898L9.44315 22.8432C9.9632 23.3601 10.8031 23.3601 11.3232 22.8432L16.1098 18.0565L24.3365 26.2832C24.5859 26.5376 24.9268 26.6817 25.2832 26.6832C25.8224 26.6809 26.3072 26.354 26.5115 25.855C26.7158 25.3559 26.5994 24.7829 26.2165 24.4032H26.1765Z" fill="var(--fill-0, #4BB4E6)"/>
</g>
</svg>
