<svg preserveAspectRatio="none" width="100%" height="100%" overflow="visible" style="display: block;" viewBox="0 0 14 14" fill="none" xmlns="http://www.w3.org/2000/svg">
<g id="Layer_76">
<path id="Path" d="M0.666667 5.33333C1.03486 5.33333 1.33333 5.03486 1.33333 4.66667V2C1.33333 1.63181 1.63181 1.33333 2 1.33333H4.66667C5.03486 1.33333 5.33333 1.03486 5.33333 0.666667C5.33333 0.298477 5.03486 0 4.66667 0H2C0.89543 0 0 0.89543 0 2V4.66667C0 5.03486 0.298477 5.33333 0.666667 5.33333Z" fill="var(--fill-0, #4BB4E6)"/>
<path id="Path_2" d="M11.3333 0H8.66667C8.29848 0 8 0.298477 8 0.666667C8 1.03486 8.29848 1.33333 8.66667 1.33333H11.3333C11.7015 1.33333 12 1.63181 12 2V4.66667C12 5.03486 12.2985 5.33333 12.6667 5.33333C13.0349 5.33333 13.3333 5.03486 13.3333 4.66667V2C13.3333 0.89543 12.4379 0 11.3333 0Z" fill="var(--fill-0, #4BB4E6)"/>
<path id="Path_3" d="M12.6667 8C12.2985 8 12 8.29848 12 8.66667V11.3333C12 11.7015 11.7015 12 11.3333 12H8.66667C8.29848 12 8 12.2985 8 12.6667C8 13.0349 8.29848 13.3333 8.66667 13.3333H11.3333C12.4379 13.3333 13.3333 12.4379 13.3333 11.3333V8.66667C13.3333 8.29848 13.0349 8 12.6667 8Z" fill="var(--fill-0, #4BB4E6)"/>
<path id="Path_4" d="M4.66667 12H2C1.63181 12 1.33333 11.7015 1.33333 11.3333V8.66667C1.33333 8.29848 1.03486 8 0.666667 8C0.298477 8 0 8.29848 0 8.66667V11.3333C0 12.4379 0.89543 13.3333 2 13.3333H4.66667C5.03486 13.3333 5.33333 13.0349 5.33333 12.6667C5.33333 12.2985 5.03486 12 4.66667 12Z" fill="var(--fill-0, #4BB4E6)"/>
<rect id="Rectangle" x="2.66667" y="2.66667" width="8" height="8" rx="2" fill="var(--fill-0, #4BB4E6)"/>
</g>
</svg>
