<svg preserveAspectRatio="none" width="100%" height="100%" overflow="visible" style="display: block;" viewBox="0 0 27 27" fill="none" xmlns="http://www.w3.org/2000/svg">
<g id="Layer_55">
<path id="Shape" fill-rule="evenodd" clip-rule="evenodd" d="M22.6667 0H4C1.79086 0 0 1.79086 0 4V22.6667C0 24.8758 1.79086 26.6667 4 26.6667H22.6667C24.8758 26.6667 26.6667 24.8758 26.6667 22.6667V4C26.6667 1.79086 24.8758 0 22.6667 0ZM7.89333 20.5067C7.82987 20.6703 7.73472 20.8199 7.61333 20.9467C7.48373 21.0644 7.33491 21.1591 7.17333 21.2267C7.01304 21.295 6.8409 21.3312 6.66667 21.3333C6.31364 21.3284 5.97551 21.1903 5.72 20.9467C5.59861 20.8199 5.50346 20.6703 5.44 20.5067C5.29736 20.1839 5.29736 19.8161 5.44 19.4933C5.50346 19.3297 5.59861 19.1801 5.72 19.0533C6.10341 18.675 6.6768 18.5645 7.17333 18.7733C7.33491 18.8409 7.48373 18.9356 7.61333 19.0533C7.73472 19.1801 7.82987 19.3297 7.89333 19.4933C8.03597 19.8161 8.03597 20.1839 7.89333 20.5067ZM7.92 13.84C7.95844 13.7644 7.98541 13.6835 8 13.6C8.00655 13.5112 8.00655 13.4221 8 13.3333C7.99509 12.9803 7.85698 12.6422 7.61333 12.3867C7.48373 12.2689 7.33491 12.1742 7.17333 12.1067C6.6768 11.8979 6.10341 12.0083 5.72 12.3867C5.59653 12.5118 5.50109 12.6618 5.44 12.8267C5.37168 12.987 5.33544 13.1591 5.33333 13.3333C5.33128 13.6877 5.47042 14.0284 5.72 14.28C5.97551 14.5236 6.31364 14.6618 6.66667 14.6667C6.84988 14.6681 7.03144 14.6318 7.2 14.56C7.36158 14.4925 7.5104 14.3978 7.64 14.28L7.8 14.08C7.85046 14.0057 7.89082 13.925 7.92 13.84ZM7.61333 7.61333C7.48373 7.73111 7.33491 7.82581 7.17333 7.89333C7.01509 7.96798 6.84157 8.00451 6.66667 8C6.31364 7.99509 5.97551 7.85698 5.72 7.61333C5.47042 7.36171 5.33128 7.02107 5.33333 6.66667C5.33544 6.49243 5.37168 6.3203 5.44 6.16C5.50752 5.99842 5.60223 5.8496 5.72 5.72C6.10341 5.34167 6.6768 5.2312 7.17333 5.44C7.33491 5.50752 7.48373 5.60223 7.61333 5.72C7.73111 5.8496 7.82581 5.99842 7.89333 6.16C7.96165 6.3203 7.99789 6.49243 8 6.66667C7.99509 7.01969 7.85698 7.35782 7.61333 7.61333ZM12 21.3333H20C20.7364 21.3333 21.3333 20.7364 21.3333 20C21.3333 19.2636 20.7364 18.6667 20 18.6667H12C11.2636 18.6667 10.6667 19.2636 10.6667 20C10.6667 20.7364 11.2636 21.3333 12 21.3333ZM20 14.6667H12C11.2636 14.6667 10.6667 14.0697 10.6667 13.3333C10.6667 12.597 11.2636 12 12 12H20C20.7364 12 21.3333 12.597 21.3333 13.3333C21.3333 14.0697 20.7364 14.6667 20 14.6667ZM12 8H20C20.7364 8 21.3333 7.40305 21.3333 6.66667C21.3333 5.93029 20.7364 5.33333 20 5.33333H12C11.2636 5.33333 10.6667 5.93029 10.6667 6.66667C10.6667 7.40305 11.2636 8 12 8Z" fill="var(--fill-0, #4BB4E6)"/>
</g>
</svg>
