<svg preserveAspectRatio="none" width="100%" height="100%" overflow="visible" style="display: block;" viewBox="0 0 27 27" fill="none" xmlns="http://www.w3.org/2000/svg">
<g id="Layer_79">
<path id="Shape" fill-rule="evenodd" clip-rule="evenodd" d="M22.6667 0H4C1.79086 0 0 1.79086 0 4V22.6667C0 24.8758 1.79086 26.6667 4 26.6667H22.6667C24.8758 26.6667 26.6667 24.8758 26.6667 22.6667V4C26.6667 1.79086 24.8758 0 22.6667 0ZM13.6533 21.0533L13.4533 21.2133C13.3822 21.2612 13.3062 21.3015 13.2267 21.3333L12.9733 21.4133H12.72C12.3656 21.4154 12.025 21.2762 11.7733 21.0267C11.5297 20.7712 11.3916 20.433 11.3867 20.08C11.3851 19.9024 11.4168 19.726 11.48 19.56C11.549 19.4 11.6486 19.255 11.7733 19.1333C12.2934 18.6164 13.1333 18.6164 13.6533 19.1333C13.782 19.2516 13.8823 19.3975 13.9467 19.56C14.0138 19.7253 14.05 19.9016 14.0533 20.08C14.0591 20.4456 13.9145 20.7975 13.6533 21.0533ZM13.9867 15.72C14.0105 15.1544 14.3364 14.6452 14.84 14.3867L14.8267 14.44C16.8259 13.7698 18.1301 11.8453 18.0117 9.74005C17.8934 7.63477 16.3818 5.86862 14.32 5.42667C12.91 5.12028 11.4373 5.47373 10.32 6.38667C9.2235 7.2654 8.58576 8.59483 8.58667 10C8.58667 10.7364 9.18362 11.3333 9.92 11.3333C10.6564 11.3333 11.2533 10.7364 11.2533 10C11.255 9.39794 11.5296 8.82912 12 8.45333C12.4924 8.03218 13.153 7.86457 13.7867 8C14.7183 8.14964 15.4186 8.93008 15.4669 9.87243C15.5151 10.8148 14.8982 11.6627 13.9867 11.9067C12.4084 12.529 11.3574 14.0372 11.32 15.7333V16C11.32 16.7364 11.917 17.3333 12.6533 17.3333C13.3897 17.3333 13.9867 16.7364 13.9867 16V15.72Z" fill="var(--fill-0, #4BB4E6)"/>
</g>
</svg>
