<svg preserveAspectRatio="none" width="100%" height="100%" overflow="visible" style="display: block;" viewBox="0 0 14 11" fill="none" xmlns="http://www.w3.org/2000/svg">
<g id="Layer_72">
<circle id="Oval" cx="6.66667" cy="6.66667" r="0.666667" fill="var(--fill-0, #4BB4E6)"/>
<circle id="Oval_2" cx="9.33333" cy="6.66667" r="0.666667" fill="var(--fill-0, #4BB4E6)"/>
<path id="Shape" fill-rule="evenodd" clip-rule="evenodd" d="M2 0H11.3333C12.4379 0 13.3333 0.89543 13.3333 2V8.66667C13.3333 9.77124 12.4379 10.6667 11.3333 10.6667H2C0.89543 10.6667 0 9.77124 0 8.66667V2C0 0.89543 0.89543 0 2 0ZM8 8.14667C8.36509 8.47853 8.83996 8.66373 9.33333 8.66667C10.4379 8.66667 11.3333 7.77124 11.3333 6.66667C11.3333 5.5621 10.4379 4.66667 9.33333 4.66667C8.83996 4.66961 8.36509 4.85481 8 5.18667C7.63491 4.85481 7.16004 4.66961 6.66667 4.66667C5.5621 4.66667 4.66667 5.5621 4.66667 6.66667C4.66667 7.77124 5.5621 8.66667 6.66667 8.66667C7.16004 8.66373 7.63491 8.47853 8 8.14667Z" fill="var(--fill-0, #4BB4E6)"/>
</g>
</svg>
