<svg preserveAspectRatio="none" width="100%" height="100%" overflow="visible" style="display: block;" viewBox="0 0 27 28" fill="none" xmlns="http://www.w3.org/2000/svg">
<g id="Layer_110">
<path id="Shape" fill-rule="evenodd" clip-rule="evenodd" d="M3.85333 0.000619338H21.48C23.5613 -0.0366526 25.2824 1.61299 25.3333 3.69395V11.694C24.7276 11.0946 24.0409 10.583 23.2933 10.174C19.8051 8.31606 15.5372 8.76872 12.5163 11.317C9.49533 13.8653 8.32988 17.9958 9.57333 21.7473C9.8313 22.5456 10.1993 23.304 10.6667 24.0006H3.85333C1.76699 24.0378 0.0437531 22.3802 0 20.294V3.70729C0.0437531 1.62107 1.76699 -0.0365766 3.85333 0.000619338ZM6.66667 8.00062H18.6667C19.403 8.00062 20 7.40367 20 6.66729C20 5.93091 19.403 5.33395 18.6667 5.33395H6.66667C5.93029 5.33395 5.33333 5.93091 5.33333 6.66729C5.33333 7.40367 5.93029 8.00062 6.66667 8.00062Z" fill="var(--fill-0, #4BB4E6)"/>
<path id="Shape_2" fill-rule="evenodd" clip-rule="evenodd" d="M22.6667 11.3473C23.7081 11.914 24.6171 12.6957 25.3333 13.6406C26.4295 15.0857 27.0157 16.8535 27 18.6673C27.012 22.1881 24.81 25.3366 21.4987 26.5331C18.1873 27.7296 14.4813 26.7159 12.24 24.0006C11.5877 23.2119 11.0901 22.3072 10.7733 21.334C9.91438 18.7909 10.333 15.9897 11.8979 13.8089C13.4628 11.6281 15.9824 10.3345 18.6667 10.334C20.0633 10.3356 21.4377 10.6838 22.6667 11.3473ZM19.2267 20.0006H21.3333V19.9473C22.0697 19.9473 22.6667 19.3503 22.6667 18.614C22.6667 17.8776 22.0697 17.2806 21.3333 17.2806H19.28L19.6667 16.894C20.1895 16.3711 20.1895 15.5234 19.6667 15.0006C19.1438 14.4778 18.2962 14.4778 17.7733 15.0006L15.1067 17.6673C14.7574 18.0158 14.6292 18.5287 14.7733 19.0006C14.7615 19.0623 14.7615 19.1256 14.7733 19.1873C14.8383 19.3462 14.9334 19.4911 15.0533 19.614L17.72 22.2806C17.9704 22.533 18.3112 22.675 18.6667 22.675C19.0222 22.675 19.363 22.533 19.6133 22.2806C19.8658 22.0303 20.0077 21.6895 20.0077 21.334C20.0077 20.9784 19.8658 20.6376 19.6133 20.3873L19.2267 20.0006Z" fill="var(--fill-0, #4BB4E6)"/>
</g>
</svg>
