<svg preserveAspectRatio="none" width="100%" height="100%" overflow="visible" style="display: block;" viewBox="0 0 27 22" fill="none" xmlns="http://www.w3.org/2000/svg">
<g id="Layer_118">
<path id="Path" d="M18.1643 8L4.56426 0.506667C3.61979 -0.0895563 2.42725 -0.130327 1.44426 0.4C0.496134 1.00058 -0.054344 2.06586 0.00426163 3.18667V18.16C-0.0537547 19.2778 0.483849 20.3428 1.4176 20.96C1.82142 21.1997 2.28137 21.3285 2.75093 21.3333C3.36958 21.3184 3.97464 21.1488 4.51093 20.84L18.1643 13.3333C19.2252 12.8551 19.9337 11.8283 20.0043 10.6667C19.9337 9.50505 19.2252 8.47822 18.1643 8Z" fill="var(--fill-0, #4BB4E6)"/>
<path id="Path_2" d="M23.3376 0C21.4966 0 20.0043 1.49238 20.0043 3.33333V18C20.0043 19.8409 21.4966 21.3333 23.3376 21.3333C25.1785 21.3333 26.6709 19.8409 26.6709 18V3.33333C26.6709 1.49238 25.1785 0 23.3376 0Z" fill="var(--fill-0, #4BB4E6)"/>
</g>
</svg>
