<svg preserveAspectRatio="none" width="100%" height="100%" overflow="visible" style="display: block;" viewBox="0 0 14 14" fill="none" xmlns="http://www.w3.org/2000/svg">
<g id="Layer_123">
<path id="Path" d="M13.0934 3.48776L9.0934 0.154426C8.89451 -0.0112361 8.61771 -0.0467969 8.3834 0.0632124C8.1491 0.173222 7.99965 0.408913 8.00007 0.667759V2.03443C3.48853 2.3825 0.00406792 6.14281 7.14222e-05 10.6678V12.6678C-0.00469919 12.9959 0.230021 13.2787 0.553405 13.3344C0.590868 13.3413 0.629274 13.3413 0.666738 13.3344C0.947425 13.3343 1.19797 13.1584 1.2934 12.8944L2.14007 10.5744C3.05797 8.06023 5.33628 6.29512 8.00007 6.03443V7.33443C7.99943 7.59481 8.15044 7.83173 8.38674 7.94109C8.47462 7.98114 8.57016 8.00161 8.66674 8.00109C8.82251 8.0014 8.97346 7.94715 9.0934 7.84776L13.0934 4.51443C13.2463 4.38777 13.3347 4.19959 13.3347 4.00109C13.3347 3.80259 13.2463 3.61441 13.0934 3.48776Z" fill="var(--fill-0, #4BB4E6)"/>
</g>
</svg>
