<svg preserveAspectRatio="none" width="100%" height="100%" overflow="visible" style="display: block;" viewBox="0 0 21 21" fill="none" xmlns="http://www.w3.org/2000/svg">
<g id="Layer_108">
<path id="Shape" fill-rule="evenodd" clip-rule="evenodd" d="M2.89 0.000464504H16.11C17.6709 -0.0274894 18.9618 1.20974 19 2.77046V8.77046C18.5457 8.32095 18.0307 7.93723 17.47 7.63046C14.8538 6.23704 11.6529 6.57654 9.38719 8.48774C7.12149 10.3989 6.24741 13.4969 7.18 16.3105C7.37347 16.9092 7.64946 17.478 8 18.0005H2.89C1.32524 18.0284 0.0328148 16.7851 0 15.2205V2.78046C0.0328148 1.2158 1.32524 -0.0274325 2.89 0.000464504ZM5 6.00046H14C14.5523 6.00046 15 5.55275 15 5.00046C15 4.44818 14.5523 4.00046 14 4.00046H5C4.44772 4.00046 4 4.44818 4 5.00046C4 5.55275 4.44772 6.00046 5 6.00046Z" fill="var(--fill-0, #4BB4E6)"/>
<path id="Shape_2" fill-rule="evenodd" clip-rule="evenodd" d="M19 10.2305C18.4628 9.52179 17.7811 8.93549 17 8.51046C16.0783 8.01282 15.0475 7.75168 14 7.75046C11.9868 7.7509 10.0971 8.72104 8.92344 10.3567C7.74975 11.9923 7.43579 14.0932 8.08 16.0005C8.31756 16.7304 8.69076 17.4089 9.18 18.0005C10.861 20.0369 13.6405 20.7972 16.124 19.8998C18.6075 19.0025 20.259 16.6411 20.25 14.0005C20.2618 12.6401 19.8222 11.3143 19 10.2305ZM13.4 14.4905C13.5893 14.6782 13.6958 14.9338 13.6958 15.2005C13.6958 15.4671 13.5893 15.7227 13.4 15.9105C13.2113 16.0977 12.9558 16.202 12.69 16.2005C12.4242 16.202 12.1687 16.0977 11.98 15.9105L10.98 14.9105C10.7907 14.7227 10.6842 14.4671 10.6842 14.2005C10.6842 13.9338 10.7907 13.6782 10.98 13.4905L11.98 12.4905C12.2337 12.2368 12.6034 12.1377 12.9499 12.2306C13.2964 12.3234 13.567 12.5941 13.6599 12.9406C13.7527 13.2871 13.6537 13.6568 13.4 13.9105L13.11 14.2005L13.4 14.4905ZM16.4 15.9105L17.4 14.9105H17.37C17.5633 14.7267 17.6753 14.4734 17.6809 14.2067C17.6865 13.9401 17.5854 13.6822 17.4 13.4905L16.4 12.4905C16.1463 12.2368 15.7766 12.1377 15.4301 12.2306C15.0836 12.3234 14.813 12.5941 14.7201 12.9406C14.6273 13.2871 14.7263 13.6568 14.98 13.9105L15.28 14.2005L14.98 14.4905C14.7907 14.6782 14.6842 14.9338 14.6842 15.2005C14.6842 15.4671 14.7907 15.7227 14.98 15.9105C15.1687 16.0977 15.4242 16.202 15.69 16.2005C15.9558 16.202 16.2113 16.0977 16.4 15.9105Z" fill="var(--fill-0, #4BB4E6)"/>
</g>
</svg>
