<svg preserveAspectRatio="none" width="100%" height="100%" overflow="visible" style="display: block;" viewBox="0 0 20 20" fill="none" xmlns="http://www.w3.org/2000/svg">
<g id="Layer_90">
<path id="Shape" fill-rule="evenodd" clip-rule="evenodd" d="M17 0H3C1.34315 0 0 1.34315 0 3V17C0 18.6569 1.34315 20 3 20H17C18.6569 20 20 18.6569 20 17V3C20 1.34315 18.6569 0 17 0ZM9.29 4.29C9.57609 4.00154 10.0083 3.91484 10.3835 4.07063C10.7587 4.22642 11.0024 4.59373 11 5C10.9974 5.45137 10.6927 5.84502 10.2564 5.96076C9.82013 6.07649 9.3604 5.88561 9.1344 5.49489C8.90839 5.10417 8.97215 4.61048 9.29 4.29ZM7.86 15C7.86 15.5523 8.30772 16 8.86 16H11.14C11.6923 16 12.14 15.5523 12.14 15C12.14 14.4477 11.6923 14 11.14 14H11V8C11 7.44772 10.5523 7 10 7H9C8.44772 7 8 7.44772 8 8C8 8.55229 8.44772 9 9 9V14H8.86C8.30772 14 7.86 14.4477 7.86 15Z" fill="var(--fill-0, #4BB4E6)"/>
</g>
</svg>
