<svg preserveAspectRatio="none" width="100%" height="100%" overflow="visible" style="display: block;" viewBox="0 0 20 20" fill="none" xmlns="http://www.w3.org/2000/svg">
<g id="Layer_50">
<circle id="Oval" cx="13.1674" cy="6" r="1" fill="var(--fill-0, #4BB4E6)"/>
<path id="Shape" fill-rule="evenodd" clip-rule="evenodd" d="M9.99736 0H16.1674C17.8242 0 19.1674 1.34315 19.1674 3V9.17C19.1667 9.96538 18.8501 10.7279 18.2874 11.29L11.2874 18.29C10.1161 19.4598 8.21863 19.4598 7.04736 18.29L0.87736 12.12C-0.292453 10.9487 -0.292453 9.05127 0.87736 7.88L7.87736 0.88C8.43943 0.31723 9.20198 0.000700208 9.99736 0ZM10.1674 6C10.1674 7.65685 11.5105 9 13.1674 9C14.8242 9 16.1674 7.65685 16.1674 6C16.1674 4.34315 14.8242 3 13.1674 3C11.5105 3 10.1674 4.34315 10.1674 6Z" fill="var(--fill-0, #4BB4E6)"/>
</g>
</svg>
