<svg preserveAspectRatio="none" width="100%" height="100%" overflow="visible" style="display: block;" viewBox="0 0 14 14" fill="none" xmlns="http://www.w3.org/2000/svg">
<g id="Layer_90">
<path id="Shape" fill-rule="evenodd" clip-rule="evenodd" d="M11.3333 0H2C0.89543 0 0 0.89543 0 2V11.3333C0 12.4379 0.89543 13.3333 2 13.3333H11.3333C12.4379 13.3333 13.3333 12.4379 13.3333 11.3333V2C13.3333 0.89543 12.4379 0 11.3333 0ZM6.19333 2.86C6.38406 2.66769 6.67218 2.60989 6.92232 2.71375C7.17246 2.81761 7.33491 3.06249 7.33333 3.33333C7.33158 3.63424 7.12847 3.89668 6.83761 3.97384C6.54676 4.05099 6.24027 3.92374 6.0896 3.66326C5.93893 3.40278 5.98143 3.07366 6.19333 2.86ZM5.24 10C5.24 10.3682 5.53848 10.6667 5.90667 10.6667H7.42667C7.79486 10.6667 8.09333 10.3682 8.09333 10C8.09333 9.63181 7.79486 9.33333 7.42667 9.33333H7.33333V5.33333C7.33333 4.96514 7.03486 4.66667 6.66667 4.66667H6C5.63181 4.66667 5.33333 4.96514 5.33333 5.33333C5.33333 5.70152 5.63181 6 6 6V9.33333H5.90667C5.53848 9.33333 5.24 9.63181 5.24 10Z" fill="var(--fill-0, #4BB4E6)"/>
</g>
</svg>
