<svg preserveAspectRatio="none" width="100%" height="100%" overflow="visible" style="display: block;" viewBox="0 0 14 14" fill="none" xmlns="http://www.w3.org/2000/svg">
<g id="Layer_66">
<path id="Shape" fill-rule="evenodd" clip-rule="evenodd" d="M2 0H11.3333C12.4379 0 13.3333 0.89543 13.3333 2V11.3333C13.3333 12.4379 12.4379 13.3333 11.3333 13.3333H2C0.89543 13.3333 0 12.4379 0 11.3333V2C0 0.89543 0.89543 0 2 0ZM10.6705 10C10.6705 9.82224 10.5995 9.65184 10.4733 9.52667L7.60667 6.66667L10.4733 3.80667C10.7347 3.54525 10.7347 3.12141 10.4733 2.86C10.2119 2.59859 9.78808 2.59859 9.52667 2.86L6.66667 5.72667L3.80667 2.86C3.54525 2.59859 3.12141 2.59859 2.86 2.86C2.59859 3.12141 2.59859 3.54525 2.86 3.80667L5.72667 6.66667L2.86 9.52667C2.73379 9.65184 2.6628 9.82224 2.6628 10C2.6628 10.1778 2.73379 10.3482 2.86 10.4733C2.98518 10.5995 3.15557 10.6705 3.33333 10.6705C3.51109 10.6705 3.68149 10.5995 3.80667 10.4733L6.66667 7.60667L9.52667 10.4733C9.65184 10.5995 9.82224 10.6705 10 10.6705C10.1778 10.6705 10.3482 10.5995 10.4733 10.4733C10.5995 10.3482 10.6705 10.1778 10.6705 10Z" fill="var(--fill-0, #4BB4E6)"/>
</g>
</svg>
