<svg preserveAspectRatio="none" width="100%" height="100%" overflow="visible" style="display: block;" viewBox="0 0 14 14" fill="none" xmlns="http://www.w3.org/2000/svg">
<g id="Layer_128">
<path id="Shape" fill-rule="evenodd" clip-rule="evenodd" d="M6.66667 0C2.98477 0 0 2.98477 0 6.66667C0 10.3486 2.98477 13.3333 6.66667 13.3333C10.3486 13.3333 13.3333 10.3486 13.3333 6.66667C13.3333 4.89856 12.631 3.20286 11.3807 1.95262C10.1305 0.702379 8.43478 0 6.66667 0ZM7.14 10.4733C7.0752 10.5322 7.00079 10.5796 6.92 10.6133C6.75864 10.6847 6.57469 10.6847 6.41333 10.6133C6.33254 10.5796 6.25813 10.5322 6.19333 10.4733C6.06854 10.3475 5.99898 10.1772 6 10C5.99898 9.8228 6.06854 9.65248 6.19333 9.52667C6.35094 9.37059 6.57584 9.30312 6.79333 9.34667C6.83749 9.35285 6.8803 9.36637 6.92 9.38667C6.96248 9.40126 7.00284 9.42144 7.04 9.44667C7.07493 9.47128 7.10832 9.498 7.14 9.52667C7.26182 9.65442 7.33088 9.82349 7.33333 10C7.33436 10.1772 7.26479 10.3475 7.14 10.4733ZM6.66667 8C7.03486 8 7.33333 7.70152 7.33333 7.33333V3.33333C7.33333 2.96514 7.03486 2.66667 6.66667 2.66667C6.29848 2.66667 6 2.96514 6 3.33333V7.33333C6 7.70152 6.29848 8 6.66667 8Z" fill="var(--fill-0, #4BB4E6)"/>
</g>
</svg>
