<svg preserveAspectRatio="none" width="100%" height="100%" overflow="visible" style="display: block;" viewBox="0 0 20 16" fill="none" xmlns="http://www.w3.org/2000/svg">
<g id="Layer_119">
<path id="Path" d="M19 0.30008C18.2597 -0.0994497 17.3615 -0.0688722 16.65 0.38008L6.41 6.00008C5.60109 6.3483 5.0562 7.1212 5 8.00008C5.04882 8.86977 5.57668 9.64037 6.37 10.0001L16.6 15.6301C16.9986 15.8616 17.4492 15.9889 17.91 16.0001C18.2622 15.9964 18.6071 15.8998 18.91 15.7201C19.6265 15.2689 20.0434 14.4657 20 13.6201V2.39008C20.0633 1.56492 19.6822 0.768523 19 0.30008Z" fill="var(--fill-0, #4BB4E6)"/>
<path id="Path_2" d="M2.52 8.01128e-05C1.8535 -0.00525206 1.21247 0.255784 0.73929 0.725204C0.266114 1.19462 -2.13277e-05 1.83356 1.28194e-09 2.50008V13.5001C1.28194e-09 14.8808 1.11929 16.0001 2.5 16.0001C3.88071 16.0001 5 14.8808 5 13.5001V2.50008C5.00004 1.12714 3.89289 0.0110636 2.52 8.01128e-05Z" fill="var(--fill-0, #4BB4E6)"/>
</g>
</svg>
