<svg preserveAspectRatio="none" width="100%" height="100%" overflow="visible" style="display: block;" viewBox="0 0 14 14" fill="none" xmlns="http://www.w3.org/2000/svg">
<g id="Layer_112">
<path id="Path" d="M12.62 2.38001C12.2879 2.11165 11.8736 1.96571 11.4467 1.96668H1.88668C0.846217 1.97034 0.00366569 2.81289 8.50583e-06 3.85335V4.30001C-0.00246819 5.2163 0.536107 6.04769 1.37334 6.42001C1.67344 6.56179 2.00144 6.63467 2.33334 6.63335H3.00001C3.62896 6.63631 4.23153 6.38082 4.66668 5.92668C5.10182 6.38082 5.70439 6.63631 6.33334 6.63335H7.00001C7.62896 6.63631 8.23153 6.38082 8.66668 5.92668C9.10182 6.38082 9.70439 6.63631 10.3333 6.63335H11C11.3319 6.63467 11.6599 6.56179 11.96 6.42001C12.7972 6.04769 13.3358 5.2163 13.3333 4.30001V3.85335C13.3331 3.27906 13.0703 2.7364 12.62 2.38001Z" fill="var(--fill-0, #4BB4E6)"/>
<path id="Path_2" d="M10.3333 7.30001C9.73924 7.30421 9.15793 7.12749 8.66668 6.79335C8.17543 7.12749 7.59411 7.30421 7.00001 7.30001H6.33334C5.73924 7.30421 5.15793 7.12749 4.66668 6.79335C4.17542 7.12749 3.59411 7.30421 3.00001 7.30001H2.33334C1.99187 7.30091 1.65307 7.23992 1.33334 7.12001V11.3C1.33334 12.4046 2.22877 13.3 3.33334 13.3H4.66668V9.96668C4.66668 8.86211 5.56211 7.96668 6.66668 7.96668C7.77124 7.96668 8.66668 8.86211 8.66668 9.96668V13.3H10C11.1046 13.3 12 12.4046 12 11.3V7.12001C11.6808 7.24168 11.3416 7.30273 11 7.30001H10.3333Z" fill="var(--fill-0, #4BB4E6)"/>
<path id="Path_3" d="M11.4467 1.30001C11.7401 1.30053 12.0312 1.35243 12.3067 1.45335L12.2667 1.33335C11.9832 0.531579 11.2237 -0.00326331 10.3733 1.49865e-05H2.96001C2.10961 -0.00326331 1.35014 0.531579 1.06668 1.33335L1.02668 1.45335C1.30219 1.35243 1.59326 1.30053 1.88668 1.30001H11.4467Z" fill="var(--fill-0, #4BB4E6)"/>
</g>
</svg>
