<svg preserveAspectRatio="none" width="100%" height="100%" overflow="visible" style="display: block;" viewBox="0 0 20 21" fill="none" xmlns="http://www.w3.org/2000/svg">
<g id="Layer_25">
<path id="Path" d="M19.6273 8.24873L17.9673 6.73873L17.1073 5.99873L10.6273 0.248734C10.2498 -0.0829115 9.68479 -0.0829115 9.30728 0.248734L2.82728 5.99873L1.96728 6.73873L0.307282 8.24873C-0.078802 8.61957 -0.104364 9.22869 0.249291 9.63057C0.602947 10.0324 1.21037 10.0845 1.62728 9.74873L1.96728 9.44873V17.9987C1.96728 19.6556 3.31043 20.9987 4.96728 20.9987H6.96728V14.9987C6.96728 13.3419 8.31043 11.9987 9.96728 11.9987C11.6241 11.9987 12.9673 13.3419 12.9673 14.9987V20.9987H14.9673C16.6241 20.9987 17.9673 19.6556 17.9673 17.9987V9.44873L18.3073 9.74873C18.7217 10.1127 19.3525 10.0724 19.7173 9.65873C20.0813 9.24434 20.041 8.61349 19.6273 8.24873Z" fill="var(--fill-0, #4BB4E6)"/>
</g>
</svg>
