<svg preserveAspectRatio="none" width="100%" height="100%" overflow="visible" style="display: block;" viewBox="0 0 14 14" fill="none" xmlns="http://www.w3.org/2000/svg">
<g id="Layer_71">
<path id="Path" d="M12 9.34083C11.4883 9.34279 10.9968 9.54082 10.6267 9.89416L4.72667 6.67416L10.6267 3.45416C11.3169 4.10613 12.3704 4.18293 13.1479 3.63796C13.9254 3.09299 14.2126 2.07647 13.8352 1.20522C13.4578 0.333979 12.5198 -0.151834 11.5905 0.0425746C10.6611 0.236983 9.99654 1.05802 10 2.00749C9.99344 2.09404 9.99344 2.18095 10 2.26749L3.73333 5.69416C3.38096 5.06726 2.71914 4.6778 2 4.67416C0.89543 4.67416 0 5.56959 0 6.67416C0 7.77873 0.89543 8.67416 2 8.67416C2.71914 8.67052 3.38096 8.28106 3.73333 7.65416L10 11.0808C9.99344 11.1674 9.99344 11.2543 10 11.3408C10 12.4454 10.8954 13.3408 12 13.3408C13.1046 13.3408 14 12.4454 14 11.3408C14 10.2363 13.1046 9.34083 12 9.34083Z" fill="var(--fill-0, #4BB4E6)"/>
</g>
</svg>
