<svg preserveAspectRatio="none" width="100%" height="100%" overflow="visible" style="display: block;" viewBox="0 0 20 20" fill="none" xmlns="http://www.w3.org/2000/svg">
<g id="Layer_61">
<path id="Path" d="M13 2H1C0.447715 2 0 1.55228 0 1C0 0.447715 0.447715 0 1 0H13C13.5523 0 14 0.447715 14 1C14 1.55228 13.5523 2 13 2Z" fill="var(--fill-0, #4BB4E6)"/>
<path id="Path_2" d="M11 8H1C0.447715 8 0 7.55228 0 7C0 6.44772 0.447715 6 1 6H11C11.5523 6 12 6.44772 12 7C12 7.55228 11.5523 8 11 8Z" fill="var(--fill-0, #4BB4E6)"/>
<path id="Path_3" d="M9 14H1C0.447715 14 0 13.5523 0 13C0 12.4477 0.447715 12 1 12H9C9.55228 12 10 12.4477 10 13C10 13.5523 9.55228 14 9 14Z" fill="var(--fill-0, #4BB4E6)"/>
<path id="Path_4" d="M7 20H1C0.447715 20 0 19.5523 0 19C0 18.4477 0.447715 18 1 18H7C7.55228 18 8 18.4477 8 19C8 19.5523 7.55228 20 7 20Z" fill="var(--fill-0, #4BB4E6)"/>
<path id="Path_5" d="M16 18C15.4477 18 15 17.5523 15 17V1C15 0.447715 15.4477 0 16 0C16.5523 0 17 0.447715 17 1V17C17 17.5523 16.5523 18 16 18Z" fill="var(--fill-0, #4BB4E6)"/>
<path id="Path_6" d="M16 20C15.7342 20.0015 15.4787 19.8972 15.29 19.71L12.29 16.71C11.8979 16.3179 11.8979 15.6821 12.29 15.29C12.6821 14.8979 13.3179 14.8979 13.71 15.29L16 17.59L18.29 15.29C18.6821 14.8979 19.3179 14.8979 19.71 15.29C20.1021 15.6821 20.1021 16.3179 19.71 16.71L16.71 19.71C16.5213 19.8972 16.2658 20.0015 16 20Z" fill="var(--fill-0, #4BB4E6)"/>
</g>
</svg>
