<svg preserveAspectRatio="none" width="100%" height="100%" overflow="visible" style="display: block;" viewBox="0 0 14 14" fill="none" xmlns="http://www.w3.org/2000/svg">
<g id="Layer_67">
<path id="Shape" fill-rule="evenodd" clip-rule="evenodd" d="M1.95262 1.95262C4.52418 -0.618936 8.68222 -0.655068 11.2981 1.87141C13.8246 4.48727 13.7884 8.64531 11.2169 11.2169C8.64531 13.7884 4.48727 13.8246 1.87141 11.2981C-0.655068 8.68222 -0.618936 4.52418 1.95262 1.95262ZM9.62195 8.95141C9.62195 8.77365 9.55095 8.60326 9.42475 8.47808L7.52475 6.58475L9.42475 4.69141C9.59385 4.52231 9.6599 4.27583 9.598 4.04483C9.5361 3.81383 9.35567 3.63339 9.12467 3.57149C8.89366 3.5096 8.64719 3.57564 8.47808 3.74475L6.58475 5.64475L4.69141 3.74475C4.52231 3.57564 4.27583 3.5096 4.04483 3.57149C3.81383 3.63339 3.63339 3.81383 3.57149 4.04483C3.5096 4.27583 3.57564 4.52231 3.74475 4.69141L5.64475 6.58475L3.74475 8.47808C3.61854 8.60326 3.54755 8.77365 3.54755 8.95141C3.54755 9.12917 3.61854 9.29957 3.74475 9.42475C3.87056 9.54954 4.04088 9.61911 4.21808 9.61808C4.39528 9.61911 4.5656 9.54954 4.69141 9.42475L6.58475 7.52475L8.47808 9.42475C8.60389 9.54954 8.77421 9.61911 8.95141 9.61808C9.12862 9.61911 9.29893 9.54954 9.42475 9.42475C9.55095 9.29957 9.62195 9.12917 9.62195 8.95141Z" fill="var(--fill-0, #4BB4E6)"/>
</g>
</svg>
