<svg preserveAspectRatio="none" width="100%" height="100%" overflow="visible" style="display: block;" viewBox="0 0 20 20" fill="none" xmlns="http://www.w3.org/2000/svg">
<g id="Layer_21">
<path id="Shape" fill-rule="evenodd" clip-rule="evenodd" d="M3 0H17C18.6569 0 20 1.34315 20 3V17C20 18.6569 18.6569 20 17 20H3C1.34315 20 0 18.6569 0 17V3C0 1.34315 1.34315 0 3 0ZM14 13C14.2652 12.9936 14.517 12.8821 14.7 12.69C15.0877 12.3 15.0877 11.67 14.7 11.28L10.7 7.28C10.31 6.89228 9.68004 6.89228 9.29 7.28L5.29 11.28C5.03634 11.5319 4.93632 11.8999 5.02762 12.2455C5.11892 12.5912 5.38766 12.8618 5.73262 12.9555C6.07758 13.0493 6.44634 12.9519 6.7 12.7L10 9.42L13.3 12.71C13.4863 12.8947 13.7377 12.9989 14 13Z" fill="var(--fill-0, #4BB4E6)"/>
</g>
</svg>
