<svg preserveAspectRatio="none" width="100%" height="100%" overflow="visible" style="display: block;" viewBox="0 0 27 27" fill="none" xmlns="http://www.w3.org/2000/svg">
<g id="Layer_97">
<path id="Shape" fill-rule="evenodd" clip-rule="evenodd" d="M26.6667 13.5201C26.6728 15.6148 25.0619 17.3595 22.9733 17.5201L8 18.6668C8.2 20.0001 8.62667 20.0001 9.33333 20.0001H23.3333C23.9257 20.0104 24.505 20.1759 25.0133 20.4801H25.0933C26.4853 21.3011 27.0879 23.0022 26.5231 24.5163C25.9583 26.0304 24.3888 26.9212 22.7993 26.63C21.2097 26.3388 20.058 24.9494 20.0667 23.3334C20.0683 23.1096 20.0907 22.8865 20.1333 22.6668H14.6667C14.6871 22.8885 14.6871 23.1117 14.6667 23.3334C14.6667 25.1744 13.1743 26.6668 11.3333 26.6668C9.49238 26.6668 8 25.1744 8 23.3334C8.00092 23.0633 8.03677 22.7944 8.10667 22.5334C5.33333 21.8801 5.33333 19.0001 5.33333 17.4401L2.86667 2.66678H1.33333C0.596954 2.66678 0 2.06982 0 1.33345C0 0.597066 0.596954 0.000111989 1.33333 0.000111989H4C4.66052 -0.00838937 5.2277 0.468035 5.33333 1.12011L5.57333 2.66678L25.4267 4.00011C26.1264 4.04921 26.6684 4.63203 26.6667 5.33345V13.5201ZM13.1867 10.1068C12.8539 9.45303 12.0555 9.19088 11.4 9.52011V9.48011C11.0551 9.62898 10.7889 9.91648 10.6671 10.2719C10.5452 10.6273 10.579 11.0176 10.76 11.3468L12.0933 14.0134C12.2706 14.3626 12.5924 14.6161 12.9733 14.7068C13.0751 14.7197 13.1782 14.7197 13.28 14.7068C13.5685 14.7068 13.8492 14.6132 14.08 14.4401L19.4133 10.4401C20.0024 9.99829 20.1218 9.16255 19.68 8.57345C19.2382 7.98434 18.4024 7.86495 17.8133 8.30678L13.8133 11.3468L13.1867 10.1068ZM23.4 22.7068C23.7682 22.7068 24.0667 23.0053 24.0667 23.3734C24.0667 23.7416 23.7682 24.0401 23.4 24.0401C23.0318 24.0401 22.7333 23.7416 22.7333 23.3734C22.71 23.0146 22.9755 22.702 23.3333 22.6668L23.4 22.7068ZM12.0667 23.3734C12.0667 23.0053 11.7682 22.7068 11.4 22.7068L11.3333 22.6668C10.9755 22.702 10.71 23.0146 10.7333 23.3734C10.7333 23.7416 11.0318 24.0401 11.4 24.0401C11.7682 24.0401 12.0667 23.7416 12.0667 23.3734Z" fill="var(--fill-0, #4BB4E6)"/>
</g>
</svg>
