<svg preserveAspectRatio="none" width="100%" height="100%" overflow="visible" style="display: block;" viewBox="0 0 9 13" fill="none" xmlns="http://www.w3.org/2000/svg">
<g id="Layer_103">
<path id="Path" d="M8.06379 6.44979C8.12896 6.7458 7.95658 7.04239 7.66713 7.13229L6.37213 7.54063L5.84129 7.70979L5.20546 8.29313L4.43546 9.00479C4.32556 9.10103 4.18487 9.15483 4.03879 9.15646C3.89221 9.15754 3.7506 9.10339 3.64213 9.00479L2.87213 8.29313L2.23629 7.70979L1.70546 7.54063L0.410461 7.13229C0.121009 7.04239 -0.0513716 6.7458 0.0137938 6.44979L0.427961 4.58313L0.0137938 2.71646C-0.0513716 2.42046 0.121009 2.12386 0.410461 2.03396L2.23629 1.45063L3.64213 0.155626C3.86587 -0.0518754 4.21172 -0.0518754 4.43546 0.155626L5.84129 1.45063L7.66713 2.03396C7.95658 2.12386 8.12896 2.42046 8.06379 2.71646L7.64963 4.58313L8.06379 6.44979Z" fill="var(--fill-0, #4BB4E6)"/>
<path id="Path_2" d="M6.37213 8.15313V11.5831C6.37155 11.7981 6.25275 11.9954 6.06296 12.0965C5.8773 12.1918 5.65485 12.1807 5.47963 12.0673L4.03879 11.1165L2.60963 12.0673C2.4309 12.185 2.20207 12.1954 2.01342 12.0944C1.82476 11.9933 1.70656 11.7971 1.70546 11.5831V8.15313L1.93879 8.22896L3.25129 9.44229C3.69794 9.8537 4.38548 9.8537 4.83213 9.44229L6.13879 8.24063L6.37213 8.15313Z" fill="var(--fill-0, #4BB4E6)"/>
</g>
</svg>
