<svg preserveAspectRatio="none" width="100%" height="100%" overflow="visible" style="display: block;" viewBox="0 0 14 13" fill="none" xmlns="http://www.w3.org/2000/svg">
<g id="Layer_91">
<path id="Path" d="M8.00001 0.886667L5.33334 0V12.0733L8.00001 12.96V0.886667V0.886667Z" fill="var(--fill-0, #4BB4E6)"/>
<path id="Path_2" d="M12.78 0.32C12.4321 0.0709173 11.9857 0.00396501 11.58 0.14L9.33334 0.886667V12.96L12.42 11.9333C12.9657 11.7522 13.3339 11.2417 13.3333 10.6667V1.40667C13.335 0.976379 13.129 0.571717 12.78 0.32Z" fill="var(--fill-0, #4BB4E6)"/>
<path id="Path_3" d="M4.00001 0L0.913344 1.02667C0.367627 1.20779 -0.000511708 1.71835 1.04913e-05 2.29333V11.5533C-0.00169391 11.9836 0.204361 12.3883 0.553344 12.64C0.782622 12.7988 1.05445 12.8848 1.33334 12.8867C1.47607 12.8879 1.61801 12.8654 1.75334 12.82L4.00001 12.0733V0Z" fill="var(--fill-0, #4BB4E6)"/>
</g>
</svg>
