<svg preserveAspectRatio="none" width="100%" height="100%" overflow="visible" style="display: block;" viewBox="0 0 27 27" fill="none" xmlns="http://www.w3.org/2000/svg">
<g id="Layer_90">
<path id="Shape" fill-rule="evenodd" clip-rule="evenodd" d="M22.6667 0H4C1.79086 0 0 1.79086 0 4V22.6667C0 24.8758 1.79086 26.6667 4 26.6667H22.6667C24.8758 26.6667 26.6667 24.8758 26.6667 22.6667V4C26.6667 1.79086 24.8758 0 22.6667 0ZM12.3867 5.72C12.7681 5.33539 13.3444 5.21978 13.8446 5.42751C14.3449 5.63523 14.6698 6.12498 14.6667 6.66667C14.6632 7.26849 14.2569 7.79336 13.6752 7.94767C13.0935 8.10198 12.4805 7.84747 12.1792 7.32652C11.8779 6.80556 11.9629 6.14731 12.3867 5.72ZM10.48 20C10.48 20.7364 11.077 21.3333 11.8133 21.3333H14.8533C15.5897 21.3333 16.1867 20.7364 16.1867 20C16.1867 19.2636 15.5897 18.6667 14.8533 18.6667H14.6667V10.6667C14.6667 9.93029 14.0697 9.33333 13.3333 9.33333H12C11.2636 9.33333 10.6667 9.93029 10.6667 10.6667C10.6667 11.403 11.2636 12 12 12V18.6667H11.8133C11.077 18.6667 10.48 19.2636 10.48 20Z" fill="var(--fill-0, #4BB4E6)"/>
</g>
</svg>
