<svg preserveAspectRatio="none" width="100%" height="100%" overflow="visible" style="display: block;" viewBox="0 0 14 14" fill="none" xmlns="http://www.w3.org/2000/svg">
<g id="Layer_35">
<path id="Path" d="M9.38 5.56L7.96667 6.97333L13.3333 11V8.62667L9.38 5.56V5.56Z" fill="var(--fill-0, #4BB4E6)"/>
<path id="Path_2" d="M4.76667 6.24L0.1 11.8733C0.339447 12.7275 1.11296 13.3219 2 13.3333H11.3333C12.0097 13.3314 12.6392 12.9878 13.0067 12.42L4.76667 6.24Z" fill="var(--fill-0, #4BB4E6)"/>
<path id="Path_3" d="M4.16 4.9C4.38855 4.63277 4.78537 4.589 5.06667 4.8L6.88667 6.16667L8.88667 4.16667C9.12736 3.92793 9.5089 3.90785 9.77333 4.12L13.3333 6.93333V2C13.3333 0.89543 12.4379 0 11.3333 0H2C0.89543 0 0 0.89543 0 2V9.89333L4.16 4.9Z" fill="var(--fill-0, #4BB4E6)"/>
</g>
</svg>
