<svg preserveAspectRatio="none" width="100%" height="100%" overflow="visible" style="display: block;" viewBox="0 0 16 16" fill="none" xmlns="http://www.w3.org/2000/svg">
<path id="Vector" d="M16 0.999396C15.9999 0.851505 15.967 0.705475 15.9037 0.571826C15.8404 0.438177 15.7482 0.320238 15.6338 0.226504C15.5194 0.13277 15.3856 0.0655765 15.2422 0.0297633C15.0987 -0.00604981 14.949 -0.00959053 14.804 0.0193962L4.804 2.0194C4.57739 2.06469 4.37346 2.18707 4.22689 2.36573C4.08031 2.54439 4.00014 2.7683 4 2.9994V12.1134C3.67217 12.037 3.33661 11.9987 3 11.9994C1.343 11.9994 0 12.8944 0 13.9994C0 15.1044 1.343 15.9994 3 15.9994C4.657 15.9994 6 15.1044 6 13.9994V5.8194L14 4.2194V10.1134C13.6722 10.037 13.3366 9.99876 13 9.9994C11.343 9.9994 10 10.8944 10 11.9994C10 13.1044 11.343 13.9994 13 13.9994C14.657 13.9994 16 13.1044 16 11.9994V0.999396Z" fill="var(--fill-0, #111928)"/>
</svg>
