<svg preserveAspectRatio="none" width="100%" height="100%" overflow="visible" style="display: block;" viewBox="0 0 20 20" fill="none" xmlns="http://www.w3.org/2000/svg">
<g id="Layer_76">
<path id="Path" d="M1 8C1.55228 8 2 7.55228 2 7V3C2 2.44772 2.44772 2 3 2H7C7.55228 2 8 1.55228 8 1C8 0.447715 7.55228 0 7 0H3C1.34315 0 0 1.34315 0 3V7C0 7.55228 0.447715 8 1 8Z" fill="var(--fill-0, #4BB4E6)"/>
<path id="Path_2" d="M17 0H13C12.4477 0 12 0.447715 12 1C12 1.55228 12.4477 2 13 2H17C17.5523 2 18 2.44772 18 3V7C18 7.55228 18.4477 8 19 8C19.5523 8 20 7.55228 20 7V3C20 1.34315 18.6569 0 17 0Z" fill="var(--fill-0, #4BB4E6)"/>
<path id="Path_3" d="M19 12C18.4477 12 18 12.4477 18 13V17C18 17.5523 17.5523 18 17 18H13C12.4477 18 12 18.4477 12 19C12 19.5523 12.4477 20 13 20H17C18.6569 20 20 18.6569 20 17V13C20 12.4477 19.5523 12 19 12Z" fill="var(--fill-0, #4BB4E6)"/>
<path id="Path_4" d="M7 18H3C2.44772 18 2 17.5523 2 17V13C2 12.4477 1.55228 12 1 12C0.447715 12 0 12.4477 0 13V17C0 18.6569 1.34315 20 3 20H7C7.55228 20 8 19.5523 8 19C8 18.4477 7.55228 18 7 18Z" fill="var(--fill-0, #4BB4E6)"/>
<rect id="Rectangle" x="4" y="4" width="12" height="12" rx="2" fill="var(--fill-0, #4BB4E6)"/>
</g>
</svg>
