<svg preserveAspectRatio="none" width="100%" height="100%" overflow="visible" style="display: block;" viewBox="0 0 27 27" fill="none" xmlns="http://www.w3.org/2000/svg">
<g id="Layer_122">
<path id="Path" d="M10.6693 4.06885V1.33552C10.6701 0.817827 10.3712 0.346443 9.90261 0.126425C9.434 -0.0935939 8.88039 -0.0224721 8.48261 0.308851L0.482608 6.97552C0.176914 7.22882 0 7.60518 0 8.00218C0 8.39919 0.176914 8.77554 0.482608 9.02885L8.48261 15.6955C8.72249 15.8943 9.02441 16.0028 9.33594 16.0022C9.5291 16.0032 9.72017 15.9623 9.89594 15.8822C10.3685 15.6635 10.6706 15.1896 10.6693 14.6689V12.0689C15.9969 12.5902 20.5535 16.1205 22.3893 21.1489L24.0826 25.7889C24.2735 26.3168 24.7746 26.6686 25.3359 26.6689C25.4109 26.6826 25.4877 26.6826 25.5626 26.6689C26.2094 26.5573 26.6788 25.9918 26.6693 25.3355V21.3355C26.6613 12.2856 19.6924 4.76499 10.6693 4.06885Z" fill="var(--fill-0, #4BB4E6)"/>
</g>
</svg>
