<svg preserveAspectRatio="none" width="100%" height="100%" overflow="visible" style="display: block;" viewBox="0 0 21 21" fill="none" xmlns="http://www.w3.org/2000/svg">
<g id="Layer_94">
<path id="Shape" fill-rule="evenodd" clip-rule="evenodd" d="M17.23 13.1402C18.7964 13.0197 20.0046 11.7112 20 10.1402V4.00017C20.0013 3.4741 19.5948 3.03699 19.07 3.00017L4.18 2.00017L4 0.840166C3.92077 0.351108 3.49539 -0.00621022 3 0.000165802H1C0.447715 0.000165802 0 0.447881 0 1.00017C0 1.55245 0.447715 2.00017 1 2.00017H2.15L4 13.0802C4 14.2502 4 16.4102 6.08 16.9002C6.02758 17.0959 6.00069 17.2976 6 17.5002C6 18.8809 7.11929 20.0002 8.5 20.0002C9.88071 20.0002 11 18.8809 11 17.5002C11.0153 17.3339 11.0153 17.1665 11 17.0002H15.1C15.068 17.1649 15.0513 17.3323 15.05 17.5002C15.0435 18.7121 15.9073 19.7542 17.0995 19.9726C18.2916 20.191 19.4687 19.5228 19.8923 18.3873C20.3159 17.2517 19.864 15.9759 18.82 15.3602H18.76C18.3787 15.132 17.9443 15.0079 17.5 15.0002H7C6.47 15.0002 6.15 15.0002 6 14.0002L17.23 13.1402ZM17.5 17.0002C17.7761 17.0002 18 17.224 18 17.5002C18 17.7763 17.7761 18.0002 17.5 18.0002C17.2239 18.0002 17 17.7763 17 17.5002C17 17.224 17.2239 17.0002 17.5 17.0002ZM9 17.5002C9 17.224 8.77614 17.0002 8.5 17.0002C8.22386 17.0002 8 17.224 8 17.5002C8 17.7763 8.22386 18.0002 8.5 18.0002C8.77614 18.0002 9 17.7763 9 17.5002Z" fill="var(--fill-0, #4BB4E6)"/>
</g>
</svg>
