<svg preserveAspectRatio="none" width="100%" height="100%" overflow="visible" style="display: block;" viewBox="0 0 20 20" fill="none" xmlns="http://www.w3.org/2000/svg">
<g id="Layer_52">
<path id="Path" d="M15 12H10C8.89543 12 8 11.1046 8 10C8 8.89543 8.89543 8 10 8H15C15.0022 7.47042 15.2144 6.96335 15.59 6.59C15.7102 6.46648 15.8484 6.36196 16 6.28V3C16 1.34315 14.6569 0 13 0H3C1.34315 0 0 1.34315 0 3V17C0 18.6569 1.34315 20 3 20H13C14.6569 20 16 18.6569 16 17V13.72C15.849 13.6372 15.7109 13.5327 15.59 13.41C15.2144 13.0366 15.0022 12.5296 15 12V12Z" fill="var(--fill-0, #4BB4E6)"/>
<path id="Path_2" d="M19.71 9.29L17.71 7.29C17.3179 6.89788 16.6821 6.89788 16.29 7.29C15.8979 7.68212 15.8979 8.31788 16.29 8.71L16.59 9H10C9.44772 9 9 9.44772 9 10C9 10.5523 9.44772 11 10 11H16.59L16.29 11.29C16.1007 11.4778 15.9942 11.7334 15.9942 12C15.9942 12.2666 16.1007 12.5222 16.29 12.71C16.4778 12.8993 16.7334 13.0058 17 13.0058C17.2666 13.0058 17.5222 12.8993 17.71 12.71L19.71 10.71C19.8993 10.5222 20.0058 10.2666 20.0058 10C20.0058 9.73336 19.8993 9.47777 19.71 9.29Z" fill="var(--fill-0, #4BB4E6)"/>
</g>
</svg>
