<svg preserveAspectRatio="none" width="100%" height="100%" overflow="visible" style="display: block;" viewBox="0 0 11 11" fill="none" xmlns="http://www.w3.org/2000/svg">
<path id="Vector" fill-rule="evenodd" clip-rule="evenodd" d="M6.91285 1.64895C7.03277 1.52479 7.17622 1.42575 7.33482 1.35762C7.49343 1.28949 7.66401 1.25363 7.83663 1.25213C8.00924 1.25063 8.18042 1.28352 8.34019 1.34888C8.49995 1.41425 8.6451 1.51078 8.76716 1.63284C8.88922 1.7549 8.98575 1.90005 9.05112 2.05981C9.11648 2.21958 9.14938 2.39076 9.14788 2.56337C9.14638 2.73599 9.11051 2.90657 9.04238 3.06518C8.97425 3.22378 8.87521 3.36723 8.75105 3.48715L6.80105 5.43715C6.55726 5.68086 6.22666 5.81777 5.88195 5.81777C5.53724 5.81777 5.20664 5.68086 4.96285 5.43715C4.84026 5.31875 4.67607 5.25323 4.50564 5.25471C4.33521 5.25619 4.17218 5.32455 4.05167 5.44507C3.93115 5.56558 3.86279 5.72861 3.86131 5.89904C3.85983 6.06947 3.92535 6.23366 4.04375 6.35625C4.53132 6.84368 5.19252 7.1175 5.88195 7.1175C6.57138 7.1175 7.23258 6.84368 7.72015 6.35625L9.67015 4.40625C10.1438 3.91589 10.4058 3.25912 10.3999 2.57741C10.394 1.8957 10.1205 1.24358 9.63848 0.761523C9.15642 0.279461 8.5043 0.00602218 7.82259 9.82868e-05C7.14088 -0.0058256 6.48411 0.25624 5.99375 0.729851L5.01875 1.70485C4.95667 1.76481 4.90715 1.83654 4.87308 1.91584C4.83902 1.99514 4.82109 2.08043 4.82034 2.16674C4.81959 2.25305 4.83603 2.33864 4.86872 2.41852C4.9014 2.4984 4.94966 2.57098 5.01069 2.63201C5.07172 2.69304 5.1443 2.7413 5.22418 2.77398C5.30406 2.80667 5.38965 2.82311 5.47596 2.82236C5.56227 2.82161 5.64756 2.80368 5.72686 2.76962C5.80616 2.73555 5.87789 2.68603 5.93785 2.62395L6.91285 1.64895V1.64895ZM3.66285 4.89895C3.90664 4.65524 4.23724 4.51833 4.58195 4.51833C4.92666 4.51833 5.25726 4.65524 5.50105 4.89895C5.56101 4.96103 5.63273 5.01055 5.71204 5.04462C5.79134 5.07868 5.87663 5.09661 5.96294 5.09736C6.04924 5.09811 6.13484 5.08167 6.21472 5.04899C6.2946 5.0163 6.36718 4.96804 6.42821 4.90701C6.48924 4.84598 6.5375 4.7734 6.57018 4.69352C6.60287 4.61364 6.61931 4.52805 6.61856 4.44174C6.61781 4.35543 6.59988 4.27014 6.56582 4.19084C6.53175 4.11154 6.48223 4.03981 6.42015 3.97985C5.93258 3.49243 5.27138 3.21861 4.58195 3.21861C3.89252 3.21861 3.23132 3.49243 2.74375 3.97985L0.793749 5.92985C0.545423 6.16969 0.347349 6.45659 0.211086 6.7738C0.0748224 7.09101 0.00309809 7.43218 9.81676e-05 7.77741C-0.00290176 8.12263 0.0628827 8.465 0.193613 8.78453C0.324343 9.10406 0.517401 9.39436 0.761522 9.63848C1.00564 9.8826 1.29594 10.0757 1.61547 10.2064C1.935 10.3371 2.27737 10.4029 2.62259 10.3999C2.96782 10.3969 3.30899 10.3252 3.6262 10.1889C3.94341 10.0527 4.23031 9.85458 4.47015 9.60625L5.44515 8.63125C5.50723 8.57129 5.55675 8.49957 5.59082 8.42026C5.62488 8.34096 5.64281 8.25567 5.64356 8.16936C5.64431 8.08305 5.62787 7.99746 5.59518 7.91758C5.5625 7.8377 5.51424 7.76512 5.45321 7.70409C5.39218 7.64306 5.3196 7.5948 5.23972 7.56212C5.15984 7.52943 5.07425 7.51299 4.98794 7.51374C4.90163 7.51449 4.81634 7.53242 4.73704 7.56648C4.65773 7.60055 4.58601 7.65007 4.52605 7.71215L3.55105 8.68715C3.43113 8.81131 3.28768 8.91035 3.12908 8.97848C2.97047 9.04661 2.79988 9.08248 2.62727 9.08398C2.45466 9.08548 2.28347 9.05258 2.12371 8.98722C1.96394 8.92185 1.8188 8.82532 1.69674 8.70326C1.57468 8.5812 1.47815 8.43606 1.41278 8.27629C1.34742 8.11653 1.31452 7.94534 1.31602 7.77273C1.31752 7.60012 1.35339 7.42953 1.42152 7.27093C1.48965 7.11232 1.58869 6.96887 1.71285 6.84895L3.66285 4.89895Z" fill="var(--fill-0, #E9E9E9)"/>
</svg>
