<svg preserveAspectRatio="none" width="100%" height="100%" overflow="visible" style="display: block;" viewBox="0 0 16 7" fill="none" xmlns="http://www.w3.org/2000/svg">
<path id="Vector" fill-rule="evenodd" clip-rule="evenodd" d="M16 0H0V5C0 5.53043 0.210714 6.03914 0.585786 6.41421C0.960859 6.78929 1.46957 7 2 7H14C14.5304 7 15.0391 6.78929 15.4142 6.41421C15.7893 6.03914 16 5.53043 16 5V0ZM2 4C2 3.73478 2.10536 3.48043 2.29289 3.29289C2.48043 3.10536 2.73478 3 3 3H4C4.26522 3 4.51957 3.10536 4.70711 3.29289C4.89464 3.48043 5 3.73478 5 4C5 4.26522 4.89464 4.51957 4.70711 4.70711C4.51957 4.89464 4.26522 5 4 5H3C2.73478 5 2.48043 4.89464 2.29289 4.70711C2.10536 4.51957 2 4.26522 2 4ZM7 3C6.73478 3 6.48043 3.10536 6.29289 3.29289C6.10536 3.48043 6 3.73478 6 4C6 4.26522 6.10536 4.51957 6.29289 4.70711C6.48043 4.89464 6.73478 5 7 5H8C8.26522 5 8.51957 4.89464 8.70711 4.70711C8.89464 4.51957 9 4.26522 9 4C9 3.73478 8.89464 3.48043 8.70711 3.29289C8.51957 3.10536 8.26522 3 8 3H7Z" fill="var(--fill-0, #111928)"/>
</svg>
