<svg preserveAspectRatio="none" width="100%" height="100%" overflow="visible" style="display: block;" viewBox="0 0 27 28" fill="none" xmlns="http://www.w3.org/2000/svg">
<g id="Layer_107">
<path id="Shape" fill-rule="evenodd" clip-rule="evenodd" d="M3.85333 0.000619338H21.48C23.5613 -0.0366526 25.2824 1.61299 25.3333 3.69395V11.694C24.7276 11.0946 24.0409 10.583 23.2933 10.174C19.8051 8.31606 15.5372 8.76872 12.5163 11.317C9.49533 13.8653 8.32988 17.9958 9.57333 21.7473C9.8313 22.5456 10.1993 23.304 10.6667 24.0006H3.85333C1.76699 24.0378 0.0437531 22.3802 0 20.294V3.70729C0.0437531 1.62107 1.76699 -0.0365766 3.85333 0.000619338ZM6.66667 8.00062H18.6667C19.403 8.00062 20 7.40367 20 6.66729C20 5.93091 19.403 5.33395 18.6667 5.33395H6.66667C5.93029 5.33395 5.33333 5.93091 5.33333 6.66729C5.33333 7.40367 5.93029 8.00062 6.66667 8.00062Z" fill="var(--fill-0, #4BB4E6)"/>
<path id="Path" d="M12.24 24.0006C11.5877 23.2119 11.0901 22.3072 10.7733 21.334L12.24 24.0006Z" fill="var(--fill-0, #4BB4E6)"/>
<path id="Path_2" d="M25.3333 13.6406L22.6667 11.3473C23.7081 11.914 24.6171 12.6957 25.3333 13.6406V13.6406Z" fill="var(--fill-0, #4BB4E6)"/>
<path id="Path_3" d="M10.7733 21.334L12.24 24.0006C11.5877 23.2119 11.0901 22.3072 10.7733 21.334H10.7733Z" fill="var(--fill-0, #4BB4E6)"/>
<path id="Path_4" d="M25.3333 13.6406L22.6667 11.3473C23.7081 11.914 24.6171 12.6957 25.3333 13.6406V13.6406Z" fill="var(--fill-0, #4BB4E6)"/>
<path id="Shape_2" fill-rule="evenodd" clip-rule="evenodd" d="M22.6667 11.3473L25.3333 13.6406C24.6171 12.6957 23.7081 11.914 22.6667 11.3473ZM10.7733 21.334C11.0901 22.3072 11.5877 23.2119 12.24 24.0006L10.7733 21.334Z" fill="var(--fill-0, #4BB4E6)"/>
<path id="Shape_3" fill-rule="evenodd" clip-rule="evenodd" d="M22.6667 11.3473L25.3333 13.6406C26.4295 15.0857 27.0157 16.8535 27 18.6673C27.012 22.1881 24.81 25.3366 21.4987 26.5331C18.1873 27.7296 14.4813 26.7159 12.24 24.0006L10.7733 21.334C9.91438 18.7909 10.333 15.9897 11.8979 13.8089C13.4628 11.6281 15.9824 10.3345 18.6667 10.334C20.0633 10.3356 21.4377 10.6838 22.6667 11.3473ZM18.32 22.2806L22.32 18.2806L22.2533 18.3206C22.7762 17.7978 22.7762 16.9501 22.2533 16.4273C21.7305 15.9045 20.8828 15.9045 20.36 16.4273L17.6933 19.094L17.1867 18.0806C16.9945 17.6192 16.5605 17.304 16.0623 17.2641C15.5641 17.2242 15.0854 17.4662 14.8223 17.8911C14.5591 18.316 14.5557 18.8524 14.8133 19.2806L16.1467 21.9473C16.3372 22.3292 16.699 22.5969 17.12 22.6673H17.3333C17.7015 22.6802 18.0587 22.5403 18.32 22.2806Z" fill="var(--fill-0, #4BB4E6)"/>
</g>
</svg>
