<svg preserveAspectRatio="none" width="100%" height="100%" overflow="visible" style="display: block;" viewBox="0 0 14 13" fill="none" xmlns="http://www.w3.org/2000/svg">
<g id="Layer_129">
<path id="Shape" fill-rule="evenodd" clip-rule="evenodd" d="M12.2067 5.04412C12.7067 5.34412 13.3333 5.74412 13.3333 6.41079C13.3333 7.07746 12.7067 7.47746 12.2067 7.72412C12.0514 7.81183 11.9022 7.90983 11.76 8.01746C11.8099 8.19801 11.8746 8.37416 11.9533 8.54412C11.959 8.55792 11.9648 8.5718 11.9705 8.58575C12.1877 9.11119 12.4497 9.74493 12.06 10.2775C11.66 10.8241 10.9467 10.7641 10.3667 10.7108C10.1825 10.6978 9.99755 10.6978 9.81333 10.7108C9.77043 10.8211 9.71625 11.0385 9.67671 11.1972C9.67324 11.2111 9.66989 11.2246 9.66667 11.2375C9.66445 11.2474 9.66223 11.2573 9.66 11.2673C9.53471 11.8287 9.38167 12.5144 8.72667 12.7175C8.62547 12.7508 8.51985 12.7688 8.41333 12.7708C7.9203 12.7039 7.46566 12.4683 7.12667 12.1041C6.98231 11.9731 6.82857 11.8528 6.66667 11.7441C6.50476 11.8528 6.35102 11.9731 6.20667 12.1041C5.77333 12.5108 5.25333 12.9775 4.60667 12.7708C3.96 12.5641 3.79333 11.8575 3.66667 11.2908C3.66345 11.2779 3.66009 11.2645 3.65663 11.2506C3.61709 11.0919 3.56291 10.8745 3.52 10.7641C3.33578 10.7512 3.15088 10.7512 2.96667 10.7641C2.38667 10.8175 1.66667 10.8708 1.27333 10.3308C0.884813 9.7974 1.15325 9.14692 1.3719 8.61709L1.38 8.59746C1.45876 8.42749 1.52342 8.25134 1.57333 8.07079C1.43115 7.96316 1.28193 7.86517 1.12667 7.77746C0.626667 7.47746 0 7.07746 0 6.41079C0 5.74412 0.626667 5.34412 1.12667 5.06412C1.28193 4.97641 1.43115 4.87841 1.57333 4.77079C1.52342 4.59023 1.45876 4.41409 1.38 4.24412C1.37431 4.23032 1.36857 4.21644 1.3628 4.20249C1.14563 3.67705 0.883683 3.04331 1.27333 2.51079C1.67333 1.96412 2.38667 2.02412 2.96667 2.07746C3.15088 2.09042 3.33578 2.09042 3.52 2.07746C3.56291 1.96712 3.61709 1.7497 3.65663 1.59102C3.66009 1.57712 3.66345 1.56367 3.66667 1.55079C3.79333 0.984122 3.98 0.290789 4.60667 0.084122C5.23213 -0.122149 5.77126 0.342337 6.20418 0.715309L6.20667 0.717455C6.35102 0.848506 6.50476 0.968826 6.66667 1.07746C6.82971 0.958149 6.98349 0.826662 7.12667 0.684122C7.13672 0.675464 7.14681 0.666755 7.15696 0.658006C7.58419 0.289505 8.095 -0.151085 8.72667 0.0507887C9.37333 0.257455 9.54 0.964122 9.66667 1.53079C9.66989 1.54368 9.67324 1.55713 9.67671 1.57103C9.71625 1.72971 9.77043 1.94712 9.81333 2.05746C9.99755 2.07042 10.1825 2.07042 10.3667 2.05746C10.9467 2.00412 11.6667 1.95079 12.06 2.49079C12.4485 3.02418 12.1801 3.67466 11.9614 4.20449L11.9533 4.22412C11.8746 4.39409 11.8099 4.57023 11.76 4.75079C11.9022 4.85841 12.0514 4.95641 12.2067 5.04412ZM6.52 8.49079L9.18667 5.15746C9.37835 4.86909 9.31736 4.48198 9.0463 4.26652C8.77524 4.05106 8.38435 4.07899 8.14667 4.33079L5.94667 7.07746L5.14 6.27079C4.87859 6.00937 4.45475 6.00937 4.19333 6.27079C3.93192 6.5322 3.93192 6.95604 4.19333 7.21746L5.52667 8.55079C5.65248 8.67558 5.8228 8.74515 6 8.74412H6.04C6.22869 8.73158 6.40317 8.63949 6.52 8.49079Z" fill="var(--fill-0, #4BB4E6)"/>
</g>
</svg>
