<svg preserveAspectRatio="none" width="100%" height="100%" overflow="visible" style="display: block;" viewBox="0 0 14 14" fill="none" xmlns="http://www.w3.org/2000/svg">
<g id="Layer_62">
<path id="Path" d="M13.3333 2C13.3333 1.63181 13.0349 1.33333 12.6667 1.33333V2.66667C13.0349 2.66667 13.3333 2.36819 13.3333 2Z" fill="var(--fill-0, #4BB4E6)"/>
<path id="Path_2" d="M0.666667 2.66667H7.33333V1.33333H0.666667C0.298477 1.33333 0 1.63181 0 2C0 2.36819 0.298477 2.66667 0.666667 2.66667Z" fill="var(--fill-0, #4BB4E6)"/>
<path id="Path_3" d="M12.6667 6H7.33333V7.33333H12.6667C13.0349 7.33333 13.3333 7.03486 13.3333 6.66667C13.3333 6.29848 13.0349 6 12.6667 6Z" fill="var(--fill-0, #4BB4E6)"/>
<path id="Path_4" d="M0.666667 7.33333H2V6H0.666667C0.298477 6 0 6.29848 0 6.66667C0 7.03486 0.298477 7.33333 0.666667 7.33333Z" fill="var(--fill-0, #4BB4E6)"/>
<path id="Path_5" d="M12.6667 10.6667H11.3333V12H12.6667C13.0349 12 13.3333 11.7015 13.3333 11.3333C13.3333 10.9651 13.0349 10.6667 12.6667 10.6667Z" fill="var(--fill-0, #4BB4E6)"/>
<path id="Path_6" d="M0 11.3333C0 11.7015 0.298477 12 0.666667 12H6V10.6667H0.666667C0.298477 10.6667 0 10.9651 0 11.3333Z" fill="var(--fill-0, #4BB4E6)"/>
<rect id="Rectangle" x="8" width="4" height="4" rx="2" fill="var(--fill-0, #4BB4E6)"/>
<rect id="Rectangle_2" x="2.66667" y="4.66667" width="4" height="4" rx="2" fill="var(--fill-0, #4BB4E6)"/>
<rect id="Rectangle_3" x="6.66667" y="9.33333" width="4" height="4" rx="2" fill="var(--fill-0, #4BB4E6)"/>
</g>
</svg>
