<svg preserveAspectRatio="none" width="100%" height="100%" overflow="visible" style="display: block;" viewBox="0 0 20 20" fill="none" xmlns="http://www.w3.org/2000/svg">
<g id="Layer_99">
<path id="Path" d="M20.0005 3.11268V10.8027C20.0063 11.7337 19.5999 12.6197 18.8905 13.2227C18.3587 13.6634 17.6911 13.9071 17.0005 13.9127C16.8341 13.9275 16.6668 13.9275 16.5005 13.9127L7.00047 12.2027V1.72268L16.5005 0.0426768C17.3541 -0.104584 18.229 0.133386 18.8905 0.692677C19.5966 1.29818 20.0022 2.18249 20.0005 3.11268V3.11268Z" fill="var(--fill-0, #4BB4E6)"/>
<path id="Path_2" d="M5.00047 2.07268V11.8527L4.00047 11.6727L3.00047 11.5027L2.50047 11.4127C1.94365 11.3218 1.42376 11.0757 1.00047 10.7027C0.351858 10.0904 -0.0107931 9.23455 0.000468651 8.34268V5.58268C-0.0255002 4.08691 1.03045 2.79021 2.50047 2.51268L5.00047 2.07268Z" fill="var(--fill-0, #4BB4E6)"/>
<path id="Path_3" d="M6.00047 12.0327V17.4727C6.00047 18.8534 4.88118 19.9727 3.50047 19.9727C2.11976 19.9727 1.00047 18.8534 1.00047 17.4727V10.9727C0.985171 10.8833 0.985171 10.792 1.00047 10.7027C1.41263 11.069 1.9178 11.3147 2.46047 11.4127L2.96047 11.5027L3.96047 11.6727L6.00047 12.0327Z" fill="var(--fill-0, #4BB4E6)"/>
</g>
</svg>
