<svg preserveAspectRatio="none" width="100%" height="100%" overflow="visible" style="display: block;" viewBox="0 0 19 28" fill="none" xmlns="http://www.w3.org/2000/svg">
<g id="Layer_103">
<path id="Path" d="M18.4314 14.7424C18.5803 15.419 18.1863 16.0969 17.5247 16.3024L14.5647 17.2357L13.3514 17.6224L11.8981 18.9557L10.1381 20.5824C9.88685 20.8024 9.56529 20.9253 9.2314 20.9291C8.89635 20.9315 8.57266 20.8078 8.32473 20.5824L6.56473 18.9557L5.1114 17.6224L3.89806 17.2357L0.938063 16.3024C0.276459 16.0969 -0.117553 15.419 0.0313963 14.7424L0.978063 10.4757L0.0313963 6.20905C-0.117553 5.53247 0.276459 4.85454 0.938063 4.64905L5.1114 3.31572L8.32473 0.355717C8.83613 -0.118572 9.62666 -0.118572 10.1381 0.355717L13.3514 3.31572L17.5247 4.64905C18.1863 4.85454 18.5803 5.53247 18.4314 6.20905L17.4847 10.4757L18.4314 14.7424Z" fill="var(--fill-0, #4BB4E6)"/>
<path id="Path_2" d="M14.5647 18.6357V26.4757C14.5634 26.9672 14.2919 27.4181 13.8581 27.649C13.4337 27.8669 12.9252 27.8415 12.5247 27.5824L9.2314 25.409L5.96473 27.5824C5.55621 27.8514 5.03318 27.8752 4.60196 27.6443C4.17074 27.4134 3.90058 26.9649 3.89806 26.4757V18.6357L4.4314 18.809L7.4314 21.5824C8.45229 22.5227 10.0238 22.5227 11.0447 21.5824L14.0314 18.8357L14.5647 18.6357Z" fill="var(--fill-0, #4BB4E6)"/>
</g>
</svg>
