<svg preserveAspectRatio="none" width="100%" height="100%" overflow="visible" style="display: block;" viewBox="0 0 12 12" fill="none" xmlns="http://www.w3.org/2000/svg">
<g id="Layer_80">
<path id="Path" d="M9.33335 1.75V5.83333C9.33335 6.79983 8.54985 7.58333 7.58335 7.58333H4.85919L3.61669 8.51667L2.68335 9.21667C2.58238 9.2924 2.45957 9.33333 2.33335 9.33333C2.24178 9.33495 2.15135 9.31284 2.07085 9.26917C1.87469 9.17032 1.75069 8.96966 1.75002 8.75V7.58333C0.783522 7.58333 2.03848e-05 6.79983 2.03848e-05 5.83333V1.75C2.03848e-05 0.783502 0.783522 0 1.75002 0H7.58335C8.54985 0 9.33335 0.783502 9.33335 1.75Z" fill="var(--fill-0, #4BB4E6)"/>
<path id="Path_2" d="M11.6667 4.08333V8.16667C11.6667 9.13316 10.8832 9.91667 9.91669 9.91667V11.0833C9.91602 11.303 9.79202 11.5037 9.59585 11.6025C9.51535 11.6462 9.42492 11.6683 9.33335 11.6667C9.20714 11.6667 9.08433 11.6257 8.98335 11.55L6.80752 9.91667H4.08335C3.73831 9.91513 3.40141 9.81163 3.11502 9.61917L5.05169 8.16667H7.58335C8.87202 8.16667 9.91669 7.122 9.91669 5.83333V2.33333C10.8832 2.33333 11.6667 3.11683 11.6667 4.08333Z" fill="var(--fill-0, #4BB4E6)"/>
</g>
</svg>
