<svg preserveAspectRatio="none" width="100%" height="100%" overflow="visible" style="display: block;" viewBox="0 0 14 14" fill="none" xmlns="http://www.w3.org/2000/svg">
<g id="Layer_11">
<path id="Shape" fill-rule="evenodd" clip-rule="evenodd" d="M2 0H11.3333C12.4379 0 13.3333 0.89543 13.3333 2V11.3333C13.3333 12.4379 12.4379 13.3333 11.3333 13.3333H2C0.89543 13.3333 0 12.4379 0 11.3333V2C0 0.89543 0.89543 0 2 0ZM7.14 10.4733L9.80667 7.80667C10.0681 7.54525 10.0681 7.12141 9.80667 6.86C9.54525 6.59859 9.12142 6.59859 8.86 6.86L7.33333 8.39333V3.33333C7.33333 2.96514 7.03486 2.66667 6.66667 2.66667C6.29848 2.66667 6 2.96514 6 3.33333V8.39333L4.47333 6.86C4.30423 6.69089 4.05775 6.62485 3.82675 6.68675C3.59575 6.74865 3.41531 6.92908 3.35341 7.16008C3.29152 7.39108 3.35756 7.63756 3.52667 7.80667L6.19333 10.4733C6.25674 10.534 6.3315 10.5816 6.41333 10.6133C6.57469 10.6847 6.75864 10.6847 6.92 10.6133C7.00183 10.5816 7.0766 10.534 7.14 10.4733Z" fill="var(--fill-0, #4BB4E6)"/>
</g>
</svg>
