<svg preserveAspectRatio="none" width="100%" height="100%" overflow="visible" style="display: block;" viewBox="0 0 12 10" fill="none" xmlns="http://www.w3.org/2000/svg">
<g id="Layer_87">
<path id="Shape" fill-rule="evenodd" clip-rule="evenodd" d="M11.6667 2.91667C11.6667 3.23883 11.4055 3.5 11.0833 3.5C10.439 3.5 9.91667 4.02234 9.91667 4.66667C9.91667 5.311 10.439 5.83333 11.0833 5.83333C11.4055 5.83333 11.6667 6.0945 11.6667 6.41667V7.58333C11.6667 8.54983 10.8832 9.33333 9.91667 9.33333H7.58333V7.58333C7.58333 7.26117 7.32217 7 7 7C6.67783 7 6.41667 7.26117 6.41667 7.58333V9.33333H1.75C0.783502 9.33333 0 8.54983 0 7.58333V6.41667C0 6.0945 0.261167 5.83333 0.583333 5.83333C1.22767 5.83333 1.75 5.311 1.75 4.66667C1.75 4.02234 1.22767 3.5 0.583333 3.5C0.261167 3.5 0 3.23883 0 2.91667V1.75C0 0.783502 0.783502 0 1.75 0H6.41667V1.75C6.41667 2.07217 6.67783 2.33333 7 2.33333C7.32217 2.33333 7.58333 2.07217 7.58333 1.75V0H9.91667C10.8832 0 11.6667 0.783502 11.6667 1.75V2.91667ZM7 5.83333C7.32217 5.83333 7.58333 5.57217 7.58333 5.25V4.08333C7.58333 3.76117 7.32217 3.5 7 3.5C6.67783 3.5 6.41667 3.76117 6.41667 4.08333V5.25C6.41667 5.57217 6.67783 5.83333 7 5.83333Z" fill="var(--fill-0, #4BB4E6)"/>
</g>
</svg>
