<svg preserveAspectRatio="none" width="100%" height="100%" overflow="visible" style="display: block;" viewBox="0 0 14 14" fill="none" xmlns="http://www.w3.org/2000/svg">
<g id="Layer_52">
<path id="Path" d="M10 8H6.66667C5.93029 8 5.33333 7.40305 5.33333 6.66667C5.33333 5.93029 5.93029 5.33333 6.66667 5.33333H10C10.0015 4.98028 10.1429 4.64223 10.3933 4.39333C10.4734 4.31099 10.5656 4.2413 10.6667 4.18667V2C10.6667 0.89543 9.77124 0 8.66667 0H2C0.89543 0 0 0.89543 0 2V11.3333C0 12.4379 0.89543 13.3333 2 13.3333H8.66667C9.77124 13.3333 10.6667 12.4379 10.6667 11.3333V9.14667C10.566 9.09144 10.4739 9.02182 10.3933 8.94C10.1429 8.6911 10.0015 8.35305 10 8V8Z" fill="var(--fill-0, #4BB4E6)"/>
<path id="Path_2" d="M13.14 6.19333L11.8067 4.86C11.5453 4.59859 11.1214 4.59859 10.86 4.86C10.5986 5.12141 10.5986 5.54525 10.86 5.80667L11.06 6H6.66667C6.29848 6 6 6.29848 6 6.66667C6 7.03486 6.29848 7.33333 6.66667 7.33333H11.06L10.86 7.52667C10.7338 7.65184 10.6628 7.82224 10.6628 8C10.6628 8.17776 10.7338 8.34816 10.86 8.47333C10.9852 8.59954 11.1556 8.67053 11.3333 8.67053C11.5111 8.67053 11.6815 8.59954 11.8067 8.47333L13.14 7.14C13.2662 7.01482 13.3372 6.84443 13.3372 6.66667C13.3372 6.48891 13.2662 6.31851 13.14 6.19333Z" fill="var(--fill-0, #4BB4E6)"/>
</g>
</svg>
