<svg preserveAspectRatio="none" width="100%" height="100%" overflow="visible" style="display: block;" viewBox="0 0 14 14" fill="none" xmlns="http://www.w3.org/2000/svg">
<g id="Layer_70">
<circle id="Oval" cx="6.66667" cy="6.66667" r="3.33333" fill="var(--fill-0, #4BB4E6)"/>
<path id="Shape" fill-rule="evenodd" clip-rule="evenodd" d="M0 6.66667C0 2.98477 2.98477 0 6.66667 0C8.43478 0 10.1305 0.702379 11.3807 1.95262C12.631 3.20286 13.3333 4.89856 13.3333 6.66667C13.3333 10.3486 10.3486 13.3333 6.66667 13.3333C2.98477 13.3333 0 10.3486 0 6.66667ZM2 6.66667C2 9.244 4.08934 11.3333 6.66667 11.3333C9.244 11.3333 11.3333 9.244 11.3333 6.66667C11.3333 4.08934 9.244 2 6.66667 2C4.08934 2 2 4.08934 2 6.66667Z" fill="var(--fill-0, #4BB4E6)"/>
</g>
</svg>
