<svg preserveAspectRatio="none" width="100%" height="100%" overflow="visible" style="display: block;" viewBox="0 0 18 16" fill="none" xmlns="http://www.w3.org/2000/svg">
<path id="Vector" d="M2.70666 0.280712C2.51806 0.0985537 2.26546 -0.00224062 2.00326 3.78026e-05C1.74107 0.00231622 1.49025 0.107485 1.30485 0.292893C1.11944 0.478301 1.01427 0.729114 1.01199 0.99131C1.00971 1.25351 1.11051 1.50611 1.29266 1.69471L8.21366 8.61671C8.26366 8.67871 8.31866 8.73471 8.38166 8.78371L15.2917 15.6947C15.3845 15.7876 15.4947 15.8613 15.6161 15.9116C15.7374 15.962 15.8675 15.9879 15.9988 15.9879C16.1302 15.988 16.2602 15.9621 16.3816 15.9119C16.503 15.8617 16.6133 15.7881 16.7062 15.6952C16.7991 15.6024 16.8728 15.4921 16.9231 15.3708C16.9734 15.2495 16.9993 15.1194 16.9994 14.9881C16.9994 14.8567 16.9736 14.7266 16.9234 14.6053C16.8731 14.4839 16.7995 14.3736 16.7067 14.2807L16.0317 13.6057C17.4133 11.8759 18.1091 9.69759 17.9858 7.48715C17.8626 5.2767 16.9291 3.18921 15.3637 1.62371C15.2714 1.5282 15.1611 1.45202 15.0391 1.39961C14.9171 1.3472 14.7858 1.31962 14.6531 1.31846C14.5203 1.31731 14.3886 1.34261 14.2657 1.39289C14.1428 1.44317 14.0312 1.51742 13.9373 1.61132C13.8434 1.70521 13.7691 1.81686 13.7188 1.93976C13.6686 2.06265 13.6433 2.19433 13.6444 2.32711C13.6456 2.45989 13.6732 2.59111 13.7256 2.71312C13.778 2.83512 13.8542 2.94547 13.9497 3.03771C15.14 4.22816 15.8616 5.80762 15.9822 7.48676C16.1029 9.1659 15.6146 10.8323 14.6067 12.1807L13.1717 10.7457C13.8071 9.78397 14.0909 8.63227 13.975 7.4854C13.8591 6.33853 13.3507 5.26689 12.5357 4.45171C12.3479 4.26394 12.0932 4.15845 11.8277 4.15845C11.5621 4.15845 11.3074 4.26394 11.1197 4.45171C10.9319 4.63949 10.8264 4.89416 10.8264 5.15971C10.8264 5.42526 10.9319 5.67994 11.1197 5.86771C12.0437 6.79071 12.2397 8.16771 11.7067 9.28271L9.71466 7.29071C9.70875 7.28463 9.70275 7.27863 9.69666 7.27271L2.70666 0.281712V0.280712ZM2.23766 6.17471C2.30609 5.91838 2.26989 5.64536 2.13702 5.41573C2.00415 5.18609 1.7855 5.01864 1.52916 4.95021C1.27283 4.88179 0.999817 4.91799 0.770179 5.05086C0.54054 5.18373 0.37309 5.40238 0.304664 5.65871C-0.495336 8.65871 0.279664 11.9947 2.63566 14.3517C2.72857 14.4446 2.83886 14.5182 2.96023 14.5684C3.0816 14.6186 3.21167 14.6445 3.34302 14.6444C3.47437 14.6444 3.60442 14.6185 3.72575 14.5681C3.84708 14.5178 3.95732 14.4441 4.05016 14.3512C4.14301 14.2583 4.21664 14.148 4.26687 14.0266C4.31709 13.9053 4.34291 13.7752 4.34287 13.6439C4.34282 13.5125 4.3169 13.3825 4.2666 13.2611C4.21629 13.1398 4.14257 13.0296 4.04966 12.9367C3.18041 12.068 2.55528 10.9857 2.23719 9.79862C1.9191 8.61157 1.91926 7.36168 2.23766 6.17471V6.17471ZM6.39966 9.48771C6.33715 9.36821 6.25111 9.26258 6.14671 9.17719C6.04232 9.0918 5.92173 9.02841 5.7922 8.99084C5.66267 8.95326 5.52688 8.94227 5.393 8.95853C5.25911 8.9748 5.1299 9.01797 5.01314 9.08547C4.89637 9.15296 4.79446 9.24338 4.71355 9.35128C4.63263 9.45918 4.57438 9.58233 4.54229 9.71333C4.51021 9.84432 4.50495 9.98046 4.52684 10.1135C4.54873 10.2466 4.59731 10.3739 4.66966 10.4877C4.88366 10.8587 5.14966 11.2077 5.46466 11.5227C5.65327 11.7049 5.90587 11.8057 6.16807 11.8034C6.43026 11.8011 6.68107 11.6959 6.86648 11.5105C7.05189 11.3251 7.15706 11.0743 7.15934 10.8121C7.16162 10.5499 7.06082 10.2973 6.87866 10.1087C6.68766 9.91771 6.52866 9.70871 6.40066 9.48671L6.39966 9.48771Z" fill="var(--fill-0, #111928)"/>
</svg>
