<svg preserveAspectRatio="none" width="100%" height="100%" overflow="visible" style="display: block;" viewBox="0 0 13 13" fill="none" xmlns="http://www.w3.org/2000/svg">
<path id="Vector" fill-rule="evenodd" clip-rule="evenodd" d="M11.7193 0.292787C11.9068 0.480314 12.0121 0.734622 12.0121 0.999786C12.0121 1.26495 11.9068 1.51926 11.7193 1.70679L6.71929 6.70679C6.53176 6.89426 6.27745 6.99957 6.01229 6.99957C5.74712 6.99957 5.49282 6.89426 5.30529 6.70679L0.305288 1.70679C0.12313 1.51818 0.0223355 1.26558 0.0246139 1.00339C0.0268924 0.741188 0.132062 0.490376 0.31747 0.304968C0.502878 0.11956 0.75369 0.0143906 1.01589 0.0121121C1.27808 0.00983372 1.53069 0.110629 1.71929 0.292787L6.01229 4.58579L10.3053 0.292787C10.4928 0.105316 10.7471 0 11.0123 0C11.2775 0 11.5318 0.105316 11.7193 0.292787ZM11.7193 6.29279C11.9068 6.48031 12.0121 6.73462 12.0121 6.99979C12.0121 7.26495 11.9068 7.51926 11.7193 7.70679L6.71929 12.7068C6.53176 12.8943 6.27745 12.9996 6.01229 12.9996C5.74712 12.9996 5.49282 12.8943 5.30529 12.7068L0.305288 7.70679C0.209778 7.61454 0.133596 7.50419 0.0811869 7.38219C0.0287779 7.26019 0.00119157 7.12897 3.7757e-05 6.99619C-0.00111606 6.86341 0.0241854 6.73173 0.0744663 6.60883C0.124747 6.48594 0.199 6.37428 0.292893 6.28039C0.386786 6.1865 0.498438 6.11225 0.621334 6.06196C0.74423 6.01168 0.87591 5.98638 1.00869 5.98754C1.14147 5.98869 1.27269 6.01628 1.39469 6.06868C1.5167 6.12109 1.62704 6.19728 1.71929 6.29279L6.01229 10.5858L10.3053 6.29279C10.4928 6.10532 10.7471 6 11.0123 6C11.2775 6 11.5318 6.10532 11.7193 6.29279V6.29279Z" fill="var(--fill-0, #111928)"/>
</svg>
