<svg preserveAspectRatio="none" width="100%" height="100%" overflow="visible" style="display: block;" viewBox="0 0 11 14" fill="none" xmlns="http://www.w3.org/2000/svg">
<g id="Layer_100">
<path id="Path" d="M5.33333 9.33333C7.17428 9.33333 8.66667 7.84095 8.66667 6V3.33333C8.66667 1.49238 7.17428 0 5.33333 0C3.49238 0 2 1.49238 2 3.33333V6C2 7.84095 3.49238 9.33333 5.33333 9.33333V9.33333Z" fill="var(--fill-0, #4BB4E6)"/>
<path id="Path_2" d="M10 5.33333C9.63181 5.33333 9.33333 5.63181 9.33333 6C9.33333 8.20914 7.54247 10 5.33333 10C3.12419 10 1.33333 8.20914 1.33333 6C1.33333 5.63181 1.03486 5.33333 0.666667 5.33333C0.298477 5.33333 0 5.63181 0 6C0 8.94552 2.38781 11.3333 5.33333 11.3333C8.27885 11.3333 10.6667 8.94552 10.6667 6C10.6667 5.63181 10.3682 5.33333 10 5.33333Z" fill="var(--fill-0, #4BB4E6)"/>
<path id="Path_3" d="M7.33333 12H3.33333C2.96514 12 2.66667 12.2985 2.66667 12.6667C2.66667 13.0349 2.96514 13.3333 3.33333 13.3333H7.33333C7.70152 13.3333 8 13.0349 8 12.6667C8 12.2985 7.70152 12 7.33333 12Z" fill="var(--fill-0, #4BB4E6)"/>
</g>
</svg>
