<svg preserveAspectRatio="none" width="100%" height="100%" overflow="visible" style="display: block;" viewBox="0 0 24 21" fill="none" xmlns="http://www.w3.org/2000/svg">
<path id="Vector" d="M18.9281 0.11511C19.4906 -0.119265 20.1328 0.0119844 20.5641 0.438547L23.5641 3.43855C23.8453 3.7198 24.0047 4.09948 24.0047 4.49792C24.0047 4.89636 23.8453 5.27605 23.5641 5.5573L20.5641 8.5573C20.1328 8.98855 19.4906 9.11511 18.9281 8.88073C18.3656 8.64636 18 8.10261 18 7.49323V6.00261H16.5C16.0266 6.00261 15.5812 6.22292 15.3 6.60261L13.3125 9.25105L11.4375 6.75261L12.9 4.80261C13.7484 3.66823 15.0844 3.00261 16.5 3.00261H18V1.50261C18 0.897922 18.3656 0.349485 18.9281 0.11511ZM7.6875 11.7542L9.5625 14.2526L8.1 16.2026C7.25156 17.337 5.91563 18.0026 4.5 18.0026H1.5C0.670312 18.0026 0 17.3323 0 16.5026C0 15.6729 0.670312 15.0026 1.5 15.0026H4.5C4.97344 15.0026 5.41875 14.7823 5.7 14.4026L7.6875 11.7542ZM20.5594 20.5667C20.1281 20.9979 19.4859 21.1245 18.9234 20.8901C18.3609 20.6557 17.9953 20.112 17.9953 19.5026V18.0026H16.5C15.0844 18.0026 13.7484 17.337 12.9 16.2026L5.7 6.60261C5.41875 6.22292 4.97344 6.00261 4.5 6.00261H1.5C0.670312 6.00261 0 5.3323 0 4.50261C0 3.67292 0.670312 3.00261 1.5 3.00261H4.5C5.91563 3.00261 7.25156 3.66823 8.1 4.80261L15.3 14.4026C15.5812 14.7823 16.0266 15.0026 16.5 15.0026H18V13.5026C18 12.8979 18.3656 12.3495 18.9281 12.1151C19.4906 11.8807 20.1328 12.012 20.5641 12.4385L23.5641 15.4385C23.8453 15.7198 24.0047 16.0995 24.0047 16.4979C24.0047 16.8964 23.8453 17.276 23.5641 17.5573L20.5641 20.5573L20.5594 20.5667Z" fill="var(--fill-0, #1F2A37)"/>
</svg>
