<svg preserveAspectRatio="none" width="100%" height="100%" overflow="visible" style="display: block;" viewBox="0 0 13 13" fill="none" xmlns="http://www.w3.org/2000/svg">
<path id="Vector" fill-rule="evenodd" clip-rule="evenodd" d="M8.50812 2.02948C8.65572 1.87666 8.83227 1.75477 9.02748 1.67092C9.22268 1.58706 9.43263 1.54292 9.64508 1.54108C9.85753 1.53923 10.0682 1.57971 10.2648 1.66016C10.4615 1.74061 10.6401 1.85942 10.7904 2.00965C10.9406 2.15987 11.0594 2.33852 11.1398 2.53515C11.2203 2.73179 11.2608 2.94247 11.2589 3.15492C11.2571 3.36737 11.2129 3.57732 11.1291 3.77253C11.0452 3.96773 10.9233 4.14428 10.7705 4.29188L8.37052 6.69188C8.07048 6.99183 7.66358 7.16034 7.23932 7.16034C6.81506 7.16034 6.40817 6.99183 6.10812 6.69188C5.95724 6.54615 5.75516 6.46552 5.5454 6.46734C5.33564 6.46916 5.13499 6.5533 4.98667 6.70162C4.83834 6.84995 4.75421 7.0506 4.75238 7.26036C4.75056 7.47011 4.8312 7.6722 4.97692 7.82308C5.57701 8.42299 6.3908 8.75999 7.23932 8.75999C8.08785 8.75999 8.90163 8.42299 9.50172 7.82308L11.9017 5.42308C12.4846 4.81955 12.8072 4.01122 12.7999 3.17219C12.7926 2.33316 12.456 1.53056 11.8627 0.937259C11.2694 0.343953 10.4668 0.00741191 9.62781 0.000120968C8.78878 -0.00716997 7.98045 0.315372 7.37692 0.898278L6.17692 2.09828C6.10051 2.17208 6.03957 2.26035 5.99764 2.35795C5.95571 2.45556 5.93365 2.56053 5.93272 2.66676C5.9318 2.77298 5.95204 2.87832 5.99227 2.97664C6.03249 3.07496 6.09189 3.16428 6.16701 3.23939C6.24212 3.31451 6.33144 3.37391 6.42976 3.41414C6.52808 3.45436 6.63342 3.4746 6.73964 3.47368C6.84587 3.47276 6.95084 3.45069 7.04845 3.40876C7.14605 3.36683 7.23432 3.30589 7.30812 3.22948L8.50812 2.02948V2.02948ZM4.50812 6.02948C4.80817 5.72952 5.21506 5.56102 5.63932 5.56102C6.06359 5.56102 6.47048 5.72952 6.77052 6.02948C6.84432 6.10589 6.9326 6.16683 7.0302 6.20876C7.1278 6.25069 7.23278 6.27276 7.339 6.27368C7.44522 6.2746 7.55057 6.25436 7.64889 6.21414C7.7472 6.17391 7.83652 6.11451 7.91164 6.03939C7.98675 5.96428 8.04615 5.87496 8.08638 5.77664C8.1266 5.67832 8.14685 5.57298 8.14592 5.46676C8.145 5.36053 8.12293 5.25556 8.081 5.15795C8.03908 5.06035 7.97813 4.97208 7.90172 4.89828C7.30163 4.29837 6.48785 3.96136 5.63932 3.96136C4.7908 3.96136 3.97701 4.29837 3.37692 4.89828L0.976922 7.29828C0.67129 7.59347 0.427507 7.94657 0.259798 8.33698C0.0920891 8.7274 0.00381303 9.1473 0.000120822 9.57219C-0.00357139 9.99709 0.0773941 10.4185 0.238293 10.8117C0.399192 11.205 0.636802 11.5623 0.937258 11.8627C1.23772 12.1632 1.595 12.4008 1.98827 12.5617C2.38154 12.7226 2.80291 12.8036 3.22781 12.7999C3.6527 12.7962 4.0726 12.7079 4.46302 12.5402C4.85343 12.3725 5.20653 12.1287 5.50172 11.8231L6.70172 10.6231C6.77813 10.5493 6.83908 10.461 6.881 10.3634C6.92293 10.2658 6.945 10.1608 6.94592 10.0546C6.94685 9.94838 6.9266 9.84303 6.88638 9.74472C6.84615 9.6464 6.78675 9.55708 6.71164 9.48196C6.63652 9.40685 6.5472 9.34745 6.44889 9.30722C6.35057 9.267 6.24522 9.24675 6.139 9.24768C6.03278 9.2486 5.9278 9.27067 5.8302 9.3126C5.7326 9.35452 5.64432 9.41547 5.57052 9.49188L4.37052 10.6919C4.22293 10.8447 4.04638 10.9666 3.85117 11.0504C3.65596 11.1343 3.44601 11.1784 3.23356 11.1803C3.02112 11.1821 2.81043 11.1416 2.6138 11.0612C2.41716 10.9807 2.23852 10.8619 2.08829 10.7117C1.93806 10.5615 1.81926 10.3828 1.73881 10.1862C1.65836 9.98957 1.61788 9.77888 1.61972 9.56644C1.62157 9.35399 1.66571 9.14404 1.74956 8.94883C1.83341 8.75362 1.95531 8.57707 2.10812 8.42948L4.50812 6.02948Z" fill="var(--fill-0, #29292C)"/>
</svg>
