<svg preserveAspectRatio="none" width="100%" height="100%" overflow="visible" style="display: block;" viewBox="0 0 14 14" fill="none" xmlns="http://www.w3.org/2000/svg">
<g id="Layer_106">
<path id="Shape" fill-rule="evenodd" clip-rule="evenodd" d="M1.92667 0.000309669H10.74C11.7806 -0.0183263 12.6412 0.806494 12.6667 1.84698V5.84698C12.3638 5.5473 12.0205 5.29149 11.6467 5.08698C9.90254 4.15803 7.76859 4.38436 6.25813 5.65849C4.74766 6.93263 4.16494 8.99791 4.78667 10.8736C4.91565 11.2728 5.09964 11.652 5.33333 12.0003H1.92667C0.883497 12.0189 0.0218765 11.1901 0 10.147V1.85364C0.0218765 0.810537 0.883497 -0.0182883 1.92667 0.000309669ZM3.33333 4.00031H9.33333C9.70152 4.00031 10 3.70183 10 3.33364C10 2.96545 9.70152 2.66698 9.33333 2.66698H3.33333C2.96514 2.66698 2.66667 2.96545 2.66667 3.33364C2.66667 3.70183 2.96514 4.00031 3.33333 4.00031Z" fill="var(--fill-0, #4BB4E6)"/>
<path id="Path" d="M6.12 12.0003C5.79384 11.606 5.54504 11.1536 5.38667 10.667L6.12 12.0003Z" fill="var(--fill-0, #4BB4E6)"/>
<path id="Path_2" d="M12.6667 6.82031L11.3333 5.67364C11.8541 5.95699 12.3086 6.34786 12.6667 6.82031V6.82031Z" fill="var(--fill-0, #4BB4E6)"/>
<path id="Path_3" d="M5.38667 10.667L6.12 12.0003C5.79384 11.606 5.54504 11.1536 5.38667 10.667H5.38667Z" fill="var(--fill-0, #4BB4E6)"/>
<path id="Path_4" d="M12.6667 6.82031L11.3333 5.67364C11.8541 5.95699 12.3086 6.34786 12.6667 6.82031V6.82031Z" fill="var(--fill-0, #4BB4E6)"/>
<path id="Shape_2" fill-rule="evenodd" clip-rule="evenodd" d="M11.3333 5.67364L12.6667 6.82031C12.3086 6.34786 11.8541 5.95699 11.3333 5.67364ZM5.38667 10.667C5.54504 11.1536 5.79384 11.606 6.12 12.0003L5.38667 10.667Z" fill="var(--fill-0, #4BB4E6)"/>
<path id="Shape_3" fill-rule="evenodd" clip-rule="evenodd" d="M11.3333 5.67364L12.6667 6.82031C13.2148 7.54286 13.5078 8.42676 13.5 9.33364C13.506 11.0941 12.405 12.6683 10.7493 13.2666C9.09367 13.8648 7.24067 13.358 6.12 12.0003L5.38667 10.667C4.95719 9.39544 5.1665 7.99487 5.94896 6.90445C6.73142 5.81403 7.99122 5.16727 9.33333 5.16698C10.0317 5.16778 10.7189 5.34188 11.3333 5.67364ZM11.3344 9.4932C11.3392 9.52205 11.3389 9.55155 11.3333 9.58031C11.3008 9.65977 11.2533 9.73221 11.1933 9.79364L9.86 11.127C9.73482 11.2532 9.56442 11.3242 9.38667 11.3242C9.20891 11.3242 9.03851 11.2532 8.91333 11.127C8.78713 11.0018 8.71613 10.8314 8.71613 10.6536C8.71613 10.4759 8.78713 10.3055 8.91333 10.1803L9.10667 9.98698H8C7.63181 9.98698 7.33333 9.6885 7.33333 9.32031C7.33333 8.95212 7.63181 8.65364 8 8.65364H9.05333L8.86 8.46031C8.59859 8.19889 8.59859 7.77506 8.86 7.51364C9.12141 7.25223 9.54525 7.25223 9.80667 7.51364L11.14 8.84698C11.2 8.90841 11.2475 8.98085 11.28 9.06031C11.2859 9.09114 11.2859 9.12282 11.28 9.15364C11.3329 9.25851 11.3519 9.37716 11.3344 9.4932Z" fill="var(--fill-0, #4BB4E6)"/>
</g>
</svg>
