<svg preserveAspectRatio="none" width="100%" height="100%" overflow="visible" style="display: block;" viewBox="0 0 14 14" fill="none" xmlns="http://www.w3.org/2000/svg">
<g id="Layer_93">
<path id="Path" d="M11.3333 2H10.6667V0.666667C10.6667 0.298477 10.3682 0 10 0C9.63181 0 9.33333 0.298477 9.33333 0.666667V2H4V0.666667C4 0.298477 3.70152 0 3.33333 0C2.96514 0 2.66667 0.298477 2.66667 0.666667V2H2C0.89543 2 0 2.89543 0 4V4.66667H13.3333V4C13.3333 2.89543 12.4379 2 11.3333 2Z" fill="var(--fill-0, #4BB4E6)"/>
<path id="Path_2" d="M0 11.3333C0 12.4379 0.89543 13.3333 2 13.3333H11.3333C12.4379 13.3333 13.3333 12.4379 13.3333 11.3333V6H0V11.3333Z" fill="var(--fill-0, #4BB4E6)"/>
</g>
</svg>
