<svg preserveAspectRatio="none" width="100%" height="100%" overflow="visible" style="display: block;" viewBox="0 0 27 21" fill="none" xmlns="http://www.w3.org/2000/svg">
<g id="Layer_57">
<circle id="Oval" cx="13.3386" cy="10.3333" r="6.66667" fill="var(--fill-0, #4BB4E6)"/>
<path id="Shape" fill-rule="evenodd" clip-rule="evenodd" d="M13.3386 0C18.3653 0 23.0453 3.44 26.512 9.68C26.7501 10.0925 26.7501 10.6008 26.512 11.0133C23.0453 17.2533 18.3653 20.6933 13.3386 20.6933C8.31197 20.6933 3.6453 17.2533 0.178633 11.0133C-0.0595443 10.6008 -0.0595443 10.0925 0.178633 9.68C3.6453 3.44 8.31197 0 13.3386 0ZM4.0053 10.3333C4.0053 15.488 8.18398 19.6667 13.3386 19.6667C18.4933 19.6667 22.672 15.488 22.672 10.3333C22.672 5.17868 18.4933 1 13.3386 1C8.18398 1 4.0053 5.17868 4.0053 10.3333Z" fill="var(--fill-0, #4BB4E6)"/>
</g>
</svg>
