<svg preserveAspectRatio="none" width="100%" height="100%" overflow="visible" style="display: block;" viewBox="0 0 14 14" fill="none" xmlns="http://www.w3.org/2000/svg">
<g id="Layer_46">
<path id="Shape" fill-rule="evenodd" clip-rule="evenodd" d="M2 0H11.3333C12.4379 0 13.3333 0.89543 13.3333 2V11.3333C13.3333 12.4379 12.4379 13.3333 11.3333 13.3333H2C0.89543 13.3333 0 12.4379 0 11.3333V2C0 0.89543 0.89543 0 2 0ZM5.5 9.75333L10.4733 4.46C10.699 4.19841 10.6874 3.80778 10.4467 3.56C10.3215 3.43379 10.1511 3.3628 9.97333 3.3628C9.79558 3.3628 9.62518 3.43379 9.5 3.56L5.01333 8.33333L3.84 7.08667C3.68203 6.89339 3.42933 6.80455 3.18516 6.85647C2.941 6.90838 2.7463 7.09234 2.68063 7.33317C2.61496 7.57399 2.68932 7.83133 2.87333 8L4.52667 9.75333C4.65347 9.88636 4.82956 9.96113 5.01333 9.96C5.19711 9.96113 5.3732 9.88636 5.5 9.75333Z" fill="var(--fill-0, #4BB4E6)"/>
</g>
</svg>
