<svg preserveAspectRatio="none" width="100%" height="100%" overflow="visible" style="display: block;" viewBox="0 0 16 10" fill="none" xmlns="http://www.w3.org/2000/svg">
<path id="Vector" fill-rule="evenodd" clip-rule="evenodd" d="M9.98771 7.98771C9.7225 7.98771 9.46814 8.09307 9.28061 8.28061C9.09307 8.46814 8.98771 8.7225 8.98771 8.98771C8.98771 9.25293 9.09307 9.50728 9.28061 9.69482C9.46814 9.88235 9.7225 9.98771 9.98771 9.98771H14.9877C15.2529 9.98771 15.5073 9.88235 15.6948 9.69482C15.8824 9.50728 15.9877 9.25293 15.9877 8.98771V3.98771C15.9877 3.7225 15.8824 3.46814 15.6948 3.28061C15.5073 3.09307 15.2529 2.98771 14.9877 2.98771C14.7225 2.98771 14.4681 3.09307 14.2806 3.28061C14.0931 3.46814 13.9877 3.7225 13.9877 3.98771V6.57371L9.69471 2.28071C9.50718 2.09324 9.25288 1.98793 8.98771 1.98793C8.72255 1.98793 8.46824 2.09324 8.28071 2.28071L5.98771 4.57371L1.69471 0.280712C1.50611 0.0985542 1.25351 -0.00224062 0.99131 3.78025e-05C0.729114 0.00231622 0.478301 0.107485 0.292893 0.292894C0.107485 0.478302 0.00231622 0.729114 3.78026e-05 0.991311C-0.00224062 1.25351 0.0985537 1.50611 0.280712 1.69471L5.28071 6.69471C5.46824 6.88218 5.72255 6.9875 5.98771 6.9875C6.25288 6.9875 6.50718 6.88218 6.69471 6.69471L8.98771 4.40171L12.5737 7.98771H9.98771Z" fill="var(--fill-0, #111928)"/>
</svg>
