<svg preserveAspectRatio="none" width="100%" height="100%" overflow="visible" style="display: block;" viewBox="0 0 14 14" fill="none" xmlns="http://www.w3.org/2000/svg">
<g id="Layer_31">
<path id="Path" d="M13.14 12.1933L9.54 8.6C10.2713 7.6683 10.6681 6.51777 10.6667 5.33333C10.6667 2.38781 8.27885 0 5.33333 0C2.38781 0 0 2.38781 0 5.33333C0 8.27885 2.38781 10.6667 5.33333 10.6667C6.51777 10.6681 7.6683 10.2713 8.6 9.54L12.1933 13.14C12.3185 13.2662 12.4889 13.3372 12.6667 13.3372C12.8444 13.3372 13.0148 13.2662 13.14 13.14C13.2662 13.0148 13.3372 12.8444 13.3372 12.6667C13.3372 12.4889 13.2662 12.3185 13.14 12.1933Z" fill="var(--fill-0, #4BB4E6)"/>
</g>
</svg>
