<svg preserveAspectRatio="none" width="100%" height="100%" overflow="visible" style="display: block;" viewBox="0 0 8 13" fill="none" xmlns="http://www.w3.org/2000/svg">
<path id="Vector" fill-rule="evenodd" clip-rule="evenodd" d="M0.305289 11.7193C0.117818 11.5318 0.0125023 11.2775 0.0125023 11.0123C0.0125023 10.7471 0.117818 10.4928 0.305289 10.3053L4.59829 6.01229L0.305289 1.71929C0.209779 1.62704 0.133596 1.5167 0.0811869 1.39469C0.0287779 1.27269 0.00119157 1.14147 3.77557e-05 1.00869C-0.00111606 0.87591 0.0241864 0.74423 0.0744673 0.621334C0.124748 0.498438 0.199001 0.386786 0.292894 0.292893C0.386787 0.199 0.498438 0.124747 0.621335 0.0744663C0.744231 0.0241854 0.87591 -0.00111606 1.00869 3.7757e-05C1.14147 0.00119157 1.27269 0.0287779 1.39469 0.0811869C1.5167 0.133596 1.62704 0.209778 1.71929 0.305288L6.71929 5.30529C6.90676 5.49282 7.01207 5.74712 7.01207 6.01229C7.01207 6.27745 6.90676 6.53176 6.71929 6.71929L1.71929 11.7193C1.53176 11.9068 1.27745 12.0121 1.01229 12.0121C0.747125 12.0121 0.492817 11.9068 0.305289 11.7193Z" fill="var(--fill-0, #111928)"/>
</svg>
