<svg preserveAspectRatio="none" width="100%" height="100%" overflow="visible" style="display: block;" viewBox="0 0 27 27" fill="none" xmlns="http://www.w3.org/2000/svg">
<g id="Layer_96">
<path id="Shape" fill-rule="evenodd" clip-rule="evenodd" d="M26.6667 13.5201C26.6728 15.6148 25.0619 17.3595 22.9733 17.5201L8 18.6668C8.2 20.0001 8.62667 20.0001 9.33333 20.0001H23.3333C23.9257 20.0104 24.505 20.1759 25.0133 20.4801H25.0933C26.4853 21.3011 27.0879 23.0022 26.5231 24.5163C25.9583 26.0304 24.3888 26.9212 22.7993 26.63C21.2097 26.3388 20.058 24.9494 20.0667 23.3334C20.0683 23.1096 20.0907 22.8865 20.1333 22.6668H14.6667C14.6871 22.8885 14.6871 23.1117 14.6667 23.3334C14.6667 25.1744 13.1743 26.6668 11.3333 26.6668C9.49238 26.6668 8 25.1744 8 23.3334C8.00092 23.0633 8.03677 22.7944 8.10667 22.5334C5.33333 21.8801 5.33333 19.0001 5.33333 17.4401L2.86667 2.66678H1.33333C0.596954 2.66678 0 2.06982 0 1.33345C0 0.597066 0.596954 0.000111989 1.33333 0.000111989H4C4.66052 -0.00838937 5.2277 0.468035 5.33333 1.12011L5.57333 2.66678L25.4267 4.00011C26.1264 4.04921 26.6684 4.63203 26.6667 5.33345V13.5201ZM18.6667 9.33345H13.3333C12.597 9.33345 12 9.9304 12 10.6668C12 11.4032 12.597 12.0001 13.3333 12.0001H18.6667C19.403 12.0001 20 11.4032 20 10.6668C20 9.9304 19.403 9.33345 18.6667 9.33345ZM23.3333 22.6668C23.7015 22.6668 24 22.9653 24 23.3334C24 23.7016 23.7015 24.0001 23.3333 24.0001C22.9651 24.0001 22.6667 23.7016 22.6667 23.3334C22.6667 22.9653 22.9651 22.6668 23.3333 22.6668ZM12 23.3334C12 22.9653 11.7015 22.6668 11.3333 22.6668C10.9651 22.6668 10.6667 22.9653 10.6667 23.3334C10.6667 23.7016 10.9651 24.0001 11.3333 24.0001C11.7015 24.0001 12 23.7016 12 23.3334Z" fill="var(--fill-0, #4BB4E6)"/>
</g>
</svg>
