<svg preserveAspectRatio="none" width="100%" height="100%" overflow="visible" style="display: block;" viewBox="0 0 27 27" fill="none" xmlns="http://www.w3.org/2000/svg">
<g id="Layer_24">
<path id="Shape" fill-rule="evenodd" clip-rule="evenodd" d="M4 0H22.6667C24.8758 0 26.6667 1.79086 26.6667 4V22.6667C26.6667 24.8758 24.8758 26.6667 22.6667 26.6667H4C1.79086 26.6667 0 24.8758 0 22.6667V4C0 1.79086 1.79086 0 4 0ZM17.2142 19.1745C17.4173 18.6812 17.3068 18.1143 16.9333 17.7333L12.56 13.3333L16.9333 8.94667C17.4562 8.42752 17.4591 7.58283 16.94 7.06C16.4209 6.53717 15.5762 6.53419 15.0533 7.05333L9.72 12.3867C9.20304 12.9067 9.20304 13.7466 9.72 14.2667L15.0533 19.6C15.3028 19.8545 15.6437 19.9985 16 20C16.5334 19.9925 17.0111 19.6678 17.2142 19.1745Z" fill="var(--fill-0, #4BB4E6)"/>
</g>
</svg>
