<svg preserveAspectRatio="none" width="100%" height="100%" overflow="visible" style="display: block;" viewBox="0 0 27 27" fill="none" xmlns="http://www.w3.org/2000/svg">
<g id="Layer_5">
<path id="Shape" fill-rule="evenodd" clip-rule="evenodd" d="M0 13.3333C0 5.96954 5.96954 0 13.3333 0C16.8696 0 20.2609 1.40476 22.7614 3.90524C25.2619 6.40573 26.6667 9.79711 26.6667 13.3333C26.6667 20.6971 20.6971 26.6667 13.3333 26.6667C5.96954 26.6667 0 20.6971 0 13.3333ZM18.6667 13.3411C19.0222 13.3411 19.363 13.1991 19.6133 12.9467C19.8658 12.6963 20.0077 12.3555 20.0077 12C20.0077 11.6445 19.8658 11.3037 19.6133 11.0533L14.28 5.72C14.1532 5.59861 14.0037 5.50346 13.84 5.44C13.5154 5.30664 13.1513 5.30664 12.8267 5.44C12.663 5.50346 12.5135 5.59861 12.3867 5.72L7.05333 11.0533C6.71512 11.3915 6.58303 11.8845 6.70683 12.3465C6.83062 12.8085 7.19149 13.1694 7.6535 13.2932C8.1155 13.417 8.60845 13.2849 8.94667 12.9467L12 9.88V20C12 20.7364 12.597 21.3333 13.3333 21.3333C14.0697 21.3333 14.6667 20.7364 14.6667 20V9.88L17.72 12.9467C17.9704 13.1991 18.3111 13.3411 18.6667 13.3411Z" fill="var(--fill-0, #4BB4E6)"/>
</g>
</svg>
