<svg preserveAspectRatio="none" width="100%" height="100%" overflow="visible" style="display: block;" viewBox="0 0 14 14" fill="none" xmlns="http://www.w3.org/2000/svg">
<g id="Layer_79">
<path id="Shape" fill-rule="evenodd" clip-rule="evenodd" d="M11.3333 0H2C0.89543 0 0 0.89543 0 2V11.3333C0 12.4379 0.89543 13.3333 2 13.3333H11.3333C12.4379 13.3333 13.3333 12.4379 13.3333 11.3333V2C13.3333 0.89543 12.4379 0 11.3333 0ZM6.82667 10.5267L6.72667 10.6067C6.69111 10.6306 6.65312 10.6507 6.61333 10.6667L6.48667 10.7067H6.36C6.1828 10.7077 6.01248 10.6381 5.88667 10.5133C5.76484 10.3856 5.69579 10.2165 5.69333 10.04C5.69257 9.95118 5.70839 9.86301 5.74 9.78C5.77448 9.69999 5.82431 9.62751 5.88667 9.56667C6.14669 9.30818 6.56664 9.30818 6.82667 9.56667C6.891 9.62582 6.94114 9.69875 6.97333 9.78C7.00692 9.86266 7.025 9.95079 7.02667 10.04C7.02954 10.2228 6.95724 10.3987 6.82667 10.5267ZM6.99333 7.86C7.00526 7.5772 7.1682 7.32261 7.42 7.19333L7.41333 7.22C8.41296 6.88488 9.06503 5.92266 9.00586 4.87003C8.94668 3.81739 8.19088 2.93431 7.16 2.71333C6.45502 2.56014 5.71866 2.73687 5.16 3.19333C4.61175 3.6327 4.29288 4.29742 4.29333 5C4.29333 5.36819 4.59181 5.66667 4.96 5.66667C5.32819 5.66667 5.62667 5.36819 5.62667 5C5.6275 4.69897 5.7648 4.41456 6 4.22667C6.24622 4.01609 6.57651 3.93228 6.89333 4C7.35916 4.07482 7.70932 4.46504 7.73344 4.93622C7.75756 5.4074 7.44908 5.83133 6.99333 5.95333C6.20422 6.26451 5.67871 7.01862 5.66 7.86667V8C5.66 8.36819 5.95848 8.66667 6.32667 8.66667C6.69486 8.66667 6.99333 8.36819 6.99333 8V7.86Z" fill="var(--fill-0, #4BB4E6)"/>
</g>
</svg>
