<svg preserveAspectRatio="none" width="100%" height="100%" overflow="visible" style="display: block;" viewBox="0 0 20 16" fill="none" xmlns="http://www.w3.org/2000/svg">
<g id="Layer_87">
<path id="Shape" fill-rule="evenodd" clip-rule="evenodd" d="M20 5C20 5.55228 19.5523 6 19 6C17.8954 6 17 6.89543 17 8C17 9.10457 17.8954 10 19 10C19.5523 10 20 10.4477 20 11V13C20 14.6569 18.6569 16 17 16H13V13C13 12.4477 12.5523 12 12 12C11.4477 12 11 12.4477 11 13V16H3C1.34315 16 0 14.6569 0 13V11C0 10.4477 0.447715 10 1 10C2.10457 10 3 9.10457 3 8C3 6.89543 2.10457 6 1 6C0.447715 6 0 5.55228 0 5V3C0 1.34315 1.34315 0 3 0H11V3C11 3.55228 11.4477 4 12 4C12.5523 4 13 3.55228 13 3V0H17C18.6569 0 20 1.34315 20 3V5ZM12 10C12.5523 10 13 9.55229 13 9V7C13 6.44772 12.5523 6 12 6C11.4477 6 11 6.44772 11 7V9C11 9.55229 11.4477 10 12 10Z" fill="var(--fill-0, #4BB4E6)"/>
</g>
</svg>
