<svg preserveAspectRatio="none" width="100%" height="100%" overflow="visible" style="display: block;" viewBox="0 0 14 14" fill="none" xmlns="http://www.w3.org/2000/svg">
<g id="Layer_32">
<path id="Shape" fill-rule="evenodd" clip-rule="evenodd" d="M9.54 8.6L13.14 12.1933C13.2662 12.3185 13.3372 12.4889 13.3372 12.6667C13.3372 12.8444 13.2662 13.0148 13.14 13.14C13.0148 13.2662 12.8444 13.3372 12.6667 13.3372C12.4889 13.3372 12.3185 13.2662 12.1933 13.14L8.6 9.54C7.6683 10.2713 6.51777 10.6681 5.33333 10.6667C2.38781 10.6667 0 8.27885 0 5.33333C0 2.38781 2.38781 0 5.33333 0C8.27885 0 10.6667 2.38781 10.6667 5.33333C10.6681 6.51777 10.2713 7.6683 9.54 8.6ZM6 6H7.33333C7.70152 6 8 5.70152 8 5.33333C8 4.96514 7.70152 4.66667 7.33333 4.66667H6V3.33333C6 2.96514 5.70152 2.66667 5.33333 2.66667C4.96514 2.66667 4.66667 2.96514 4.66667 3.33333V4.66667H3.33333C2.96514 4.66667 2.66667 4.96514 2.66667 5.33333C2.66667 5.70152 2.96514 6 3.33333 6H4.66667V7.33333C4.66667 7.70152 4.96514 8 5.33333 8C5.70152 8 6 7.70152 6 7.33333V6Z" fill="var(--fill-0, #4BB4E6)"/>
</g>
</svg>
