<svg preserveAspectRatio="none" width="100%" height="100%" overflow="visible" style="display: block;" viewBox="0 0 7 12" fill="none" xmlns="http://www.w3.org/2000/svg">
<path id="Vector" fill-rule="evenodd" clip-rule="evenodd" d="M0.292787 11.6947C0.105316 11.5072 0 11.2529 0 10.9877C0 10.7225 0.105316 10.4682 0.292787 10.2807L4.58579 5.98771L0.292787 1.69471C0.110629 1.50611 0.00983372 1.25351 0.0121121 0.991311C0.0143906 0.729114 0.11956 0.478302 0.304968 0.292894C0.490376 0.107485 0.741188 0.00231622 1.00339 3.78025e-05C1.26558 -0.00224062 1.51818 0.0985542 1.70679 0.280712L6.70679 5.28071C6.89426 5.46824 6.99957 5.72255 6.99957 5.98771C6.99957 6.25288 6.89426 6.50718 6.70679 6.69471L1.70679 11.6947C1.51926 11.8822 1.26495 11.9875 0.999786 11.9875C0.734622 11.9875 0.480314 11.8822 0.292787 11.6947V11.6947Z" fill="var(--fill-0, #111928)"/>
</svg>
