<svg preserveAspectRatio="none" width="100%" height="100%" overflow="visible" style="display: block;" viewBox="0 0 27 27" fill="none" xmlns="http://www.w3.org/2000/svg">
<g id="Layer_19">
<path id="Shape" fill-rule="evenodd" clip-rule="evenodd" d="M0 13.3333C0 5.96954 5.96954 0 13.3333 0C16.8696 0 20.2609 1.40476 22.7614 3.90524C25.2619 6.40573 26.6667 9.79711 26.6667 13.3333C26.6667 20.6971 20.6971 26.6667 13.3333 26.6667C5.96954 26.6667 0 20.6971 0 13.3333ZM14.28 16.9733L19.6133 11.64C20.1362 11.1172 20.1362 10.2695 19.6133 9.74667C19.0905 9.22384 18.2428 9.22384 17.72 9.74667L13.3333 14.1067L8.94667 9.74667C8.60845 9.40845 8.1155 9.27637 7.6535 9.40016C7.19149 9.52396 6.83062 9.88482 6.70683 10.3468C6.58303 10.8088 6.71512 11.3018 7.05333 11.64L12.3867 16.9733C12.637 17.2257 12.9778 17.3677 13.3333 17.3677C13.6888 17.3677 14.0296 17.2257 14.28 16.9733Z" fill="var(--fill-0, #4BB4E6)"/>
</g>
</svg>
