<svg preserveAspectRatio="none" width="100%" height="100%" overflow="visible" style="display: block;" viewBox="0 0 27 27" fill="none" xmlns="http://www.w3.org/2000/svg">
<g id="Layer_44">
<path id="Shape" fill-rule="evenodd" clip-rule="evenodd" d="M4 0H22.6667C24.8758 0 26.6667 1.79086 26.6667 4V22.6667C26.6667 24.8758 24.8758 26.6667 22.6667 26.6667H4C1.79086 26.6667 0 24.8758 0 22.6667V4C0 1.79086 1.79086 0 4 0ZM14.6667 14.6667H20C20.7364 14.6667 21.3333 14.0697 21.3333 13.3333C21.3333 12.597 20.7364 12 20 12H14.6667V6.66667C14.6667 5.93029 14.0697 5.33333 13.3333 5.33333C12.597 5.33333 12 5.93029 12 6.66667V12H6.66667C5.93029 12 5.33333 12.597 5.33333 13.3333C5.33333 14.0697 5.93029 14.6667 6.66667 14.6667H12V20C12 20.7364 12.597 21.3333 13.3333 21.3333C14.0697 21.3333 14.6667 20.7364 14.6667 20V14.6667Z" fill="var(--fill-0, #4BB4E6)"/>
</g>
</svg>
