<svg preserveAspectRatio="none" width="100%" height="100%" overflow="visible" style="display: block;" viewBox="0 0 27 27" fill="none" xmlns="http://www.w3.org/2000/svg">
<g id="Layer_23">
<path id="Shape" fill-rule="evenodd" clip-rule="evenodd" d="M4 0H22.6667C24.8758 0 26.6667 1.79086 26.6667 4V22.6667C26.6667 24.8758 24.8758 26.6667 22.6667 26.6667H4C1.79086 26.6667 0 24.8758 0 22.6667V4C0 1.79086 1.79086 0 4 0ZM14.28 16.96L19.6133 11.6267C19.9515 11.2908 20.0849 10.8001 19.9632 10.3393C19.8414 9.87846 19.4831 9.51759 19.0232 9.3926C18.5632 9.26762 18.0715 9.3975 17.7333 9.73333L13.3333 14.1067L8.94667 9.73333C8.61084 9.39512 8.12008 9.26177 7.65927 9.3835C7.19845 9.50523 6.83759 9.86355 6.7126 10.3235C6.58762 10.7834 6.7175 11.2751 7.05333 11.6133L12.3867 16.9467C12.6383 17.1962 12.9789 17.3354 13.3333 17.3333C13.6858 17.3389 14.0262 17.2047 14.28 16.96Z" fill="var(--fill-0, #4BB4E6)"/>
</g>
</svg>
