<svg preserveAspectRatio="none" width="100%" height="100%" overflow="visible" style="display: block;" viewBox="0 0 14 14" fill="none" xmlns="http://www.w3.org/2000/svg">
<g id="Layer_21">
<path id="Shape" fill-rule="evenodd" clip-rule="evenodd" d="M2 0H11.3333C12.4379 0 13.3333 0.89543 13.3333 2V11.3333C13.3333 12.4379 12.4379 13.3333 11.3333 13.3333H2C0.89543 13.3333 0 12.4379 0 11.3333V2C0 0.89543 0.89543 0 2 0ZM9.33333 8.66667C9.51014 8.66241 9.67802 8.58806 9.8 8.46C10.0585 8.19998 10.0585 7.78003 9.8 7.52L7.13333 4.85333C6.87331 4.59485 6.45336 4.59485 6.19333 4.85333L3.52667 7.52C3.35756 7.68791 3.29088 7.93329 3.35175 8.1637C3.41261 8.39411 3.59178 8.57454 3.82175 8.63703C4.05172 8.69952 4.29756 8.63458 4.46667 8.46667L6.66667 6.28L8.86667 8.47333C8.99084 8.5965 9.15844 8.66593 9.33333 8.66667Z" fill="var(--fill-0, #4BB4E6)"/>
</g>
</svg>
