<svg preserveAspectRatio="none" width="100%" height="100%" overflow="visible" style="display: block;" viewBox="0 0 20 20" fill="none" xmlns="http://www.w3.org/2000/svg">
<g id="Layer_102">
<path id="Shape" fill-rule="evenodd" clip-rule="evenodd" d="M16.8469 6.37L18.9869 16.37C19.1771 17.2555 18.9571 18.1795 18.3882 18.8843C17.8194 19.589 16.9626 19.9991 16.0569 20H2.99692C2.09124 19.9991 1.23445 19.589 0.665599 18.8843C0.0967481 18.1795 -0.123272 17.2555 0.0669227 16.37L2.20692 6.37C2.50442 4.98493 3.73027 3.99674 5.14692 4H5.52692C5.52692 1.79086 7.31778 0 9.52692 0C11.7361 0 13.5269 1.79086 13.5269 4H13.9069C15.3236 3.99674 16.5494 4.98493 16.8469 6.37ZM9.52692 2C8.42235 2 7.52692 2.89543 7.52692 4H11.5269C11.5269 2.89543 10.6315 2 9.52692 2Z" fill="var(--fill-0, #4BB4E6)"/>
</g>
</svg>
