<svg preserveAspectRatio="none" width="100%" height="100%" overflow="visible" style="display: block;" viewBox="0 0 20 20" fill="none" xmlns="http://www.w3.org/2000/svg">
<g id="Layer_23">
<path id="Shape" fill-rule="evenodd" clip-rule="evenodd" d="M3 0H17C18.6569 0 20 1.34315 20 3V17C20 18.6569 18.6569 20 17 20H3C1.34315 20 0 18.6569 0 17V3C0 1.34315 1.34315 0 3 0ZM10.71 12.72L14.71 8.72C14.9637 8.46813 15.0637 8.10006 14.9724 7.75445C14.8811 7.40884 14.6123 7.13819 14.2674 7.04445C13.9224 6.95071 13.5537 7.04813 13.3 7.3L10 10.58L6.71 7.3C6.45813 7.04634 6.09006 6.94632 5.74445 7.03762C5.39884 7.12892 5.12819 7.39767 5.03445 7.74262C4.94071 8.08758 5.03813 8.45634 5.29 8.71L9.29 12.71C9.47872 12.8972 9.7342 13.0015 10 13C10.2644 13.0042 10.5197 12.9035 10.71 12.72Z" fill="var(--fill-0, #4BB4E6)"/>
</g>
</svg>
