<svg preserveAspectRatio="none" width="100%" height="100%" overflow="visible" style="display: block;" viewBox="0 0 14 14" fill="none" xmlns="http://www.w3.org/2000/svg">
<g id="Layer_28">
<path id="Path" d="M12.5533 10H11.9267V5.33333C11.9267 2.38781 9.53885 0 6.59333 0C3.64781 0 1.26 2.38781 1.26 5.33333V10H0.666667C0.298477 10 0 10.2985 0 10.6667C0 11.0349 0.298477 11.3333 0.666667 11.3333H12.5533C12.9215 11.3333 13.22 11.0349 13.22 10.6667C13.22 10.2985 12.9215 10 12.5533 10Z" fill="var(--fill-0, #4BB4E6)"/>
<path id="Path_2" d="M6.59333 13.3333C7.43884 13.331 8.1915 12.7972 8.47333 12H4.71333C4.99517 12.7972 5.74783 13.331 6.59333 13.3333Z" fill="var(--fill-0, #4BB4E6)"/>
</g>
</svg>
