<svg preserveAspectRatio="none" width="100%" height="100%" overflow="visible" style="display: block;" viewBox="0 0 27 28" fill="none" xmlns="http://www.w3.org/2000/svg">
<g id="Layer_108">
<path id="Shape" fill-rule="evenodd" clip-rule="evenodd" d="M3.85333 0.000619338H21.48C23.5613 -0.0366526 25.2824 1.61299 25.3333 3.69395V11.694C24.7276 11.0946 24.0409 10.583 23.2933 10.174C19.8051 8.31606 15.5372 8.76872 12.5163 11.317C9.49533 13.8653 8.32988 17.9958 9.57333 21.7473C9.8313 22.5456 10.1993 23.304 10.6667 24.0006H3.85333C1.76699 24.0378 0.0437531 22.3802 0 20.294V3.70729C0.0437531 1.62107 1.76699 -0.0365766 3.85333 0.000619338ZM6.66667 8.00062H18.6667C19.403 8.00062 20 7.40367 20 6.66729C20 5.93091 19.403 5.33395 18.6667 5.33395H6.66667C5.93029 5.33395 5.33333 5.93091 5.33333 6.66729C5.33333 7.40367 5.93029 8.00062 6.66667 8.00062Z" fill="var(--fill-0, #4BB4E6)"/>
<path id="Shape_2" fill-rule="evenodd" clip-rule="evenodd" d="M25.3333 13.6406C24.6171 12.6957 23.7081 11.914 22.6667 11.3473C21.4377 10.6838 20.0633 10.3356 18.6667 10.334C15.9824 10.3345 13.4628 11.6281 11.8979 13.8089C10.333 15.9897 9.91438 18.7909 10.7733 21.334C11.0901 22.3072 11.5877 23.2119 12.24 24.0006C14.4813 26.7159 18.1873 27.7296 21.4987 26.5331C24.81 25.3366 27.012 22.1881 27 18.6673C27.0157 16.8535 26.4295 15.0857 25.3333 13.6406ZM17.8667 19.3206C18.1191 19.571 18.2611 19.9118 18.2611 20.2673C18.2611 20.6228 18.1191 20.9636 17.8667 21.214C17.615 21.4635 17.2744 21.6027 16.92 21.6006C16.5656 21.6027 16.225 21.4635 15.9733 21.214L14.64 19.8806C14.3876 19.6303 14.2456 19.2895 14.2456 18.934C14.2456 18.5784 14.3876 18.2376 14.64 17.9873L15.9733 16.654C16.3115 16.3157 16.8045 16.1837 17.2665 16.3074C17.7285 16.4312 18.0894 16.7921 18.2132 17.2541C18.337 17.7161 18.2049 18.2091 17.8667 18.5473L17.48 18.934L17.8667 19.3206ZM21.8667 21.214L23.2 19.8806H23.16C23.4178 19.6356 23.567 19.2978 23.5745 18.9423C23.582 18.5867 23.4472 18.2429 23.2 17.9873L21.8667 16.654C21.5285 16.3157 21.0355 16.1837 20.5735 16.3074C20.1115 16.4312 19.7506 16.7921 19.6268 17.2541C19.503 17.7161 19.6351 18.2091 19.9733 18.5473L20.3733 18.934L19.9733 19.3206C19.7209 19.571 19.5789 19.9118 19.5789 20.2673C19.5789 20.6228 19.7209 20.9636 19.9733 21.214C20.225 21.4635 20.5656 21.6027 20.92 21.6006C21.2744 21.6027 21.615 21.4635 21.8667 21.214Z" fill="var(--fill-0, #4BB4E6)"/>
</g>
</svg>
