<svg preserveAspectRatio="none" width="100%" height="100%" overflow="visible" style="display: block;" viewBox="0 0 15 15" fill="none" xmlns="http://www.w3.org/2000/svg">
<g id="Layer_88">
<path id="Path" d="M5.36667 5.2C5.36667 5.10795 5.29205 5.03333 5.2 5.03333C5.10941 5.03676 5.03676 5.10941 5.03333 5.2C5.03333 5.38667 5.36667 5.38667 5.36667 5.2Z" fill="var(--fill-0, #4BB4E6)"/>
<path id="Path_2" d="M9.09333 8.92667C9.00129 8.92667 8.92667 9.00129 8.92667 9.09333C8.92667 9.27333 9.26 9.27333 9.26 9.09333C9.26 9.00129 9.18538 8.92667 9.09333 8.92667Z" fill="var(--fill-0, #4BB4E6)"/>
<path id="Shape" fill-rule="evenodd" clip-rule="evenodd" d="M12.8667 4.74667C12.9974 4.99372 13.1661 5.21869 13.3667 5.41333C13.885 5.85205 14.2164 6.47198 14.2933 7.14667C14.217 7.80461 13.8986 8.41061 13.4 8.84667C13.1994 9.04131 13.0307 9.26628 12.9 9.51333C12.8171 9.78983 12.781 10.0783 12.7933 10.3667C12.849 11.027 12.6485 11.6835 12.2333 12.2C11.7168 12.6152 11.0604 12.8157 10.4 12.76C10.1116 12.7477 9.82317 12.7837 9.54667 12.8667C9.30075 12.9991 9.07604 13.1677 8.88 13.3667C8.44437 13.8888 7.8228 14.2211 7.14667 14.2933C6.48736 14.2215 5.87984 13.9022 5.44667 13.4C5.25063 13.201 5.02592 13.0325 4.78 12.9C4.5035 12.8171 4.21507 12.781 3.92667 12.7933C3.26631 12.849 2.60984 12.6485 2.09333 12.2333C1.67814 11.7168 1.47762 11.0604 1.53333 10.4C1.54564 10.1116 1.50959 9.82317 1.42667 9.54667C1.29597 9.29962 1.12724 9.07465 0.926667 8.88C0.40835 8.44128 0.0769271 7.82136 0 7.14667C0.0763174 6.48872 0.394763 5.88272 0.893333 5.44667C1.09391 5.25202 1.26263 5.02705 1.39333 4.78C1.47625 4.5035 1.51231 4.21507 1.5 3.92667C1.44428 3.26631 1.64481 2.60984 2.06 2.09333C2.57651 1.67814 3.23298 1.47762 3.89333 1.53333C4.18174 1.54564 4.47017 1.50959 4.74667 1.42667C4.99259 1.29419 5.2173 1.12565 5.41333 0.926667C5.84897 0.404549 6.47053 0.0722528 7.14667 0C7.80598 0.0718793 8.41349 0.391123 8.84667 0.893333C9.0427 1.09232 9.26742 1.26085 9.51333 1.39333C9.78983 1.47625 10.0783 1.51231 10.3667 1.5C11.027 1.44428 11.6835 1.64481 12.2 2.06C12.6152 2.57651 12.8157 3.23298 12.76 3.89333C12.7477 4.18174 12.7837 4.47017 12.8667 4.74667ZM5.2 3.7C4.37157 3.7 3.7 4.37157 3.7 5.2C3.7 6.02843 4.37157 6.7 5.2 6.7C6.02843 6.7 6.7 6.02843 6.7 5.2C6.7 4.37157 6.02843 3.7 5.2 3.7ZM5.39333 9.86667C5.26916 9.98983 5.10156 10.0593 4.92667 10.06C4.75096 10.0403 4.59029 9.95153 4.48 9.81333C4.22152 9.55331 4.22152 9.13336 4.48 8.87333L8.9 4.48C9.0419 4.2404 9.31776 4.11424 9.59181 4.16361C9.86586 4.21298 10.0804 4.42747 10.1297 4.70152C10.1791 4.97557 10.0529 5.25144 9.81333 5.39333L5.39333 9.86667ZM7.59333 9.12C7.59333 9.94843 8.26491 10.62 9.09333 10.62V10.5933C9.91146 10.5935 10.5788 9.93799 10.5933 9.12C10.5933 8.29157 9.92176 7.62 9.09333 7.62C8.26491 7.62 7.59333 8.29157 7.59333 9.12Z" fill="var(--fill-0, #4BB4E6)"/>
</g>
</svg>
