<svg preserveAspectRatio="none" width="100%" height="100%" overflow="visible" style="display: block;" viewBox="0 0 14 14" fill="none" xmlns="http://www.w3.org/2000/svg">
<g id="Layer_47">
<path id="Path" d="M12.9185 6.40001C13.292 6.01824 13.4184 5.45856 13.2452 4.95335C13.0826 4.44643 12.6454 4.07646 12.1185 4.00001L9.25852 3.56001C9.23151 3.55218 9.20946 3.53259 9.19852 3.50668L7.94519 0.840012V0.840012C7.72063 0.329802 7.21596 0.000333667 6.65852 1.20442e-05V1.20442e-05C6.10769 -0.00226562 5.60672 0.31867 5.37852 0.820012L4.12519 3.48668C4.11136 3.51296 4.0872 3.53229 4.05852 3.54001L1.20519 4.00001C0.677831 4.07858 0.239568 4.44723 0.0718544 4.95335C-0.094875 5.46003 0.0335476 6.01738 0.405188 6.40001L2.51185 8.56668C2.52412 8.59427 2.52412 8.62576 2.51185 8.65335L2.01852 11.68C1.92491 12.218 2.14964 12.7618 2.59575 13.0768C3.04185 13.3918 3.62951 13.4216 4.10519 13.1533L6.59185 11.7733C6.61693 11.7603 6.64678 11.7603 6.67185 11.7733L9.15852 13.1533C9.63466 13.4157 10.2188 13.3833 10.6629 13.0697C11.107 12.7561 11.3331 12.2165 11.2452 11.68L10.7852 8.66668C10.7709 8.64193 10.7709 8.61143 10.7852 8.58668L12.9185 6.40001Z" fill="var(--fill-0, #4BB4E6)"/>
</g>
</svg>
