<svg preserveAspectRatio="none" width="100%" height="100%" overflow="visible" style="display: block;" viewBox="0 0 21 17" fill="none" xmlns="http://www.w3.org/2000/svg">
<g id="Layer_121">
<path id="Path" d="M18.94 0.314445C18.3121 0.0367394 17.5795 0.154256 17.07 0.614445L11.02 5.40444V2.40444C11.1518 1.49947 10.7151 0.606282 9.92 0.154445C9.28198 -0.133901 8.53328 -0.0117447 8.02 0.464445L0.96 6.08444C0.355666 6.5377 0 7.24903 0 8.00445C0 8.75986 0.355666 9.47119 0.96 9.92444L8.02 15.5444C8.35399 15.8332 8.77855 15.996 9.22 16.0044C9.45159 16.0038 9.68026 15.9526 9.89 15.8544C10.6834 15.4134 11.1303 14.5355 11.02 13.6344V10.9044L17.02 15.7044C17.3625 15.9841 17.788 16.1423 18.23 16.1544C18.4617 16.1548 18.6906 16.1036 18.9 16.0044C19.6937 15.5646 20.1378 14.6842 20.02 13.7844V2.53444C20.02 1.05444 19.35 0.504445 18.94 0.314445Z" fill="var(--fill-0, #4BB4E6)"/>
</g>
</svg>
