<svg preserveAspectRatio="none" width="100%" height="100%" overflow="visible" style="display: block;" viewBox="0 0 20 20" fill="none" xmlns="http://www.w3.org/2000/svg">
<g id="Layer_18">
<path id="Shape" fill-rule="evenodd" clip-rule="evenodd" d="M0 10C0 4.47715 4.47715 0 10 0C12.6522 0 15.1957 1.05357 17.0711 2.92893C18.9464 4.8043 20 7.34784 20 10C20 15.5228 15.5228 20 10 20C4.47715 20 0 15.5228 0 10ZM8.7 14.71L12.7 10.71C12.8933 10.5263 13.0053 10.2729 13.0109 10.0063C13.0165 9.7396 12.9154 9.48174 12.73 9.29L8.73 5.29C8.47634 5.03634 8.10663 4.93728 7.76012 5.03012C7.41362 5.12297 7.14297 5.39362 7.05012 5.74012C6.95728 6.08663 7.05634 6.45634 7.31 6.71L10.58 10L7.29 13.29C7.10069 13.4778 6.9942 13.7334 6.9942 14C6.9942 14.2666 7.10069 14.5222 7.29 14.71C7.47872 14.8972 7.7342 15.0015 8 15C8.26234 14.9989 8.51374 14.8947 8.7 14.71Z" fill="var(--fill-0, #4BB4E6)"/>
</g>
</svg>
