<svg preserveAspectRatio="none" width="100%" height="100%" overflow="visible" style="display: block;" viewBox="0 0 24 27" fill="none" xmlns="http://www.w3.org/2000/svg">
<g id="Layer_124">
<path id="Shape" fill-rule="evenodd" clip-rule="evenodd" d="M0 14.735C0 8.10756 5.37258 2.73498 12 2.73498C18.6274 2.73498 24 8.10756 24 14.735C24 21.3624 18.6274 26.735 12 26.735C5.37258 26.735 0 21.3624 0 14.735ZM14.6667 18.7427C15.0222 18.7427 15.363 18.6007 15.6133 18.3483C15.8658 18.098 16.0077 17.7572 16.0077 17.4016C16.0077 17.0461 15.8658 16.7053 15.6133 16.455L13.3333 14.1883V9.40165C13.3333 8.66527 12.7364 8.06832 12 8.06832C11.2636 8.06832 10.6667 8.66527 10.6667 9.40165V14.735C10.6646 15.0894 10.8038 15.43 11.0533 15.6816L13.72 18.3483C13.9704 18.6007 14.3111 18.7427 14.6667 18.7427Z" fill="var(--fill-0, #4BB4E6)"/>
<path id="Path" d="M21.3333 5.40165C21.0712 5.40465 20.8147 5.32537 20.6 5.17498L16.6 2.50831C16.1541 2.26914 15.882 1.79821 15.8976 1.29247C15.9131 0.786737 16.2135 0.333358 16.6732 0.121963C17.1329 -0.0894331 17.6726 -0.0224168 18.0667 0.294981L22.0667 2.96165C22.552 3.28778 22.7683 3.89211 22.6 4.45213C22.4316 5.01214 21.9181 5.39713 21.3333 5.40165Z" fill="var(--fill-0, #4BB4E6)"/>
<path id="Path_2" d="M2.66667 5.40165C2.08192 5.39713 1.56836 5.01214 1.40005 4.45213C1.23174 3.89211 1.44797 3.28778 1.93333 2.96165L5.93333 0.294981C6.32737 -0.0224168 6.86711 -0.0894331 7.32681 0.121963C7.7865 0.333358 8.08693 0.786737 8.10245 1.29247C8.11796 1.79821 7.84588 2.26914 7.4 2.50831L3.4 5.17498C3.18528 5.32537 2.9288 5.40465 2.66667 5.40165V5.40165Z" fill="var(--fill-0, #4BB4E6)"/>
</g>
</svg>
