<svg preserveAspectRatio="none" width="100%" height="100%" overflow="visible" style="display: block;" viewBox="0 0 10 14" fill="none" xmlns="http://www.w3.org/2000/svg">
<g id="Layer_125">
<path id="Shape" fill-rule="evenodd" clip-rule="evenodd" d="M7.33333 0H2C0.89543 0 0 0.89543 0 2V11.3333C0 12.4379 0.89543 13.3333 2 13.3333H7.33333C8.4379 13.3333 9.33333 12.4379 9.33333 11.3333V2C9.33333 0.89543 8.4379 0 7.33333 0ZM5.14 11.14C5.0752 11.1989 5.00079 11.2462 4.92 11.28C4.67236 11.3791 4.38947 11.3211 4.20085 11.1325C4.01224 10.9439 3.95421 10.661 4.05333 10.4133C4.08506 10.3315 4.13264 10.2567 4.19333 10.1933C4.34972 10.0302 4.57808 9.95747 4.8 10L4.92 10.04C4.96248 10.0546 5.00284 10.0748 5.04 10.1C5.07492 10.1246 5.10832 10.1513 5.14 10.18C5.19889 10.2448 5.24624 10.3192 5.28 10.4C5.3844 10.6483 5.32916 10.935 5.14 11.1267V11.14ZM4 3.33333H5.41333H5.42667C5.79486 3.33333 6.09333 3.03486 6.09333 2.66667C6.09333 2.29848 5.79486 2 5.42667 2H4C3.63181 2 3.33333 2.29848 3.33333 2.66667C3.33333 3.03486 3.63181 3.33333 4 3.33333Z" fill="var(--fill-0, #4BB4E6)"/>
</g>
</svg>
