<svg preserveAspectRatio="none" width="100%" height="100%" overflow="visible" style="display: block;" viewBox="0 0 27 27" fill="none" xmlns="http://www.w3.org/2000/svg">
<g id="Layer_77">
<path id="Shape" fill-rule="evenodd" clip-rule="evenodd" d="M22.6667 9.33333V12C24.8758 12 26.6667 13.7909 26.6667 16V22.6667C26.6667 24.8758 24.8758 26.6667 22.6667 26.6667H4C1.79086 26.6667 0 24.8758 0 22.6667V16C0 13.7909 1.79086 12 4 12V9.33333C4 4.17868 8.17867 1.39077e-07 13.3333 1.39077e-07C18.488 1.39077e-07 22.6667 4.17868 22.6667 9.33333ZM6.66667 12H20V9.33333C20 5.65144 17.0152 2.66667 13.3333 2.66667C9.65143 2.66667 6.66667 5.65144 6.66667 9.33333V12Z" fill="var(--fill-0, #4BB4E6)"/>
</g>
</svg>
