<svg preserveAspectRatio="none" width="100%" height="100%" overflow="visible" style="display: block;" viewBox="0 0 27 27" fill="none" xmlns="http://www.w3.org/2000/svg">
<g id="Layer_27">
<path id="Shape" fill-rule="evenodd" clip-rule="evenodd" d="M23.9883 8.89494L25.7349 9.46827C26.278 9.6517 26.6431 10.1617 26.6416 10.7349V15.8416C26.671 16.4428 26.2941 16.9891 25.7216 17.1749L23.9883 17.7483L24.9616 19.3616C25.2245 19.8748 25.1276 20.4988 24.7216 20.9083L21.0549 24.5749C20.6455 24.981 20.0215 25.0778 19.5083 24.8149L17.8816 23.9883L17.3083 25.7216C17.1224 26.2941 16.5761 26.671 15.9749 26.6416H10.8016C10.2005 26.671 9.65413 26.2941 9.46827 25.7216L8.89494 23.9883L7.26827 24.8283C6.75506 25.0911 6.13103 24.9943 5.72161 24.5883L2.06827 21.0549C1.66226 20.6455 1.56542 20.0215 1.82827 19.5083L2.65494 17.8816L0.921607 17.3083C0.349156 17.1224 -0.0278089 16.5761 0.00160711 15.9749V10.8016C-0.0278089 10.2005 0.349156 9.65413 0.921607 9.46827L2.65494 8.89494L1.81494 7.26827C1.55209 6.75506 1.64892 6.13103 2.05494 5.72161L5.72161 2.05494C6.13103 1.64892 6.75506 1.55209 7.26827 1.81494L8.89494 2.65494L9.40161 0.921607C9.58747 0.349156 10.1338 -0.0278089 10.7349 0.00160711H15.8416C16.4428 -0.0278089 16.9891 0.349156 17.1749 0.921607L17.7483 2.65494L19.3749 1.81494C19.8882 1.55209 20.5122 1.64892 20.9216 2.05494L24.5749 5.72161C24.981 6.13103 25.0778 6.75506 24.8149 7.26827L23.9883 8.89494ZM6.65494 13.3216C6.65494 17.0035 9.63971 19.9883 13.3216 19.9883C17.0035 19.9883 19.9883 17.0035 19.9883 13.3216C19.9883 9.63971 17.0035 6.65494 13.3216 6.65494C9.63971 6.65494 6.65494 9.63971 6.65494 13.3216Z" fill="var(--fill-0, #4BB4E6)"/>
<circle id="Oval" cx="13.3216" cy="13.3216" r="4" fill="var(--fill-0, #4BB4E6)"/>
</g>
</svg>
