<svg preserveAspectRatio="none" width="100%" height="100%" overflow="visible" style="display: block;" viewBox="0 0 20 20" fill="none" xmlns="http://www.w3.org/2000/svg">
<g id="Layer_19">
<path id="Shape" fill-rule="evenodd" clip-rule="evenodd" d="M0 10C0 4.47715 4.47715 0 10 0C12.6522 0 15.1957 1.05357 17.0711 2.92893C18.9464 4.8043 20 7.34784 20 10C20 15.5228 15.5228 20 10 20C4.47715 20 0 15.5228 0 10ZM10.71 12.73L14.71 8.73C15.1021 8.33788 15.1021 7.70212 14.71 7.31C14.3179 6.91788 13.6821 6.91788 13.29 7.31L10 10.58L6.71 7.31C6.45634 7.05634 6.08663 6.95728 5.74012 7.05012C5.39362 7.14297 5.12297 7.41362 5.03012 7.76012C4.93728 8.10663 5.03634 8.47634 5.29 8.73L9.29 12.73C9.47777 12.9193 9.73336 13.0258 10 13.0258C10.2666 13.0258 10.5222 12.9193 10.71 12.73Z" fill="var(--fill-0, #4BB4E6)"/>
</g>
</svg>
