<svg preserveAspectRatio="none" width="100%" height="100%" overflow="visible" style="display: block;" viewBox="0 0 27 27" fill="none" xmlns="http://www.w3.org/2000/svg">
<g id="Layer_80">
<path id="Path" d="M21.3333 4V13.3333C21.3333 15.5425 19.5425 17.3333 17.3333 17.3333H11.1067L8.26667 19.4667L6.13333 21.0667C5.90254 21.2398 5.62183 21.3333 5.33333 21.3333C5.12403 21.337 4.91733 21.2865 4.73333 21.1867C4.28496 20.9607 4.00152 20.5021 4 20V17.3333C1.79086 17.3333 0 15.5425 0 13.3333V4C0 1.79086 1.79086 0 4 0H17.3333C19.5425 0 21.3333 1.79086 21.3333 4Z" fill="var(--fill-0, #4BB4E6)"/>
<path id="Path_2" d="M26.6667 9.33333V18.6667C26.6667 20.8758 24.8758 22.6667 22.6667 22.6667V25.3333C22.6651 25.8354 22.3817 26.2941 21.9333 26.52C21.7493 26.6198 21.5426 26.6704 21.3333 26.6667C21.0448 26.6667 20.7641 26.5731 20.5333 26.4L15.56 22.6667H9.33333C8.54465 22.6632 7.77461 22.4266 7.12 21.9867L11.5467 18.6667H17.3333C20.2789 18.6667 22.6667 16.2789 22.6667 13.3333V5.33333C24.8758 5.33333 26.6667 7.12419 26.6667 9.33333Z" fill="var(--fill-0, #4BB4E6)"/>
</g>
</svg>
