<svg preserveAspectRatio="none" width="100%" height="100%" overflow="visible" style="display: block;" viewBox="0 0 14 14" fill="none" xmlns="http://www.w3.org/2000/svg">
<g id="Layer_27">
<path id="Shape" fill-rule="evenodd" clip-rule="evenodd" d="M11.9941 4.44747L12.8675 4.73414C13.139 4.82585 13.3215 5.08086 13.3208 5.36747V7.9208C13.3355 8.22138 13.147 8.49454 12.8608 8.58747L11.9941 8.87414L12.4808 9.6808C12.6122 9.93741 12.5638 10.2494 12.3608 10.4541L10.5275 12.2875C10.3228 12.4905 10.0107 12.5389 9.75414 12.4075L8.9408 11.9941L8.65414 12.8608C8.56121 13.147 8.28804 13.3355 7.98747 13.3208H5.4008C5.10023 13.3355 4.82707 13.147 4.73414 12.8608L4.44747 11.9941L3.63414 12.4141C3.37753 12.5456 3.06552 12.4971 2.8608 12.2941L1.03414 10.5275C0.831128 10.3228 0.782712 10.0107 0.914137 9.75414L1.32747 8.9408L0.460804 8.65414C0.174578 8.56121 -0.0139045 8.28804 0.000803555 7.98747V5.4008C-0.0139045 5.10023 0.174578 4.82707 0.460804 4.73414L1.32747 4.44747L0.90747 3.63414C0.776045 3.37753 0.824461 3.06552 1.02747 2.8608L2.8608 1.02747C3.06552 0.824461 3.37753 0.776045 3.63414 0.90747L4.44747 1.32747L4.7008 0.460804C4.79373 0.174578 5.0669 -0.0139045 5.36747 0.000803555H7.9208C8.22138 -0.0139045 8.49454 0.174578 8.58747 0.460804L8.87414 1.32747L9.68747 0.90747C9.94408 0.776045 10.2561 0.824461 10.4608 1.02747L12.2875 2.8608C12.4905 3.06552 12.5389 3.37753 12.4075 3.63414L11.9941 4.44747ZM3.32747 6.6608C3.32747 8.50175 4.81985 9.99414 6.6608 9.99414C8.50175 9.99414 9.99414 8.50175 9.99414 6.6608C9.99414 4.81985 8.50175 3.32747 6.6608 3.32747C4.81985 3.32747 3.32747 4.81985 3.32747 6.6608Z" fill="var(--fill-0, #4BB4E6)"/>
<circle id="Oval" cx="6.6608" cy="6.6608" r="2" fill="var(--fill-0, #4BB4E6)"/>
</g>
</svg>
