<svg preserveAspectRatio="none" width="100%" height="100%" overflow="visible" style="display: block;" viewBox="0 0 15 18" fill="none" xmlns="http://www.w3.org/2000/svg">
<path id="Vector" d="M12.5391 17.6554C12.9844 18.0257 13.6078 18.1101 14.1375 17.8617C14.6672 17.6132 15 17.0835 15 16.5023V1.50228C15 0.921035 14.6625 0.391347 14.1375 0.14291C13.6125 -0.105528 12.9891 -0.0258401 12.5391 0.34916L3.53906 7.84916L3 8.29916V1.50228C3 0.672597 2.32969 0.0022848 1.5 0.0022848C0.670312 0.0022848 0 0.672597 0 1.50228V16.5023C0 17.332 0.670312 18.0023 1.5 18.0023C2.32969 18.0023 3 17.332 3 16.5023V9.70541L3.53906 10.1554L12.5391 17.6554Z" fill="var(--fill-0, #1F2A37)"/>
</svg>
