<svg preserveAspectRatio="none" width="100%" height="100%" overflow="visible" style="display: block;" viewBox="0 0 19 14" fill="none" xmlns="http://www.w3.org/2000/svg">
<path id="Vector" fill-rule="evenodd" clip-rule="evenodd" d="M17.2507 5.22175C12.9547 0.92575 5.99071 0.92575 1.69471 5.22175C1.50611 5.40391 1.25351 5.5047 0.991311 5.50242C0.729114 5.50015 0.478301 5.39498 0.292893 5.20957C0.107485 5.02416 0.00231622 4.77335 3.78026e-05 4.51115C-0.00224062 4.24895 0.0985538 3.99635 0.280712 3.80775C5.35671 -1.26925 13.5887 -1.26925 18.6647 3.80775C18.8469 3.99635 18.9477 4.24895 18.9454 4.51115C18.9431 4.77335 18.8379 5.02416 18.6525 5.20957C18.4671 5.39498 18.2163 5.50015 17.9541 5.50242C17.6919 5.5047 17.4393 5.40391 17.2507 5.22175ZM14.4227 8.04975C13.7727 7.39966 13.001 6.88398 12.1517 6.53216C11.3023 6.18033 10.392 5.99924 9.47271 5.99924C8.5534 5.99924 7.64309 6.18033 6.79376 6.53216C5.94444 6.88398 5.17273 7.39966 4.52271 8.04975C4.33411 8.23191 4.08151 8.3327 3.81931 8.33042C3.55711 8.32815 3.3063 8.22298 3.12089 8.03757C2.93549 7.85216 2.83032 7.60135 2.82804 7.33915C2.82576 7.07695 2.92655 6.82435 3.10871 6.63575C3.94444 5.80001 4.9366 5.13707 6.02854 4.68477C7.12047 4.23247 8.29081 3.99967 9.47271 3.99967C10.6546 3.99967 11.825 4.23247 12.9169 4.68477C14.0088 5.13707 15.001 5.80001 15.8367 6.63575C16.0189 6.82435 16.1197 7.07695 16.1174 7.33915C16.1151 7.60135 16.0099 7.85216 15.8245 8.03757C15.6391 8.22298 15.3883 8.32815 15.1261 8.33042C14.8639 8.3327 14.6113 8.23191 14.4227 8.04975V8.04975ZM11.5927 10.8798C11.0301 10.3173 10.2672 10.0014 9.47171 10.0014C8.67622 10.0014 7.91329 10.3173 7.35071 10.8798C7.16307 11.0674 6.90858 11.1728 6.64321 11.1728C6.37785 11.1728 6.12335 11.0674 5.93571 10.8798C5.74807 10.6921 5.64266 10.4376 5.64266 10.1722C5.64266 9.90689 5.74807 9.65239 5.93571 9.46475C6.40002 9.00032 6.95128 8.6319 7.55799 8.38055C8.1647 8.12919 8.81499 7.99982 9.47171 7.99982C10.1284 7.99982 10.7787 8.12919 11.3854 8.38055C11.9921 8.6319 12.5434 9.00032 13.0077 9.46475C13.1954 9.65239 13.3008 9.90689 13.3008 10.1722C13.3008 10.4376 13.1954 10.6921 13.0077 10.8798C12.8201 11.0674 12.5656 11.1728 12.3002 11.1728C12.0348 11.1728 11.7804 11.0674 11.5927 10.8798V10.8798ZM8.47271 12.9998C8.47271 12.7345 8.57807 12.4802 8.7656 12.2926C8.95314 12.1051 9.2075 11.9998 9.47271 11.9998H9.48271C9.74793 11.9998 10.0023 12.1051 10.1898 12.2926C10.3774 12.4802 10.4827 12.7345 10.4827 12.9998C10.4827 13.265 10.3774 13.5193 10.1898 13.7069C10.0023 13.8944 9.74793 13.9998 9.48271 13.9998H9.47271C9.2075 13.9998 8.95314 13.8944 8.7656 13.7069C8.57807 13.5193 8.47271 13.265 8.47271 12.9998Z" fill="var(--fill-0, #111928)"/>
</svg>
