<svg preserveAspectRatio="none" width="100%" height="100%" overflow="visible" style="display: block;" viewBox="0 0 16 12" fill="none" xmlns="http://www.w3.org/2000/svg">
<path id="Vector" fill-rule="evenodd" clip-rule="evenodd" d="M2 0C0.895 0 0 0.895 0 2V10C0 11.105 0.895 12 2 12H14C15.105 12 16 11.105 16 10V4C16 2.895 15.105 2 14 2H9L7 0H2ZM9 5C9 4.448 8.552 4 8 4C7.448 4 7 4.448 7 5V6H6C5.448 6 5 6.448 5 7C5 7.552 5.448 8 6 8H7V9C7 9.552 7.448 10 8 10C8.552 10 9 9.552 9 9V8H10C10.552 8 11 7.552 11 7C11 6.448 10.552 6 10 6H9V5Z" fill="var(--fill-0, #111928)"/>
</svg>
