<svg preserveAspectRatio="none" width="100%" height="100%" overflow="visible" style="display: block;" viewBox="0 0 16 14" fill="none" xmlns="http://www.w3.org/2000/svg">
<path id="Vector" d="M2.98771 8.99979C2.98771 9.265 3.09307 9.51936 3.28061 9.70689C3.46814 9.89443 3.7225 9.99979 3.98771 9.99979C4.25293 9.99979 4.50728 9.89443 4.69482 9.70689C4.88235 9.51936 4.98771 9.265 4.98771 8.99979V3.41379L6.28071 4.70679C6.46931 4.88894 6.72192 4.98974 6.98411 4.98746C7.24631 4.98518 7.49712 4.88001 7.68253 4.6946C7.86794 4.5092 7.97311 4.25838 7.97539 3.99619C7.97766 3.73399 7.87687 3.48139 7.69471 3.29279L4.69471 0.292786C4.50718 0.105315 4.25288 0 3.98771 0C3.72255 0 3.46824 0.105315 3.28071 0.292786L0.280712 3.29279C0.0985537 3.48139 -0.00224062 3.73399 3.78026e-05 3.99619C0.00231622 4.25838 0.107485 4.5092 0.292893 4.6946C0.478301 4.88001 0.729114 4.98518 0.99131 4.98746C1.25351 4.98974 1.50611 4.88894 1.69471 4.70679L2.98771 3.41379V8.99979ZM12.9877 4.99979C12.9877 4.73457 12.8824 4.48022 12.6948 4.29268C12.5073 4.10514 12.2529 3.99979 11.9877 3.99979C11.7225 3.99979 11.4681 4.10514 11.2806 4.29268C11.0931 4.48022 10.9877 4.73457 10.9877 4.99979V10.5858L9.69471 9.29279C9.50611 9.11063 9.25351 9.00983 8.99131 9.01211C8.72911 9.01439 8.4783 9.11956 8.29289 9.30497C8.10749 9.49038 8.00232 9.74119 8.00004 10.0034C7.99776 10.2656 8.09855 10.5182 8.28071 10.7068L11.2807 13.7068C11.4682 13.8943 11.7225 13.9996 11.9877 13.9996C12.2529 13.9996 12.5072 13.8943 12.6947 13.7068L15.6947 10.7068C15.8769 10.5182 15.9777 10.2656 15.9754 10.0034C15.9731 9.74119 15.8679 9.49038 15.6825 9.30497C15.4971 9.11956 15.2463 9.01439 14.9841 9.01211C14.7219 9.00983 14.4693 9.11063 14.2807 9.29279L12.9877 10.5858V4.99979Z" fill="var(--fill-0, #111928)"/>
</svg>
