<svg preserveAspectRatio="none" width="100%" height="100%" overflow="visible" style="display: block;" viewBox="0 0 10 3" fill="none" xmlns="http://www.w3.org/2000/svg">
<path id="Vector" d="M3 1.5C3 1.89782 2.84196 2.27935 2.56066 2.56066C2.27936 2.84196 1.89782 3 1.5 3C1.10218 3 0.720644 2.84196 0.43934 2.56066C0.158035 2.27935 0 1.89782 0 1.5C0 1.10218 0.158035 0.720644 0.43934 0.43934C0.720644 0.158035 1.10218 0 1.5 0C1.89782 0 2.27936 0.158035 2.56066 0.43934C2.84196 0.720644 3 1.10218 3 1.5ZM10 1.5C10 1.89782 9.84196 2.27935 9.56066 2.56066C9.27936 2.84196 8.89782 3 8.5 3C8.10218 3 7.72064 2.84196 7.43934 2.56066C7.15804 2.27935 7 1.89782 7 1.5C7 1.10218 7.15804 0.720644 7.43934 0.43934C7.72064 0.158035 8.10218 0 8.5 0C8.89782 0 9.27936 0.158035 9.56066 0.43934C9.84196 0.720644 10 1.10218 10 1.5Z" fill="var(--fill-0, #111928)"/>
</svg>
