<svg preserveAspectRatio="none" width="100%" height="100%" overflow="visible" style="display: block;" viewBox="0 0 6 9" fill="none" xmlns="http://www.w3.org/2000/svg">
<path id="Vector" d="M1.69471 5.293C1.50611 5.11084 1.25351 5.01005 0.991311 5.01233C0.729114 5.0146 0.478302 5.11977 0.292894 5.30518C0.107485 5.49059 0.00231622 5.7414 3.78025e-05 6.0036C-0.00224062 6.2658 0.0985542 6.5184 0.280712 6.707L2.28071 8.707C2.46824 8.89447 2.72255 8.99979 2.98771 8.99979C3.25288 8.99979 3.50718 8.89447 3.69471 8.707L5.69471 6.707C5.87687 6.5184 5.97766 6.2658 5.97539 6.0036C5.97311 5.7414 5.86794 5.49059 5.68253 5.30518C5.49712 5.11977 5.24631 5.0146 4.98411 5.01233C4.72192 5.01005 4.46931 5.11084 4.28071 5.293L3.98771 5.586V1C3.98771 0.734784 3.88236 0.48043 3.69482 0.292893C3.50728 0.105357 3.25293 0 2.98771 0C2.7225 0 2.46814 0.105357 2.28061 0.292893C2.09307 0.48043 1.98771 0.734784 1.98771 1V5.586L1.69471 5.293Z" fill="var(--fill-0, #111928)"/>
</svg>
