<svg preserveAspectRatio="none" width="100%" height="100%" overflow="visible" style="display: block;" viewBox="0 0 17 21" fill="none" xmlns="http://www.w3.org/2000/svg">
<path id="Vector" fill-rule="evenodd" clip-rule="evenodd" d="M8.028 20.3196L8.0316 20.3208C8.268 20.424 8.4 20.4 8.4 20.4C8.4 20.4 8.532 20.424 8.7696 20.3208L8.772 20.3196L8.7792 20.316L8.8008 20.3064C8.91471 20.2535 9.02715 20.1975 9.138 20.1384C9.3612 20.0232 9.6732 19.8504 10.0464 19.6188C10.7904 19.158 11.7804 18.4596 12.7752 17.5008C14.7624 15.5856 16.8 12.5916 16.8 8.4C16.8 7.2969 16.5827 6.20459 16.1606 5.18546C15.7384 4.16632 15.1197 3.24032 14.3397 2.4603C13.5597 1.68029 12.6337 1.06155 11.6145 0.639412C10.5954 0.217272 9.5031 0 8.4 0C7.2969 0 6.20459 0.217272 5.18546 0.639412C4.16632 1.06155 3.24031 1.68029 2.4603 2.4603C1.68029 3.24032 1.06155 4.16632 0.639412 5.18546C0.217273 6.20459 -1.64375e-08 7.2969 0 8.4C0 12.5904 2.0376 15.5856 4.026 17.5008C4.8585 18.3004 5.77272 19.0103 6.7536 19.6188C7.13351 19.8547 7.52435 20.0726 7.9248 20.2716L7.9992 20.3064L8.0208 20.316L8.028 20.3196ZM8.4 11.1C9.11608 11.1 9.80284 10.8155 10.3092 10.3092C10.8155 9.80284 11.1 9.11608 11.1 8.4C11.1 7.68392 10.8155 6.99716 10.3092 6.49081C9.80284 5.98446 9.11608 5.7 8.4 5.7C7.68392 5.7 6.99716 5.98446 6.49081 6.49081C5.98446 6.99716 5.7 7.68392 5.7 8.4C5.7 9.11608 5.98446 9.80284 6.49081 10.3092C6.99716 10.8155 7.68392 11.1 8.4 11.1Z" fill="var(--fill-0, black)"/>
</svg>
