<svg preserveAspectRatio="none" width="100%" height="100%" overflow="visible" style="display: block;" viewBox="0 0 14 9" fill="none" xmlns="http://www.w3.org/2000/svg">
<path id="Vector" fill-rule="evenodd" clip-rule="evenodd" d="M0 0H14V7C14 7.53043 13.7893 8.03914 13.4142 8.41421C13.0391 8.78929 12.5304 9 12 9H2C1.46957 9 0.960859 8.78929 0.585786 8.41421C0.210714 8.03914 0 7.53043 0 7V0ZM5 3C5 2.73478 5.10536 2.48043 5.29289 2.29289C5.48043 2.10536 5.73478 2 6 2H8C8.26522 2 8.51957 2.10536 8.70711 2.29289C8.89464 2.48043 9 2.73478 9 3C9 3.26522 8.89464 3.51957 8.70711 3.70711C8.51957 3.89464 8.26522 4 8 4H6C5.73478 4 5.48043 3.89464 5.29289 3.70711C5.10536 3.51957 5 3.26522 5 3Z" fill="var(--fill-0, #111928)"/>
</svg>
