<svg preserveAspectRatio="none" width="100%" height="100%" overflow="visible" style="display: block;" viewBox="0 0 16 19" fill="none" xmlns="http://www.w3.org/2000/svg">
<path id="Vector" fill-rule="evenodd" clip-rule="evenodd" d="M3.66055e-08 8.57595C3.66055e-08 9.50421 0.368749 10.3944 1.02513 11.0508C1.6815 11.7072 2.57174 12.076 3.5 12.076H7V14.662L5.707 13.369C5.5184 13.1868 5.2658 13.086 5.0036 13.0883C4.7414 13.0906 4.49059 13.1957 4.30518 13.3811C4.11977 13.5665 4.0146 13.8174 4.01233 14.0796C4.01005 14.3417 4.11084 14.5943 4.293 14.783L7.293 17.783C7.48053 17.9704 7.73484 18.0757 8 18.0757C8.26516 18.0757 8.51947 17.9704 8.707 17.783L11.707 14.783C11.8892 14.5943 11.99 14.3417 11.9877 14.0796C11.9854 13.8174 11.8802 13.5665 11.6948 13.3811C11.5094 13.1957 11.2586 13.0906 10.9964 13.0883C10.7342 13.086 10.4816 13.1868 10.293 13.369L9 14.662V12.076H11.5C12.1167 12.0756 12.7268 11.9485 13.2924 11.7025C13.8579 11.4565 14.3668 11.0968 14.7876 10.6459C15.2083 10.195 15.5319 9.66235 15.7382 9.08114C15.9445 8.49993 16.0291 7.88252 15.9868 7.26724C15.9445 6.65196 15.7761 6.05194 15.4922 5.50444C15.2083 4.95693 14.8149 4.47363 14.3364 4.08454C13.8579 3.69545 13.3045 3.40886 12.7106 3.24259C12.1167 3.07631 11.495 3.03389 10.884 3.11795C10.7659 2.59654 10.5445 2.10407 10.2329 1.66963C9.92137 1.23518 9.5259 0.867575 9.0699 0.588504C8.61389 0.309433 8.10659 0.124557 7.57795 0.0447927C7.04931 -0.0349716 6.51005 -0.00800735 5.99201 0.124093C5.47396 0.256194 4.98763 0.490753 4.56174 0.81392C4.13585 1.13709 3.77903 1.54231 3.51234 2.00567C3.24565 2.46903 3.07451 2.98112 3.00901 3.51172C2.94351 4.04231 2.98499 4.58065 3.131 5.09495C2.27136 5.18609 1.47586 5.59213 0.897764 6.23485C0.319667 6.87757 -0.00012492 7.71149 3.66055e-08 8.57595V8.57595ZM9 12.076H7V7.07595C7 6.81074 7.10536 6.55638 7.29289 6.36884C7.48043 6.18131 7.73478 6.07595 8 6.07595C8.26522 6.07595 8.51957 6.18131 8.70711 6.36884C8.89464 6.55638 9 6.81074 9 7.07595V12.076Z" fill="var(--fill-0, #111928)"/>
</svg>
