<svg preserveAspectRatio="none" width="100%" height="100%" overflow="visible" style="display: block;" viewBox="0 0 16 14" fill="none" xmlns="http://www.w3.org/2000/svg">
<path id="Vector" fill-rule="evenodd" clip-rule="evenodd" d="M5.70679 0.292786C5.89426 0.480314 5.99957 0.734622 5.99957 0.999786C5.99957 1.26495 5.89426 1.51926 5.70679 1.70679L3.41379 3.99979H8.99979C10.8563 3.99979 12.6368 4.73728 13.9495 6.05004C15.2623 7.36279 15.9998 9.14327 15.9998 10.9998V12.9998C15.9998 13.265 15.8944 13.5194 15.7069 13.7069C15.5194 13.8944 15.265 13.9998 14.9998 13.9998C14.7346 13.9998 14.4802 13.8944 14.2927 13.7069C14.1051 13.5194 13.9998 13.265 13.9998 12.9998V10.9998C13.9998 9.6737 13.473 8.40193 12.5353 7.46425C11.5976 6.52657 10.3259 5.99979 8.99979 5.99979H3.41379L5.70679 8.29279C5.8023 8.38503 5.87848 8.49538 5.93089 8.61738C5.9833 8.73939 6.01088 8.87061 6.01204 9.00339C6.01319 9.13616 5.98789 9.26784 5.93761 9.39074C5.88733 9.51364 5.81307 9.62529 5.71918 9.71918C5.62529 9.81307 5.51364 9.88733 5.39074 9.93761C5.26784 9.98789 5.13616 10.0132 5.00339 10.012C4.87061 10.0109 4.73939 9.9833 4.61738 9.93089C4.49538 9.87848 4.38503 9.8023 4.29279 9.70679L0.292786 5.70679C0.105315 5.51926 0 5.26495 0 4.99979C0 4.73462 0.105315 4.48031 0.292786 4.29279L4.29279 0.292786C4.48031 0.105315 4.73462 0 4.99979 0C5.26495 0 5.51926 0.105315 5.70679 0.292786V0.292786Z" fill="var(--fill-0, #111928)"/>
</svg>
