<svg preserveAspectRatio="none" width="100%" height="100%" overflow="visible" style="display: block;" viewBox="0 0 16 16" fill="none" xmlns="http://www.w3.org/2000/svg">
<path id="Vector" fill-rule="evenodd" clip-rule="evenodd" d="M4 1C4 0.734784 4.10536 0.48043 4.29289 0.292893C4.48043 0.105357 4.73478 0 5 0H5.01C5.27522 0 5.52957 0.105357 5.71711 0.292893C5.90464 0.48043 6.01 0.734784 6.01 1C6.01 1.26522 5.90464 1.51957 5.71711 1.70711C5.52957 1.89464 5.27522 2 5.01 2H5C4.73478 2 4.48043 1.89464 4.29289 1.70711C4.10536 1.51957 4 1.26522 4 1ZM6 4C6 3.73478 5.89464 3.48043 5.70711 3.29289C5.51957 3.10536 5.26522 3 5 3C4.73478 3 4.48043 3.10536 4.29289 3.29289C4.10536 3.48043 4 3.73478 4 4V5C3.46957 5 2.96086 5.21071 2.58579 5.58579C2.21071 5.96086 2 6.46957 2 7V8C1.46957 8 0.960859 8.21071 0.585786 8.58579C0.210714 8.96086 0 9.46957 0 10V10.683C0.375 10.7881 0.73105 10.9518 1.055 11.168C1.33487 11.3545 1.66367 11.454 2 11.454C2.33633 11.454 2.66513 11.3545 2.945 11.168C3.55353 10.7622 4.26858 10.5457 5 10.5457C5.73142 10.5457 6.44647 10.7622 7.055 11.168C7.33487 11.3545 7.66367 11.454 8 11.454C8.33633 11.454 8.66513 11.3545 8.945 11.168C9.55353 10.7622 10.2686 10.5457 11 10.5457C11.7314 10.5457 12.4465 10.7622 13.055 11.168C13.3349 11.3545 13.6637 11.454 14 11.454C14.3363 11.454 14.6651 11.3545 14.945 11.168C15.2689 10.9518 15.625 10.7881 16 10.683V10C16 9.46957 15.7893 8.96086 15.4142 8.58579C15.0391 8.21071 14.5304 8 14 8V7C14 6.46957 13.7893 5.96086 13.4142 5.58579C13.0391 5.21071 12.5304 5 12 5V4C12 3.73478 11.8946 3.48043 11.7071 3.29289C11.5196 3.10536 11.2652 3 11 3C10.7348 3 10.4804 3.10536 10.2929 3.29289C10.1054 3.48043 10 3.73478 10 4V5H9V4C9 3.73478 8.89464 3.48043 8.70711 3.29289C8.51957 3.10536 8.26522 3 8 3C7.73478 3 7.48043 3.10536 7.29289 3.29289C7.10536 3.48043 7 3.73478 7 4V5H6V4ZM16 12.868C15.3938 13.2569 14.6873 13.4606 13.9671 13.4542C13.2469 13.4478 12.5442 13.2316 11.945 12.832C11.6651 12.6455 11.3363 12.546 11 12.546C10.6637 12.546 10.3349 12.6455 10.055 12.832C9.44647 13.2378 8.73142 13.4543 8 13.4543C7.26858 13.4543 6.55353 13.2378 5.945 12.832C5.66513 12.6455 5.33633 12.546 5 12.546C4.66367 12.546 4.33487 12.6455 4.055 12.832C3.45578 13.2316 2.75307 13.4478 2.03286 13.4542C1.31266 13.4606 0.606216 13.2569 0 12.868V15C0 15.2652 0.105357 15.5196 0.292893 15.7071C0.48043 15.8946 0.734784 16 1 16H15C15.2652 16 15.5196 15.8946 15.7071 15.7071C15.8946 15.5196 16 15.2652 16 15V12.868ZM7 1C7 0.734784 7.10536 0.48043 7.29289 0.292893C7.48043 0.105357 7.73478 0 8 0H8.01C8.27522 0 8.52957 0.105357 8.71711 0.292893C8.90464 0.48043 9.01 0.734784 9.01 1C9.01 1.26522 8.90464 1.51957 8.71711 1.70711C8.52957 1.89464 8.27522 2 8.01 2H8C7.73478 2 7.48043 1.89464 7.29289 1.70711C7.10536 1.51957 7 1.26522 7 1ZM10 1C10 0.734784 10.1054 0.48043 10.2929 0.292893C10.4804 0.105357 10.7348 0 11 0H11.01C11.2752 0 11.5296 0.105357 11.7171 0.292893C11.9046 0.48043 12.01 0.734784 12.01 1C12.01 1.26522 11.9046 1.51957 11.7171 1.70711C11.5296 1.89464 11.2752 2 11.01 2H11C10.7348 2 10.4804 1.89464 10.2929 1.70711C10.1054 1.51957 10 1.26522 10 1Z" fill="var(--fill-0, #111928)"/>
</svg>
