<svg preserveAspectRatio="none" width="100%" height="100%" overflow="visible" style="display: block;" viewBox="0 0 16 8" fill="none" xmlns="http://www.w3.org/2000/svg">
<path id="Vector" fill-rule="evenodd" clip-rule="evenodd" d="M3 3.00196C3.00001 2.42284 3.16765 1.8561 3.48266 1.37016C3.79768 0.884208 4.24662 0.499825 4.77529 0.263406C5.30395 0.0269866 5.88975 -0.0513631 6.46196 0.0378142C7.03418 0.126991 7.56835 0.379884 8 0.765965C8.49639 0.32107 9.12682 0.0541694 9.79177 0.00739695C10.4567 -0.0393755 11.1183 0.136644 11.6721 0.507669C12.2259 0.878694 12.6403 1.42359 12.85 2.05634C13.0597 2.68909 13.0526 3.37366 12.83 4.00197H14C14.5304 4.00197 15.0391 4.21268 15.4142 4.58775C15.7893 4.96282 16 5.47153 16 6.00197C16 6.5324 15.7893 7.04111 15.4142 7.41618C15.0391 7.79125 14.5304 8.00196 14 8.00196H9V7.00197C9 6.73675 8.89464 6.48239 8.70711 6.29486C8.51957 6.10732 8.26522 6.00197 8 6.00197C7.73478 6.00197 7.48043 6.10732 7.29289 6.29486C7.10536 6.48239 7 6.73675 7 7.00197V8.00196H2C1.46957 8.00196 0.960859 7.79125 0.585786 7.41618C0.210714 7.04111 0 6.5324 0 6.00197C0 5.47153 0.210714 4.96282 0.585786 4.58775C0.960859 4.21268 1.46957 4.00197 2 4.00197H3.17C3.06 3.68897 3 3.35196 3 3.00196ZM7 4.00197V3.00196C7 2.80418 6.94135 2.61084 6.83147 2.44639C6.72159 2.28195 6.56541 2.15377 6.38268 2.07809C6.19996 2.0024 5.99889 1.98259 5.80491 2.02118C5.61093 2.05976 5.43275 2.15501 5.29289 2.29486C5.15304 2.43471 5.0578 2.61289 5.01921 2.80687C4.98063 3.00086 5.00043 3.20192 5.07612 3.38465C5.15181 3.56737 5.27998 3.72355 5.44443 3.83343C5.60888 3.94332 5.80222 4.00197 6 4.00197H7ZM10 4.00197C10.1978 4.00197 10.3911 3.94332 10.5556 3.83343C10.72 3.72355 10.8482 3.56737 10.9239 3.38465C10.9996 3.20192 11.0194 3.00086 10.9808 2.80687C10.9422 2.61289 10.847 2.43471 10.7071 2.29486C10.5673 2.15501 10.3891 2.05976 10.1951 2.02118C10.0011 1.98259 9.80004 2.0024 9.61732 2.07809C9.43459 2.15377 9.27841 2.28195 9.16853 2.44639C9.05865 2.61084 9 2.80418 9 3.00196V4.00197H10Z" fill="var(--fill-0, #111928)"/>
</svg>
