<svg preserveAspectRatio="none" width="100%" height="100%" overflow="visible" style="display: block;" viewBox="0 0 15 18" fill="none" xmlns="http://www.w3.org/2000/svg">
<path id="Vector" d="M2.46094 17.6554C2.01562 18.0257 1.39219 18.1101 0.8625 17.8617C0.332812 17.6132 0 17.0835 0 16.5023V1.50228C0 0.921035 0.3375 0.391347 0.8625 0.14291C1.3875 -0.105528 2.01094 -0.0258401 2.46094 0.34916L11.4609 7.84916L12 8.29916V1.50228C12 0.672597 12.6703 0.0022848 13.5 0.0022848C14.3297 0.0022848 15 0.672597 15 1.50228V16.5023C15 17.332 14.3297 18.0023 13.5 18.0023C12.6703 18.0023 12 17.332 12 16.5023V9.70541L11.4609 10.1554L2.46094 17.6554Z" fill="var(--fill-0, #1F2A37)"/>
</svg>
