<svg preserveAspectRatio="none" width="100%" height="100%" overflow="visible" style="display: block;" viewBox="0 0 16 12" fill="none" xmlns="http://www.w3.org/2000/svg">
<path id="Vector" fill-rule="evenodd" clip-rule="evenodd" d="M2 0C0.895 0 0 0.895 0 2V10C0 11.105 0.895 12 2 12H14C15.105 12 16 11.105 16 10V4C16 2.895 15.105 2 14 2H9L7 0H2ZM9 5C9 4.448 8.552 4 8 4C7.448 4 7 4.448 7 5V6.586L6.707 6.29303C6.317 5.90203 5.683 5.90203 5.293 6.29303C4.902 6.68303 4.902 7.31697 5.293 7.70697L7.293 9.70697C7.683 10.098 8.317 10.098 8.707 9.70697L10.707 7.70697C11.098 7.31697 11.098 6.68303 10.707 6.29303C10.317 5.90203 9.683 5.90203 9.293 6.29303L9 6.586V5Z" fill="var(--fill-0, #111928)"/>
</svg>
