<svg preserveAspectRatio="none" width="100%" height="100%" overflow="visible" style="display: block;" viewBox="0 0 16 16" fill="none" xmlns="http://www.w3.org/2000/svg">
<path id="Vector" fill-rule="evenodd" clip-rule="evenodd" d="M7.99971 0C8.26493 0 8.51928 0.105357 8.70682 0.292893C8.89435 0.48043 8.99971 0.734784 8.99971 1V2.323L12.9537 3.905L14.5527 3.105C14.7901 2.98645 15.0648 2.96705 15.3165 3.05106C15.5682 3.13508 15.7762 3.31563 15.8947 3.553C16.0133 3.79037 16.0327 4.06511 15.9486 4.31678C15.8646 4.56846 15.6841 4.77645 15.4467 4.895L14.2137 5.511L15.9517 10.931C16.0106 11.1149 16.0151 11.3118 15.9645 11.4982C15.9139 11.6845 15.8105 11.8522 15.6667 11.981C14.9339 12.6381 13.984 13.001 12.9997 13C12.0154 13.001 11.0655 12.6381 10.3327 11.981C10.1889 11.8522 10.0855 11.6845 10.0349 11.4982C9.98435 11.3118 9.98879 11.1149 10.0477 10.931L11.7627 5.582L8.99971 4.477V14H10.9997C11.2649 14 11.5193 14.1054 11.7068 14.2929C11.8944 14.4804 11.9997 14.7348 11.9997 15C11.9997 15.2652 11.8944 15.5196 11.7068 15.7071C11.5193 15.8946 11.2649 16 10.9997 16H4.99971C4.7345 16 4.48014 15.8946 4.29261 15.7071C4.10507 15.5196 3.99971 15.2652 3.99971 15C3.99971 14.7348 4.10507 14.4804 4.29261 14.2929C4.48014 14.1054 4.7345 14 4.99971 14H6.99971V4.477L4.23671 5.582L5.95171 10.931C6.01064 11.1149 6.01508 11.3118 5.96451 11.4982C5.91393 11.6845 5.81051 11.8522 5.66671 11.981C4.93387 12.6381 3.98398 13.001 2.99971 13C2.01544 13.001 1.06555 12.6381 0.332712 11.981C0.188918 11.8522 0.0854917 11.6845 0.0349187 11.4982C-0.0156543 11.3118 -0.011211 11.1149 0.047712 10.931L1.78571 5.511L0.552712 4.894C0.323984 4.77066 0.152253 4.56312 0.0738956 4.31535C-0.00446156 4.06758 0.0167098 3.79904 0.132925 3.56661C0.24914 3.33418 0.451271 3.15611 0.696502 3.07014C0.941733 2.98416 1.2108 2.99702 1.44671 3.106L3.04571 3.905L6.99971 2.323V1C6.99971 0.734784 7.10507 0.48043 7.29261 0.292893C7.48014 0.105357 7.7345 0 7.99971 0V0ZM2.99971 8.274L2.18171 10.826C2.43171 10.938 2.70771 11 2.99971 11C3.29171 11 3.56871 10.938 3.81771 10.826L2.99971 8.274ZM12.9997 8.274L12.1817 10.826C12.4317 10.938 12.7077 11 12.9997 11C13.2917 11 13.5687 10.938 13.8177 10.826L12.9997 8.274Z" fill="var(--fill-0, #111928)"/>
</svg>
