<svg preserveAspectRatio="none" width="100%" height="100%" overflow="visible" style="display: block;" viewBox="0 0 16 15" fill="none" xmlns="http://www.w3.org/2000/svg">
<path id="Vector" fill-rule="evenodd" clip-rule="evenodd" d="M8.496 0.131677C8.34494 0.0453869 8.17397 0 8 0C7.82603 0 7.65506 0.0453869 7.504 0.131677L0.504 4.13168C0.312671 4.24113 0.162867 4.41074 0.0778804 4.61412C-0.0071063 4.8175 -0.0225134 5.04327 0.0340548 5.25631C0.0906229 5.46935 0.215996 5.65774 0.390682 5.79217C0.565367 5.9266 0.779575 5.99955 1 5.99968V12.9997C0.734784 12.9997 0.48043 13.105 0.292893 13.2926C0.105357 13.4801 0 13.7345 0 13.9997C0 14.2649 0.105357 14.5192 0.292893 14.7068C0.48043 14.8943 0.734784 14.9997 1 14.9997H15C15.2652 14.9997 15.5196 14.8943 15.7071 14.7068C15.8946 14.5192 16 14.2649 16 13.9997C16 13.7345 15.8946 13.4801 15.7071 13.2926C15.5196 13.105 15.2652 12.9997 15 12.9997V5.99968C15.2204 5.99955 15.4346 5.9266 15.6093 5.79217C15.784 5.65774 15.9094 5.46935 15.9659 5.25631C16.0225 5.04327 16.0071 4.8175 15.9221 4.61412C15.8371 4.41074 15.6873 4.24113 15.496 4.13168L8.496 0.131677V0.131677ZM4 6.99968C3.73478 6.99968 3.48043 7.10503 3.29289 7.29257C3.10536 7.48011 3 7.73446 3 7.99968V10.9997C3 11.2649 3.10536 11.5192 3.29289 11.7068C3.48043 11.8943 3.73478 11.9997 4 11.9997C4.26522 11.9997 4.51957 11.8943 4.70711 11.7068C4.89464 11.5192 5 11.2649 5 10.9997V7.99968C5 7.73446 4.89464 7.48011 4.70711 7.29257C4.51957 7.10503 4.26522 6.99968 4 6.99968ZM7 7.99968C7 7.73446 7.10536 7.48011 7.29289 7.29257C7.48043 7.10503 7.73478 6.99968 8 6.99968C8.26522 6.99968 8.51957 7.10503 8.70711 7.29257C8.89464 7.48011 9 7.73446 9 7.99968V10.9997C9 11.2649 8.89464 11.5192 8.70711 11.7068C8.51957 11.8943 8.26522 11.9997 8 11.9997C7.73478 11.9997 7.48043 11.8943 7.29289 11.7068C7.10536 11.5192 7 11.2649 7 10.9997V7.99968ZM12 6.99968C11.7348 6.99968 11.4804 7.10503 11.2929 7.29257C11.1054 7.48011 11 7.73446 11 7.99968V10.9997C11 11.2649 11.1054 11.5192 11.2929 11.7068C11.4804 11.8943 11.7348 11.9997 12 11.9997C12.2652 11.9997 12.5196 11.8943 12.7071 11.7068C12.8946 11.5192 13 11.2649 13 10.9997V7.99968C13 7.73446 12.8946 7.48011 12.7071 7.29257C12.5196 7.10503 12.2652 6.99968 12 6.99968Z" fill="var(--fill-0, #111928)"/>
</svg>
