<svg preserveAspectRatio="none" width="100%" height="100%" overflow="visible" style="display: block;" viewBox="0 0 16 16" fill="none" xmlns="http://www.w3.org/2000/svg">
<path id="Vector" fill-rule="evenodd" clip-rule="evenodd" d="M16 0.999466C15.9999 0.829075 15.9563 0.661533 15.8733 0.512738C15.7902 0.363943 15.6706 0.23883 15.5256 0.149272C15.3806 0.0597132 15.2152 0.00867941 15.045 0.00101288C14.8748 -0.00665365 14.7054 0.0293013 14.553 0.105466L6.763 3.99947H3C2.20435 3.99947 1.44129 4.31554 0.87868 4.87815C0.316071 5.44076 0 6.20382 0 6.99947C0 7.79512 0.316071 8.55818 0.87868 9.12079C1.44129 9.6834 2.20435 9.99947 3 9.99947H3.28L5.051 15.3155C5.11735 15.5147 5.24472 15.6879 5.41505 15.8107C5.58538 15.9335 5.79004 15.9995 6 15.9995H7C7.26522 15.9995 7.51957 15.8941 7.70711 15.7066C7.89464 15.519 8 15.2647 8 14.9995V10.6175L14.553 13.8935C14.7054 13.9696 14.8748 14.0056 15.045 13.9979C15.2152 13.9903 15.3806 13.9392 15.5256 13.8497C15.6706 13.7601 15.7902 13.635 15.8733 13.4862C15.9563 13.3374 15.9999 13.1699 16 12.9995V0.999466Z" fill="var(--fill-0, #111928)"/>
</svg>
