<svg preserveAspectRatio="none" width="100%" height="100%" overflow="visible" style="display: block;" viewBox="0 0 24 19" fill="none" xmlns="http://www.w3.org/2000/svg">
<path id="Vector" d="M0 2.66667C0 1.19583 1.19583 0 2.66667 0H21.3333C22.8042 0 24 1.19583 24 2.66667V16C24 17.4708 22.8042 18.6667 21.3333 18.6667H2.66667C1.19583 18.6667 0 17.4708 0 16V2.66667ZM8.33333 7.33333C8.925 7.33333 9.45833 7.5875 9.825 8C10.1917 8.4125 10.825 8.44583 11.2375 8.07917C11.65 7.7125 11.6833 7.07917 11.3167 6.66667C10.5875 5.85 9.52083 5.33333 8.3375 5.33333C6.12917 5.33333 4.3375 7.125 4.3375 9.33333C4.3375 11.5417 6.12917 13.3333 8.3375 13.3333C9.52083 13.3333 10.5875 12.8167 11.3167 12C11.6833 11.5875 11.65 10.9583 11.2375 10.5875C10.825 10.2167 10.1958 10.2542 9.825 10.6667C9.45833 11.0792 8.925 11.3333 8.33333 11.3333C7.22917 11.3333 6.33333 10.4375 6.33333 9.33333C6.33333 8.22917 7.22917 7.33333 8.33333 7.33333ZM14.3333 9.33333C14.3333 8.22917 15.2292 7.33333 16.3333 7.33333C16.925 7.33333 17.4583 7.5875 17.825 8C18.1917 8.4125 18.825 8.44583 19.2375 8.07917C19.65 7.7125 19.6833 7.07917 19.3167 6.66667C18.5875 5.85 17.5208 5.33333 16.3375 5.33333C14.1292 5.33333 12.3375 7.125 12.3375 9.33333C12.3375 11.5417 14.1292 13.3333 16.3375 13.3333C17.5208 13.3333 18.5875 12.8167 19.3167 12C19.6833 11.5875 19.65 10.9583 19.2375 10.5875C18.825 10.2167 18.1958 10.2542 17.825 10.6667C17.4583 11.0792 16.925 11.3333 16.3333 11.3333C15.2292 11.3333 14.3333 10.4375 14.3333 9.33333Z" fill="var(--fill-0, black)"/>
</svg>
