<svg preserveAspectRatio="none" width="100%" height="100%" overflow="visible" style="display: block;" viewBox="0 0 16 12" fill="none" xmlns="http://www.w3.org/2000/svg">
<path id="Vector" d="M1 0C0.734784 0 0.48043 0.105357 0.292893 0.292893C0.105357 0.48043 0 0.734784 0 1V11C0 11.2652 0.105357 11.5196 0.292893 11.7071C0.48043 11.8946 0.734784 12 1 12H2.05C2.16476 11.4349 2.47136 10.9268 2.91787 10.5618C3.36438 10.1969 3.92332 9.99749 4.5 9.99749C5.07668 9.99749 5.63562 10.1969 6.08213 10.5618C6.52864 10.9268 6.83524 11.4349 6.95 12H8C8.26522 12 8.51957 11.8946 8.70711 11.7071C8.89464 11.5196 9 11.2652 9 11V1C9 0.734784 8.89464 0.48043 8.70711 0.292893C8.51957 0.105357 8.26522 0 8 0H1ZM12 3C11.7348 3 11.4804 3.10536 11.2929 3.29289C11.1054 3.48043 11 3.73478 11 4V10.05C11.3217 9.98427 11.6533 9.98257 11.9757 10.045C12.2981 10.1074 12.605 10.2328 12.879 10.4139C13.1529 10.5949 13.3885 10.8282 13.5723 11.1004C13.756 11.3725 13.8844 11.6782 13.95 12H15C15.2652 12 15.5196 11.8946 15.7071 11.7071C15.8946 11.5196 16 11.2652 16 11V6C15.9999 5.73481 15.8946 5.48049 15.707 5.293L13.707 3.293C13.5195 3.10545 13.2652 3.00006 13 3H12Z" fill="var(--fill-0, #111928)"/>
</svg>
