<svg preserveAspectRatio="none" width="100%" height="100%" overflow="visible" style="display: block;" viewBox="0 0 16 16" fill="none" xmlns="http://www.w3.org/2000/svg">
<path id="Vector" fill-rule="evenodd" clip-rule="evenodd" d="M8 16C10.1217 16 12.1566 15.1571 13.6569 13.6569C15.1571 12.1566 16 10.1217 16 8C16 5.87827 15.1571 3.84344 13.6569 2.34315C12.1566 0.842855 10.1217 0 8 0C5.87827 0 3.84344 0.842855 2.34315 2.34315C0.842855 3.84344 0 5.87827 0 8C0 10.1217 0.842855 12.1566 2.34315 13.6569C3.84344 15.1571 5.87827 16 8 16V16ZM5 7C5.26522 7 5.51957 6.89464 5.70711 6.70711C5.89464 6.51957 6 6.26522 6 6C6 5.73478 5.89464 5.48043 5.70711 5.29289C5.51957 5.10536 5.26522 5 5 5C4.73478 5 4.48043 5.10536 4.29289 5.29289C4.10536 5.48043 4 5.73478 4 6C4 6.26522 4.10536 6.51957 4.29289 6.70711C4.48043 6.89464 4.73478 7 5 7ZM12 6C12 6.26522 11.8946 6.51957 11.7071 6.70711C11.5196 6.89464 11.2652 7 11 7C10.7348 7 10.4804 6.89464 10.2929 6.70711C10.1054 6.51957 10 6.26522 10 6C10 5.73478 10.1054 5.48043 10.2929 5.29289C10.4804 5.10536 10.7348 5 11 5C11.2652 5 11.5196 5.10536 11.7071 5.29289C11.8946 5.48043 12 5.73478 12 6ZM4.464 11.879C4.55687 11.972 4.66716 12.0457 4.78856 12.0961C4.90996 12.1464 5.04008 12.1723 5.1715 12.1723C5.30292 12.1723 5.43304 12.1464 5.55444 12.0961C5.67584 12.0457 5.78613 11.972 5.879 11.879C6.44158 11.3166 7.20451 11.0006 8 11.0006C8.79549 11.0006 9.55842 11.3166 10.121 11.879C10.3086 12.0666 10.5631 12.1721 10.8285 12.1721C11.0939 12.1721 11.3484 12.0666 11.536 11.879C11.7236 11.6914 11.8291 11.4369 11.8291 11.1715C11.8291 10.9061 11.7236 10.6516 11.536 10.464C11.0717 9.99957 10.5204 9.63115 9.91372 9.3798C9.30701 9.12844 8.65672 8.99907 8 8.99907C7.34328 8.99907 6.69299 9.12844 6.08628 9.3798C5.47956 9.63115 4.92831 9.99957 4.464 10.464C4.37102 10.5569 4.29726 10.6672 4.24694 10.7886C4.19662 10.91 4.17071 11.0401 4.17071 11.1715C4.17071 11.3029 4.19662 11.433 4.24694 11.5544C4.29726 11.6758 4.37102 11.7861 4.464 11.879V11.879Z" fill="var(--fill-0, #111928)"/>
</svg>
