<svg preserveAspectRatio="none" width="100%" height="100%" overflow="visible" style="display: block;" viewBox="0 0 27 22" fill="none" xmlns="http://www.w3.org/2000/svg">
<g id="Layer_87">
<path id="Shape" fill-rule="evenodd" clip-rule="evenodd" d="M26.6667 6.66667C26.6667 7.40305 26.0697 8 25.3333 8C23.8606 8 22.6667 9.19391 22.6667 10.6667C22.6667 12.1394 23.8606 13.3333 25.3333 13.3333C26.0697 13.3333 26.6667 13.9303 26.6667 14.6667V17.3333C26.6667 19.5425 24.8758 21.3333 22.6667 21.3333H17.3333V17.3333C17.3333 16.597 16.7364 16 16 16C15.2636 16 14.6667 16.597 14.6667 17.3333V21.3333H4C1.79086 21.3333 0 19.5425 0 17.3333V14.6667C0 13.9303 0.596954 13.3333 1.33333 13.3333C2.80609 13.3333 4 12.1394 4 10.6667C4 9.19391 2.80609 8 1.33333 8C0.596954 8 0 7.40305 0 6.66667V4C0 1.79086 1.79086 0 4 0H14.6667V4C14.6667 4.73638 15.2636 5.33333 16 5.33333C16.7364 5.33333 17.3333 4.73638 17.3333 4V0H22.6667C24.8758 0 26.6667 1.79086 26.6667 4V6.66667ZM16 13.3333C16.7364 13.3333 17.3333 12.7364 17.3333 12V9.33333C17.3333 8.59695 16.7364 8 16 8C15.2636 8 14.6667 8.59695 14.6667 9.33333V12C14.6667 12.7364 15.2636 13.3333 16 13.3333Z" fill="var(--fill-0, #4BB4E6)"/>
</g>
</svg>
