<svg preserveAspectRatio="none" width="100%" height="100%" overflow="visible" style="display: block;" viewBox="0 0 14 14" fill="none" xmlns="http://www.w3.org/2000/svg">
<g id="Layer_73">
<circle id="Oval" cx="6.66667" cy="6.66667" r="0.666667" fill="var(--fill-0, #4BB4E6)"/>
<path id="Shape" fill-rule="evenodd" clip-rule="evenodd" d="M11.9533 6H12.6667C13.0349 6 13.3333 6.29848 13.3333 6.66667C13.3333 7.03486 13.0349 7.33333 12.6667 7.33333H11.9533C11.6473 9.74679 9.74679 11.6473 7.33333 11.9533V12.6667C7.33333 13.0349 7.03486 13.3333 6.66667 13.3333C6.29848 13.3333 6 13.0349 6 12.6667V11.9533C3.58654 11.6473 1.68606 9.74679 1.38 7.33333H0.666667C0.298477 7.33333 0 7.03486 0 6.66667C0 6.29848 0.298477 6 0.666667 6H1.38C1.68606 3.58654 3.58654 1.68606 6 1.38V0.666667C6 0.298477 6.29848 0 6.66667 0C7.03486 0 7.33333 0.298477 7.33333 0.666667V1.38C9.74679 1.68606 11.6473 3.58654 11.9533 6ZM4.66667 6.66667C4.66667 7.77124 5.5621 8.66667 6.66667 8.66667C7.1971 8.66667 7.70581 8.45595 8.08088 8.08088C8.45595 7.70581 8.66667 7.1971 8.66667 6.66667C8.66667 5.5621 7.77124 4.66667 6.66667 4.66667C5.5621 4.66667 4.66667 5.5621 4.66667 6.66667Z" fill="var(--fill-0, #4BB4E6)"/>
</g>
</svg>
