<svg preserveAspectRatio="none" width="100%" height="100%" overflow="visible" style="display: block;" viewBox="0 0 27 27" fill="none" xmlns="http://www.w3.org/2000/svg">
<g id="Layer_76">
<path id="Path" d="M1.33333 10.6667C2.06971 10.6667 2.66667 10.0697 2.66667 9.33333V4C2.66667 3.26362 3.26362 2.66667 4 2.66667H9.33333C10.0697 2.66667 10.6667 2.06971 10.6667 1.33333C10.6667 0.596954 10.0697 0 9.33333 0H4C1.79086 0 0 1.79086 0 4V9.33333C0 10.0697 0.596954 10.6667 1.33333 10.6667Z" fill="var(--fill-0, #4BB4E6)"/>
<path id="Path_2" d="M22.6667 0H17.3333C16.597 0 16 0.596954 16 1.33333C16 2.06971 16.597 2.66667 17.3333 2.66667H22.6667C23.403 2.66667 24 3.26362 24 4V9.33333C24 10.0697 24.597 10.6667 25.3333 10.6667C26.0697 10.6667 26.6667 10.0697 26.6667 9.33333V4C26.6667 1.79086 24.8758 0 22.6667 0Z" fill="var(--fill-0, #4BB4E6)"/>
<path id="Path_3" d="M25.3333 16C24.597 16 24 16.597 24 17.3333V22.6667C24 23.403 23.403 24 22.6667 24H17.3333C16.597 24 16 24.597 16 25.3333C16 26.0697 16.597 26.6667 17.3333 26.6667H22.6667C24.8758 26.6667 26.6667 24.8758 26.6667 22.6667V17.3333C26.6667 16.597 26.0697 16 25.3333 16Z" fill="var(--fill-0, #4BB4E6)"/>
<path id="Path_4" d="M9.33333 24H4C3.26362 24 2.66667 23.403 2.66667 22.6667V17.3333C2.66667 16.597 2.06971 16 1.33333 16C0.596954 16 0 16.597 0 17.3333V22.6667C0 24.8758 1.79086 26.6667 4 26.6667H9.33333C10.0697 26.6667 10.6667 26.0697 10.6667 25.3333C10.6667 24.597 10.0697 24 9.33333 24Z" fill="var(--fill-0, #4BB4E6)"/>
<rect id="Rectangle" x="5.33333" y="5.33333" width="16" height="16" rx="2" fill="var(--fill-0, #4BB4E6)"/>
</g>
</svg>
