<svg preserveAspectRatio="none" width="100%" height="100%" overflow="visible" style="display: block;" viewBox="0 0 20 20" fill="none" xmlns="http://www.w3.org/2000/svg">
<g id="Layer_8">
<path id="Shape" fill-rule="evenodd" clip-rule="evenodd" d="M0 10C0 4.47715 4.47715 0 10 0C12.6522 0 15.1957 1.05357 17.0711 2.92893C18.9464 4.8043 20 7.34784 20 10C20 15.5228 15.5228 20 10 20C4.47715 20 0 15.5228 0 10ZM7.41 11H15C15.5523 11 16 10.5523 16 10C16 9.44771 15.5523 9 15 9H7.41L9.71 6.71C9.96366 6.45634 10.0627 6.08663 9.96988 5.74012C9.87703 5.39362 9.60638 5.12297 9.25988 5.03012C8.91337 4.93728 8.54366 5.03634 8.29 5.29L4.29 9.29C4.19896 9.3851 4.12759 9.49725 4.08 9.62C3.97998 9.86346 3.97998 10.1365 4.08 10.38C4.12759 10.5028 4.19896 10.6149 4.29 10.71L8.29 14.71C8.47777 14.8993 8.73336 15.0058 9 15.0058C9.26664 15.0058 9.52223 14.8993 9.71 14.71C9.89931 14.5222 10.0058 14.2666 10.0058 14C10.0058 13.7334 9.89931 13.4778 9.71 13.29L7.41 11Z" fill="var(--fill-0, #4BB4E6)"/>
</g>
</svg>
