<svg preserveAspectRatio="none" width="100%" height="100%" overflow="visible" style="display: block;" viewBox="0 0 22 22" fill="none" xmlns="http://www.w3.org/2000/svg">
<g id="Layer_88">
<path id="Path" d="M8.05 7.8C8.05 7.66193 7.93807 7.55 7.8 7.55C7.66411 7.55513 7.55513 7.66411 7.55 7.8C7.55 8.08 8.05 8.08 8.05 7.8Z" fill="var(--fill-0, #4BB4E6)"/>
<path id="Path_2" d="M13.64 13.39C13.5019 13.39 13.39 13.5019 13.39 13.64C13.39 13.91 13.89 13.91 13.89 13.64C13.89 13.5019 13.7781 13.39 13.64 13.39Z" fill="var(--fill-0, #4BB4E6)"/>
<path id="Shape" fill-rule="evenodd" clip-rule="evenodd" d="M19.3 7.12C19.496 7.49058 19.7491 7.82803 20.05 8.12C20.8275 8.77807 21.3246 9.70797 21.44 10.72C21.3255 11.7069 20.8479 12.6159 20.1 13.27C19.7991 13.562 19.5461 13.8994 19.35 14.27C19.2256 14.6848 19.1715 15.1174 19.19 15.55C19.2736 16.5405 18.9728 17.5252 18.35 18.3C17.5752 18.9228 16.5905 19.2236 15.6 19.14C15.1674 19.1215 14.7347 19.1756 14.32 19.3C13.9511 19.4987 13.6141 19.7515 13.32 20.05C12.6665 20.8332 11.7342 21.3316 10.72 21.44C9.73104 21.3322 8.81976 20.8533 8.17 20.1C7.87594 19.8015 7.53888 19.5487 7.17 19.35C6.75525 19.2256 6.32261 19.1715 5.89 19.19C4.89947 19.2736 3.91477 18.9728 3.14 18.35C2.51721 17.5752 2.21643 16.5905 2.3 15.6C2.31846 15.1674 2.26438 14.7347 2.14 14.32C1.94395 13.9494 1.69086 13.612 1.39 13.32C0.612525 12.6619 0.115391 11.732 0 10.72C0.114476 9.73308 0.592144 8.82409 1.34 8.17C1.64086 7.87803 1.89395 7.54058 2.09 7.17C2.21438 6.75525 2.26846 6.32261 2.25 5.89C2.16643 4.89947 2.46721 3.91477 3.09 3.14C3.86477 2.51721 4.84947 2.21643 5.84 2.3C6.27261 2.31846 6.70525 2.26438 7.12 2.14C7.48888 1.94128 7.82594 1.68848 8.12 1.39C8.77345 0.606824 9.70579 0.108379 10.72 0C11.709 0.107819 12.6202 0.586685 13.27 1.34C13.5641 1.63848 13.9011 1.89128 14.27 2.09C14.6848 2.21438 15.1174 2.26846 15.55 2.25C16.5405 2.16643 17.5252 2.46721 18.3 3.09C18.9228 3.86477 19.2236 4.84947 19.14 5.84C19.1215 6.27261 19.1756 6.70525 19.3 7.12ZM7.8 5.55C6.55736 5.55 5.55 6.55736 5.55 7.8C5.55 9.04264 6.55736 10.05 7.8 10.05C9.04264 10.05 10.05 9.04264 10.05 7.8C10.05 6.55736 9.04264 5.55 7.8 5.55ZM8.09 14.8C7.90374 14.9847 7.65234 15.0889 7.39 15.09C7.12644 15.0604 6.88543 14.9273 6.72 14.72C6.33228 14.33 6.33228 13.7 6.72 13.31L13.35 6.72C13.5628 6.36061 13.9766 6.17136 14.3877 6.24541C14.7988 6.31946 15.1205 6.64121 15.1946 7.05229C15.2686 7.46336 15.0794 7.87716 14.72 8.09L8.09 14.8ZM11.39 13.68C11.39 14.9226 12.3974 15.93 13.64 15.93V15.89C14.8672 15.8902 15.8682 14.907 15.89 13.68C15.89 12.4374 14.8826 11.43 13.64 11.43C12.3974 11.43 11.39 12.4374 11.39 13.68Z" fill="var(--fill-0, #4BB4E6)"/>
</g>
</svg>
