<svg preserveAspectRatio="none" width="100%" height="100%" overflow="visible" style="display: block;" viewBox="0 0 14 14" fill="none" xmlns="http://www.w3.org/2000/svg">
<g id="Layer_41">
<path id="Shape" fill-rule="evenodd" clip-rule="evenodd" d="M0 6.66667C0 2.98477 2.98477 0 6.66667 0C8.43478 0 10.1305 0.702379 11.3807 1.95262C12.631 3.20286 13.3333 4.89856 13.3333 6.66667C13.3333 10.3486 10.3486 13.3333 6.66667 13.3333C2.98477 13.3333 0 10.3486 0 6.66667ZM7.33333 7.33333H10C10.3682 7.33333 10.6667 7.03486 10.6667 6.66667C10.6667 6.29848 10.3682 6 10 6H7.33333V3.33333C7.33333 2.96514 7.03486 2.66667 6.66667 2.66667C6.29848 2.66667 6 2.96514 6 3.33333V6H3.33333C2.96514 6 2.66667 6.29848 2.66667 6.66667C2.66667 7.03486 2.96514 7.33333 3.33333 7.33333H6V10C6 10.3682 6.29848 10.6667 6.66667 10.6667C7.03486 10.6667 7.33333 10.3682 7.33333 10V7.33333Z" fill="var(--fill-0, #4BB4E6)"/>
</g>
</svg>
