<svg preserveAspectRatio="none" width="100%" height="100%" overflow="visible" style="display: block;" viewBox="0 0 14 11" fill="none" xmlns="http://www.w3.org/2000/svg">
<g id="Layer_120">
<path id="Path" d="M12.68 4.06039L8.01334 0.31372V0.31372C7.66859 -0.00944659 7.16227 -0.0911958 6.73334 0.107054C6.21616 0.41268 5.93246 0.998454 6.01334 1.59372V3.59372L1.96667 0.41372C1.62775 0.105311 1.13839 0.0268048 0.720004 0.21372C0.446671 0.340387 0.0133375 0.707054 0.0133375 1.69372V9.19372C-0.0665379 9.78702 0.217243 10.3704 0.733338 10.6737C0.875274 10.7399 1.03005 10.7741 1.18667 10.7737C1.47903 10.7642 1.76013 10.6588 1.98667 10.4737L6.01334 7.27372V9.09372C5.93346 9.68702 6.21724 10.2703 6.73334 10.5737C6.87555 10.6391 7.03014 10.6732 7.18667 10.6737C7.48054 10.6659 7.76287 10.5577 7.98667 10.3671L12.68 6.62039C13.0854 6.31986 13.3245 5.84504 13.3245 5.34039C13.3245 4.83573 13.0854 4.36091 12.68 4.06039V4.06039Z" fill="var(--fill-0, #4BB4E6)"/>
</g>
</svg>
