<svg preserveAspectRatio="none" width="100%" height="100%" overflow="visible" style="display: block;" viewBox="0 0 18 16" fill="none" xmlns="http://www.w3.org/2000/svg">
<path id="Vector" fill-rule="evenodd" clip-rule="evenodd" d="M1.69471 0.280712C1.50611 0.0985537 1.25351 -0.00224062 0.99131 3.78026e-05C0.729114 0.00231622 0.478301 0.107485 0.292893 0.292893C0.107485 0.478301 0.00231622 0.729114 3.78026e-05 0.99131C-0.00224062 1.25351 0.0985537 1.50611 0.280712 1.69471L14.2807 15.6947C14.4693 15.8769 14.7219 15.9777 14.9841 15.9754C15.2463 15.9731 15.4971 15.8679 15.6825 15.6825C15.8679 15.4971 15.9731 15.2463 15.9754 14.9841C15.9777 14.7219 15.8769 14.4693 15.6947 14.2807L14.2217 12.8077C15.7792 11.5658 16.931 9.88764 17.5297 7.98771C16.2557 3.93071 12.4657 0.987712 7.98771 0.987712C6.42014 0.985586 4.87421 1.35357 3.47571 2.06171L1.69571 0.280712H1.69471ZM5.95571 4.54071L7.46971 6.05571C7.8088 5.96566 8.1656 5.96626 8.50438 6.05744C8.84317 6.14862 9.15206 6.32719 9.40015 6.57528C9.64823 6.82336 9.8268 7.13226 9.91798 7.47104C10.0092 7.80983 10.0098 8.16662 9.91971 8.50571L11.4337 10.0197C11.8847 9.25573 12.0689 8.36351 11.9574 7.48339C11.8458 6.60327 11.4448 5.78521 10.8175 5.15789C10.1902 4.53057 9.37215 4.12961 8.49204 4.01806C7.61192 3.90652 6.71969 4.09073 5.95571 4.54171V4.54071Z" fill="var(--fill-0, #111928)"/>
</svg>
