<svg preserveAspectRatio="none" width="100%" height="100%" overflow="visible" style="display: block;" viewBox="0 0 20 20" fill="none" xmlns="http://www.w3.org/2000/svg">
<g id="Layer_31">
<path id="Path" d="M19.71 18.29L14.31 12.9C15.407 11.5025 16.0022 9.77666 16 8C16 3.58172 12.4183 0 8 0C3.58172 0 0 3.58172 0 8C0 12.4183 3.58172 16 8 16C9.77666 16.0022 11.5025 15.407 12.9 14.31L18.29 19.71C18.4778 19.8993 18.7334 20.0058 19 20.0058C19.2666 20.0058 19.5222 19.8993 19.71 19.71C19.8993 19.5222 20.0058 19.2666 20.0058 19C20.0058 18.7334 19.8993 18.4778 19.71 18.29Z" fill="var(--fill-0, #4BB4E6)"/>
</g>
</svg>
