<svg preserveAspectRatio="none" width="100%" height="100%" overflow="visible" style="display: block;" viewBox="0 0 9 13" fill="none" xmlns="http://www.w3.org/2000/svg">
<g id="Layer_103">
<path id="Path" d="M8.06374 6.44979C8.1289 6.7458 7.95652 7.04239 7.66707 7.13229L6.37207 7.54063L5.84124 7.70979L5.2054 8.29313L4.4354 9.00479C4.3255 9.10103 4.18481 9.15483 4.03874 9.15646C3.89215 9.15754 3.75054 9.10339 3.64207 9.00479L2.87207 8.29313L2.23624 7.70979L1.7054 7.54063L0.410403 7.13229C0.120951 7.04239 -0.0514296 6.7458 0.0137359 6.44979L0.427903 4.58313L0.0137359 2.71646C-0.0514296 2.42046 0.120951 2.12386 0.410403 2.03396L2.23624 1.45063L3.64207 0.155626C3.86581 -0.0518754 4.21166 -0.0518754 4.4354 0.155626L5.84124 1.45063L7.66707 2.03396C7.95652 2.12386 8.1289 2.42046 8.06374 2.71646L7.64957 4.58313L8.06374 6.44979Z" fill="var(--fill-0, #4BB4E6)"/>
<path id="Path_2" d="M6.37207 8.15313V11.5831C6.3715 11.7981 6.25269 11.9954 6.0629 12.0965C5.87724 12.1918 5.6548 12.1807 5.47957 12.0673L4.03874 11.1165L2.60957 12.0673C2.43084 12.185 2.20202 12.1954 2.01336 12.0944C1.8247 11.9933 1.70651 11.7971 1.7054 11.5831V8.15313L1.93874 8.22896L3.25124 9.44229C3.69788 9.8537 4.38543 9.8537 4.83207 9.44229L6.13874 8.24063L6.37207 8.15313Z" fill="var(--fill-0, #4BB4E6)"/>
</g>
</svg>
