<svg preserveAspectRatio="none" width="100%" height="100%" overflow="visible" style="display: block;" viewBox="0 0 27 27" fill="none" xmlns="http://www.w3.org/2000/svg">
<g id="Layer_61">
<path id="Path" d="M17.3333 2.66667H1.33333C0.596954 2.66667 0 2.06971 0 1.33333C0 0.596954 0.596954 0 1.33333 0H17.3333C18.0697 0 18.6667 0.596954 18.6667 1.33333C18.6667 2.06971 18.0697 2.66667 17.3333 2.66667Z" fill="var(--fill-0, #4BB4E6)"/>
<path id="Path_2" d="M14.6667 10.6667H1.33333C0.596954 10.6667 0 10.0697 0 9.33333C0 8.59695 0.596954 8 1.33333 8H14.6667C15.403 8 16 8.59695 16 9.33333C16 10.0697 15.403 10.6667 14.6667 10.6667Z" fill="var(--fill-0, #4BB4E6)"/>
<path id="Path_3" d="M12 18.6667H1.33333C0.596954 18.6667 0 18.0697 0 17.3333C0 16.597 0.596954 16 1.33333 16H12C12.7364 16 13.3333 16.597 13.3333 17.3333C13.3333 18.0697 12.7364 18.6667 12 18.6667Z" fill="var(--fill-0, #4BB4E6)"/>
<path id="Path_4" d="M9.33333 26.6667H1.33333C0.596954 26.6667 0 26.0697 0 25.3333C0 24.597 0.596954 24 1.33333 24H9.33333C10.0697 24 10.6667 24.597 10.6667 25.3333C10.6667 26.0697 10.0697 26.6667 9.33333 26.6667Z" fill="var(--fill-0, #4BB4E6)"/>
<path id="Path_5" d="M21.3333 24C20.597 24 20 23.403 20 22.6667V1.33333C20 0.596954 20.597 0 21.3333 0C22.0697 0 22.6667 0.596954 22.6667 1.33333V22.6667C22.6667 23.403 22.0697 24 21.3333 24Z" fill="var(--fill-0, #4BB4E6)"/>
<path id="Path_6" d="M21.3333 26.6667C20.9789 26.6687 20.6383 26.5296 20.3867 26.28L16.3867 22.28C15.8638 21.7572 15.8638 20.9095 16.3867 20.3867C16.9095 19.8638 17.7572 19.8638 18.28 20.3867L21.3333 23.4533L24.3867 20.3867C24.9095 19.8638 25.7572 19.8638 26.28 20.3867C26.8028 20.9095 26.8028 21.7572 26.28 22.28L22.28 26.28C22.0284 26.5296 21.6877 26.6687 21.3333 26.6667Z" fill="var(--fill-0, #4BB4E6)"/>
</g>
</svg>
