<svg preserveAspectRatio="none" width="100%" height="100%" overflow="visible" style="display: block;" viewBox="0 0 27 27" fill="none" xmlns="http://www.w3.org/2000/svg">
<g id="Layer_35">
<path id="Path" d="M18.76 11.12L15.9333 13.9467L26.6667 22V17.2533L18.76 11.12V11.12Z" fill="var(--fill-0, #4BB4E6)"/>
<path id="Path_2" d="M9.53333 12.48L0.2 23.7467C0.678894 25.455 2.22592 26.6438 4 26.6667H22.6667C24.0193 26.6628 25.2784 25.9756 26.0133 24.84L9.53333 12.48Z" fill="var(--fill-0, #4BB4E6)"/>
<path id="Path_3" d="M8.32 9.8C8.77711 9.26554 9.57073 9.17801 10.1333 9.6L13.7733 12.3333L17.7733 8.33333C18.2547 7.85586 19.0178 7.81569 19.5467 8.24L26.6667 13.8667V4C26.6667 1.79086 24.8758 0 22.6667 0H4C1.79086 0 0 1.79086 0 4V19.7867L8.32 9.8Z" fill="var(--fill-0, #4BB4E6)"/>
</g>
</svg>
