<svg preserveAspectRatio="none" width="100%" height="100%" overflow="visible" style="display: block;" viewBox="0 0 20 17" fill="none" xmlns="http://www.w3.org/2000/svg">
<g id="Layer_34">
<circle id="Oval" cx="10" cy="10" r="2" fill="var(--fill-0, #4BB4E6)"/>
<path id="Shape" fill-rule="evenodd" clip-rule="evenodd" d="M14.54 3H17C18.6569 3 20 4.34315 20 6V14C20 15.6569 18.6569 17 17 17H3C1.34315 17 0 15.6569 0 14V6C0 4.34315 1.34315 3 3 3H5.46L6.57 1.34C7.12621 0.502708 8.0648 -0.000374684 9.07 2.09379e-07H10.93C11.9352 -0.000374684 12.8738 0.502708 13.43 1.34L14.54 3ZM6 10C6 12.2091 7.79086 14 10 14C11.0609 14 12.0783 13.5786 12.8284 12.8284C13.5786 12.0783 14 11.0609 14 10C14 7.79086 12.2091 6 10 6C7.79086 6 6 7.79086 6 10Z" fill="var(--fill-0, #4BB4E6)"/>
</g>
</svg>
