<svg preserveAspectRatio="none" width="100%" height="100%" overflow="visible" style="display: block;" viewBox="0 0 12 12" fill="none" xmlns="http://www.w3.org/2000/svg">
<path id="Vector" d="M3.707 5.293C3.5184 5.11084 3.2658 5.01005 3.0036 5.01233C2.7414 5.0146 2.49059 5.11977 2.30518 5.30518C2.11977 5.49059 2.0146 5.7414 2.01233 6.0036C2.01005 6.2658 2.11084 6.5184 2.293 6.707L5.293 9.707C5.48053 9.89447 5.73484 9.99979 6 9.99979C6.26516 9.99979 6.51947 9.89447 6.707 9.707L9.707 6.707C9.88916 6.5184 9.98995 6.2658 9.98767 6.0036C9.9854 5.7414 9.88023 5.49059 9.69482 5.30518C9.50941 5.11977 9.2586 5.0146 8.9964 5.01233C8.7342 5.01005 8.4816 5.11084 8.293 5.293L7 6.586V3H10C10.5304 3 11.0391 3.21071 11.4142 3.58579C11.7893 3.96086 12 4.46957 12 5V10C12 10.5304 11.7893 11.0391 11.4142 11.4142C11.0391 11.7893 10.5304 12 10 12H2C1.46957 12 0.960859 11.7893 0.585786 11.4142C0.210714 11.0391 0 10.5304 0 10V5C0 4.46957 0.210714 3.96086 0.585786 3.58579C0.960859 3.21071 1.46957 3 2 3H5V6.586L3.707 5.293ZM5 1C5 0.734784 5.10536 0.48043 5.29289 0.292893C5.48043 0.105357 5.73478 0 6 0C6.26522 0 6.51957 0.105357 6.70711 0.292893C6.89464 0.48043 7 0.734784 7 1V3H5V1Z" fill="var(--fill-0, #111928)"/>
</svg>
