<svg preserveAspectRatio="none" width="100%" height="100%" overflow="visible" style="display: block;" viewBox="0 0 20 20" fill="none" xmlns="http://www.w3.org/2000/svg">
<g id="Layer_17">
<path id="Shape" fill-rule="evenodd" clip-rule="evenodd" d="M0 10C0 4.47715 4.47715 0 10 0C12.6522 0 15.1957 1.05357 17.0711 2.92893C18.9464 4.8043 20 7.34784 20 10C20 15.5228 15.5228 20 10 20C4.47715 20 0 15.5228 0 10ZM14 13C14.2687 12.9963 14.5246 12.8845 14.71 12.69C14.8993 12.5022 15.0058 12.2466 15.0058 11.98C15.0058 11.7134 14.8993 11.4578 14.71 11.27L10.71 7.27C10.5222 7.08069 10.2666 6.9742 10 6.9742C9.73336 6.9742 9.47777 7.08069 9.29 7.27L5.29 11.27C5.03634 11.5237 4.93728 11.8934 5.03012 12.2399C5.12297 12.5864 5.39362 12.857 5.74012 12.9499C6.08663 13.0427 6.45634 12.9437 6.71 12.69L10 9.42L13.29 12.71C13.4787 12.8972 13.7342 13.0015 14 13Z" fill="var(--fill-0, #4BB4E6)"/>
</g>
</svg>
