<svg preserveAspectRatio="none" width="100%" height="100%" overflow="visible" style="display: block;" viewBox="0 0 27 27" fill="none" xmlns="http://www.w3.org/2000/svg">
<g id="Layer_48">
<path id="Shape" fill-rule="evenodd" clip-rule="evenodd" d="M13.3333 16V10.6667C13.3333 9.93029 13.9303 9.33333 14.6667 9.33333H26.6667V17.3333H14.6667C13.9303 17.3333 13.3333 16.7364 13.3333 16ZM21.3333 13.3333C21.3333 11.8606 20.1394 10.6667 18.6667 10.6667C17.1939 10.6667 16 11.8606 16 13.3333C16 14.8061 17.1939 16 18.6667 16C20.1394 16 21.3333 14.8061 21.3333 13.3333Z" fill="var(--fill-0, #4BB4E6)"/>
<path id="Path" d="M14.6667 20C12.4575 20 10.6667 18.2091 10.6667 16V10.6667C10.6667 8.45753 12.4575 6.66667 14.6667 6.66667H26.6667V4C26.6667 1.79086 24.8758 0 22.6667 0H4C1.79086 0 0 1.79086 0 4V22.6667C0 24.8758 1.79086 26.6667 4 26.6667H22.6667C24.8758 26.6667 26.6667 24.8758 26.6667 22.6667V20H14.6667Z" fill="var(--fill-0, #4BB4E6)"/>
</g>
</svg>
