<svg preserveAspectRatio="none" width="100%" height="100%" overflow="visible" style="display: block;" viewBox="0 0 27 27" fill="none" xmlns="http://www.w3.org/2000/svg">
<g id="Layer_21">
<path id="Shape" fill-rule="evenodd" clip-rule="evenodd" d="M4 0H22.6667C24.8758 0 26.6667 1.79086 26.6667 4V22.6667C26.6667 24.8758 24.8758 26.6667 22.6667 26.6667H4C1.79086 26.6667 0 24.8758 0 22.6667V4C0 1.79086 1.79086 0 4 0ZM18.6667 17.3333C19.0203 17.3248 19.356 17.1761 19.6 16.92C20.117 16.4 20.117 15.5601 19.6 15.04L14.2667 9.70667C13.7466 9.1897 12.9067 9.1897 12.3867 9.70667L7.05333 15.04C6.71512 15.3758 6.58176 15.8666 6.7035 16.3274C6.82523 16.7882 7.18355 17.1491 7.6435 17.2741C8.10344 17.399 8.59512 17.2692 8.93333 16.9333L13.3333 12.56L17.7333 16.9467C17.9817 17.193 18.3169 17.3319 18.6667 17.3333Z" fill="var(--fill-0, #4BB4E6)"/>
</g>
</svg>
