<svg preserveAspectRatio="none" width="100%" height="100%" overflow="visible" style="display: block;" viewBox="0 0 14 14" fill="none" xmlns="http://www.w3.org/2000/svg">
<g id="Layer_45">
<path id="Shape" fill-rule="evenodd" clip-rule="evenodd" d="M2 0H11.3333C12.4379 0 13.3333 0.89543 13.3333 2V11.3333C13.3333 12.4379 12.4379 13.3333 11.3333 13.3333H2C0.89543 13.3333 0 12.4379 0 11.3333V2C0 0.89543 0.89543 0 2 0ZM3.33333 7.33333H10C10.3682 7.33333 10.6667 7.03486 10.6667 6.66667C10.6667 6.29848 10.3682 6 10 6H3.33333C2.96514 6 2.66667 6.29848 2.66667 6.66667C2.66667 7.03486 2.96514 7.33333 3.33333 7.33333Z" fill="var(--fill-0, #4BB4E6)"/>
</g>
</svg>
