<svg preserveAspectRatio="none" width="100%" height="100%" overflow="visible" style="display: block;" viewBox="0 0 27 27" fill="none" xmlns="http://www.w3.org/2000/svg">
<g id="Layer_67">
<path id="Shape" fill-rule="evenodd" clip-rule="evenodd" d="M3.90525 3.90525C9.04836 -1.23787 17.3644 -1.31014 22.5962 3.74283C27.6491 8.97455 27.5769 17.2906 22.4337 22.4337C17.2906 27.5769 8.97455 27.6491 3.74283 22.5962C-1.31014 17.3644 -1.23787 9.04836 3.90525 3.90525ZM19.2439 17.9028C19.2439 17.5473 19.1019 17.2065 18.8495 16.9562L15.0495 13.1695L18.8495 9.38283C19.1877 9.04462 19.3198 8.55166 19.196 8.08966C19.0722 7.62765 18.7113 7.26678 18.2493 7.14299C17.7873 7.0192 17.2944 7.15128 16.9562 7.48949L13.1695 11.2895L9.38283 7.48949C9.04462 7.15128 8.55166 7.0192 8.08966 7.14299C7.62765 7.26678 7.26678 7.62765 7.14299 8.08966C7.0192 8.55166 7.15128 9.04462 7.48949 9.38283L11.2895 13.1695L7.48949 16.9562C7.23708 17.2065 7.0951 17.5473 7.0951 17.9028C7.0951 18.2583 7.23708 18.5991 7.48949 18.8495C7.74112 19.0991 8.08176 19.2382 8.43616 19.2362C8.79056 19.2382 9.1312 19.0991 9.38283 18.8495L13.1695 15.0495L16.9562 18.8495C17.2078 19.0991 17.5484 19.2382 17.9028 19.2362C18.2572 19.2382 18.5979 19.0991 18.8495 18.8495C19.1019 18.5991 19.2439 18.2583 19.2439 17.9028Z" fill="var(--fill-0, #4BB4E6)"/>
</g>
</svg>
