<svg preserveAspectRatio="none" width="100%" height="100%" overflow="visible" style="display: block;" viewBox="0 0 12 13" fill="none" xmlns="http://www.w3.org/2000/svg">
<path id="Vector" d="M5.59983 0C4.32679 0 3.10589 0.505713 2.20572 1.40589C1.30554 2.30606 0.79983 3.52696 0.79983 4.8V7.6688L0.23423 8.2344C0.122382 8.34628 0.0462168 8.48881 0.0153628 8.64397C-0.0154913 8.79914 0.00035116 8.95996 0.0608872 9.10612C0.121423 9.25228 0.223935 9.37721 0.355463 9.46512C0.486991 9.55303 0.641629 9.59997 0.79983 9.6H10.3998C10.558 9.59997 10.7127 9.55303 10.8442 9.46512C10.9757 9.37721 11.0782 9.25228 11.1388 9.10612C11.1993 8.95996 11.2152 8.79914 11.1843 8.64397C11.1534 8.48881 11.0773 8.34628 10.9654 8.2344L10.3998 7.6688V4.8C10.3998 3.52696 9.89412 2.30606 8.99394 1.40589C8.09377 0.505713 6.87287 0 5.59983 0V0ZM5.59983 12.8C4.96331 12.8 4.35286 12.5471 3.90277 12.0971C3.45269 11.647 3.19983 11.0365 3.19983 10.4H7.99983C7.99983 11.0365 7.74697 11.647 7.29689 12.0971C6.8468 12.5471 6.23635 12.8 5.59983 12.8Z" fill="var(--fill-0, white)"/>
</svg>
