<svg preserveAspectRatio="none" width="100%" height="100%" overflow="visible" style="display: block;" viewBox="0 0 27 27" fill="none" xmlns="http://www.w3.org/2000/svg">
<g id="Layer_123">
<path id="Path" d="M26.1868 6.97552L18.1868 0.308851C17.789 -0.0224721 17.2354 -0.0935939 16.7668 0.126425C16.2982 0.346443 15.9993 0.817827 16.0001 1.33552V4.06885C6.97706 4.76499 0.00813584 12.2856 0.000142844 21.3355V25.3355C-0.00939839 25.9918 0.460042 26.5573 1.10681 26.6689C1.18174 26.6826 1.25855 26.6826 1.33348 26.6689C1.89485 26.6686 2.39594 26.3168 2.58681 25.7889L4.28014 21.1489C6.11595 16.1205 10.6726 12.5902 16.0001 12.0689V14.6689C15.9989 15.1896 16.3009 15.6635 16.7735 15.8822C16.9492 15.9623 17.1403 16.0032 17.3335 16.0022C17.645 16.0028 17.9469 15.8943 18.1868 15.6955L26.1868 9.02885C26.4925 8.77554 26.6694 8.39919 26.6694 8.00218C26.6694 7.60518 26.4925 7.22882 26.1868 6.97552Z" fill="var(--fill-0, #4BB4E6)"/>
</g>
</svg>
