<svg preserveAspectRatio="none" width="100%" height="100%" overflow="visible" style="display: block;" viewBox="0 0 20 20" fill="none" xmlns="http://www.w3.org/2000/svg">
<g id="Layer_22">
<path id="Shape" fill-rule="evenodd" clip-rule="evenodd" d="M3 0H17C18.6569 0 20 1.34315 20 3V17C20 18.6569 18.6569 20 17 20H3C1.34315 20 0 18.6569 0 17V3C0 1.34315 1.34315 0 3 0ZM8.7 14.7L12.7 10.7C13.0933 10.3155 13.1022 9.68552 12.72 9.29L8.72 5.29C8.46813 5.03634 8.10006 4.93632 7.75445 5.02762C7.40884 5.11892 7.13819 5.38766 7.04445 5.73262C6.95071 6.07758 7.04813 6.44634 7.3 6.7L10.58 10L7.29 13.29C6.90228 13.68 6.90228 14.31 7.29 14.7C7.68004 15.0877 8.30996 15.0877 8.7 14.7Z" fill="var(--fill-0, #4BB4E6)"/>
</g>
</svg>
