<svg preserveAspectRatio="none" width="100%" height="100%" overflow="visible" style="display: block;" viewBox="0 0 16 20" fill="none" xmlns="http://www.w3.org/2000/svg">
<g id="Layer_100">
<path id="Path" d="M8 14C10.7614 14 13 11.7614 13 9V5C13 2.23858 10.7614 0 8 0C5.23858 0 3 2.23858 3 5V9C3 11.7614 5.23858 14 8 14V14Z" fill="var(--fill-0, #4BB4E6)"/>
<path id="Path_2" d="M15 8C14.4477 8 14 8.44772 14 9C14 12.3137 11.3137 15 8 15C4.68629 15 2 12.3137 2 9C2 8.44772 1.55228 8 1 8C0.447715 8 0 8.44772 0 9C0 13.4183 3.58172 17 8 17C12.4183 17 16 13.4183 16 9C16 8.44772 15.5523 8 15 8Z" fill="var(--fill-0, #4BB4E6)"/>
<path id="Path_3" d="M11 18H5C4.44772 18 4 18.4477 4 19C4 19.5523 4.44772 20 5 20H11C11.5523 20 12 19.5523 12 19C12 18.4477 11.5523 18 11 18Z" fill="var(--fill-0, #4BB4E6)"/>
</g>
</svg>
