<svg preserveAspectRatio="none" width="100%" height="100%" overflow="visible" style="display: block;" viewBox="0 0 20 20" fill="none" xmlns="http://www.w3.org/2000/svg">
<g id="Layer_129">
<path id="Shape" fill-rule="evenodd" clip-rule="evenodd" d="M18.31 7.56618C19.06 8.01618 20 8.61618 20 9.61618C20 10.6162 19.06 11.2162 18.31 11.5862C18.0771 11.7178 17.8533 11.8647 17.64 12.0262C17.7149 12.297 17.8119 12.5612 17.93 12.8162C17.9385 12.8369 17.9471 12.8577 17.9558 12.8786C18.2816 13.6668 18.6745 14.6174 18.09 15.4162C17.49 16.2362 16.42 16.1462 15.55 16.0662C15.2737 16.0467 14.9963 16.0467 14.72 16.0662C14.6556 16.2317 14.5744 16.5578 14.5151 16.7958C14.5099 16.8167 14.5048 16.8368 14.5 16.8562C14.4967 16.8711 14.4933 16.886 14.49 16.901C14.3021 17.743 14.0725 18.7716 13.09 19.0762C12.9382 19.1262 12.7798 19.1531 12.62 19.1562C11.8805 19.0558 11.1985 18.7025 10.69 18.1562C10.4735 17.9596 10.2429 17.7791 10 17.6162C9.75715 17.7791 9.52653 17.9596 9.31 18.1562C8.66 18.7662 7.88 19.4662 6.91 19.1562C5.94 18.8462 5.69 17.7862 5.5 16.9362C5.49517 16.9169 5.49014 16.8967 5.48494 16.8758C5.42563 16.6378 5.34436 16.3117 5.28 16.1462C5.00368 16.1267 4.72632 16.1267 4.45 16.1462C3.58 16.2262 2.5 16.3062 1.91 15.4962C1.32722 14.6961 1.72987 13.7204 2.05785 12.9256L2.07 12.8962C2.18814 12.6412 2.28513 12.377 2.36 12.1062C2.14672 11.9447 1.92289 11.7978 1.69 11.6662C0.94 11.2162 0 10.6162 0 9.61618C0 8.61618 0.94 8.01618 1.69 7.59618C1.92289 7.46461 2.14672 7.31762 2.36 7.15618C2.28513 6.88535 2.18814 6.62113 2.07 6.36618C2.06146 6.34548 2.05286 6.32466 2.0442 6.30373C1.71844 5.51558 1.32552 4.56497 1.91 3.76618C2.51 2.94618 3.58 3.03618 4.45 3.11618C4.72632 3.13563 5.00368 3.13563 5.28 3.11618C5.34436 2.95068 5.42563 2.62455 5.48494 2.38654C5.49014 2.36569 5.49517 2.34551 5.5 2.32618C5.69 1.47618 5.97 0.436183 6.91 0.126183C7.8482 -0.183224 8.6569 0.513507 9.30627 1.07297L9.31 1.07618C9.52653 1.27276 9.75715 1.45324 10 1.61618C10.2446 1.43722 10.4752 1.23999 10.69 1.02618C10.7051 1.0132 10.7202 1.00013 10.7354 0.987011C11.3763 0.434259 12.1425 -0.226628 13.09 0.076183C14.06 0.386183 14.31 1.44618 14.5 2.29618C14.5048 2.31552 14.5099 2.33569 14.5151 2.35655C14.5744 2.59456 14.6556 2.92068 14.72 3.08618C14.9963 3.10563 15.2737 3.10563 15.55 3.08618C16.42 3.00618 17.5 2.92618 18.09 3.73618C18.6728 4.53627 18.2701 5.51198 17.9422 6.30673L17.93 6.33618C17.8119 6.59113 17.7149 6.85535 17.64 7.12618C17.8533 7.28762 18.0771 7.43462 18.31 7.56618ZM9.78 12.7362L13.78 7.73618C14.0675 7.30363 13.976 6.72297 13.5694 6.39978C13.1629 6.0766 12.5765 6.11848 12.22 6.49618L8.92 10.6162L7.71 9.40618C7.31788 9.01406 6.68212 9.01406 6.29 9.40618C5.89788 9.79831 5.89788 10.4341 6.29 10.8262L8.29 12.8262C8.47872 13.0134 8.7342 13.1177 9 13.1162H9.06C9.34303 13.0974 9.60476 12.9592 9.78 12.7362Z" fill="var(--fill-0, #4BB4E6)"/>
</g>
</svg>
