<svg preserveAspectRatio="none" width="100%" height="100%" overflow="visible" style="display: block;" viewBox="0 0 27 27" fill="none" xmlns="http://www.w3.org/2000/svg">
<g id="Layer_33">
<path id="Shape" fill-rule="evenodd" clip-rule="evenodd" d="M19.08 17.2L26.28 24.3867C26.5324 24.637 26.6744 24.9778 26.6744 25.3333C26.6744 25.6889 26.5324 26.0296 26.28 26.28C26.0296 26.5324 25.6889 26.6744 25.3333 26.6744C24.9778 26.6744 24.637 26.5324 24.3867 26.28L17.2 19.08C15.3366 20.5426 13.0355 21.3363 10.6667 21.3333C4.77563 21.3333 0 16.5577 0 10.6667C0 4.77563 4.77563 0 10.6667 0C16.5577 0 21.3333 4.77563 21.3333 10.6667C21.3363 13.0355 20.5426 15.3366 19.08 17.2ZM5.33333 10.6667C5.33333 11.403 5.93029 12 6.66667 12H14.6667C15.403 12 16 11.403 16 10.6667C16 9.93029 15.403 9.33333 14.6667 9.33333H6.66667C5.93029 9.33333 5.33333 9.93029 5.33333 10.6667Z" fill="var(--fill-0, #4BB4E6)"/>
</g>
</svg>
