<svg preserveAspectRatio="none" width="100%" height="100%" overflow="visible" style="display: block;" viewBox="0 0 20 20" fill="none" xmlns="http://www.w3.org/2000/svg">
<g id="Layer_9">
<path id="Shape" fill-rule="evenodd" clip-rule="evenodd" d="M3 0H17C18.6569 0 20 1.34315 20 3V17C20 18.6569 18.6569 20 17 20H3C1.34315 20 0 18.6569 0 17V3C0 1.34315 1.34315 0 3 0ZM14 10.0058C14.2666 10.0058 14.5222 9.89931 14.71 9.71C14.8993 9.52223 15.0058 9.26664 15.0058 9C15.0058 8.73336 14.8993 8.47777 14.71 8.29L10.71 4.29C10.6149 4.19896 10.5028 4.12759 10.38 4.08C10.1365 3.97998 9.86346 3.97998 9.62 4.08C9.49725 4.12759 9.3851 4.19896 9.29 4.29L5.29 8.29C5.03634 8.54366 4.93728 8.91337 5.03012 9.25988C5.12297 9.60638 5.39362 9.87703 5.74012 9.96988C6.08663 10.0627 6.45634 9.96366 6.71 9.71L9 7.41V15C9 15.5523 9.44771 16 10 16C10.5523 16 11 15.5523 11 15V7.41L13.29 9.71C13.4778 9.89931 13.7334 10.0058 14 10.0058Z" fill="var(--fill-0, #4BB4E6)"/>
</g>
</svg>
