<svg preserveAspectRatio="none" width="100%" height="100%" overflow="visible" style="display: block;" viewBox="0 0 12 16" fill="none" xmlns="http://www.w3.org/2000/svg">
<path id="Vector" d="M0 2C0 1.46957 0.210714 0.960859 0.585786 0.585786C0.960859 0.210714 1.46957 0 2 0H6.586C7.11639 0.000113275 7.62501 0.210901 8 0.586L11.414 4C11.7891 4.37499 11.9999 4.88361 12 5.414V14C12 14.5304 11.7893 15.0391 11.4142 15.4142C11.0391 15.7893 10.5304 16 10 16H8.472C9.49381 14.8569 10.0393 13.366 9.99637 11.8334C9.95348 10.3008 9.3255 8.84279 8.24136 7.75864C7.15721 6.6745 5.69917 6.04652 4.16657 6.00363C2.63396 5.96074 1.14308 6.50619 0 7.528V2Z" fill="var(--fill-0, #111928)"/>
</svg>
