<svg preserveAspectRatio="none" width="100%" height="100%" overflow="visible" style="display: block;" viewBox="0 0 27 27" fill="none" xmlns="http://www.w3.org/2000/svg">
<g id="Layer_37">
<path id="Shape" fill-rule="evenodd" clip-rule="evenodd" d="M22.6667 0H4C1.79086 0 0 1.79086 0 4V6.66667C0 7.40305 0.596954 8 1.33333 8H2.66667V22.6667C2.66667 24.8758 4.45753 26.6667 6.66667 26.6667H20C22.2091 26.6667 24 24.8758 24 22.6667V8H25.3333C26.0697 8 26.6667 7.40305 26.6667 6.66667V4C26.6667 1.79086 24.8758 0 22.6667 0ZM10.6667 20C10.6667 20.7364 10.0697 21.3333 9.33333 21.3333C8.59695 21.3333 8 20.7364 8 20V12C8 11.2636 8.59695 10.6667 9.33333 10.6667C10.0697 10.6667 10.6667 11.2636 10.6667 12V20ZM17.3333 21.3333C18.0697 21.3333 18.6667 20.7364 18.6667 20V12C18.6667 11.2636 18.0697 10.6667 17.3333 10.6667C16.597 10.6667 16 11.2636 16 12V20C16 20.7364 16.597 21.3333 17.3333 21.3333Z" fill="var(--fill-0, #4BB4E6)"/>
</g>
</svg>
