<svg preserveAspectRatio="none" width="100%" height="100%" overflow="visible" style="display: block;" viewBox="0 0 27 27" fill="none" xmlns="http://www.w3.org/2000/svg">
<g id="Layer_92">
<path id="Path" d="M25.4498 1.18993C24.6983 0.428564 23.673 0 22.6032 0C21.5333 0 20.5081 0.428564 19.7565 1.18993L17.1965 3.78993L22.8498 9.44326L25.4098 6.88326C26.1765 6.13705 26.6123 5.1148 26.6198 4.04496C26.6273 2.97511 26.2059 1.94685 25.4498 1.18993Z" fill="var(--fill-0, #4BB4E6)"/>
<path id="Path_2" d="M15.3032 5.68326L4.1165 16.8699C4.01622 16.973 3.93094 17.0897 3.86317 17.2166L0.156502 24.6966C-0.0621863 25.1072 -0.0510455 25.6021 0.185898 26.0025C0.422842 26.4028 0.851324 26.6507 1.3165 26.6566C1.51966 26.6574 1.72032 26.6118 1.90317 26.5233L9.38317 22.8166C9.51003 22.7488 9.62673 22.6635 9.72984 22.5633L20.9165 11.3766L15.3032 5.68326Z" fill="var(--fill-0, #4BB4E6)"/>
<path id="Path_3" d="M25.3165 26.6566H13.3165C12.5801 26.6566 11.9832 26.0596 11.9832 25.3233C11.9832 24.5869 12.5801 23.9899 13.3165 23.9899H25.3165C26.0529 23.9899 26.6498 24.5869 26.6498 25.3233C26.6498 26.0596 26.0529 26.6566 25.3165 26.6566Z" fill="var(--fill-0, #4BB4E6)"/>
</g>
</svg>
