<svg preserveAspectRatio="none" width="100%" height="100%" overflow="visible" style="display: block;" viewBox="0 0 27 27" fill="none" xmlns="http://www.w3.org/2000/svg">
<g id="Layer_36">
<path id="Shape" fill-rule="evenodd" clip-rule="evenodd" d="M0 13.3333C0 5.96954 5.96954 0 13.3333 0C16.8696 0 20.2609 1.40476 22.7614 3.90524C25.2619 6.40573 26.6667 9.79711 26.6667 13.3333C26.6667 20.6971 20.6971 26.6667 13.3333 26.6667C5.96954 26.6667 0 20.6971 0 13.3333ZM17.3333 16C17.9309 16.0312 18.476 15.6605 18.6667 15.0933C18.7781 14.7486 18.7444 14.3733 18.5734 14.0539C18.4024 13.7344 18.1087 13.4984 17.76 13.4L14.6667 12.3733V6.66667C14.6667 5.93029 14.0697 5.33333 13.3333 5.33333C12.597 5.33333 12 5.93029 12 6.66667V13.3333C11.9985 13.9066 12.3636 14.4166 12.9067 14.6L16.9067 15.9333C17.0454 15.974 17.1888 15.9964 17.3333 16Z" fill="var(--fill-0, #4BB4E6)"/>
</g>
</svg>
