<svg preserveAspectRatio="none" width="100%" height="100%" overflow="visible" style="display: block;" viewBox="0 0 20 20" fill="none" xmlns="http://www.w3.org/2000/svg">
<g id="Layer_130">
<path id="Shape" fill-rule="evenodd" clip-rule="evenodd" d="M3 0H17C18.6569 0 20 1.34315 20 3V9.8C19.9913 13.3468 17.9003 16.5577 14.66 18L10.41 19.88C10.1492 19.9972 9.85077 19.9972 9.59 19.88L5.34 18C2.09975 16.5577 0.00874937 13.3468 0 9.8V3C0 1.34315 1.34315 0 3 0ZM13.07 10.44L14.72 8.75H14.7C14.9579 8.48067 15.0446 8.09019 14.9248 7.73705C14.8049 7.3839 14.4986 7.12677 14.13 7.07L11.9 6.73L10.9 4.58C10.7375 4.22344 10.3818 3.99461 9.99 3.99461C9.59818 3.99461 9.24245 4.22344 9.08 4.58L8.08 6.73L5.85 7.07C5.48143 7.12677 5.17507 7.3839 5.05525 7.73705C4.93543 8.09019 5.02207 8.48067 5.28 8.75L6.9 10.48L6.51 12.88C6.46458 13.2516 6.63058 13.6175 6.94015 13.8281C7.24972 14.0387 7.65101 14.0587 7.98 13.88L9.98 12.78L11.98 13.88C12.1274 13.9596 12.2925 14.0008 12.46 14C12.7554 14.0038 13.0374 13.8768 13.2303 13.653C13.4232 13.4293 13.5073 13.1316 13.46 12.84L13.07 10.44Z" fill="var(--fill-0, #4BB4E6)"/>
<path id="Path" d="M10.33 8.06L10 7.35L9.67 8.06C9.52818 8.35937 9.24732 8.56908 8.92 8.62L8.08 8.75L8.72 9.41C8.94142 9.63755 9.04163 9.95673 8.99 10.27L8.85 11.13L9.52 10.76C9.8294 10.5814 10.2106 10.5814 10.52 10.76L11.19 11.13L11 10.27C10.9484 9.95673 11.0486 9.63755 11.27 9.41L11.91 8.75L11.07 8.62C10.7464 8.56602 10.4699 8.35675 10.33 8.06V8.06Z" fill="var(--fill-0, #4BB4E6)"/>
</g>
</svg>
