<svg preserveAspectRatio="none" width="100%" height="100%" overflow="visible" style="display: block;" viewBox="0 0 12 13" fill="none" xmlns="http://www.w3.org/2000/svg">
<path id="Vector" fill-rule="evenodd" clip-rule="evenodd" d="M0.292787 12.7068C0.105316 12.5193 0 12.265 0 11.9998C0 11.7346 0.105316 11.4803 0.292787 11.2928L5.29279 6.29279C5.48031 6.10532 5.73462 6 5.99979 6C6.26495 6 6.51926 6.10532 6.70679 6.29279L11.7068 11.2928C11.8889 11.4814 11.9897 11.734 11.9875 11.9962C11.9852 12.2584 11.88 12.5092 11.6946 12.6946C11.5092 12.88 11.2584 12.9852 10.9962 12.9875C10.734 12.9897 10.4814 12.8889 10.2928 12.7068L5.99979 8.41379L1.70679 12.7068C1.51926 12.8943 1.26495 12.9996 0.999786 12.9996C0.734622 12.9996 0.480314 12.8943 0.292787 12.7068V12.7068ZM0.292787 6.70679C0.105316 6.51926 0 6.26495 0 5.99979C0 5.73462 0.105316 5.48031 0.292787 5.29279L5.29279 0.292786C5.48031 0.105315 5.73462 0 5.99979 0C6.26495 0 6.51926 0.105315 6.70679 0.292786L11.7068 5.29279C11.8889 5.48139 11.9897 5.73399 11.9875 5.99619C11.9852 6.25838 11.88 6.5092 11.6946 6.6946C11.5092 6.88001 11.2584 6.98518 10.9962 6.98746C10.734 6.98974 10.4814 6.88894 10.2928 6.70679L5.99979 2.41379L1.70679 6.70679C1.51926 6.89426 1.26495 6.99957 0.999786 6.99957C0.734622 6.99957 0.480314 6.89426 0.292787 6.70679V6.70679Z" fill="var(--fill-0, #111928)"/>
</svg>
