<svg preserveAspectRatio="none" width="100%" height="100%" overflow="visible" style="display: block;" viewBox="0 0 20 20" fill="none" xmlns="http://www.w3.org/2000/svg">
<g id="Layer_79">
<path id="Shape" fill-rule="evenodd" clip-rule="evenodd" d="M17 0H3C1.34315 0 0 1.34315 0 3V17C0 18.6569 1.34315 20 3 20H17C18.6569 20 20 18.6569 20 17V3C20 1.34315 18.6569 0 17 0ZM10.24 15.79L10.09 15.91C10.0367 15.9459 9.97969 15.9761 9.92 16L9.73 16.06H9.54C9.2742 16.0615 9.01872 15.9572 8.83 15.77C8.64727 15.5784 8.54368 15.3248 8.54 15.06C8.53885 14.9268 8.56259 14.7945 8.61 14.67C8.66172 14.55 8.73646 14.4413 8.83 14.35C9.22004 13.9623 9.84996 13.9623 10.24 14.35C10.3365 14.4387 10.4117 14.5481 10.46 14.67C10.5104 14.794 10.5375 14.9262 10.54 15.06C10.5443 15.3342 10.4359 15.5981 10.24 15.79ZM10.49 11.79C10.5079 11.3658 10.7523 10.9839 11.13 10.79L11.12 10.83C12.6194 10.3273 13.5975 8.884 13.5088 7.30504C13.42 5.72608 12.2863 4.40147 10.74 4.07C9.68253 3.84021 8.57799 4.1053 7.74 4.79C6.91762 5.44905 6.43932 6.44612 6.44 7.5C6.44 8.05229 6.88771 8.5 7.44 8.5C7.99228 8.5 8.44 8.05229 8.44 7.5C8.44125 7.04845 8.64721 6.62184 9 6.34C9.36932 6.02413 9.86476 5.89843 10.34 6C11.0387 6.11223 11.564 6.69756 11.6002 7.40433C11.6363 8.11109 11.1736 8.747 10.49 8.93C9.30632 9.39677 8.51806 10.5279 8.49 11.8V12C8.49 12.5523 8.93771 13 9.49 13C10.0423 13 10.49 12.5523 10.49 12V11.79Z" fill="var(--fill-0, #4BB4E6)"/>
</g>
</svg>
