<svg preserveAspectRatio="none" width="100%" height="100%" overflow="visible" style="display: block;" viewBox="0 0 15 16" fill="none" xmlns="http://www.w3.org/2000/svg">
<path id="Vector" fill-rule="evenodd" clip-rule="evenodd" d="M3.49974 5.3881e-07C2.96723 0.000395189 2.44183 0.122294 1.96355 0.356416C1.48526 0.590537 1.06671 0.930708 0.739747 1.35103C0.412789 1.77134 0.18605 2.26073 0.0767953 2.78191C-0.0324593 3.30309 -0.0213489 3.84234 0.109281 4.35858C0.23991 4.87482 0.486614 5.35445 0.830608 5.76094C1.1746 6.16743 1.60681 6.49008 2.09434 6.7043C2.58186 6.91852 3.11184 7.01867 3.64391 6.99713C4.17599 6.97559 4.69613 6.83293 5.16474 6.58L6.58474 8L5.16474 9.42C4.42521 9.02012 3.56645 8.8998 2.74549 9.08103C1.92454 9.26227 1.19625 9.73296 0.693809 10.407C0.191366 11.0811 -0.051657 11.9135 0.00918053 12.752C0.070018 13.5905 0.43065 14.3791 1.02513 14.9736C1.61961 15.5681 2.40821 15.9287 3.24673 15.9896C4.08525 16.0504 4.91765 15.8074 5.59172 15.3049C6.26578 14.8025 6.73647 14.0742 6.91771 13.2533C7.09895 12.4323 6.97863 11.5735 6.57875 10.834L14.7067 2.707C14.8889 2.5184 14.9897 2.2658 14.9874 2.0036C14.9851 1.7414 14.88 1.49059 14.6946 1.30518C14.5092 1.11977 14.2583 1.01461 13.9961 1.01233C13.7339 1.01005 13.4813 1.11084 13.2927 1.293L7.99974 6.586L6.57974 5.166C6.86838 4.63272 7.01352 4.03359 7.00093 3.42734C6.98834 2.82108 6.81846 2.2285 6.50793 1.70766C6.1974 1.18682 5.75688 0.755589 5.22954 0.456233C4.7022 0.156877 4.10613 -0.000335886 3.49974 5.3881e-07V5.3881e-07ZM1.99974 3.5C1.99974 3.30302 2.03854 3.10796 2.11393 2.92598C2.18931 2.74399 2.2998 2.57863 2.43908 2.43934C2.57837 2.30005 2.74373 2.18956 2.92572 2.11418C3.10771 2.0388 3.30276 2 3.49974 2C3.69673 2 3.89178 2.0388 4.07377 2.11418C4.25576 2.18956 4.42112 2.30005 4.56041 2.43934C4.69969 2.57863 4.81018 2.74399 4.88556 2.92598C4.96095 3.10796 4.99974 3.30302 4.99974 3.5C4.99974 3.89783 4.84171 4.27936 4.56041 4.56066C4.2791 4.84197 3.89757 5 3.49974 5C3.10192 5 2.72039 4.84197 2.43908 4.56066C2.15778 4.27936 1.99974 3.89783 1.99974 3.5V3.5ZM1.99974 12.5C1.99974 12.303 2.03854 12.108 2.11393 11.926C2.18931 11.744 2.2998 11.5786 2.43908 11.4393C2.57837 11.3001 2.74373 11.1896 2.92572 11.1142C3.10771 11.0388 3.30276 11 3.49974 11C3.69673 11 3.89178 11.0388 4.07377 11.1142C4.25576 11.1896 4.42112 11.3001 4.56041 11.4393C4.69969 11.5786 4.81018 11.744 4.88556 11.926C4.96095 12.108 4.99974 12.303 4.99974 12.5C4.99974 12.8978 4.84171 13.2794 4.56041 13.5607C4.2791 13.842 3.89757 14 3.49974 14C3.10192 14 2.72039 13.842 2.43908 13.5607C2.15778 13.2794 1.99974 12.8978 1.99974 12.5V12.5Z" fill="var(--fill-0, #111928)"/>
</svg>
