<svg preserveAspectRatio="none" width="100%" height="100%" overflow="visible" style="display: block;" viewBox="0 0 20 20" fill="none" xmlns="http://www.w3.org/2000/svg">
<g id="Layer_27">
<path id="Shape" fill-rule="evenodd" clip-rule="evenodd" d="M17.9912 6.67121L19.3012 7.10121C19.7085 7.23878 19.9823 7.62129 19.9812 8.05121V11.8812C20.0033 12.3321 19.7205 12.7418 19.2912 12.8812L17.9912 13.3112L18.7212 14.5212C18.9183 14.9061 18.8457 15.3741 18.5412 15.6812L15.7912 18.4312C15.4841 18.7357 15.0161 18.8083 14.6312 18.6112L13.4112 17.9912L12.9812 19.2912C12.8418 19.7205 12.4321 20.0033 11.9812 19.9812H8.10121C7.65034 20.0033 7.2406 19.7205 7.10121 19.2912L6.67121 17.9912L5.45121 18.6212C5.06629 18.8183 4.59827 18.7457 4.29121 18.4412L1.55121 15.7912C1.24669 15.4841 1.17407 15.0161 1.37121 14.6312L1.99121 13.4112L0.691205 12.9812C0.261867 12.8418 -0.0208567 12.4321 0.00120533 11.9812V8.10121C-0.0208567 7.65034 0.261867 7.2406 0.691205 7.10121L1.99121 6.67121L1.36121 5.45121C1.16407 5.06629 1.23669 4.59827 1.54121 4.29121L4.29121 1.54121C4.59827 1.23669 5.06629 1.16407 5.45121 1.36121L6.67121 1.99121L7.05121 0.691205C7.1906 0.261867 7.60034 -0.0208567 8.05121 0.00120533H11.8812C12.3321 -0.0208567 12.7418 0.261867 12.8812 0.691205L13.3112 1.99121L14.5312 1.36121C14.9161 1.16407 15.3841 1.23669 15.6912 1.54121L18.4312 4.29121C18.7357 4.59827 18.8083 5.06629 18.6112 5.45121L17.9912 6.67121ZM4.99121 9.99121C4.99121 12.7526 7.22978 14.9912 9.99121 14.9912C12.7526 14.9912 14.9912 12.7526 14.9912 9.99121C14.9912 7.22978 12.7526 4.99121 9.99121 4.99121C7.22978 4.99121 4.99121 7.22978 4.99121 9.99121Z" fill="var(--fill-0, #4BB4E6)"/>
<circle id="Oval" cx="9.99121" cy="9.99121" r="3" fill="var(--fill-0, #4BB4E6)"/>
</g>
</svg>
