<svg preserveAspectRatio="none" width="100%" height="100%" overflow="visible" style="display: block;" viewBox="0 0 14 14" fill="none" xmlns="http://www.w3.org/2000/svg">
<path id="Vector" fill-rule="evenodd" clip-rule="evenodd" d="M0 2C0 1.46957 0.210714 0.960859 0.585786 0.585786C0.960859 0.210714 1.46957 0 2 0H10C10.5304 0 11.0391 0.210714 11.4142 0.585786C11.7893 0.960859 12 1.46957 12 2V12C12 12.5304 12.2107 13.0391 12.5858 13.4142C12.9609 13.7893 13.4696 14 14 14H2C1.46957 14 0.960859 13.7893 0.585786 13.4142C0.210714 13.0391 0 12.5304 0 12V2ZM3 3H9V7H3V3ZM9 9H3V11H9V9Z" fill="var(--fill-0, #111928)"/>
</svg>
