<svg preserveAspectRatio="none" width="100%" height="100%" overflow="visible" style="display: block;" viewBox="0 0 16 17" fill="none" xmlns="http://www.w3.org/2000/svg">
<path id="Vector" fill-rule="evenodd" clip-rule="evenodd" d="M5 0C5.26522 0 5.51957 0.105357 5.70711 0.292893C5.89464 0.48043 6 0.734784 6 1V2H9C9.26522 2 9.51957 2.10536 9.70711 2.29289C9.89464 2.48043 10 2.73478 10 3C10 3.26522 9.89464 3.51957 9.70711 3.70711C9.51957 3.89464 9.26522 4 9 4H7.578C7.22147 5.66377 6.64155 7.27168 5.854 8.78C6.144 9.134 6.45 9.476 6.768 9.806C6.8592 9.90055 6.93089 10.0121 6.97897 10.1344C7.02704 10.2567 7.05057 10.3872 7.0482 10.5185C7.04583 10.6499 7.01762 10.7795 6.96517 10.8999C6.91271 11.0204 6.83705 11.1293 6.7425 11.2205C6.64795 11.3117 6.53636 11.3834 6.4141 11.4315C6.29185 11.4795 6.16132 11.5031 6.02997 11.5007C5.89862 11.4983 5.76902 11.4701 5.64858 11.4177C5.52814 11.3652 5.4192 11.2896 5.328 11.195C5.14 10.999 4.955 10.799 4.774 10.595C3.89016 11.9082 2.84649 13.1064 1.667 14.162C1.46898 14.336 1.21026 14.4248 0.947123 14.409C0.683985 14.3933 0.437713 14.2742 0.261877 14.0778C0.0860416 13.8814 -0.0051329 13.6236 0.00818634 13.3603C0.0215056 13.097 0.138241 12.8496 0.333 12.672C1.54927 11.5835 2.60331 10.3264 3.463 8.939C2.90442 8.14683 2.4073 7.31306 1.976 6.445C1.91271 6.32698 1.87377 6.19746 1.86149 6.0641C1.84921 5.93075 1.86384 5.79629 1.90451 5.6687C1.94518 5.54111 2.01106 5.42299 2.09825 5.32134C2.18544 5.2197 2.29215 5.1366 2.41207 5.07698C2.53198 5.01735 2.66264 4.98243 2.79631 4.97426C2.92998 4.9661 3.06392 4.98486 3.1902 5.02945C3.31648 5.07403 3.43251 5.14352 3.53142 5.2338C3.63033 5.32408 3.7101 5.43331 3.766 5.555C4 6.025 4.255 6.483 4.53 6.927C4.947 5.993 5.282 5.014 5.527 4H1C0.734784 4 0.48043 3.89464 0.292893 3.70711C0.105357 3.51957 0 3.26522 0 3C0 2.73478 0.105357 2.48043 0.292893 2.29289C0.48043 2.10536 0.734784 2 1 2H4V1C4 0.734784 4.10536 0.48043 4.29289 0.292893C4.48043 0.105357 4.73478 0 5 0ZM11 6C11.1857 6.0001 11.3676 6.05188 11.5255 6.14955C11.6834 6.24722 11.811 6.38692 11.894 6.553L14.885 12.535C14.892 12.5472 14.8986 12.5595 14.905 12.572L15.895 14.552C16.0137 14.7894 16.0332 15.0642 15.9493 15.3159C15.8654 15.5677 15.6849 15.7758 15.4475 15.8945C15.2101 16.0132 14.9353 16.0327 14.6836 15.9488C14.4318 15.8649 14.2237 15.6844 14.105 15.447L13.383 14H8.619L7.895 15.447C7.83884 15.5686 7.75883 15.6776 7.65972 15.7677C7.5606 15.8578 7.44441 15.927 7.31803 15.9713C7.19165 16.0156 7.05766 16.0341 6.924 16.0256C6.79035 16.0172 6.65975 15.982 6.53997 15.9221C6.42018 15.8622 6.31365 15.7788 6.22669 15.677C6.13972 15.5751 6.0741 15.4569 6.03372 15.3292C5.99334 15.2015 5.97902 15.067 5.99161 14.9336C6.00419 14.8003 6.04344 14.6709 6.107 14.553L7.097 12.573L7.116 12.535L10.106 6.553C10.189 6.38692 10.3166 6.24722 10.4745 6.14955C10.6324 6.05188 10.8143 6.0001 11 6V6ZM9.618 12H12.382L11 9.236L9.618 12Z" fill="var(--fill-0, #111928)"/>
</svg>
