<svg preserveAspectRatio="none" width="100%" height="100%" overflow="visible" style="display: block;" viewBox="0 0 14 16" fill="none" xmlns="http://www.w3.org/2000/svg">
<path id="Vector" fill-rule="evenodd" clip-rule="evenodd" d="M8.757 0.0337454C9.034 0.106745 9.266 0.295727 9.395 0.552727C9.878 1.51973 10.239 2.10676 10.602 2.58276C10.97 3.06476 11.358 3.45874 11.95 4.04974C13.316 5.41674 14 7.20975 14 8.99975C14 10.7897 13.316 12.5828 11.95 13.9498C9.216 16.6828 4.784 16.6828 2.05 13.9498C0.684003 12.5828 0 10.7897 0 8.99975C0 7.20975 0.684003 5.41674 2.05 4.04974C2.336 3.76374 2.766 3.67873 3.14 3.83373C3.514 3.98773 3.757 4.35277 3.757 4.75677C3.757 5.87677 3.827 6.72976 4.155 7.41076C4.335 7.78476 4.61601 8.15078 5.10001 8.47778C5.21601 7.41678 5.428 6.12376 5.714 4.89776C5.939 3.93176 6.21899 2.96775 6.55299 2.16375C6.71999 1.76075 6.909 1.37872 7.123 1.04772C7.331 0.725722 7.59901 0.398779 7.94501 0.167779C8.18401 0.00877862 8.48 -0.0402546 8.757 0.0337454ZM9.121 13.1207C7.95 14.2927 6.05 14.2927 4.879 13.1207C4.293 12.5357 4 11.7677 4 10.9997C4 10.9997 4.879 11.4997 6.5 11.4997C6.5 10.4997 7 7.49975 7.75 6.99975C8.25 7.99975 8.536 8.29278 9.121 8.87878C9.707 9.46378 10 10.2317 10 10.9997C10 11.7677 9.707 12.5357 9.121 13.1207Z" fill="var(--fill-0, #111928)"/>
</svg>
