<svg preserveAspectRatio="none" width="100%" height="100%" overflow="visible" style="display: block;" viewBox="0 0 27 27" fill="none" xmlns="http://www.w3.org/2000/svg">
<g id="Layer_31">
<path id="Path" d="M26.28 24.3867L19.08 17.2C20.5426 15.3366 21.3363 13.0355 21.3333 10.6667C21.3333 4.77563 16.5577 0 10.6667 0C4.77563 0 0 4.77563 0 10.6667C0 16.5577 4.77563 21.3333 10.6667 21.3333C13.0355 21.3363 15.3366 20.5426 17.2 19.08L24.3867 26.28C24.637 26.5324 24.9778 26.6744 25.3333 26.6744C25.6889 26.6744 26.0296 26.5324 26.28 26.28C26.5324 26.0296 26.6744 25.6889 26.6744 25.3333C26.6744 24.9778 26.5324 24.637 26.28 24.3867Z" fill="var(--fill-0, #4BB4E6)"/>
</g>
</svg>
