<svg preserveAspectRatio="none" width="100%" height="100%" overflow="visible" style="display: block;" viewBox="0 0 14 14" fill="none" xmlns="http://www.w3.org/2000/svg">
<g id="Layer_51">
<path id="Path" d="M11.3333 0H4.66667C3.5621 0 2.66667 0.89543 2.66667 2V5.33333H4C4.00226 4.79579 4.32708 4.31218 4.82384 4.10678C5.32059 3.90137 5.89211 4.01436 6.27333 4.39333L7.60667 5.72667C8.12363 6.24672 8.12363 7.08662 7.60667 7.60667L6.27333 8.94C5.75328 9.45696 4.91338 9.45696 4.39333 8.94C4.14294 8.6911 4.00149 8.35305 4 8H2.66667V11.3333C2.66667 12.4379 3.5621 13.3333 4.66667 13.3333H11.3333C12.4379 13.3333 13.3333 12.4379 13.3333 11.3333V2C13.3333 0.89543 12.4379 0 11.3333 0Z" fill="var(--fill-0, #4BB4E6)"/>
<path id="Path_2" d="M5.06 7.33333L4.86 7.52667C4.73379 7.65184 4.6628 7.82224 4.6628 8C4.6628 8.17776 4.73379 8.34816 4.86 8.47333C4.98518 8.59954 5.15558 8.67053 5.33333 8.67053C5.51109 8.67053 5.68149 8.59954 5.80667 8.47333L7.14 7.14C7.26621 7.01482 7.3372 6.84443 7.3372 6.66667C7.3372 6.48891 7.26621 6.31851 7.14 6.19333L5.80667 4.86C5.54525 4.59859 5.12141 4.59859 4.86 4.86C4.59859 5.12141 4.59859 5.54525 4.86 5.80667L5.06 6H0.666667C0.298477 6 0 6.29848 0 6.66667C0 7.03486 0.298477 7.33333 0.666667 7.33333H5.06V7.33333Z" fill="var(--fill-0, #4BB4E6)"/>
</g>
</svg>
