<svg preserveAspectRatio="none" width="100%" height="100%" overflow="visible" style="display: block;" viewBox="0 0 18 10" fill="none" xmlns="http://www.w3.org/2000/svg">
<path id="Vector" fill-rule="evenodd" clip-rule="evenodd" d="M5.62501 0.656779C6.99134 0.104071 8.4725 -0.104617 9.93836 0.0490525C11.4042 0.202722 12.8099 0.714044 14.0319 1.53809C15.2539 2.36214 16.2548 3.4737 16.9467 4.77509C17.6386 6.07649 18.0003 7.52789 18 9.00178C18 9.267 17.8947 9.52135 17.7071 9.70889C17.5196 9.89642 17.2652 10.0018 17 10.0018C16.7348 10.0018 16.4804 9.89642 16.2929 9.70889C16.1054 9.52135 16 9.267 16 9.00178C16.0005 7.8553 15.7193 6.72625 15.1813 5.71387C14.6432 4.70148 13.8648 3.83674 12.9143 3.19565C11.9638 2.55456 10.8704 2.15673 9.73019 2.03714C8.58997 1.91755 7.43782 2.07985 6.37501 2.50978C6.25247 2.56388 6.12032 2.59282 5.98639 2.59486C5.85245 2.59691 5.71948 2.57203 5.59535 2.5217C5.47121 2.47137 5.35846 2.39661 5.26377 2.30187C5.16909 2.20713 5.0944 2.09433 5.04415 1.97016C4.99389 1.846 4.96909 1.71301 4.97122 1.57908C4.97335 1.44515 5.00237 1.31301 5.05655 1.19051C5.11072 1.06801 5.18896 0.957639 5.28661 0.865954C5.38426 0.774269 5.49934 0.703137 5.62501 0.656779V0.656779ZM3.66201 2.96078C3.86071 3.13627 3.9816 3.38348 3.9981 3.64806C4.0146 3.91265 3.92536 4.17296 3.75001 4.37178C2.61987 5.64904 1.99725 7.29632 2.00001 9.00178C2.00001 9.267 1.89465 9.52135 1.70711 9.70889C1.51958 9.89642 1.26522 10.0018 1.00001 10.0018C0.734791 10.0018 0.480437 9.89642 0.2929 9.70889C0.105364 9.52135 7.25315e-06 9.267 7.25315e-06 9.00178C-0.00277965 6.80914 0.797636 4.69142 2.25001 3.04878C2.33691 2.95024 2.44239 2.8698 2.5604 2.81205C2.67841 2.7543 2.80664 2.72036 2.93777 2.71219C3.0689 2.70402 3.20036 2.72177 3.32463 2.76442C3.44889 2.80707 3.56354 2.8738 3.66201 2.96078V2.96078Z" fill="var(--fill-0, #111928)"/>
</svg>
