<svg preserveAspectRatio="none" width="100%" height="100%" overflow="visible" style="display: block;" viewBox="0 0 21 21" fill="none" xmlns="http://www.w3.org/2000/svg">
<g id="Layer_101">
<path id="Path" d="M19.7158 0.295798C19.528 0.106486 19.2724 0 19.0058 0C18.7392 0 18.4836 0.106486 18.2958 0.295798L14.8458 3.7458V3.7458L6.2658 12.3258L5.5658 13.0258L4.1458 14.4458L0.295798 18.2958C0.106486 18.4836 0 18.7392 0 19.0058C0 19.2724 0.106486 19.528 0.295798 19.7158C0.483565 19.9051 0.739161 20.0116 1.0058 20.0116C1.27244 20.0116 1.52803 19.9051 1.7158 19.7158L5.7158 15.7158L7.1658 14.2658V14.2658L7.9158 13.5158V13.5158L11.4558 10.0058L19.7158 1.7458C19.9145 1.557 20.0271 1.29491 20.0271 1.0208C20.0271 0.746687 19.9145 0.484592 19.7158 0.295798Z" fill="var(--fill-0, #4BB4E6)"/>
<path id="Path_2" d="M14.4558 2.7358C13.4035 0.681753 11.082 -0.385174 8.83795 0.153879C6.59388 0.692932 5.01031 2.69789 5.0058 5.0058V9.0058C5.00689 9.88652 5.23783 10.7517 5.6758 11.5158L14.4558 2.7358Z" fill="var(--fill-0, #4BB4E6)"/>
<path id="Path_3" d="M15.0058 9.0058V7.8258L8.9358 13.8958C9.28791 13.9681 9.64636 14.0049 10.0058 14.0058C12.7672 14.0058 15.0058 11.7672 15.0058 9.0058Z" fill="var(--fill-0, #4BB4E6)"/>
<path id="Path_4" d="M5.0058 12.2358C4.36234 11.2808 4.01452 10.1573 4.0058 9.0058C4.0058 8.45351 3.55808 8.0058 3.0058 8.0058C2.45351 8.0058 2.0058 8.45351 2.0058 9.0058C2.00331 10.6829 2.5319 12.3177 3.5158 13.6758L5.0058 12.2358Z" fill="var(--fill-0, #4BB4E6)"/>
<path id="Path_5" d="M17.0058 8.0058C16.4535 8.0058 16.0058 8.45351 16.0058 9.0058C16.0058 12.3195 13.3195 15.0058 10.0058 15.0058C9.36693 15.0095 8.73179 14.9081 8.1258 14.7058L6.5958 16.2358C9.07284 17.403 11.9748 17.2222 14.2878 15.7565C16.6008 14.2909 18.0035 11.7441 18.0058 9.0058C18.0058 8.45351 17.5581 8.0058 17.0058 8.0058Z" fill="var(--fill-0, #4BB4E6)"/>
<path id="Path_6" d="M13.0058 18.0058H7.0058C6.45351 18.0058 6.0058 18.4535 6.0058 19.0058C6.0058 19.5581 6.45351 20.0058 7.0058 20.0058H13.0058C13.5581 20.0058 14.0058 19.5581 14.0058 19.0058C14.0058 18.4535 13.5581 18.0058 13.0058 18.0058Z" fill="var(--fill-0, #4BB4E6)"/>
</g>
</svg>
