<svg preserveAspectRatio="none" width="100%" height="100%" overflow="visible" style="display: block;" viewBox="0 0 15 16" fill="none" xmlns="http://www.w3.org/2000/svg">
<path id="Vector" fill-rule="evenodd" clip-rule="evenodd" d="M13.7193 8.293C13.9068 8.48053 14.0121 8.73484 14.0121 9C14.0121 9.26516 13.9068 9.51947 13.7193 9.707L7.71929 15.707C7.53176 15.8945 7.27745 15.9998 7.01229 15.9998C6.74712 15.9998 6.49282 15.8945 6.30529 15.707L0.305288 9.707C0.209778 9.61475 0.133596 9.50441 0.0811869 9.3824C0.0287779 9.2604 0.00119157 9.12918 3.77567e-05 8.9964C-0.00111606 8.86362 0.0241857 8.73194 0.0744666 8.60905C0.124747 8.48615 0.199001 8.3745 0.292893 8.28061C0.386786 8.18671 0.498438 8.11246 0.621334 8.06218C0.74423 8.0119 0.87591 7.9866 1.00869 7.98775C1.14147 7.9889 1.27269 8.01649 1.39469 8.0689C1.5167 8.12131 1.62704 8.19749 1.71929 8.293L6.01229 12.586V1C6.01229 0.734784 6.11765 0.48043 6.30518 0.292893C6.49272 0.105357 6.74707 0 7.01229 0C7.2775 0 7.53186 0.105357 7.71939 0.292893C7.90693 0.48043 8.01229 0.734784 8.01229 1V12.586L12.3053 8.293C12.4928 8.10553 12.7471 8.00021 13.0123 8.00021C13.2775 8.00021 13.5318 8.10553 13.7193 8.293V8.293Z" fill="var(--fill-0, #111928)"/>
</svg>
