<svg preserveAspectRatio="none" width="100%" height="100%" overflow="visible" style="display: block;" viewBox="0 0 20 20" fill="none" xmlns="http://www.w3.org/2000/svg">
<g id="Layer_7">
<path id="Shape" fill-rule="evenodd" clip-rule="evenodd" d="M0 10C0 4.47715 4.47715 0 10 0C12.6522 0 15.1957 1.05357 17.0711 2.92893C18.9464 4.8043 20 7.34784 20 10C20 15.5228 15.5228 20 10 20C4.47715 20 0 15.5228 0 10ZM10.71 15.71L14.71 11.71C15.1021 11.3179 15.1021 10.6821 14.71 10.29C14.3179 9.89788 13.6821 9.89788 13.29 10.29L11 12.59V5C11 4.44772 10.5523 4 10 4C9.44771 4 9 4.44772 9 5V12.59L6.71 10.29C6.45634 10.0363 6.08663 9.93728 5.74012 10.0301C5.39362 10.123 5.12297 10.3936 5.03012 10.7401C4.93728 11.0866 5.03634 11.4563 5.29 11.71L9.29 15.71C9.3851 15.801 9.49725 15.8724 9.62 15.92C9.86204 16.027 10.138 16.027 10.38 15.92C10.5028 15.8724 10.6149 15.801 10.71 15.71Z" fill="var(--fill-0, #4BB4E6)"/>
</g>
</svg>
