<svg preserveAspectRatio="none" width="100%" height="100%" overflow="visible" style="display: block;" viewBox="0 0 14 14" fill="none" xmlns="http://www.w3.org/2000/svg">
<g id="Layer_17">
<path id="Shape" fill-rule="evenodd" clip-rule="evenodd" d="M0 6.66667C0 2.98477 2.98477 0 6.66667 0C8.43478 0 10.1305 0.702379 11.3807 1.95262C12.631 3.20286 13.3333 4.89856 13.3333 6.66667C13.3333 10.3486 10.3486 13.3333 6.66667 13.3333C2.98477 13.3333 0 10.3486 0 6.66667ZM9.33333 8.66667C9.51247 8.66418 9.68307 8.58969 9.80667 8.46C9.93288 8.33482 10.0039 8.16442 10.0039 7.98667C10.0039 7.80891 9.93288 7.63851 9.80667 7.51333L7.14 4.84667C7.01482 4.72046 6.84442 4.64947 6.66667 4.64947C6.48891 4.64947 6.31851 4.72046 6.19333 4.84667L3.52667 7.51333C3.35756 7.68244 3.29152 7.92892 3.35341 8.15992C3.41531 8.39092 3.59575 8.57135 3.82675 8.63325C4.05775 8.69515 4.30423 8.62911 4.47333 8.46L6.66667 6.28L8.86 8.47333C8.98581 8.59812 9.15613 8.66769 9.33333 8.66667Z" fill="var(--fill-0, #4BB4E6)"/>
</g>
</svg>
