<svg preserveAspectRatio="none" width="100%" height="100%" overflow="visible" style="display: block;" viewBox="0 0 20 20" fill="none" xmlns="http://www.w3.org/2000/svg">
<g id="Layer_45">
<path id="Shape" fill-rule="evenodd" clip-rule="evenodd" d="M3 0H17C18.6569 0 20 1.34315 20 3V17C20 18.6569 18.6569 20 17 20H3C1.34315 20 0 18.6569 0 17V3C0 1.34315 1.34315 0 3 0ZM5 11H15C15.5523 11 16 10.5523 16 10C16 9.44771 15.5523 9 15 9H5C4.44772 9 4 9.44771 4 10C4 10.5523 4.44772 11 5 11Z" fill="var(--fill-0, #4BB4E6)"/>
</g>
</svg>
