<svg preserveAspectRatio="none" width="100%" height="100%" overflow="visible" style="display: block;" viewBox="0 0 20 21" fill="none" xmlns="http://www.w3.org/2000/svg">
<g id="Layer_75">
<path id="Path" d="M19.6324 18.3024L13.4624 12.1324L17.0524 8.54237C17.4401 8.15233 17.4401 7.5224 17.0524 7.13237L15.2124 5.29237C14.6388 4.73672 13.7896 4.57554 13.0524 4.88237L9.13237 0.882366C8.56946 0.317502 7.80482 0 7.00737 0C6.20991 0 5.44527 0.317502 4.88237 0.882366L0.882366 4.88237C0.317502 5.44527 0 6.20991 0 7.00737C0 7.80482 0.317502 8.56946 0.882366 9.13237L4.80237 13.1324C4.5032 13.8755 4.67634 14.7255 5.24237 15.2924L7.08237 17.1324C7.4724 17.5201 8.10233 17.5201 8.49237 17.1324L12.0824 13.5424L18.2524 19.7124C18.4394 19.9032 18.6951 20.0113 18.9624 20.0124C19.3668 20.0107 19.7304 19.7655 19.8836 19.3912C20.0369 19.0169 19.9495 18.5872 19.6624 18.3024H19.6324Z" fill="var(--fill-0, #4BB4E6)"/>
</g>
</svg>
