<svg preserveAspectRatio="none" width="100%" height="100%" overflow="visible" style="display: block;" viewBox="0 0 27 27" fill="none" xmlns="http://www.w3.org/2000/svg">
<g id="Layer_18">
<path id="Shape" fill-rule="evenodd" clip-rule="evenodd" d="M0 13.3333C0 5.96954 5.96954 0 13.3333 0C16.8696 0 20.2609 1.40476 22.7614 3.90524C25.2619 6.40573 26.6667 9.79711 26.6667 13.3333C26.6667 20.6971 20.6971 26.6667 13.3333 26.6667C5.96954 26.6667 0 20.6971 0 13.3333ZM11.6 19.6133L16.9333 14.28C17.1911 14.035 17.3403 13.6972 17.3479 13.3417C17.3554 12.9861 17.2205 12.6423 16.9733 12.3867L11.64 7.05333C11.3018 6.71512 10.8088 6.58303 10.3468 6.70683C9.88482 6.83062 9.52396 7.19149 9.40016 7.6535C9.27637 8.1155 9.40846 8.60845 9.74667 8.94667L14.1067 13.3333L9.72 17.72C9.46758 17.9704 9.3256 18.3111 9.3256 18.6667C9.3256 19.0222 9.46758 19.363 9.72 19.6133C9.97163 19.8629 10.3123 20.002 10.6667 20C11.0165 19.9985 11.3517 19.8597 11.6 19.6133Z" fill="var(--fill-0, #4BB4E6)"/>
</g>
</svg>
