<svg preserveAspectRatio="none" width="100%" height="100%" overflow="visible" style="display: block;" viewBox="0 0 27 22" fill="none" xmlns="http://www.w3.org/2000/svg">
<g id="Layer_72">
<circle id="Oval" cx="13.3333" cy="13.3333" r="1.33333" fill="var(--fill-0, #4BB4E6)"/>
<circle id="Oval_2" cx="18.6667" cy="13.3333" r="1.33333" fill="var(--fill-0, #4BB4E6)"/>
<path id="Shape" fill-rule="evenodd" clip-rule="evenodd" d="M4 0H22.6667C24.8758 0 26.6667 1.79086 26.6667 4V17.3333C26.6667 19.5425 24.8758 21.3333 22.6667 21.3333H4C1.79086 21.3333 0 19.5425 0 17.3333V4C0 1.79086 1.79086 0 4 0ZM16 16.2933C16.7302 16.9571 17.6799 17.3275 18.6667 17.3333C20.8758 17.3333 22.6667 15.5425 22.6667 13.3333C22.6667 11.1242 20.8758 9.33333 18.6667 9.33333C17.6799 9.33921 16.7302 9.70961 16 10.3733C15.2698 9.70961 14.3201 9.33921 13.3333 9.33333C11.1242 9.33333 9.33333 11.1242 9.33333 13.3333C9.33333 15.5425 11.1242 17.3333 13.3333 17.3333C14.3201 17.3275 15.2698 16.9571 16 16.2933Z" fill="var(--fill-0, #4BB4E6)"/>
</g>
</svg>
