<svg preserveAspectRatio="none" width="100%" height="100%" overflow="visible" style="display: block;" viewBox="0 0 19 27" fill="none" xmlns="http://www.w3.org/2000/svg">
<g id="Layer_74">
<circle id="Oval" cx="9.34076" cy="9.33333" r="1.33333" fill="var(--fill-0, #4BB4E6)"/>
<path id="Shape" fill-rule="evenodd" clip-rule="evenodd" d="M9.34076 0C14.4954 0 18.6741 4.17868 18.6741 9.33333C18.8608 13.5067 15.5141 19.0667 10.4208 26.1067C10.17 26.453 9.76836 26.6581 9.34076 26.6581C8.91317 26.6581 8.51152 26.453 8.26076 26.1067C3.16743 19.0533 -0.179237 13.4933 0.00742949 9.33333C0.00742957 4.17868 4.18611 0 9.34076 0ZM5.34076 9.33333C5.34076 11.5425 7.13162 13.3333 9.34076 13.3333C10.4016 13.3333 11.419 12.9119 12.1692 12.1618C12.9193 11.4116 13.3408 10.3942 13.3408 9.33333C13.3408 7.12419 11.5499 5.33333 9.34076 5.33333C7.13162 5.33333 5.34076 7.12419 5.34076 9.33333Z" fill="var(--fill-0, #4BB4E6)"/>
</g>
</svg>
