<svg preserveAspectRatio="none" width="100%" height="100%" overflow="visible" style="display: block;" viewBox="0 0 27 26" fill="none" xmlns="http://www.w3.org/2000/svg">
<g id="Layer_91">
<path id="Path" d="M16 1.77333L10.6667 0V24.1467L16 25.92V1.77333V1.77333Z" fill="var(--fill-0, #4BB4E6)"/>
<path id="Path_2" d="M25.56 0.64C24.8641 0.141835 23.9714 0.00793001 23.16 0.28L18.6667 1.77333V25.92L24.84 23.8667C25.9315 23.5044 26.6677 22.4833 26.6667 21.3333V2.81333C26.6701 1.95276 26.258 1.14343 25.56 0.64Z" fill="var(--fill-0, #4BB4E6)"/>
<path id="Path_3" d="M8.00002 0L1.82669 2.05333C0.735254 2.41558 -0.00102342 3.43669 2.09827e-05 4.58667V23.1067C-0.00338783 23.9672 0.408722 24.7766 1.10669 25.28C1.56524 25.5976 2.10891 25.7695 2.66669 25.7733C2.95215 25.7758 3.23602 25.7307 3.50669 25.64L8.00002 24.1467V0Z" fill="var(--fill-0, #4BB4E6)"/>
</g>
</svg>
