<svg preserveAspectRatio="none" width="100%" height="100%" overflow="visible" style="display: block;" viewBox="0 0 27 27" fill="none" xmlns="http://www.w3.org/2000/svg">
<g id="Layer_20">
<path id="Shape" fill-rule="evenodd" clip-rule="evenodd" d="M0 13.3333C0 5.96954 5.96954 0 13.3333 0C16.8696 0 20.2609 1.40476 22.7614 3.90524C25.2619 6.40573 26.6667 9.79711 26.6667 13.3333C26.6667 20.6971 20.6971 26.6667 13.3333 26.6667C5.96954 26.6667 0 20.6971 0 13.3333ZM17.3144 18.6667C17.3144 18.3111 17.1724 17.9704 16.92 17.72L12.56 13.3333L16.9467 8.94667C17.2849 8.60845 17.417 8.1155 17.2932 7.6535C17.1694 7.19149 16.8085 6.83062 16.3465 6.70683C15.8845 6.58303 15.3915 6.71512 15.0533 7.05333L9.72 12.3867C9.46758 12.637 9.3256 12.9778 9.3256 13.3333C9.3256 13.6888 9.46758 14.0296 9.72 14.28L15.0533 19.6133C15.305 19.8629 15.6456 20.002 16 20C16.3452 19.9951 16.6749 19.8565 16.92 19.6133C17.1724 19.363 17.3144 19.0222 17.3144 18.6667Z" fill="var(--fill-0, #4BB4E6)"/>
</g>
</svg>
