<svg preserveAspectRatio="none" width="100%" height="100%" overflow="visible" style="display: block;" viewBox="0 0 16 16" fill="none" xmlns="http://www.w3.org/2000/svg">
<path id="Vector" fill-rule="evenodd" clip-rule="evenodd" d="M16 5.99422C16.0003 6.93139 15.781 7.85559 15.3598 8.69276C14.9386 9.52994 14.3271 10.2568 13.5744 10.8151C12.8216 11.3734 11.9486 11.7476 11.0252 11.9077C10.1018 12.0679 9.15376 12.0095 8.257 11.7372L8 11.9942L7 12.9942L6 13.9942H4V15.9942H0V11.9942L4.257 7.73722C4.00745 6.91223 3.93857 6.04316 4.05504 5.18916C4.17152 4.33517 4.47062 3.51629 4.93199 2.78826C5.39336 2.06024 6.00616 1.44016 6.72869 0.970235C7.45122 0.500309 8.26652 0.191566 9.11908 0.0650213C9.97164 -0.0615238 10.8415 -0.00290057 11.6693 0.236901C12.4972 0.476702 13.2637 0.892053 13.9166 1.45468C14.5696 2.01731 15.0936 2.71401 15.4531 3.49736C15.8127 4.2807 15.9992 5.13231 16 5.99422V5.99422ZM10 1.99422C9.73478 1.99422 9.48043 2.09957 9.29289 2.28711C9.10536 2.47465 9 2.729 9 2.99422C9 3.25943 9.10536 3.51379 9.29289 3.70132C9.48043 3.88886 9.73478 3.99422 10 3.99422C10.5304 3.99422 11.0391 4.20493 11.4142 4.58C11.7893 4.95508 12 5.46378 12 5.99422C12 6.25943 12.1054 6.51379 12.2929 6.70132C12.4804 6.88886 12.7348 6.99422 13 6.99422C13.2652 6.99422 13.5196 6.88886 13.7071 6.70132C13.8946 6.51379 14 6.25943 14 5.99422C14 4.93335 13.5786 3.91593 12.8284 3.16579C12.0783 2.41564 11.0609 1.99422 10 1.99422Z" fill="var(--fill-0, #111928)"/>
</svg>
