<svg preserveAspectRatio="none" width="100%" height="100%" overflow="visible" style="display: block;" viewBox="0 0 16 18" fill="none" xmlns="http://www.w3.org/2000/svg">
<path id="Vector" fill-rule="evenodd" clip-rule="evenodd" d="M7.504 0.131678C7.65507 0.0453871 7.82603 0 8 0C8.17398 0 8.34494 0.0453871 8.49601 0.131678L10.246 1.13168C10.3633 1.19506 10.4667 1.28126 10.5502 1.38519C10.6337 1.48913 10.6955 1.60871 10.7321 1.7369C10.7687 1.8651 10.7793 1.99931 10.7633 2.13166C10.7473 2.264 10.7049 2.39181 10.6388 2.50756C10.5727 2.62331 10.484 2.72466 10.3782 2.80566C10.2723 2.88666 10.1513 2.94568 10.0222 2.97923C9.89321 3.01278 9.75878 3.0202 9.62685 3.00104C9.49492 2.98188 9.36816 2.93654 9.254 2.86768L8 2.15168L6.74601 2.86768C6.63185 2.93654 6.50509 2.98188 6.37316 3.00104C6.24123 3.0202 6.1068 3.01278 5.97778 2.97923C5.84875 2.94568 5.72774 2.88666 5.62186 2.80566C5.51598 2.72466 5.42736 2.62331 5.36122 2.50756C5.29507 2.39181 5.25274 2.264 5.23671 2.13166C5.22068 1.99931 5.23128 1.8651 5.26788 1.7369C5.30447 1.60871 5.36633 1.48913 5.44982 1.38519C5.5333 1.28126 5.63672 1.19506 5.754 1.13168L7.504 0.131678V0.131678ZM3.618 3.50368C3.74948 3.7339 3.78414 4.00691 3.71439 4.26269C3.64463 4.51847 3.47616 4.73608 3.246 4.86768L3.016 4.99968L3.246 5.13168C3.36329 5.19506 3.46671 5.28126 3.55019 5.38519C3.63368 5.48913 3.69554 5.60871 3.73213 5.7369C3.76873 5.8651 3.77933 5.99931 3.7633 6.13166C3.74727 6.264 3.70494 6.39181 3.63879 6.50756C3.57265 6.62331 3.48403 6.72466 3.37815 6.80566C3.27227 6.88666 3.15126 6.94568 3.02223 6.97923C2.89321 7.01278 2.75878 7.0202 2.62685 7.00104C2.49492 6.98188 2.36816 6.93654 2.254 6.86768L2 6.72268V6.99968C2 7.26489 1.89465 7.51925 1.70711 7.70678C1.51958 7.89432 1.26522 7.99968 1 7.99968C0.734788 7.99968 0.480434 7.89432 0.292898 7.70678C0.105362 7.51925 4.83543e-06 7.26489 4.83543e-06 6.99968V4.99968C-0.000554844 4.82004 0.0474804 4.64359 0.139023 4.48903C0.230565 4.33446 0.362207 4.20753 0.520005 4.12168L2.254 3.13168C2.48423 3.00021 2.75724 2.96554 3.01302 3.0353C3.2688 3.10505 3.4864 3.27353 3.618 3.50368V3.50368ZM12.382 3.50368C12.5136 3.27353 12.7312 3.10505 12.987 3.0353C13.2428 2.96554 13.5158 3.00021 13.746 3.13168L15.479 4.12168C15.6366 4.2079 15.7681 4.33488 15.8597 4.48935C15.9514 4.64381 15.9998 4.82007 16 4.99968V6.99968C16 7.26489 15.8946 7.51925 15.7071 7.70678C15.5196 7.89432 15.2652 7.99968 15 7.99968C14.7348 7.99968 14.4804 7.89432 14.2929 7.70678C14.1054 7.51925 14 7.26489 14 6.99968V6.72268L13.746 6.86768C13.6319 6.93654 13.5051 6.98188 13.3732 7.00104C13.2412 7.0202 13.1068 7.01278 12.9778 6.97923C12.8488 6.94568 12.7277 6.88666 12.6219 6.80566C12.516 6.72466 12.4274 6.62331 12.3612 6.50756C12.2951 6.39181 12.2527 6.264 12.2367 6.13166C12.2207 5.99931 12.2313 5.8651 12.2679 5.7369C12.3045 5.60871 12.3663 5.48913 12.4498 5.38519C12.5333 5.28126 12.6367 5.19506 12.754 5.13168L12.984 4.99968L12.754 4.86768C12.5239 4.73608 12.3554 4.51847 12.2856 4.26269C12.2159 4.00691 12.2505 3.7339 12.382 3.50368V3.50368ZM5.382 7.50368C5.51361 7.27353 5.73121 7.10505 5.98699 7.0353C6.24277 6.96554 6.51578 7.00021 6.74601 7.13168L8 7.84768L9.254 7.13168C9.36816 7.06282 9.49492 7.01747 9.62685 6.99832C9.75878 6.97916 9.89321 6.98657 10.0222 7.02013C10.1513 7.05368 10.2723 7.11269 10.3782 7.19369C10.484 7.27469 10.5727 7.37605 10.6388 7.4918C10.7049 7.60755 10.7473 7.73535 10.7633 7.8677C10.7793 8.00004 10.7687 8.13426 10.7321 8.26245C10.6955 8.39064 10.6337 8.51022 10.5502 8.61416C10.4667 8.7181 10.3633 8.80429 10.246 8.86768L9 9.57968V10.9997C9 11.2649 8.89465 11.5192 8.70711 11.7068C8.51957 11.8943 8.26522 11.9997 8 11.9997C7.73479 11.9997 7.48043 11.8943 7.2929 11.7068C7.10536 11.5192 7 11.2649 7 10.9997V9.57968L5.754 8.86768C5.52385 8.73608 5.35538 8.51847 5.28562 8.26269C5.21587 8.00691 5.25053 7.7339 5.382 7.50368V7.50368ZM1 9.99968C1.26522 9.99968 1.51958 10.105 1.70711 10.2926C1.89465 10.4801 2 10.7345 2 10.9997V12.4197L3.246 13.1317C3.36329 13.1951 3.46671 13.2813 3.55019 13.3852C3.63368 13.4891 3.69554 13.6087 3.73213 13.7369C3.76873 13.8651 3.77933 13.9993 3.7633 14.1317C3.74727 14.264 3.70494 14.3918 3.63879 14.5076C3.57265 14.6233 3.48403 14.7247 3.37815 14.8057C3.27227 14.8867 3.15126 14.9457 3.02223 14.9792C2.89321 15.0128 2.75878 15.0202 2.62685 15.001C2.49492 14.9819 2.36816 14.9365 2.254 14.8677L0.504005 13.8677C0.350951 13.7803 0.223724 13.6539 0.135216 13.5015C0.0467073 13.3491 6.16895e-05 13.1759 4.83543e-06 12.9997V10.9997C4.83543e-06 10.7345 0.105362 10.4801 0.292898 10.2926C0.480434 10.105 0.734788 9.99968 1 9.99968V9.99968ZM15 9.99968C15.2652 9.99968 15.5196 10.105 15.7071 10.2926C15.8946 10.4801 16 10.7345 16 10.9997V12.9997C15.9999 13.1759 15.9533 13.3491 15.8648 13.5015C15.7763 13.6539 15.6491 13.7803 15.496 13.8677L13.746 14.8677C13.6319 14.9365 13.5051 14.9819 13.3732 15.001C13.2412 15.0202 13.1068 15.0128 12.9778 14.9792C12.8488 14.9457 12.7277 14.8867 12.6219 14.8057C12.516 14.7247 12.4274 14.6233 12.3612 14.5076C12.2951 14.3918 12.2527 14.264 12.2367 14.1317C12.2207 13.9993 12.2313 13.8651 12.2679 13.7369C12.3045 13.6087 12.3663 13.4891 12.4498 13.3852C12.5333 13.2813 12.6367 13.1951 12.754 13.1317L14 12.4197V10.9997C14 10.7345 14.1054 10.4801 14.2929 10.2926C14.4804 10.105 14.7348 9.99968 15 9.99968ZM5.382 15.5037C5.51361 15.2735 5.73121 15.1051 5.98699 15.0353C6.24277 14.9655 6.51578 15.0002 6.74601 15.1317L7 15.2767V14.9997C7 14.7345 7.10536 14.4801 7.2929 14.2926C7.48043 14.105 7.73479 13.9997 8 13.9997C8.26522 13.9997 8.51957 14.105 8.70711 14.2926C8.89465 14.4801 9 14.7345 9 14.9997V15.2767L9.254 15.1317C9.36816 15.0628 9.49492 15.0175 9.62685 14.9983C9.75878 14.9792 9.89321 14.9866 10.0222 15.0201C10.1513 15.0537 10.2723 15.1127 10.3782 15.1937C10.484 15.2747 10.5727 15.376 10.6388 15.4918C10.7049 15.6075 10.7473 15.7354 10.7633 15.8677C10.7793 16 10.7687 16.1343 10.7321 16.2625C10.6955 16.3906 10.6337 16.5102 10.5502 16.6142C10.4667 16.7181 10.3633 16.8043 10.246 16.8677L8.511 17.8597C8.35658 17.9521 8.17998 18.0009 8 18.0009C7.82003 18.0009 7.64343 17.9521 7.48901 17.8597L5.754 16.8677C5.52385 16.7361 5.35538 16.5185 5.28562 16.2627C5.21587 16.0069 5.25053 15.7339 5.382 15.5037V15.5037Z" fill="var(--fill-0, #111928)"/>
</svg>
