<svg preserveAspectRatio="none" width="100%" height="100%" overflow="visible" style="display: block;" viewBox="0 0 20 20" fill="none" xmlns="http://www.w3.org/2000/svg">
<g id="Layer_33">
<path id="Shape" fill-rule="evenodd" clip-rule="evenodd" d="M14.31 12.9L19.71 18.29C19.8993 18.4778 20.0058 18.7334 20.0058 19C20.0058 19.2666 19.8993 19.5222 19.71 19.71C19.5222 19.8993 19.2666 20.0058 19 20.0058C18.7334 20.0058 18.4778 19.8993 18.29 19.71L12.9 14.31C11.5025 15.407 9.77666 16.0022 8 16C3.58172 16 0 12.4183 0 8C0 3.58172 3.58172 0 8 0C12.4183 0 16 3.58172 16 8C16.0022 9.77666 15.407 11.5025 14.31 12.9ZM4 8C4 8.55229 4.44772 9 5 9H11C11.5523 9 12 8.55229 12 8C12 7.44772 11.5523 7 11 7H5C4.44772 7 4 7.44772 4 8Z" fill="var(--fill-0, #4BB4E6)"/>
</g>
</svg>
