<svg preserveAspectRatio="none" width="100%" height="100%" overflow="visible" style="display: block;" viewBox="0 0 14 14" fill="none" xmlns="http://www.w3.org/2000/svg">
<g id="Layer_104">
<path id="Shape" fill-rule="evenodd" clip-rule="evenodd" d="M1.92667 0.000309669H10.74C11.7806 -0.0183263 12.6412 0.806494 12.6667 1.84698V5.84698C12.3638 5.5473 12.0205 5.29149 11.6467 5.08698C9.90254 4.15803 7.76859 4.38436 6.25813 5.65849C4.74766 6.93263 4.16494 8.99791 4.78667 10.8736C4.91565 11.2728 5.09964 11.652 5.33333 12.0003H1.92667C0.883497 12.0189 0.0218765 11.1901 0 10.147V1.85364C0.0218765 0.810537 0.883497 -0.0182883 1.92667 0.000309669ZM3.33333 4.00031H9.33333C9.70152 4.00031 10 3.70183 10 3.33364C10 2.96545 9.70152 2.66698 9.33333 2.66698H3.33333C2.96514 2.66698 2.66667 2.96545 2.66667 3.33364C2.66667 3.70183 2.96514 4.00031 3.33333 4.00031Z" fill="var(--fill-0, #4BB4E6)"/>
<path id="Shape_2" fill-rule="evenodd" clip-rule="evenodd" d="M11.3333 5.67364C11.8541 5.95699 12.3086 6.34786 12.6667 6.82031C13.2148 7.54286 13.5078 8.42676 13.5 9.33364C13.506 11.0941 12.405 12.6683 10.7493 13.2666C9.09367 13.8648 7.24067 13.358 6.12 12.0003C5.79384 11.606 5.54504 11.1536 5.38667 10.667C4.95719 9.39544 5.1665 7.99487 5.94896 6.90445C6.73142 5.81403 7.99122 5.16727 9.33333 5.16698C10.0317 5.16778 10.7189 5.34188 11.3333 5.67364ZM10 10.0003H10.4267C10.7949 10.0003 11.0933 9.70183 11.0933 9.33364C11.0933 8.96545 10.7949 8.66698 10.4267 8.66698H10V8.24031C10 7.87212 9.70152 7.57364 9.33333 7.57364C8.96514 7.57364 8.66667 7.87212 8.66667 8.24031V8.66698H8.24C7.87181 8.66698 7.57333 8.96545 7.57333 9.33364C7.57333 9.70183 7.87181 10.0003 8.24 10.0003H8.66667V10.427C8.66667 10.7952 8.96514 11.0936 9.33333 11.0936C9.70152 11.0936 10 10.7952 10 10.427V10.0003Z" fill="var(--fill-0, #4BB4E6)"/>
</g>
</svg>
