<svg preserveAspectRatio="none" width="100%" height="100%" overflow="visible" style="display: block;" viewBox="0 0 20 20" fill="none" xmlns="http://www.w3.org/2000/svg">
<g id="Layer_36">
<path id="Shape" fill-rule="evenodd" clip-rule="evenodd" d="M0 10C0 4.47715 4.47715 0 10 0C12.6522 0 15.1957 1.05357 17.0711 2.92893C18.9464 4.8043 20 7.34784 20 10C20 15.5228 15.5228 20 10 20C4.47715 20 0 15.5228 0 10ZM13 12C13.4482 12.0234 13.857 11.7454 14 11.32C14.0836 11.0614 14.0583 10.78 13.9301 10.5404C13.8018 10.3008 13.5815 10.1238 13.32 10.05L11 9.28V5C11 4.44772 10.5523 4 10 4C9.44772 4 9 4.44772 9 5V10C8.99889 10.4299 9.27269 10.8124 9.68 10.95L12.68 11.95C12.784 11.9805 12.8916 11.9973 13 12Z" fill="var(--fill-0, #4BB4E6)"/>
</g>
</svg>
