<svg preserveAspectRatio="none" width="100%" height="100%" overflow="visible" style="display: block;" viewBox="0 0 27 27" fill="none" xmlns="http://www.w3.org/2000/svg">
<g id="Layer_66">
<path id="Shape" fill-rule="evenodd" clip-rule="evenodd" d="M4 0H22.6667C24.8758 0 26.6667 1.79086 26.6667 4V22.6667C26.6667 24.8758 24.8758 26.6667 22.6667 26.6667H4C1.79086 26.6667 0 24.8758 0 22.6667V4C0 1.79086 1.79086 0 4 0ZM21.3411 20C21.3411 19.6445 21.1991 19.3037 20.9467 19.0533L15.2133 13.3333L20.9467 7.61333C21.4695 7.0905 21.4695 6.24283 20.9467 5.72C20.4238 5.19717 19.5762 5.19717 19.0533 5.72L13.3333 11.4533L7.61333 5.72C7.0905 5.19717 6.24283 5.19717 5.72 5.72C5.19717 6.24283 5.19717 7.0905 5.72 7.61333L11.4533 13.3333L5.72 19.0533C5.46758 19.3037 5.3256 19.6445 5.3256 20C5.3256 20.3555 5.46758 20.6963 5.72 20.9467C5.97036 21.1991 6.31115 21.3411 6.66667 21.3411C7.02218 21.3411 7.36298 21.1991 7.61333 20.9467L13.3333 15.2133L19.0533 20.9467C19.3037 21.1991 19.6445 21.3411 20 21.3411C20.3555 21.3411 20.6963 21.1991 20.9467 20.9467C21.1991 20.6963 21.3411 20.3555 21.3411 20Z" fill="var(--fill-0, #4BB4E6)"/>
</g>
</svg>
