<svg preserveAspectRatio="none" width="100%" height="100%" overflow="visible" style="display: block;" viewBox="0 0 27 27" fill="none" xmlns="http://www.w3.org/2000/svg">
<g id="Layer_101">
<path id="Path" d="M26.2877 0.394398C26.0374 0.141981 25.6966 0 25.3411 0C24.9855 0 24.6448 0.141981 24.3944 0.394398L19.7944 4.9944V4.9944L8.3544 16.4344L7.42106 17.3677L5.52773 19.2611L0.394398 24.3944C0.141981 24.6448 0 24.9855 0 25.3411C0 25.6966 0.141981 26.0374 0.394398 26.2877C0.644753 26.5401 0.985548 26.6821 1.34106 26.6821C1.69658 26.6821 2.03738 26.5401 2.28773 26.2877L7.62106 20.9544L9.5544 19.0211V19.0211L10.5544 18.0211V18.0211L15.2744 13.3411L26.2877 2.32773C26.5527 2.07601 26.7027 1.72655 26.7027 1.36106C26.7027 0.995582 26.5527 0.646123 26.2877 0.394398Z" fill="var(--fill-0, #4BB4E6)"/>
<path id="Path_2" d="M19.2744 3.64773C17.8713 0.909004 14.776 -0.513565 11.7839 0.205172C8.79183 0.92391 6.68042 3.59719 6.6744 6.6744V12.0077C6.67585 13.182 6.98378 14.3356 7.56773 15.3544L19.2744 3.64773Z" fill="var(--fill-0, #4BB4E6)"/>
<path id="Path_3" d="M20.0077 12.0077V10.4344L11.9144 18.5277C12.3839 18.6241 12.8618 18.6732 13.3411 18.6744C17.023 18.6744 20.0077 15.6896 20.0077 12.0077Z" fill="var(--fill-0, #4BB4E6)"/>
<path id="Path_4" d="M6.6744 16.3144C5.81645 15.041 5.3527 13.5431 5.34106 12.0077C5.34106 11.2714 4.74411 10.6744 4.00773 10.6744C3.27135 10.6744 2.6744 11.2714 2.6744 12.0077C2.67107 14.2438 3.37587 16.4236 4.68773 18.2344L6.6744 16.3144Z" fill="var(--fill-0, #4BB4E6)"/>
<path id="Path_5" d="M22.6744 10.6744C21.938 10.6744 21.3411 11.2714 21.3411 12.0077C21.3411 16.426 17.7593 20.0077 13.3411 20.0077C12.4892 20.0126 11.6424 19.8775 10.8344 19.6077L8.7944 21.6477C12.0971 23.204 15.9664 22.9629 19.0504 21.0087C22.1344 19.0545 24.0046 15.6587 24.0077 12.0077C24.0077 11.2714 23.4108 10.6744 22.6744 10.6744Z" fill="var(--fill-0, #4BB4E6)"/>
<path id="Path_6" d="M17.3411 24.0077H9.34106C8.60468 24.0077 8.00773 24.6047 8.00773 25.3411C8.00773 26.0774 8.60468 26.6744 9.34106 26.6744H17.3411C18.0774 26.6744 18.6744 26.0774 18.6744 25.3411C18.6744 24.6047 18.0774 24.0077 17.3411 24.0077Z" fill="var(--fill-0, #4BB4E6)"/>
</g>
</svg>
