<svg preserveAspectRatio="none" width="100%" height="100%" overflow="visible" style="display: block;" viewBox="0 0 27 22" fill="none" xmlns="http://www.w3.org/2000/svg">
<g id="Layer_120">
<path id="Path" d="M25.36 8.12077L16.0267 0.62744V0.62744C15.3372 -0.0188932 14.3245 -0.182392 13.4667 0.214107C12.4323 0.82536 11.8649 1.99691 12.0267 3.18744V7.18744L3.93334 0.827441C3.2555 0.210622 2.27678 0.0536096 1.44001 0.42744C0.893342 0.680774 0.0266751 1.41411 0.0266751 3.38744V18.3874C-0.133076 19.574 0.434487 20.7407 1.46668 21.3474C1.75055 21.4799 2.0601 21.5481 2.37334 21.5474C2.95805 21.5284 3.52026 21.3175 3.97334 20.9474L12.0267 14.5474V18.1874C11.8669 19.374 12.4345 20.5407 13.4667 21.1474C13.7511 21.2782 14.0603 21.3464 14.3733 21.3474C14.9611 21.3318 15.5257 21.1153 15.9733 20.7341L25.36 13.2408C26.1708 12.6397 26.649 11.6901 26.649 10.6808C26.649 9.67147 26.1708 8.72183 25.36 8.12077V8.12077Z" fill="var(--fill-0, #4BB4E6)"/>
</g>
</svg>
