<svg preserveAspectRatio="none" width="100%" height="100%" overflow="visible" style="display: block;" viewBox="0 0 14 14" fill="none" xmlns="http://www.w3.org/2000/svg">
<g id="Layer_55">
<path id="Shape" fill-rule="evenodd" clip-rule="evenodd" d="M11.3333 0H2C0.89543 0 0 0.89543 0 2V11.3333C0 12.4379 0.89543 13.3333 2 13.3333H11.3333C12.4379 13.3333 13.3333 12.4379 13.3333 11.3333V2C13.3333 0.89543 12.4379 0 11.3333 0ZM3.94667 10.2533C3.91494 10.3352 3.86736 10.4099 3.80667 10.4733C3.74187 10.5322 3.66746 10.5796 3.58667 10.6133C3.50652 10.6475 3.42045 10.6656 3.33333 10.6667C3.15682 10.6642 2.98776 10.5952 2.86 10.4733C2.79931 10.4099 2.75173 10.3352 2.72 10.2533C2.64868 10.092 2.64868 9.90803 2.72 9.74667C2.75173 9.66483 2.79931 9.59007 2.86 9.52667C3.05171 9.3375 3.3384 9.28227 3.58667 9.38667C3.66746 9.42043 3.74187 9.46778 3.80667 9.52667C3.86736 9.59007 3.91494 9.66483 3.94667 9.74667C4.01798 9.90803 4.01798 10.092 3.94667 10.2533ZM3.96 6.92C3.97922 6.88221 3.9927 6.84177 4 6.8C4.00327 6.75562 4.00327 6.71105 4 6.66667C3.99754 6.49016 3.92849 6.32109 3.80667 6.19333C3.74187 6.13445 3.66746 6.08709 3.58667 6.05333C3.3384 5.94894 3.05171 6.00417 2.86 6.19333C2.79826 6.25591 2.75054 6.3309 2.72 6.41333C2.68584 6.49348 2.66772 6.57955 2.66667 6.66667C2.66564 6.84387 2.73521 7.01419 2.86 7.14C2.98776 7.26182 3.15682 7.33088 3.33333 7.33333C3.42494 7.33407 3.51572 7.31591 3.6 7.28C3.68079 7.24624 3.7552 7.19889 3.82 7.14L3.9 7.04C3.92523 7.00284 3.94541 6.96248 3.96 6.92ZM3.80667 3.80667C3.74187 3.86555 3.66746 3.91291 3.58667 3.94667C3.50755 3.98399 3.42078 4.00225 3.33333 4C3.15682 3.99754 2.98776 3.92849 2.86 3.80667C2.73521 3.68085 2.66564 3.51054 2.66667 3.33333C2.66772 3.24622 2.68584 3.16015 2.72 3.08C2.75376 2.99921 2.80111 2.9248 2.86 2.86C3.05171 2.67084 3.3384 2.6156 3.58667 2.72C3.66746 2.75376 3.74187 2.80111 3.80667 2.86C3.86555 2.9248 3.91291 2.99921 3.94667 3.08C3.98083 3.16015 3.99895 3.24622 4 3.33333C3.99754 3.50984 3.92849 3.67891 3.80667 3.80667ZM6 10.6667H10C10.3682 10.6667 10.6667 10.3682 10.6667 10C10.6667 9.63181 10.3682 9.33333 10 9.33333H6C5.63181 9.33333 5.33333 9.63181 5.33333 10C5.33333 10.3682 5.63181 10.6667 6 10.6667ZM10 7.33333H6C5.63181 7.33333 5.33333 7.03486 5.33333 6.66667C5.33333 6.29848 5.63181 6 6 6H10C10.3682 6 10.6667 6.29848 10.6667 6.66667C10.6667 7.03486 10.3682 7.33333 10 7.33333ZM6 4H10C10.3682 4 10.6667 3.70152 10.6667 3.33333C10.6667 2.96514 10.3682 2.66667 10 2.66667H6C5.63181 2.66667 5.33333 2.96514 5.33333 3.33333C5.33333 3.70152 5.63181 4 6 4Z" fill="var(--fill-0, #4BB4E6)"/>
</g>
</svg>
