<svg preserveAspectRatio="none" width="100%" height="100%" overflow="visible" style="display: block;" viewBox="0 0 27 27" fill="none" xmlns="http://www.w3.org/2000/svg">
<g id="Layer_46">
<path id="Shape" fill-rule="evenodd" clip-rule="evenodd" d="M4 0H22.6667C24.8758 0 26.6667 1.79086 26.6667 4V22.6667C26.6667 24.8758 24.8758 26.6667 22.6667 26.6667H4C1.79086 26.6667 0 24.8758 0 22.6667V4C0 1.79086 1.79086 0 4 0ZM11 19.5067L20.9467 8.92C21.398 8.39681 21.3748 7.61555 20.8933 7.12C20.643 6.86758 20.3022 6.7256 19.9467 6.7256C19.5912 6.7256 19.2504 6.86758 19 7.12L10.0267 16.6667L7.68 14.1733C7.36406 13.7868 6.85865 13.6091 6.37033 13.7129C5.88201 13.8168 5.4926 14.1847 5.36126 14.6663C5.22991 15.148 5.37865 15.6627 5.74667 16L9.05333 19.5067C9.30694 19.7727 9.65912 19.9223 10.0267 19.92C10.3942 19.9223 10.7464 19.7727 11 19.5067Z" fill="var(--fill-0, #4BB4E6)"/>
</g>
</svg>
