<svg preserveAspectRatio="none" width="100%" height="100%" overflow="visible" style="display: block;" viewBox="0 0 14 11" fill="none" xmlns="http://www.w3.org/2000/svg">
<g id="Layer_119">
<path id="Path" d="M12.6667 0.200053C12.1731 -0.0662998 11.5743 -0.0459148 11.1 0.253387L4.27333 4.00005C3.73406 4.2322 3.3708 4.74747 3.33333 5.33339C3.36588 5.91318 3.71779 6.42691 4.24667 6.66672L11.0667 10.4201C11.3324 10.5744 11.6328 10.6593 11.94 10.6667C12.1748 10.6643 12.4048 10.5999 12.6067 10.4801C13.0844 10.1792 13.3623 9.64383 13.3333 9.08005V1.59339C13.3755 1.04328 13.1215 0.512349 12.6667 0.200053Z" fill="var(--fill-0, #4BB4E6)"/>
<path id="Path_2" d="M1.68 5.34086e-05C1.23567 -0.00350137 0.80831 0.170523 0.49286 0.48347C0.17741 0.796416 -1.42185e-05 1.22237 8.54624e-10 1.66672V9.00005C8.54624e-10 9.92053 0.746192 10.6667 1.66667 10.6667C2.58714 10.6667 3.33333 9.92053 3.33333 9.00005V1.66672C3.33336 0.751427 2.59526 0.00737575 1.68 5.34086e-05Z" fill="var(--fill-0, #4BB4E6)"/>
</g>
</svg>
