<svg preserveAspectRatio="none" width="100%" height="100%" overflow="visible" style="display: block;" viewBox="0 0 27 22" fill="none" xmlns="http://www.w3.org/2000/svg">
<g id="Layer_121">
<path id="Path" d="M25.2533 0.419259C24.4161 0.0489858 23.4394 0.205675 22.76 0.819259L14.6933 7.20593V3.20593C14.869 1.99929 14.2868 0.808375 13.2267 0.205926C12.376 -0.178534 11.3777 -0.0156596 10.6933 0.619259L1.28 8.11259C0.474221 8.71693 0 9.66537 0 10.6726C0 11.6798 0.474221 12.6283 1.28 13.2326L10.6933 20.7259C11.1387 21.111 11.7047 21.328 12.2933 21.3393C12.6021 21.3384 12.907 21.2702 13.1867 21.1393C14.2445 20.5512 14.8404 19.3806 14.6933 18.1793V14.5393L22.6933 20.9393C23.15 21.3121 23.7174 21.5231 24.3067 21.5393C24.6156 21.5398 24.9208 21.4714 25.2 21.3393C26.2583 20.7528 26.8505 19.5789 26.6933 18.3793V3.37926C26.6933 1.40593 25.8 0.672593 25.2533 0.419259Z" fill="var(--fill-0, #4BB4E6)"/>
</g>
</svg>
