<svg preserveAspectRatio="none" width="100%" height="100%" overflow="visible" style="display: block;" viewBox="0 0 15 10" fill="none" xmlns="http://www.w3.org/2000/svg">
<path id="Vector" d="M6.44522 9.83215C6.59582 9.93263 6.77088 9.99034 6.95171 9.99912C7.13254 10.0079 7.31236 9.96743 7.47199 9.88202C7.63162 9.79661 7.76507 9.66947 7.8581 9.51416C7.95113 9.35885 8.00025 9.18119 8.00022 9.00015V6.20215L13.4452 9.83215C13.5958 9.93263 13.7709 9.99034 13.9517 9.99912C14.1325 10.0079 14.3124 9.96743 14.472 9.88202C14.6316 9.79661 14.7651 9.66947 14.8581 9.51416C14.9511 9.35885 15.0003 9.18119 15.0002 9.00015V1.00015C15.0003 0.819107 14.9511 0.641453 14.8581 0.486141C14.7651 0.330829 14.6316 0.203685 14.472 0.118276C14.3124 0.032866 14.1325 -0.00760575 13.9517 0.00117785C13.7709 0.00996145 13.5958 0.0676712 13.4452 0.16815L8.00022 3.79815V1.00015C8.00025 0.819107 7.95113 0.641453 7.8581 0.486141C7.76507 0.330829 7.63162 0.203685 7.47199 0.118276C7.31236 0.032866 7.13254 -0.00760575 6.95171 0.00117785C6.77088 0.00996145 6.59582 0.0676712 6.44522 0.16815L0.445224 4.16815C0.308267 4.25947 0.195971 4.38319 0.118304 4.52833C0.0406368 4.67347 0 4.83554 0 5.00015C0 5.16476 0.0406368 5.32683 0.118304 5.47197C0.195971 5.61711 0.308267 5.74083 0.445224 5.83215L6.44522 9.83215V9.83215Z" fill="var(--fill-0, #111928)"/>
</svg>
