<svg preserveAspectRatio="none" width="100%" height="100%" overflow="visible" style="display: block;" viewBox="0 0 11 12" fill="none" xmlns="http://www.w3.org/2000/svg">
<path id="Vector" fill-rule="evenodd" clip-rule="evenodd" d="M0.887096 5C0.887096 3.67392 1.41388 2.40215 2.35156 1.46447C3.28924 0.526784 4.56101 0 5.8871 0C7.21318 0 8.48495 0.526784 9.42263 1.46447C10.3603 2.40215 10.8871 3.67392 10.8871 5C10.8871 5.26522 10.7817 5.51957 10.5942 5.70711C10.4067 5.89464 10.1523 6 9.8871 6C9.62188 6 9.36753 5.89464 9.17999 5.70711C8.99245 5.51957 8.8871 5.26522 8.8871 5C8.8871 4.20435 8.57103 3.44129 8.00842 2.87868C7.44581 2.31607 6.68275 2 5.8871 2C5.09145 2 4.32838 2.31607 3.76578 2.87868C3.20317 3.44129 2.8871 4.20435 2.8871 5C2.8871 6.677 2.5421 8.276 1.9191 9.729C1.81447 9.97273 1.6173 10.1649 1.37097 10.2633C1.12464 10.3616 0.84933 10.3581 0.605596 10.2535C0.361862 10.1489 0.169674 9.95171 0.0713109 9.70538C-0.0270519 9.45905 -0.0235323 9.18373 0.0810956 8.94C0.614764 7.6951 0.889016 6.35446 0.887096 5V5ZM9.80809 7.012C9.93786 7.03257 10.0623 7.07851 10.1743 7.14719C10.2863 7.21588 10.3837 7.30596 10.4609 7.4123C10.538 7.51863 10.5935 7.63913 10.6241 7.76691C10.6547 7.89469 10.6598 8.02725 10.6391 8.157C10.5087 8.97962 10.3267 9.79323 10.0941 10.593C10.0599 10.7219 10.0003 10.8426 9.91884 10.9481C9.83733 11.0536 9.73556 11.1417 9.6195 11.2073C9.50344 11.2729 9.37543 11.3146 9.24302 11.33C9.1106 11.3454 8.97643 11.3342 8.84842 11.297C8.7204 11.2598 8.60112 11.1973 8.49758 11.1134C8.39404 11.0294 8.30834 10.9256 8.24551 10.808C8.18269 10.6904 8.144 10.5615 8.13174 10.4287C8.11947 10.296 8.13387 10.1621 8.1741 10.035C8.3811 9.322 8.5451 8.59 8.6641 7.843C8.70588 7.5813 8.84984 7.34689 9.06434 7.19127C9.27884 7.03564 9.54635 6.97152 9.80809 7.013V7.012Z" fill="var(--fill-0, #111928)"/>
</svg>
