<svg preserveAspectRatio="none" width="100%" height="100%" overflow="visible" style="display: block;" viewBox="0 0 27 27" fill="none" xmlns="http://www.w3.org/2000/svg">
<g id="Layer_73">
<circle id="Oval" cx="13.3333" cy="13.3333" r="1.33333" fill="var(--fill-0, #4BB4E6)"/>
<path id="Shape" fill-rule="evenodd" clip-rule="evenodd" d="M23.9067 12H25.3333C26.0697 12 26.6667 12.597 26.6667 13.3333C26.6667 14.0697 26.0697 14.6667 25.3333 14.6667H23.9067C23.2946 19.4936 19.4936 23.2946 14.6667 23.9067V25.3333C14.6667 26.0697 14.0697 26.6667 13.3333 26.6667C12.597 26.6667 12 26.0697 12 25.3333V23.9067C7.17308 23.2946 3.37211 19.4936 2.76 14.6667H1.33333C0.596954 14.6667 0 14.0697 0 13.3333C0 12.597 0.596954 12 1.33333 12H2.76C3.37211 7.17308 7.17308 3.37211 12 2.76V1.33333C12 0.596954 12.597 0 13.3333 0C14.0697 0 14.6667 0.596954 14.6667 1.33333V2.76C19.4936 3.37211 23.2946 7.17308 23.9067 12ZM9.33333 13.3333C9.33333 15.5425 11.1242 17.3333 13.3333 17.3333C14.3942 17.3333 15.4116 16.9119 16.1618 16.1618C16.9119 15.4116 17.3333 14.3942 17.3333 13.3333C17.3333 11.1242 15.5425 9.33333 13.3333 9.33333C11.1242 9.33333 9.33333 11.1242 9.33333 13.3333Z" fill="var(--fill-0, #4BB4E6)"/>
</g>
</svg>
