<svg preserveAspectRatio="none" width="100%" height="100%" overflow="visible" style="display: block;" viewBox="0 0 14 14" fill="none" xmlns="http://www.w3.org/2000/svg">
<g id="Layer_122">
<path id="Path" d="M5.33464 2.03443V0.667759C5.33506 0.408913 5.18561 0.173222 4.9513 0.0632124C4.717 -0.0467969 4.44019 -0.0112361 4.2413 0.154426L0.241304 3.48776C0.0884572 3.61441 0 3.80259 0 4.00109C0 4.19959 0.0884572 4.38777 0.241304 4.51443L4.2413 7.84776C4.36125 7.94715 4.5122 8.0014 4.66797 8.00109C4.76455 8.00161 4.86009 7.98114 4.94797 7.94109C5.18427 7.83173 5.33528 7.59481 5.33464 7.33443V6.03443C7.99843 6.29512 10.2767 8.06023 11.1946 10.5744L12.0413 12.8944C12.1367 13.1584 12.3873 13.3343 12.668 13.3344C12.7054 13.3413 12.7438 13.3413 12.7813 13.3344C13.1047 13.2787 13.3394 12.9959 13.3346 12.6678V10.6678C13.3306 6.14281 9.84618 2.3825 5.33464 2.03443Z" fill="var(--fill-0, #4BB4E6)"/>
</g>
</svg>
