<svg preserveAspectRatio="none" width="100%" height="100%" overflow="visible" style="display: block;" viewBox="0 0 20 20" fill="none" xmlns="http://www.w3.org/2000/svg">
<path id="Vector (Stroke)" fill-rule="evenodd" clip-rule="evenodd" d="M9.46967 0.46967C9.76256 0.176777 10.2374 0.176777 10.5303 0.46967L15.0303 4.96967C15.3232 5.26256 15.3232 5.73744 15.0303 6.03033C14.7374 6.32322 14.2626 6.32322 13.9697 6.03033L10.75 2.81066L10.75 14.5C10.75 14.9142 10.4142 15.25 10 15.25C9.58579 15.25 9.25 14.9142 9.25 14.5L9.25 2.81066L6.03033 6.03033C5.73744 6.32322 5.26256 6.32322 4.96967 6.03033C4.67678 5.73744 4.67678 5.26256 4.96967 4.96967L9.46967 0.46967ZM1 13.75C1.41421 13.75 1.75 14.0858 1.75 14.5V16.75C1.75 17.5784 2.42157 18.25 3.25 18.25H16.75C17.5784 18.25 18.25 17.5784 18.25 16.75V14.5C18.25 14.0858 18.5858 13.75 19 13.75C19.4142 13.75 19.75 14.0858 19.75 14.5V16.75C19.75 18.4069 18.4069 19.75 16.75 19.75H3.25C1.59315 19.75 0.25 18.4069 0.25 16.75V14.5C0.25 14.0858 0.585786 13.75 1 13.75Z" fill="var(--fill-0, #111928)" stroke="var(--stroke-0, #111928)" stroke-width="0.5" stroke-linecap="round" stroke-linejoin="round"/>
</svg>
