<svg preserveAspectRatio="none" width="100%" height="100%" overflow="visible" style="display: block;" viewBox="0 0 9 9" fill="none" xmlns="http://www.w3.org/2000/svg">
<path id="Vector" fill-rule="evenodd" clip-rule="evenodd" d="M5.0002 4.08742e-08C4.29487 -0.000100778 3.60204 0.186307 2.99199 0.540323C2.38193 0.89434 1.87633 1.40338 1.52645 2.01582C1.17657 2.62826 0.994852 3.32232 0.999727 4.02764C1.0046 4.73296 1.19589 5.42445 1.5542 6.032L0.293203 7.292C0.200292 7.38484 0.126579 7.49508 0.0762714 7.61641C0.0259636 7.73775 4.64937e-05 7.8678 6.24981e-08 7.99915C-4.63688e-05 8.13049 0.0257788 8.26057 0.0760008 8.38194C0.126223 8.5033 0.199858 8.61359 0.292703 8.7065C0.385547 8.79941 0.495783 8.87312 0.617115 8.92343C0.738447 8.97374 0.868501 8.99966 0.999849 8.9997C1.1312 8.99975 1.26127 8.97392 1.38264 8.9237C1.50401 8.87348 1.61429 8.79985 1.7072 8.707L2.9682 7.446C3.49805 7.75828 4.09277 7.94418 4.70614 7.98925C5.31951 8.03431 5.93502 7.93733 6.50482 7.70584C7.07461 7.47434 7.58335 7.11458 7.9915 6.6545C8.39965 6.19441 8.6962 5.64641 8.85812 5.05308C9.02004 4.45975 9.04296 3.83708 8.9251 3.23345C8.80723 2.62982 8.55177 2.0615 8.17855 1.57266C7.80533 1.08382 7.32441 0.687628 6.77317 0.414873C6.22194 0.142118 5.61523 0.000149172 5.0002 4.08742e-08ZM3.0002 4C3.0002 3.46957 3.21092 2.96086 3.58599 2.58579C3.96106 2.21071 4.46977 2 5.0002 2C5.53064 2 6.03934 2.21071 6.41442 2.58579C6.78949 2.96086 7.0002 3.46957 7.0002 4C7.0002 4.53043 6.78949 5.03914 6.41442 5.41421C6.03934 5.78929 5.53064 6 5.0002 6C4.46977 6 3.96106 5.78929 3.58599 5.41421C3.21092 5.03914 3.0002 4.53043 3.0002 4Z" fill="var(--fill-0, #111928)"/>
</svg>
