<svg preserveAspectRatio="none" width="100%" height="100%" overflow="visible" style="display: block;" viewBox="0 0 27 27" fill="none" xmlns="http://www.w3.org/2000/svg">
<g id="Layer_22">
<path id="Shape" fill-rule="evenodd" clip-rule="evenodd" d="M4 0H22.6667C24.8758 0 26.6667 1.79086 26.6667 4V22.6667C26.6667 24.8758 24.8758 26.6667 22.6667 26.6667H4C1.79086 26.6667 0 24.8758 0 22.6667V4C0 1.79086 1.79086 0 4 0ZM11.6 19.6L16.9333 14.2667C17.4577 13.754 17.4697 12.914 16.96 12.3867L11.6267 7.05333C11.2908 6.71512 10.8001 6.58176 10.3393 6.7035C9.87846 6.82523 9.51759 7.18355 9.3926 7.6435C9.26762 8.10344 9.3975 8.59512 9.73333 8.93333L14.1067 13.3333L9.72 17.72C9.20304 18.24 9.20304 19.08 9.72 19.6C10.2401 20.117 11.08 20.117 11.6 19.6Z" fill="var(--fill-0, #4BB4E6)"/>
</g>
</svg>
