<svg preserveAspectRatio="none" width="100%" height="100%" overflow="visible" style="display: block;" viewBox="0 0 20 20" fill="none" xmlns="http://www.w3.org/2000/svg">
<g id="Layer_92">
<path id="Path" d="M19.0874 0.892448C18.5237 0.321423 17.7548 0 16.9524 0C16.15 0 15.3811 0.321423 14.8174 0.892448L12.8974 2.84245L17.1374 7.08245L19.0574 5.16245C19.6324 4.60279 19.9592 3.8361 19.9649 3.03372C19.9705 2.23133 19.6545 1.46013 19.0874 0.892448Z" fill="var(--fill-0, #4BB4E6)"/>
<path id="Path_2" d="M11.4774 4.26245L3.08738 12.6524C3.01216 12.7298 2.9482 12.8173 2.89738 12.9124L0.117376 18.5224C-0.0466397 18.8304 -0.0382841 19.2016 0.139424 19.5018C0.317131 19.8021 0.638493 19.988 0.987376 19.9924C1.13975 19.9931 1.29024 19.9589 1.42738 19.8924L7.03738 17.1124C7.13253 17.0616 7.22005 16.9977 7.29738 16.9224L15.6874 8.53245L11.4774 4.26245Z" fill="var(--fill-0, #4BB4E6)"/>
<path id="Path_3" d="M18.9874 19.9924H9.98738C9.43509 19.9924 8.98738 19.5447 8.98738 18.9924C8.98738 18.4402 9.43509 17.9924 9.98738 17.9924H18.9874C19.5397 17.9924 19.9874 18.4402 19.9874 18.9924C19.9874 19.5447 19.5397 19.9924 18.9874 19.9924Z" fill="var(--fill-0, #4BB4E6)"/>
</g>
</svg>
