<svg preserveAspectRatio="none" width="100%" height="100%" overflow="visible" style="display: block;" viewBox="0 0 26 26" fill="none" xmlns="http://www.w3.org/2000/svg">
<g id="Layer_50">
<circle id="Oval" cx="17.5565" cy="8" r="1.33333" fill="var(--fill-0, #4BB4E6)"/>
<path id="Shape" fill-rule="evenodd" clip-rule="evenodd" d="M13.3298 0H21.5565C23.7656 0 25.5565 1.79086 25.5565 4V12.2267C25.5555 13.2872 25.1335 14.3039 24.3831 15.0533L15.0498 24.3867C13.4881 25.9464 10.9582 25.9464 9.39648 24.3867L1.16981 16.16C-0.389938 14.5983 -0.389938 12.0684 1.16981 10.5067L10.5031 1.17333C11.2526 0.422973 12.2693 0.000933611 13.3298 0ZM13.5565 8C13.5565 10.2091 15.3473 12 17.5565 12C19.7656 12 21.5565 10.2091 21.5565 8C21.5565 5.79086 19.7656 4 17.5565 4C15.3473 4 13.5565 5.79086 13.5565 8Z" fill="var(--fill-0, #4BB4E6)"/>
</g>
</svg>
