<svg preserveAspectRatio="none" width="100%" height="100%" overflow="visible" style="display: block;" viewBox="0 0 14 14" fill="none" xmlns="http://www.w3.org/2000/svg">
<g id="Layer_126">
<path id="Shape" fill-rule="evenodd" clip-rule="evenodd" d="M0 6.66667C0 2.98477 2.98477 0 6.66667 0C8.43478 0 10.1305 0.702379 11.3807 1.95262C12.631 3.20286 13.3333 4.89856 13.3333 6.66667C13.3333 10.3486 10.3486 13.3333 6.66667 13.3333C2.98477 13.3333 0 10.3486 0 6.66667ZM9.03333 7.81333L10.4533 6.36C10.6307 6.18166 10.6925 5.9187 10.6133 5.68C10.5335 5.44281 10.3275 5.27031 10.08 5.23333L8.14 4.93333L7.27333 3.04667C7.16203 2.81296 6.92551 2.66481 6.66667 2.66667C6.39997 2.67068 6.16133 2.83327 6.06 3.08L5.18667 4.93333L3.24667 5.23333C2.99818 5.26943 2.79105 5.44209 2.7108 5.68002C2.63056 5.91794 2.6908 6.18078 2.86667 6.36L4.29333 7.8L3.95333 9.86667C3.90617 10.1232 4.01297 10.3837 4.22667 10.5333C4.34 10.6124 4.47512 10.6544 4.61333 10.6533C4.72585 10.6537 4.83638 10.6238 4.93333 10.5667L6.66667 9.61333L8.38667 10.58C8.60918 10.7051 8.88358 10.6922 9.09333 10.5467C9.30703 10.3971 9.41383 10.1366 9.36667 9.88L9.03333 7.81333Z" fill="var(--fill-0, #4BB4E6)"/>
</g>
</svg>
